<svg width="59" height="59" viewBox="0 0 59 59" fill="none" xmlns="http://www.w3.org/2000/svg">
<g id="Frame" clip-path="url(#clip0_0_193)">
<path id="Vector" d="M48.4279 29.3906C48.4279 18.4299 39.641 9.51256 28.8405 9.51256C18.0399 9.51256 9.25297 18.4299 9.25297 29.3906C9.25297 34.5518 11.2018 39.2593 14.391 42.7965L10.2255 47.0239C9.61794 47.6404 10.0567 48.6894 10.9053 48.6894C11.1513 48.6894 11.3974 48.5941 11.5851 48.4037L15.7566 44.1702C19.2471 47.3558 23.8416 49.269 28.8415 49.2688C39.6417 49.268 48.4279 40.351 48.4279 29.3906ZM38.2929 28.4149H29.8018V12.3794C32.4781 14.5237 37.903 19.8932 38.2929 28.4149ZM27.8791 11.4906V28.4149H19.3893C19.6648 22.5235 22.3885 18.1533 24.6941 15.4773C25.0435 15.0717 25.0028 14.4554 24.603 14.1007C24.2034 13.746 23.5961 13.7874 23.2466 14.193C20.7235 17.1215 17.7409 21.9199 17.4649 28.4149H11.2021C11.6859 19.3052 18.9025 11.9816 27.8791 11.4906ZM11.2021 30.3663H17.4641C17.8114 38.651 22.5164 44.2204 25.6274 47.0193C17.7743 45.5488 11.6474 38.7525 11.2021 30.3663ZM19.3874 30.3663H27.8791V46.3923C23.1222 42.5602 19.6857 36.943 19.3874 30.3663ZM29.8018 47.2907V30.3663H38.2913C38.0069 36.4626 35.1102 40.9443 32.6587 43.6768C32.3012 44.0751 32.3298 44.6922 32.7224 45.0549C33.115 45.4176 33.723 45.3887 34.0804 44.9902C36.7612 42.0022 39.9313 37.0847 40.216 30.3663H43.2607C43.7915 30.3663 44.2221 29.9294 44.2221 29.3906C44.2221 28.8518 43.7915 28.4149 43.2607 28.4149H40.217C39.8702 20.1322 35.1672 14.5622 32.0574 11.7627C40.2671 13.3019 46.5052 20.6205 46.5052 29.3906C46.5052 38.9482 39.0969 46.7823 29.8018 47.2907ZM50.4631 50.0763L45.8031 45.3471C45.4277 44.966 44.819 44.966 44.4436 45.3471C44.0681 45.728 44.0681 46.3457 44.4436 46.7267L49.1296 51.4822C47.2115 54.5951 49.4295 58.6589 53.0544 58.6589C55.6055 58.6589 57.6809 56.5528 57.6809 53.9638C57.6809 50.1958 53.511 47.9771 50.4631 50.0763ZM53.0544 56.7077C51.5634 56.7077 50.3506 55.4768 50.3506 53.9638C50.3506 52.4508 51.5634 51.2199 53.0544 51.2199C54.5454 51.2199 55.7582 52.4508 55.7582 53.9638C55.7582 55.4768 54.5454 56.7077 53.0544 56.7077ZM7.07168 8.80061L11.7577 13.5561C12.1332 13.9372 12.7417 13.9371 13.1171 13.5561C13.4926 13.1751 13.4926 12.5574 13.1171 12.1765L8.45722 7.44719C10.5256 4.35414 8.33909 0.122314 4.62649 0.122314C2.07543 0.122314 0 2.22853 0 4.81743C0 8.50134 4.00978 10.7434 7.07168 8.80061ZM4.62649 2.07353C6.11742 2.07353 7.33028 3.30439 7.33028 4.81743C7.33028 6.33049 6.11742 7.56133 4.62649 7.56133C3.13556 7.56133 1.92269 6.33049 1.92269 4.81743C1.92269 3.30439 3.13556 2.07353 4.62649 2.07353ZM4.62649 49.2686C2.07543 49.2686 0 51.3749 0 53.9638C0 56.5528 2.07543 58.6589 4.62649 58.6589C7.17755 58.6589 9.25297 56.5528 9.25297 53.9638C9.25297 51.3749 7.17755 49.2686 4.62649 49.2686ZM4.62649 56.7077C3.13556 56.7077 1.92269 55.4768 1.92269 53.9638C1.92269 52.4508 3.13556 51.2199 4.62649 51.2199C6.11742 51.2199 7.33028 52.4508 7.33028 53.9638C7.33028 55.4768 6.11742 56.7077 4.62649 56.7077ZM45.8031 13.4341L50.4631 8.70499C53.511 10.804 57.6809 8.58512 57.6809 4.81743C57.6809 2.22853 55.6055 0.122314 53.0544 0.122314C49.4243 0.122314 47.2151 4.19159 49.1294 7.2989L44.4436 12.0544C44.068 12.4354 44.068 13.053 44.4436 13.434C44.819 13.8151 45.4277 13.8151 45.8031 13.4341ZM53.0544 2.07353C54.5454 2.07353 55.7582 3.30439 55.7582 4.81743C55.7582 6.33049 54.5454 7.56133 53.0544 7.56133C51.5634 7.56133 50.3506 6.33049 50.3506 4.81743C50.3506 3.30439 51.5634 2.07353 53.0544 2.07353Z" fill="#130032"/>
</g>
<defs>
<clipPath id="clip0_0_193">
<rect width="59" height="58.5366" fill="white" transform="translate(0 0.122314)"/>
</clipPath>
</defs>
</svg>
