<svg width="60" height="61" viewBox="0 0 60 61" fill="none" xmlns="http://www.w3.org/2000/svg">
<g id="Frame" clip-path="url(#clip0_0_214)">
<g id="Clip path group">
<mask id="mask0_0_214" style="mask-type:luminance" maskUnits="userSpaceOnUse" x="0" y="0" width="60" height="61">
<g id="clip0_330_2691">
<path id="Vector" d="M60 0.122314H0V60.1223H60V0.122314Z" fill="white"/>
</g>
</mask>
<g mask="url(#mask0_0_214)">
<g id="Group">
<path id="Vector_2" fill-rule="evenodd" clip-rule="evenodd" d="M36.2696 15.849C35.7774 16.1184 35.7421 16.2591 35.7421 18.3567C35.7421 19.47 35.7774 20.4661 35.8125 20.5716C35.9532 20.9349 36.5038 21.099 37.6171 21.099H38.672V22.095C38.672 23.0677 38.672 23.0911 38.3907 23.0911C37.8984 23.0911 35.4726 23.7591 34.3593 24.2044C33.0351 24.7434 31.5234 25.599 30.2343 26.5482C29.1212 27.3802 27.5391 28.9504 27.5391 29.22C27.5391 29.8411 28.2071 30.345 28.7462 30.1341C28.8867 30.0754 29.2383 29.7825 29.5312 29.4778C29.8242 29.1732 30.4805 28.599 30.9962 28.2004C33.1054 26.5482 35.3321 25.5169 38.0038 24.9427C39.5976 24.6028 42.8907 24.5677 44.4492 24.8841C49.3476 25.8684 53.6016 28.9036 56.0274 33.1341C59.25 38.7708 58.8867 45.9427 55.1133 51.2512C54.2461 52.4817 52.3594 54.3684 51.1288 55.2357C49.2304 56.5833 46.8633 57.5911 44.4141 58.095C43.0312 58.3762 39.7032 58.3762 38.3204 58.095C34.7579 57.3567 31.9688 55.8684 29.4141 53.3254C27.0234 50.9466 25.4532 47.9817 24.7617 44.5716C24.4453 43.0129 24.4804 39.72 24.8204 38.1262C25.1484 36.6379 25.6524 35.1732 26.3204 33.849C26.6016 33.2865 26.8359 32.6887 26.8359 32.5246C26.8359 31.7865 25.7929 31.4817 25.3125 32.0794C24.5625 33.0286 23.4961 35.8528 23.0625 38.0208C22.6875 39.8958 22.6875 43.095 23.0625 44.97C24.5742 52.4934 30.2461 58.177 37.8516 59.7825C39.5038 60.1341 42.8321 60.1692 44.5899 59.8411C55.7929 57.802 62.6133 46.3411 59.0157 35.595C58.5587 34.2004 57.7734 32.595 56.9413 31.2825C56.625 30.7903 56.3671 30.345 56.3671 30.2982C56.3671 30.2395 56.8712 29.6887 57.4805 29.0559C58.2422 28.2942 58.5938 27.8371 58.5938 27.6615C58.5938 27.345 55.7579 24.4036 55.3595 24.3099C54.9726 24.2161 54.6446 24.427 53.5312 25.5286L52.5117 26.5246L51.5976 25.927C49.6992 24.6849 46.8984 23.5365 44.9179 23.1966L44.0625 23.0559V22.0716V21.099H45.1171C46.2774 21.099 46.6641 20.9817 46.8633 20.5482C46.9454 20.3841 46.9921 19.5169 46.9921 18.4036C46.9921 16.4115 46.9101 16.0482 46.4413 15.8371C46.0546 15.6615 36.5976 15.6615 36.2696 15.849ZM45.2345 18.4036V19.3411H41.3671H37.5V18.4036V17.4661H41.3671H45.2345V18.4036ZM42.3046 21.9778V22.8567H41.3671H40.4296V21.9778V21.099H41.3671H42.3046V21.9778ZM55.8399 27.0754L56.4141 27.6615L55.7812 28.3059L55.1484 28.9504L54.5274 28.3411L53.9062 27.7317L54.5157 27.1107C54.8554 26.7708 55.1601 26.4895 55.1954 26.4895C55.2305 26.4895 55.5234 26.7591 55.8399 27.0754ZM1.0427 1.1774C1.49973 0.720365 1.87473 0.462552 2.28489 0.333647C2.81223 0.157865 4.03098 0.134427 15.4684 0.157865L28.0662 0.181302L28.5583 0.450834C29.3318 0.86099 29.8475 1.37661 30.1989 2.09146C30.5154 2.72427 30.5271 2.85318 30.5622 4.69302C30.6091 6.53286 30.5974 6.63834 30.3513 6.94302C30.0349 7.35318 29.4138 7.38834 29.0622 7.03677C28.8513 6.82584 28.8279 6.65005 28.8279 5.06802C28.8279 3.49771 28.8043 3.28677 28.57 2.81802C28.5336 2.74848 28.5048 2.68407 28.4781 2.62443C28.438 2.535 28.4028 2.45626 28.354 2.38695C27.9954 1.87629 26.9091 1.87668 17.8199 1.87993H17.808H17.7952H17.7819H17.7675H17.7523H17.7361H17.7191H17.7009H17.6817H17.6614H17.64C16.9095 1.88023 16.1283 1.88052 15.2927 1.88052C3.92551 1.88052 3.08176 1.89223 2.70676 2.09146C2.48411 2.19693 2.19114 2.44302 2.06223 2.6188C1.81659 2.94633 1.81614 3.06367 1.78118 12.1779L1.78098 12.2282C1.75755 18.6384 1.78098 21.6501 1.87473 21.943C1.95676 22.2126 2.15598 22.5055 2.42551 22.7047L2.84739 23.0329L6.67943 23.0914L10.4997 23.1501L11.0154 23.5602C11.3083 23.7829 12.0935 24.4039 12.7732 24.943L14.0036 25.9275L14.0622 24.7321C14.0703 24.5769 14.0724 24.4362 14.0743 24.3088C14.0793 23.9689 14.0829 23.7231 14.1948 23.5453C14.488 23.0797 15.524 23.0818 19.2738 23.0893H19.277H19.2787C19.8016 23.0904 20.3776 23.0914 21.0114 23.0914C27.1755 23.0914 27.363 23.0797 27.8434 22.8454C28.2067 22.6696 28.406 22.4704 28.5818 22.1071C28.8162 21.6267 28.8279 21.4275 28.8279 15.9196C28.8279 10.6579 28.8396 10.2126 29.0388 9.97818C29.3434 9.59146 29.9646 9.61489 30.3162 10.0133L30.5975 10.3415L30.5622 16.2829C30.5271 21.6618 30.5037 22.2594 30.3162 22.6696C29.9763 23.443 29.3435 24.111 28.6168 24.4626L27.9489 24.7906L21.8904 24.8259L15.82 24.861V26.4664C15.82 28.2243 15.738 28.5055 15.1755 28.6462C15.0114 28.693 14.7654 28.6579 14.6247 28.5876C14.4841 28.5055 13.3591 27.6501 12.1404 26.6775L9.9138 24.9079L6.26927 24.8493C2.7888 24.7906 2.61301 24.7789 2.05051 24.5212C1.31223 24.1813 0.773171 23.6656 0.374733 22.9156L0.058327 22.3297L0.0231708 12.7204L0.0176949 11.0915C-0.00850871 3.53379 -0.0124315 2.40235 0.534956 1.70151C0.631329 1.57812 0.744793 1.46808 0.878235 1.33865C0.929995 1.28846 0.984762 1.23534 1.0427 1.1774ZM17.4961 6.2392C18.5976 5.1142 19.6758 4.12983 19.8633 4.03608C20.0625 3.95404 20.2266 3.88372 20.25 3.87201C20.6836 3.82513 22.9804 6.19233 23.4375 7.18842C24.0938 8.58295 24.0938 10.1884 23.4258 11.6064C23.1094 12.2861 22.6641 12.7783 19.0079 16.4229C14.5898 20.8173 14.4375 20.9346 12.8672 21.2275C12.2695 21.333 11.8945 21.333 11.2969 21.2392C9.98438 21.0166 9.24609 20.5713 7.81641 19.1298C7.125 18.4267 6.5625 17.7588 6.5625 17.6533C6.5625 17.2314 6.96093 16.7626 8.92968 14.7939L9.09506 14.63C10.4788 13.2586 11.0136 12.7285 11.484 12.7806C11.7804 12.8134 12.0512 13.0774 12.4926 13.5076L12.5859 13.5986L13.4297 14.4072L15.2344 12.6025L17.0391 10.7978L16.2539 9.96576L16.1962 9.90484C15.7545 9.43809 15.4832 9.15139 15.4512 8.84011C15.4002 8.34459 15.9555 7.78671 17.3951 6.34077L17.4961 6.2392ZM22.1719 9.39154C22.1719 8.39545 21.8907 7.78608 21.0234 6.81342C20.6601 6.41497 20.3321 6.09858 20.2851 6.09858C20.25 6.09858 19.6171 6.69622 18.8907 7.42279L17.5782 8.74701L18.0469 9.20404C18.8554 9.9892 19.0664 10.7626 18.6796 11.5244C18.4571 11.9462 15.1875 15.3213 14.4844 15.8368C14.1445 16.0947 13.8984 16.1767 13.5117 16.1767C12.8672 16.1767 12.6211 16.0596 11.9531 15.4033L11.4141 14.8876L10.0781 16.2354L8.74218 17.583L9.36329 18.2158C10.3008 19.165 11.0039 19.5048 12.0117 19.5048C13.4414 19.5166 13.5352 19.4463 17.8359 15.1455C22.1016 10.8798 22.1719 10.7978 22.1719 9.39154ZM33.3044 28.7286C35.2028 27.5685 37.4879 26.7598 39.609 26.4903C40.7457 26.3497 42.9372 26.4318 44.1559 26.6661C47.0739 27.2169 49.6051 28.5528 51.8082 30.6739C54.4801 33.2637 55.9566 36.2989 56.3669 40.084C56.6481 42.627 56.1324 45.5098 54.9489 47.9943C52.9098 52.2832 48.6559 55.5294 44.0622 56.3145C41.2965 56.7715 39.2691 56.631 36.5973 55.7637C34.4761 55.084 32.6598 53.9824 30.9489 52.3419C25.7457 47.338 24.7965 39.6387 28.6052 33.4278C29.484 32.0215 31.8981 29.6074 33.3044 28.7286ZM54.4449 38.9943C53.4372 33.7677 49.3824 29.6193 44.1677 28.4707C42.9489 28.213 40.9215 28.1074 39.7262 28.2598C37.8512 28.4824 35.4606 29.3848 33.8669 30.4747C32.9059 31.131 31.4293 32.5372 30.691 33.5098C29.941 34.506 28.9215 36.5802 28.5465 37.881C26.3903 45.4161 31.3473 53.256 39.1403 54.627C40.359 54.838 42.609 54.8145 43.8629 54.5685C49.2887 53.5255 53.5427 49.1778 54.5036 43.7169C54.7145 42.4981 54.6911 40.2481 54.4449 38.9943ZM40.7697 31.9852L40.4884 32.2078L40.4532 35.5945L40.4181 38.9695L39.9143 39.3094C38.9768 39.9423 38.5431 41.032 38.8009 42.1219C39.0001 42.9774 39.9143 43.8681 40.758 44.0556C42.4337 44.407 43.9806 43.1766 43.9806 41.4891C43.9806 40.5399 43.3595 39.5203 42.5157 39.075L42.1876 38.8993V35.5711C42.1876 32.3836 42.1759 32.2195 41.9532 31.9969C41.6602 31.704 41.1212 31.6923 40.7697 31.9852ZM42.0001 40.9032C42.3048 41.1961 42.2931 41.7937 41.9768 42.0985C41.4845 42.6024 40.6642 42.3211 40.4884 41.5828C40.4181 41.325 40.4767 41.1961 40.7697 40.8915C41.0743 40.5985 41.2032 40.5399 41.461 40.6102C41.6368 40.6453 41.883 40.786 42.0001 40.9032ZM2.34375 31.9504C2.34375 31.8684 2.44921 31.6575 2.58984 31.4817L2.82421 31.177H8.55468H14.2852L14.5312 31.4347C14.8242 31.7512 14.8359 32.2434 14.543 32.595L14.3203 32.8762L8.77734 32.9113C4.94532 32.9347 3.12891 32.8996 2.91796 32.8176C2.625 32.6887 2.34375 32.2785 2.34375 31.9504ZM16.8633 31.3891C16.5117 31.6822 16.5117 32.2681 16.8633 32.6197C17.0976 32.8657 17.2383 32.8774 19.1601 32.9127L21.2109 32.9478L21.5625 32.5962C21.9726 32.1861 22.0079 31.9048 21.6679 31.4829L21.4336 31.1782H19.2774C17.3671 31.1782 17.1093 31.2016 16.8633 31.3891ZM0 36.7447C0 36.5806 0.128906 36.3111 0.29297 36.1587C0.5625 35.8774 0.632812 35.8657 2.26171 35.8657C3.79688 35.8657 3.98438 35.8891 4.26562 36.1119C4.65234 36.4165 4.67579 36.9673 4.3125 37.354C4.06641 37.6119 3.98438 37.6236 2.32032 37.6236C0.621094 37.6236 0.5625 37.6119 0.29297 37.3306C0.128906 37.1782 0 36.9087 0 36.7447ZM6.86714 36.1119C6.48042 36.4165 6.44526 37.0377 6.79681 37.3891C7.01947 37.6119 7.18354 37.6236 13.0078 37.6236C18.8321 37.6236 18.996 37.6119 19.2188 37.3891C19.4531 37.1548 19.5351 36.522 19.3593 36.2641C19.1133 35.8891 18.75 35.8657 12.9726 35.8657C7.28901 35.8657 7.17182 35.8657 6.86714 36.1119ZM0.234071 42.0532C-0.187806 41.5962 -0.012024 40.9282 0.597351 40.6822C0.773133 40.6119 3.84345 40.5766 8.76533 40.5885L16.6638 40.6119L16.8864 40.8931C17.1793 41.2447 17.1677 41.7837 16.8747 42.0766C16.6402 42.3111 16.488 42.3111 8.55438 42.3111H0.480164L0.234071 42.0532ZM0.292968 45.651C-0.0820312 46.0141 -0.0820312 46.4595 0.292968 46.8228C0.5625 47.104 0.632812 47.1157 2.26171 47.1157C3.79688 47.1157 3.98438 47.0923 4.26562 46.8697C4.66405 46.5532 4.6875 45.9673 4.30079 45.6157C4.04296 45.3697 3.91405 45.3579 2.29688 45.3579C0.621093 45.3579 0.5625 45.3697 0.292968 45.651ZM6.86714 46.8697C6.48042 46.5649 6.44526 45.9439 6.79681 45.5923C7.01947 45.3697 7.18354 45.3579 13.0078 45.3579C18.8321 45.3579 18.996 45.3697 19.2188 45.5923C19.5702 45.9439 19.5351 46.5649 19.1484 46.8697C18.8438 47.1157 18.7264 47.1157 13.0078 47.1157C7.28901 47.1157 7.17182 47.1157 6.86714 46.8697ZM2.85938 50.1861C2.60157 50.3032 2.34375 50.7369 2.34375 51.0298C2.34375 51.1119 2.44921 51.3228 2.58984 51.4986L2.82421 51.8032H8.54296H14.2617L14.5078 51.5337C14.8242 51.1939 14.8359 50.7486 14.543 50.3853L14.3203 50.104L8.70704 50.0806C4.99218 50.0689 3.02343 50.104 2.85938 50.1861ZM16.8636 51.5923C16.4769 51.276 16.512 50.6782 16.9222 50.3149C17.2269 50.0572 17.309 50.0454 19.2308 50.0454H21.2347L21.5862 50.397C21.8675 50.6899 21.9261 50.8189 21.8675 51.0766C21.7035 51.7447 21.5042 51.8032 19.2191 51.8032C17.3675 51.8032 17.1098 51.7798 16.8636 51.5923Z" fill="#130032"/>
</g>
</g>
</g>
</g>
<defs>
<clipPath id="clip0_0_214">
<rect width="60" height="60" fill="white" transform="translate(0 0.122314)"/>
</clipPath>
</defs>
</svg>
