<svg width="60" height="61" viewBox="0 0 60 61" fill="none" xmlns="http://www.w3.org/2000/svg">
<g id="Frame" clip-path="url(#clip0_0_222)">
<g id="Clip path group">
<mask id="mask0_0_222" style="mask-type:luminance" maskUnits="userSpaceOnUse" x="0" y="0" width="60" height="61">
<g id="clip0_330_2682">
<path id="Vector" d="M60 0.122314H0V60.1223H60V0.122314Z" fill="white"/>
</g>
</mask>
<g mask="url(#mask0_0_222)">
<g id="Group">
<path id="Vector_2" fill-rule="evenodd" clip-rule="evenodd" d="M1.22705 0.286309C0.734863 0.497247 0.137207 1.21209 0.0551758 1.66913C0.0200195 1.88006 0.00830082 13.3762 0.0200195 27.2043L0.0551758 52.3527L0.395019 52.7864C0.852051 53.3957 1.50831 53.6769 2.49268 53.6769H3.27783V54.4386C3.27783 55.2707 3.48877 55.9152 3.89893 56.3489C4.32081 56.7941 4.5669 56.8878 5.62158 56.9582L6.61768 57.0168L6.67627 57.9543C6.74658 59.0676 6.99268 59.5011 7.76611 59.8761C8.27002 60.1223 8.3169 60.1223 22.3911 60.1223H36.5005L40.8012 55.8098L45.1137 51.509V46.9622V42.4269H45.9106C47.5864 42.4269 49.8364 41.8878 51.6528 41.0676C52.7427 40.5636 52.9653 40.3761 52.9653 39.9426C52.9653 39.4739 52.7778 39.1574 52.4145 39.0168C52.1685 38.9231 51.9223 39.0051 50.938 39.4503C46.6255 41.4309 41.6802 40.9503 37.9185 38.1848L37.1098 37.5989L41.4457 33.2628L45.7699 28.9386L51.6528 30.4856C57.1957 31.9503 57.5356 32.0559 57.4653 32.2902C57.2661 32.9816 56.2818 34.7747 55.6137 35.6886C55.1919 36.2511 54.8403 36.8019 54.8403 36.9191C54.8403 37.3176 55.2973 37.7394 55.7427 37.7394C56.2348 37.7394 56.6568 37.3293 57.5473 35.9816C58.5669 34.4465 59.2818 32.759 59.727 30.8019C60.0082 29.5598 60.0082 26.4074 59.7153 25.1066C59.0707 22.1184 57.688 19.5989 55.5552 17.5481C52.9887 15.0754 49.8715 13.7043 46.3794 13.5168L45.1255 13.4465L45.0903 10.6691L45.0552 7.89177L44.7153 7.45818C44.2582 6.84881 43.602 6.56756 42.6411 6.56756H41.8677L41.809 5.70038C41.7036 4.1535 41.059 3.52068 39.477 3.42693L38.5512 3.36834V2.93475C38.5512 2.19647 38.3286 1.29412 38.0707 0.919122C37.9302 0.719904 37.602 0.462091 37.3324 0.344903C36.8755 0.133966 36.1723 0.122247 19.2153 0.133966C4.89502 0.133966 1.50831 0.157403 1.22705 0.286309ZM36.6762 2.10272C36.7348 2.23163 36.7935 2.57147 36.7935 2.86443V3.4035H26.4927C16.2622 3.4035 16.2036 3.4035 15.8872 3.64959C15.5005 3.95427 15.4653 4.57538 15.8169 4.92693C16.0512 5.16131 16.2036 5.16131 27.9223 5.16131C37.0044 5.16131 39.8286 5.19647 39.934 5.30193C40.0161 5.38397 40.0747 5.70038 40.0747 6.00506V6.56756L24.0435 6.591L8.0122 6.62615L7.53174 6.94256C7.45708 6.99203 7.38889 7.02282 7.32661 7.05096C7.28106 7.07154 7.23847 7.09079 7.19901 7.1148C6.67018 7.43655 6.67051 8.62805 6.67524 25.7678C6.67573 27.5459 6.67627 29.4957 6.67627 31.634V55.2122L5.89111 55.1769L5.09424 55.1418L5.05908 30.3098C5.04736 12.0519 5.07081 5.44256 5.16456 5.32538C5.27002 5.19647 5.96143 5.16131 8.56299 5.16131C11.6802 5.16131 11.8442 5.14959 12.0669 4.92693C12.4185 4.57538 12.3833 3.95427 11.9849 3.63788C11.6802 3.39177 11.5864 3.39177 8.1997 3.42693C4.8247 3.46209 4.73095 3.47381 4.30908 3.73163C4.0747 3.88397 3.75831 4.20038 3.60595 4.43475L3.33643 4.86834L3.30127 28.3997L3.27783 51.9309L2.53956 51.8957L1.81299 51.8605L1.77783 27.0168C1.76611 13.3527 1.77783 2.10272 1.81299 2.02068C1.84815 1.91522 5.44581 1.88006 19.2036 1.88006C36.231 1.88006 36.5473 1.88006 36.6762 2.10272ZM43.3414 11.629C43.3617 12.9984 43.3681 13.4367 43.1575 13.6078C43.0584 13.6883 42.9111 13.7097 42.6946 13.7411C42.6288 13.7507 42.5563 13.7612 42.477 13.7746C41.6332 13.9152 40.1449 14.4308 39.1255 14.9465C35.2582 16.8566 32.5864 20.1497 31.438 24.3801C31.0395 25.8918 30.9223 28.8332 31.2153 30.4152C32.0239 34.7981 34.602 38.4426 38.4106 40.5989C39.3949 41.1614 41.0122 41.7941 42.0082 42.0168C42.2245 42.0611 42.4459 42.1107 42.6354 42.1532C42.8464 42.2004 43.0179 42.2388 43.0981 42.2511L43.356 42.3098V46.2356V50.1614H40.2856C38.5278 50.1614 37.0161 50.2199 36.7699 50.2785C36.2074 50.4426 35.6332 50.9231 35.434 51.4152C35.3052 51.7082 35.2699 52.5753 35.2699 55.0832V58.3644L21.8872 58.341L8.49268 58.3059L8.45752 33.4622C8.44581 19.7981 8.45752 8.54802 8.49268 8.466C8.52783 8.34881 12.0786 8.32538 25.9185 8.34881L43.2973 8.38397L43.3324 10.9855C43.3353 11.2182 43.3384 11.4305 43.3413 11.6242L43.3414 11.6274V11.629ZM47.5864 15.4152C48.1255 15.509 48.8755 15.6731 49.2387 15.7902L49.9068 16.0011L47.3286 21.7434L44.7505 27.4856L40.309 31.9269L35.8794 36.3684L35.2818 35.5598C34.1568 34.0364 33.3364 32.1731 32.9965 30.3566C32.7622 29.1261 32.7505 26.7941 32.9848 25.5872C33.9693 20.3957 38.0473 16.3644 43.2739 15.4152C44.4223 15.2043 46.4028 15.2043 47.5864 15.4152ZM52.5199 17.3372C56.3403 19.8332 58.6372 24.6144 58.1568 29.1144C58.0864 29.7356 58.0161 30.2628 57.9927 30.2864C57.9457 30.3332 46.8598 27.4386 46.7778 27.3566C46.7074 27.3098 51.477 16.7628 51.5707 16.7628C51.606 16.7628 52.0395 17.0207 52.5199 17.3372ZM39.5943 54.4739L37.0864 57.0285L37.0512 54.5676C37.0278 52.6809 37.063 52.0949 37.1685 52.0128C37.2505 51.966 38.3989 51.9191 39.7114 51.9191H42.0903L39.5943 54.4739ZM13.6024 14.9584C13.3211 15.3216 13.2977 15.4623 13.4969 15.8841C13.5789 16.0716 13.7782 16.224 14.0477 16.3061C14.3289 16.3881 17.3875 16.4115 23.1766 16.3881L31.8954 16.3529L32.118 16.0716C32.4109 15.7202 32.3992 15.1811 32.1063 14.8881C31.8718 14.6537 31.7196 14.6537 22.8601 14.6537H13.8367L13.6024 14.9584ZM13.356 21.8711C13.356 21.789 13.4614 21.578 13.6021 21.4023L13.8364 21.0975H20.8677C27.7348 21.0975 27.8872 21.0975 28.1215 21.332C28.4145 21.6249 28.4262 22.164 28.1332 22.5155L27.9106 22.7967L21.0786 22.832C16.3324 22.8554 14.1411 22.8203 13.9302 22.7382C13.6372 22.6092 13.356 22.1991 13.356 21.8711ZM13.6021 27.8475C13.4614 28.0233 13.356 28.2342 13.356 28.3163C13.356 28.6445 13.6372 29.0546 13.9302 29.1836C14.1411 29.2655 16.063 29.3007 20.1411 29.2773L26.0356 29.2421L26.2582 28.9608C26.5512 28.6092 26.5395 28.1171 26.2465 27.8007L26.0005 27.5429H19.9185H13.8364L13.6021 27.8475ZM19.3326 40.7277C19.3326 38.009 19.3443 37.8449 19.5669 37.6223C19.7896 37.3997 19.9536 37.388 22.3794 37.388C24.1629 37.388 24.9078 37.3394 25.2162 37.6829C25.4751 37.9713 25.4263 38.5361 25.4263 39.638V41.3723H27.4068H29.3989L29.6334 41.6769C29.8677 41.9816 29.8794 42.1106 29.8794 46.3527V50.7122L30.3715 50.7824C31.2036 50.8997 31.5903 51.7316 31.0513 52.2707C30.8169 52.5051 30.6646 52.5051 22.3794 52.5051C14.0943 52.5051 13.9419 52.5051 13.7075 52.2707C13.4029 51.966 13.4029 51.3214 13.6958 51.0519C13.8247 50.9347 14.1411 50.8176 14.3989 50.7824L14.8794 50.7122V47.466C14.8794 44.3606 14.8911 44.2082 15.1255 43.9035L15.3598 43.5989H17.3521H19.3326V40.7277ZM23.6685 50.7473V44.9465V39.1457H22.3794H21.0903V44.9465V50.7473H22.3794H23.6685ZM28.1215 50.7473V46.9386V43.1301H26.7739H25.4263V46.9386V50.7473H26.7739H28.1215ZM19.3326 50.7473V48.0519V45.3566H17.9848H16.6372V48.0519V50.7473H17.9848H19.3326Z" fill="#130032"/>
</g>
</g>
</g>
</g>
<defs>
<clipPath id="clip0_0_222">
<rect width="60" height="60" fill="white" transform="translate(0 0.122314)"/>
</clipPath>
</defs>
</svg>
