<svg width="60" height="61" viewBox="0 0 60 61" fill="none" xmlns="http://www.w3.org/2000/svg">
<g id="Frame" clip-path="url(#clip0_0_198)">
<g id="Clip path group">
<mask id="mask0_0_198" style="mask-type:luminance" maskUnits="userSpaceOnUse" x="0" y="0" width="60" height="61">
<g id="clip0_330_2710">
<path id="Vector" d="M60 0.122314H0V60.1223H60V0.122314Z" fill="white"/>
</g>
</mask>
<g mask="url(#mask0_0_198)">
<g id="Group">
<path id="Vector_2" fill-rule="evenodd" clip-rule="evenodd" d="M5.15472 18.1106V36.0989H3.45549H1.75627V22.763V9.43872L2.03752 8.85278C2.28361 8.30199 2.68206 7.8684 3.22111 7.56372C3.42034 7.44653 3.40861 7.39965 3.16252 6.70824C3.01018 6.2981 2.84611 5.94653 2.78752 5.91138C2.61174 5.79419 1.68597 6.42699 1.13518 7.03638C0.842214 7.36449 0.478933 7.93872 0.326589 8.30199L0.057058 8.96997L0.0219017 26.0677L0.018296 27.9505C-0.0103299 42.7691 -0.0124676 43.8757 0.451236 44.7292C0.48865 44.798 0.529098 44.8652 0.572808 44.938C0.59892 44.9813 0.626224 45.0266 0.654714 45.0755C1.26409 46.1066 2.47111 46.9153 3.71331 47.1145C4.10002 47.1848 7.97893 47.2316 12.6313 47.2316H20.8579V50.4544V53.677H19.2992C17.4712 53.677 16.9087 53.8177 16.1351 54.4973C15.2446 55.2824 15.0688 55.8566 15.022 58.1536L14.975 60.1223H29.9984H45.0218L44.975 58.1536C44.9281 55.8566 44.7524 55.2824 43.8617 54.4973C43.0883 53.8177 42.5258 53.677 40.6976 53.677H39.1391V50.4544V47.2316H47.3774C52.018 47.2316 55.8968 47.1848 56.2837 47.1145C57.5258 46.9153 58.7329 46.1066 59.3422 45.0755C59.3707 45.0266 59.398 44.9813 59.4241 44.938C59.4679 44.8652 59.5082 44.798 59.5457 44.7292C60.0094 43.8757 60.0073 42.7693 59.9786 27.9533V27.9518L59.975 26.0677L59.9399 8.96997L59.6587 8.26685C59.2718 7.3059 58.2055 6.23949 57.2446 5.85278L56.5414 5.57153L41.8109 5.53638L27.0688 5.51294V6.39185V7.27074L41.6938 7.29419L56.3071 7.32935L56.7758 7.58715C57.3734 7.90356 57.7016 8.25513 57.9946 8.91138C58.2289 9.42699 58.2406 9.60278 58.2406 22.7747V36.0989L42.5726 36.0755L26.893 36.0403L26.8579 23.056L26.8345 10.0598L24.6899 6.49731C23.518 4.54028 22.522 2.94653 22.475 2.95824C22.4164 2.98169 21.4087 4.62231 20.2133 6.60278L18.0454 10.2239V23.1614V36.1106L16.6157 36.0755L15.1742 36.0403L15.1391 18.0755L15.1157 0.122314H10.1352H5.15472V18.1106ZM13.3578 18.9895V36.0989H10.1352H6.91252V35.0441V33.9895L9.05706 33.9661L11.1899 33.931L11.225 33.0872L11.2602 32.2316L9.11565 32.2082L6.97111 32.1731L6.93597 31.3294L6.90081 30.4856L8.10784 30.4505L9.31486 30.4153V29.5364V28.6574L8.10784 28.6223L6.90081 28.5872L6.93597 27.7435L6.97111 26.8997L9.11565 26.8645L11.2602 26.8411L11.225 25.9856L11.1899 25.1419L9.05706 25.1066L6.91252 25.0832V24.2044V23.3255H8.14299H9.38518L9.35002 22.4699L9.31486 21.6262L8.11956 21.5911L6.91252 21.556V20.6887V19.8098H9.08049H11.2602L11.225 18.9544L11.1899 18.1106L9.05706 18.0755L6.91252 18.052V17.1731V16.2941H8.14299H9.38518L9.35002 15.4387L9.31486 14.595L8.11956 14.5598L6.91252 14.5247V13.6575V12.7786H9.08049H11.2485V11.8997V11.0207H9.08049H6.91252V10.1418V9.26294H8.14299H9.37347V8.38403V7.50513H8.14299H6.91252V6.62622V5.74731H9.08049H11.2485V4.8684V3.98949H9.08049H6.91252V2.93481V1.88013H10.1352H13.3578V18.9895ZM23.6117 8.11449C24.1976 9.08715 24.6782 9.94263 24.7016 10.0129C24.7133 10.0832 24.2212 10.4465 23.6 10.8215L22.475 11.4895L21.4672 10.8918C20.9047 10.552 20.3891 10.2356 20.3071 10.177C20.2133 10.095 20.4946 9.53247 21.2914 8.19653C21.9125 7.17699 22.4399 6.33324 22.4867 6.33324C22.522 6.33324 23.0375 7.14185 23.6117 8.11449ZM21.35 12.8489C21.9242 13.2004 22.4282 13.4817 22.475 13.4817C22.522 13.4817 23.1196 13.1418 23.8226 12.72L25.0766 11.97V21.6965V31.4114L22.475 31.388L19.8617 31.3528L19.8266 21.6497L19.8032 11.9465L20.0609 12.0872C20.2016 12.1575 20.7875 12.509 21.35 12.8489ZM25.0766 34.634V36.0989L22.475 36.0755L19.8617 36.0403L19.8266 34.5989L19.7914 33.1691H22.4399H25.0766V34.634ZM58.2406 40.5755C58.2406 43.1887 58.2289 43.3294 57.9593 43.8919C57.8071 44.2199 57.5258 44.6302 57.3149 44.806C57.2678 44.8457 57.2288 44.8832 57.1921 44.9183C57.1648 44.9446 57.1385 44.9698 57.1114 44.9936C56.5616 45.4766 55.5872 45.4765 34.8865 45.4742L29.9984 45.4739L25.1108 45.4742C4.40992 45.4765 3.43531 45.4766 2.88553 44.9936C2.85838 44.9698 2.83227 44.9447 2.80485 44.9183C2.76811 44.8832 2.72904 44.8457 2.68206 44.806C2.47111 44.6302 2.18986 44.2199 2.03752 43.8919C1.76799 43.3294 1.75627 43.1887 1.75627 40.5755V37.8566H29.9984H58.2406V40.5755ZM37.3813 50.4544V53.677H29.9984H22.6157V50.4544V47.2316H29.9984H37.3813V50.4544ZM42.4789 55.6691C43.018 56.009 43.2406 56.5364 43.2406 57.5324V58.3645H29.9984H16.7563V57.509C16.7563 56.5364 16.9672 56.0324 17.518 55.6691C17.8579 55.4465 18.1157 55.4348 29.9867 55.4348C41.9281 55.4348 42.1039 55.4348 42.4789 55.6691ZM21.5608 18.4036V21.3332H22.4396H23.3186V18.4036V15.4739H22.4396H21.5608V18.4036ZM21.5608 24.8489V23.9699V23.0911H22.4396H23.3186V23.9699V24.8489H22.4396H21.5608ZM21.5608 28.0715V29.5364H22.4396H23.3186V28.0715V26.6066H22.4396H21.5608V28.0715ZM25.6037 42.4856L25.5686 41.6302L25.5334 40.7864H26.4241H27.3029V41.6653V42.556L26.4592 42.5207L25.6037 42.4856ZM29.0842 41.6302L29.1194 42.4856H29.9983H30.8771L30.9124 41.6302L30.9475 40.7864H29.9983H29.0491L29.0842 41.6302ZM32.6936 42.556V41.6653V40.7864H33.5725H34.4632L34.4279 41.6302L34.3928 42.4856L33.5491 42.5207L32.6936 42.556ZM28.7092 9.90747V10.7864H29.5882H30.467V21.6848V32.5832H29.5882H28.7092V33.4622V34.3411H31.3459H33.9827V33.4622V32.5832H33.1037H32.2249V21.6848V10.7864H33.1037H33.9827V9.90747V9.02856H31.3459H28.7092V9.90747ZM35.9749 18.9895V14.009V9.02856H46.2287H56.4827V14.009V18.9895H46.2287H35.9749ZM54.7249 17.2316V14.009V10.7864H46.2287H37.7327V14.009V17.2316H46.2287H54.7249ZM35.9749 23.9699V27.1927H40.6624H45.3499L45.3265 23.9935L45.2912 20.806L40.639 20.7707L35.9749 20.7473V23.9699ZM43.5686 23.9935L43.6037 25.4348H40.6624H37.7327V23.9699V22.5052L40.639 22.5286L43.5334 22.5637L43.5686 23.9935ZM47.1077 27.1927V23.9699V20.7473H51.7952H56.4827V23.9699V27.1927H51.7952H47.1077ZM54.7249 25.4348V23.9699V22.5052H51.7952H48.8654V23.9699V25.4348H51.7952H54.7249ZM36.8425 29.7005C36.8074 29.7824 36.7957 30.1927 36.8191 30.6028L36.8542 31.3528L38.8816 31.388L40.8973 31.4114V30.4739V29.5364H38.905C37.3348 29.5364 36.8894 29.5715 36.8425 29.7005ZM42.6785 30.6028C42.655 30.1927 42.6667 29.7824 42.7019 29.7005C42.7487 29.5832 43.0066 29.5364 43.5925 29.5364H44.4128V30.4739V31.4231L43.5691 31.388L42.7136 31.3528L42.6785 30.6028ZM47.9753 29.7005C47.9402 29.7824 47.9285 30.1927 47.9519 30.6028L47.987 31.3528L50.0144 31.388L52.03 31.4114V30.4739V29.5364H50.0378C48.4675 29.5364 48.0223 29.5715 47.9753 29.7005ZM53.8112 30.6028C53.7878 30.1927 53.7995 29.7824 53.8348 29.7005C53.8816 29.5832 54.1394 29.5364 54.7253 29.5364H55.5457V30.4739V31.4231L54.7019 31.388L53.8465 31.3528L53.8112 30.6028Z" fill="#130032"/>
</g>
</g>
</g>
</g>
<defs>
<clipPath id="clip0_0_198">
<rect width="60" height="60" fill="white" transform="translate(0 0.122314)"/>
</clipPath>
</defs>
</svg>
