<svg width="60" height="61" viewBox="0 0 60 61" fill="none" xmlns="http://www.w3.org/2000/svg">
<g id="Frame" clip-path="url(#clip0_0_206)">
<g id="Clip path group">
<mask id="mask0_0_206" style="mask-type:luminance" maskUnits="userSpaceOnUse" x="0" y="0" width="60" height="61">
<g id="clip0_330_2729">
<path id="Vector" d="M60 0.122314H0V60.1223H60V0.122314Z" fill="white"/>
</g>
</mask>
<g mask="url(#mask0_0_206)">
<g id="Group">
<path id="Vector_2" fill-rule="evenodd" clip-rule="evenodd" d="M21.2696 2.92315C24.4101 1.37628 27.1992 0.591123 30.9962 0.192685C31.9571 0.098935 35.9532 0.23956 37.0899 0.415341C43.7109 1.43487 49.5351 4.71612 53.8008 9.83722C60.6562 18.0403 61.9218 29.7006 57 39.2631C55.7343 41.724 53.4024 44.8881 52.6641 45.1224C52.3712 45.2278 52.1954 45.2161 51.8788 45.0756C51.3867 44.8762 51.2109 44.595 51.2109 43.974C51.2109 43.6107 51.3046 43.4115 51.6562 43.0012C54.6796 39.4623 56.6718 35.1732 57.3633 30.6381C57.5742 29.2669 57.7266 26.1381 57.6093 25.5169L57.5274 25.0833H51.3867H45.2579L45.3163 25.5756C45.4101 26.2669 45.5976 26.4427 46.3359 26.5248C47.5546 26.6536 48.7149 27.5208 49.2538 28.7044C49.4413 29.1145 49.5 29.4895 49.5117 30.2395C49.5117 31.095 49.4649 31.3294 49.1837 31.8919C48.5157 33.2512 47.1562 34.1068 45.6446 34.1068C44.5429 34.1068 44.5312 34.1302 44.5312 36.7435C44.5312 39.2631 44.4375 39.6732 43.5821 40.599C42.9609 41.2903 42.2462 41.6536 41.3087 41.7825C40.3593 41.9115 40.1837 42.0286 39.0234 43.3177C37.8633 44.6068 37.3125 45.0052 36.6562 45.0052C36.1054 45.0052 35.2617 44.5482 34.9571 44.0794C34.6875 43.681 34.6875 43.6458 34.6875 39.5677C34.6875 37.306 34.6288 35.2435 34.5704 34.9974C34.4062 34.2474 33.9375 33.8841 32.9766 33.7435C31.7343 33.5677 31.0429 33.3333 30.3516 32.8411C29.6484 32.3373 29.0742 31.6107 28.6758 30.7435C28.3242 29.9583 28.2421 27.2044 28.5351 26.1849C28.9101 24.8607 29.8593 23.7474 31.1601 23.1262C31.6992 22.8685 32.0274 22.7982 32.9532 22.7631L34.0782 22.7161L33.6913 21.9895C33.0821 20.8762 32.8946 20.0677 32.9532 18.8256C33 17.9466 33.0704 17.6185 33.375 16.9623C34.1837 15.2161 36.1171 13.9505 38.0157 13.9505C38.6837 13.9505 38.9766 13.5286 39.0821 12.4505C39.1758 11.4427 39.5508 10.2005 40.0312 9.3216C40.2071 8.99347 40.7579 8.33722 41.2383 7.85674C42.2462 6.84894 43.4413 6.19269 44.6601 5.93487C45.108 5.84247 45.2841 5.80611 45.2907 5.74996C45.2949 5.71354 45.2279 5.6688 45.1171 5.59503C44.4141 5.13799 42.2109 4.17706 40.7696 3.70831C36.7149 2.37237 32.6601 2.12628 28.3593 2.9466C26.0742 3.3919 22.3829 4.73956 22.5704 5.06769C22.9921 5.81769 23.9532 7.02472 24.1992 7.13019C24.3633 7.21222 24.7851 7.27081 25.1133 7.27081C26.6133 7.27081 28.0546 7.90362 29.2617 9.09894C30.3282 10.1419 30.8671 11.2083 31.0782 12.638C31.5703 16.0365 29.1796 19.1887 25.7226 19.7044C25.3359 19.7631 22.8516 19.8099 20.2032 19.8099C15.6913 19.8099 15.3282 19.8216 14.6016 20.0443C13.6875 20.3256 13.3125 20.6068 10.7578 22.8802L8.80079 24.6262L8.71875 25.4115C8.57812 26.7006 8.84766 31.0248 9.08204 31.2708C9.10546 31.2943 9.5625 31.1536 10.0898 30.9661C11.8242 30.3568 12.8672 30.1927 15 30.1927C17.1446 30.1927 18.1758 30.3568 19.9218 30.9661C22.1601 31.7631 23.8008 32.806 25.5587 34.5637C27.3164 36.3216 28.3593 37.9623 29.1562 40.2006C29.7774 41.9583 29.9413 42.9895 29.9413 45.1224C29.9413 47.2552 29.7774 48.2865 29.1562 50.0325C28.9688 50.5599 28.8282 51.0169 28.8516 51.0403C28.9688 51.1458 30.8788 51.3568 32.2851 51.4153C36.0234 51.5677 39.9024 50.7943 43.3476 49.224C44.0391 48.8958 44.7538 48.6381 44.9179 48.6381C45.0938 48.6381 45.3984 48.7903 45.6093 48.9778C45.9258 49.2591 45.9962 49.3998 45.9962 49.7865C45.9962 50.3841 45.75 50.6653 44.8359 51.1224C42.8204 52.1419 39.6796 53.1028 37.0312 53.5248C35.1679 53.806 31.1718 53.806 29.3204 53.5248C28.5938 53.4075 27.9375 53.2903 27.8438 53.2552C27.7383 53.22 27.4453 53.5131 27.0351 54.052C24.0351 58.0482 19.2304 60.3216 14.3555 60.0756C10.4414 59.8881 7.20703 58.4466 4.44141 55.681C2.21484 53.4661 0.9375 51.0756 0.269532 47.9349C-0.0117189 46.5637 -0.0117189 43.681 0.269532 42.3099C0.902343 39.3216 2.16796 36.8958 4.20703 34.7748C4.94532 34.0131 6.52734 32.677 6.86718 32.5365C6.87891 32.5248 6.78516 31.9153 6.64454 31.177C6.31641 29.302 6.29296 25.0482 6.59766 23.0911C7.48829 17.349 9.91407 12.4388 13.8633 8.37237C16.1718 5.98174 18.3867 4.35285 21.2696 2.92315ZM24.8907 9.60285C23.0859 9.45049 22.4766 9.07549 21.2579 7.31769C20.8359 6.72003 20.4492 6.19269 20.4024 6.15753C20.3438 6.1341 19.9218 6.36847 19.4649 6.68487C15.7734 9.22785 13.0078 12.4271 11.1445 16.306C10.4883 17.6653 9.49218 20.3256 9.49218 20.7123C9.49218 20.806 10.0312 20.3958 10.6992 19.8099C11.8594 18.7786 13.0898 18.0169 14.1211 17.6887C14.4609 17.5833 16.125 17.5248 20.1562 17.4661L20.549 17.461C25.1232 17.4024 26.1169 17.3896 26.8263 16.9341C27.0231 16.8076 27.198 16.6471 27.4213 16.4422L27.4804 16.3881C28.4062 15.5443 28.7696 14.7357 28.7696 13.5403C28.7696 12.7669 28.7109 12.4857 28.4649 11.9466C27.7617 10.4466 26.707 9.75519 24.8907 9.60285ZM55.2657 16.47C53.9649 13.7747 52.4179 11.6185 50.25 9.46222L48.8555 8.09112L47.1913 8.10285C46.2421 8.10285 45.2929 8.17315 44.9883 8.25519C43.0546 8.79424 41.7071 10.388 41.4609 12.4153C41.2968 13.8099 41.1446 14.3138 40.7343 14.8763C40.2774 15.5325 39.2929 16.1419 38.5663 16.2357C36.7617 16.4583 36.0821 16.8099 35.5782 17.8294C35.2149 18.5677 35.1679 19.47 35.4609 20.3256C35.7188 21.0756 36.6329 22.0482 37.4062 22.3998L38.0274 22.681L47.5663 22.7161C52.8163 22.7278 57.1524 22.7044 57.1992 22.6575C57.2462 22.6107 57.1524 22.0248 56.9883 21.3685L56.6954 20.1732L53.1796 20.1381L49.6641 20.1028L49.3829 19.7748C48.9962 19.3294 48.9962 18.6498 49.3829 18.2044L49.6641 17.8762L52.7812 17.8177L55.8984 17.7591L55.2657 16.47ZM43.0312 26.22C42.9726 25.8568 42.8321 25.4466 42.7149 25.3177C42.5039 25.095 42.3516 25.0833 37.5117 25.0833C32.5546 25.0833 32.5079 25.0833 31.9921 25.3411C31.6875 25.5052 31.3242 25.8216 31.1133 26.1145C30.7851 26.595 30.7617 26.7006 30.7266 27.931C30.6796 29.431 30.7968 29.9466 31.3125 30.5443C31.8164 31.1185 32.2149 31.2943 33.2696 31.4115C35.3087 31.6458 36.5976 32.8411 36.9141 34.7631C36.9843 35.1498 37.0312 36.931 37.0312 38.7357V42.0052L37.9454 41.056C38.9649 39.9895 39.5742 39.6262 40.5351 39.5325C40.8984 39.4974 41.3321 39.3919 41.5079 39.3099C42.1407 38.9818 42.1875 38.7943 42.1875 36.6262C42.1875 34.2123 42.2343 33.9193 42.7032 33.1458C43.2188 32.2903 43.9921 31.8802 45.2812 31.7748C46.3946 31.6927 46.8046 31.4818 47.0625 30.8841C47.2968 30.3099 47.2617 29.8645 46.9571 29.4075C46.6758 28.9857 46.5351 28.927 45.4101 28.7278C44.1211 28.4935 43.2304 27.5677 43.0312 26.22ZM22.6289 35.0325C21.5039 34.1887 19.4883 33.2161 18.1054 32.8645C16.7812 32.5365 14.4023 32.3958 13.1953 32.5833C11.3906 32.8762 9.33984 33.6849 7.83984 34.7044C6.86718 35.3607 5.20312 37.0131 4.57032 37.9623C3.83203 39.052 3.08203 40.7395 2.73046 42.0403C2.46093 43.0599 2.42578 43.4115 2.42578 45.1224C2.42578 46.8333 2.46093 47.1849 2.73046 48.2044C3.08203 49.5052 3.83203 51.1927 4.57032 52.2825C5.20312 53.2318 6.86718 54.8841 7.83984 55.5403C8.91796 56.2786 10.6055 57.0403 11.918 57.3919C12.9375 57.6615 13.2891 57.6966 15 57.6966C16.7226 57.6966 17.0625 57.6615 18.1054 57.3919C20.8593 56.6536 23.4141 54.9661 25.0899 52.7512C25.9337 51.6262 26.9062 49.6107 27.2579 48.2278C28.5 43.3294 26.6601 38.0911 22.6289 35.0325ZM44.684 19.7505C44.2034 19.1997 44.4027 18.1918 45.0471 17.9341C45.8558 17.6059 46.6995 18.145 46.6995 18.9888C46.6995 19.3989 46.6292 19.5396 46.3011 19.8325C45.9612 20.1372 45.8441 20.1841 45.4221 20.1255C45.1058 20.0787 44.8479 19.9497 44.684 19.7505ZM14.5901 34.2127C14.1096 34.4119 13.8987 34.7988 13.8518 35.5605C13.7815 36.7323 14.1565 37.2714 15.0588 37.2714C15.3753 37.2714 15.5745 37.1776 15.8322 36.9315C16.137 36.6151 16.1721 36.5097 16.1721 35.8182C16.1721 34.9159 16.008 34.5057 15.5745 34.2714C15.2112 34.0839 14.9416 34.0722 14.5901 34.2127ZM4.371 45.9081C3.89052 45.4393 3.91396 44.748 4.42959 44.2909C4.76943 43.9863 4.88662 43.951 5.63662 43.951C6.39834 43.951 6.49209 43.9744 6.8085 44.2909C7.25381 44.748 7.27725 45.4276 6.86709 45.9081C6.59756 46.2127 6.52725 46.2363 5.63662 46.2363C4.75771 46.2363 4.66396 46.2127 4.371 45.9081ZM14.4609 44.0788C14.332 44.1492 14.1328 44.3484 14.0273 44.5359C13.8516 44.8288 13.8281 45.3796 13.8281 49.575C13.8281 54.5788 13.8516 54.778 14.4023 55.0827C14.8125 55.2937 15.4337 55.2234 15.7851 54.9187L16.1133 54.6375L16.1484 50.4655L16.1836 46.2937H17.5782C19.1133 46.2937 19.5 46.1883 19.7579 45.696C20.0742 45.0867 19.8516 44.3484 19.2774 44.0905C18.9024 43.9147 14.8242 43.9147 14.4609 44.0788ZM23.1917 45.955C22.6409 45.3925 22.7463 44.5018 23.4142 44.1385C23.59 44.0331 24.0471 43.9627 24.4572 43.951C25.0667 43.951 25.2306 43.998 25.5354 44.2557C25.9924 44.6425 26.1096 45.2167 25.8284 45.6855C25.5588 46.1542 25.2189 46.2948 24.305 46.2948C23.6135 46.2948 23.508 46.2597 23.1917 45.955ZM20.133 23.01C19.7229 23.385 19.6173 23.9124 19.8634 24.3694C20.2034 25.0491 20.4846 25.0959 23.2034 25.0608L23.2211 25.0605C25.6059 25.0257 25.6533 25.0249 25.9455 24.7444C26.508 24.217 26.4142 23.1975 25.7931 22.8576C25.6525 22.7874 24.5275 22.7404 22.9923 22.7404C20.4611 22.7404 20.4259 22.7404 20.133 23.01ZM48.0352 47.9589C47.5431 47.4081 47.6133 46.7518 48.2111 46.2714C48.8673 45.7323 49.8868 46.1893 50.004 47.0682C50.0625 47.4901 50.0157 47.6073 49.7111 47.9472C49.4181 48.2752 49.2774 48.3456 48.8673 48.3456C48.4571 48.3456 48.3165 48.2752 48.0352 47.9589Z" fill="#130032"/>
</g>
</g>
</g>
</g>
<defs>
<clipPath id="clip0_0_206">
<rect width="60" height="60" fill="white" transform="translate(0 0.122314)"/>
</clipPath>
</defs>
</svg>
