<svg width="60" height="61" viewBox="0 0 60 61" fill="none" xmlns="http://www.w3.org/2000/svg">
<g clip-path="url(#clip0_0_174)">
<mask id="mask0_0_174" style="mask-type:luminance" maskUnits="userSpaceOnUse" x="0" y="0" width="60" height="61">
<path d="M60 0.122314H0V60.1223H60V0.122314Z" fill="white"/>
</mask>
<g mask="url(#mask0_0_174)">
<path d="M19.758 0.30988C17.7424 0.802067 15.8557 2.58332 15.2815 4.54034L15.1057 5.16145H12.9729C11.1799 5.16145 10.7932 5.19659 10.5588 5.34895C10.1838 5.61847 9.96118 6.21613 9.96118 6.97784V7.62238H7.76977C5.27368 7.62238 4.48852 7.75129 3.35181 8.34895C2.43775 8.82941 1.20728 10.0599 0.726813 10.9739C-0.0349051 12.4271 0.000251065 11.4661 0.000251065 30.1224C0.000251065 48.7787 -0.0349051 47.8176 0.726813 49.2708C1.20728 50.1849 2.43775 51.4154 3.35181 51.8958C4.75806 52.6224 4.62916 52.6224 14.801 52.6224C23.215 52.6224 24.0705 52.6106 24.3753 52.4231C25.0198 52.0481 25.1604 51.1106 24.6799 50.5481L24.3987 50.22L14.9182 50.1614L5.44947 50.1029L4.66431 49.7162C3.77368 49.2825 3.25806 48.7551 2.82447 47.8176L2.51977 47.1731V30.1224V13.0716L2.9065 12.2864C3.34009 11.3958 3.86743 10.8802 4.80493 10.4466C5.41431 10.1536 5.56665 10.1419 7.71118 10.1068L9.96118 10.0599V10.7747C9.96118 12.2864 10.3596 13.2943 11.2737 14.1497C12.3167 15.1107 11.8713 15.0638 21.3283 15.0638H29.7073L30.3753 14.7357C31.1017 14.3724 31.7346 13.7513 32.1213 12.9896C32.3205 12.6028 32.4025 12.2044 32.4495 11.3138L32.5198 10.1419H34.8049C37.0315 10.1419 37.1017 10.1536 37.7463 10.4466C38.5549 10.8333 39.2346 11.4896 39.6213 12.263C39.9025 12.8255 39.9025 12.9075 39.9612 16.6458C40.0198 20.6418 40.0432 20.7825 40.5705 21.1458C40.9104 21.3918 41.59 21.3801 41.9416 21.1458C42.4924 20.7591 42.5392 20.4075 42.5392 16.9739C42.5392 13.1302 42.4573 12.4505 41.8479 11.1966C41.0979 9.62629 39.9963 8.61847 38.3674 7.99738C37.6057 7.71613 37.4065 7.6927 35.0159 7.64582L32.4612 7.59895V6.74347C32.4612 5.99347 32.4261 5.82941 32.1799 5.54816L31.8987 5.22004L29.637 5.16145L27.387 5.10284L27.2463 4.62238C26.3205 1.47004 22.9573 -0.463558 19.758 0.30988ZM22.8049 2.98175C24.0003 3.53254 24.7854 4.64582 24.9612 6.02863C25.1487 7.52863 25.3245 7.62238 28.008 7.62238H30.0003V9.61457C30.0003 11.8763 29.9065 12.2161 29.2386 12.4974C28.6525 12.7435 13.8987 12.7435 13.3128 12.4974C12.5862 12.1927 12.5393 12.0286 12.5393 9.70832V7.62238H14.5432C17.1565 7.62238 17.3323 7.52863 17.5198 6.04034C17.6721 4.84504 18.3636 3.7552 19.3128 3.20441C20.4612 2.52472 21.6448 2.45441 22.8049 2.98175Z" fill="#130032"/>
<path d="M19.758 0.30988C17.7424 0.802067 15.8557 2.58332 15.2815 4.54034L15.1057 5.16145H12.9729C11.1799 5.16145 10.7932 5.19659 10.5588 5.34895C10.1838 5.61847 9.96118 6.21613 9.96118 6.97784V7.62238H7.76977C5.27368 7.62238 4.48852 7.75129 3.35181 8.34895C2.43775 8.82941 1.20728 10.0599 0.726813 10.9739C-0.0349051 12.4271 0.000251065 11.4661 0.000251065 30.1224C0.000251065 48.7787 -0.0349051 47.8176 0.726813 49.2708C1.20728 50.1849 2.43775 51.4154 3.35181 51.8958C4.75806 52.6224 4.62916 52.6224 14.801 52.6224C23.215 52.6224 24.0705 52.6106 24.3753 52.4231C25.0198 52.0481 25.1604 51.1106 24.6799 50.5481L24.3987 50.22L14.9182 50.1614L5.44947 50.1029L4.66431 49.7162C3.77368 49.2825 3.25806 48.7551 2.82447 47.8176L2.51977 47.1731V30.1224V13.0716L2.9065 12.2864C3.34009 11.3958 3.86743 10.8802 4.80493 10.4466C5.41431 10.1536 5.56665 10.1419 7.71118 10.1068L9.96118 10.0599V10.7747C9.96118 12.2864 10.3596 13.2943 11.2737 14.1497C12.3167 15.1107 11.8713 15.0638 21.3283 15.0638H29.7073L30.3753 14.7357C31.1017 14.3724 31.7346 13.7513 32.1213 12.9896C32.3205 12.6028 32.4025 12.2044 32.4495 11.3138L32.5198 10.1419H34.8049C37.0315 10.1419 37.1017 10.1536 37.7463 10.4466C38.5549 10.8333 39.2346 11.4896 39.6213 12.263C39.9025 12.8255 39.9025 12.9075 39.9612 16.6458C40.0198 20.6418 40.0432 20.7825 40.5705 21.1458C40.9104 21.3918 41.59 21.3801 41.9416 21.1458C42.4924 20.7591 42.5392 20.4075 42.5392 16.9739C42.5392 13.1302 42.4573 12.4505 41.8479 11.1966C41.0979 9.62629 39.9963 8.61847 38.3674 7.99738C37.6057 7.71613 37.4065 7.6927 35.0159 7.64582L32.4612 7.59895V6.74347C32.4612 5.99347 32.4261 5.82941 32.1799 5.54816L31.8987 5.22004L29.637 5.16145L27.387 5.10284L27.2463 4.62238C26.3205 1.47004 22.9573 -0.463558 19.758 0.30988ZM22.8049 2.98175C24.0003 3.53254 24.7854 4.64582 24.9612 6.02863C25.1487 7.52863 25.3245 7.62238 28.008 7.62238H30.0003V9.61457C30.0003 11.8763 29.9065 12.2161 29.2386 12.4974C28.6525 12.7435 13.8987 12.7435 13.3128 12.4974C12.5862 12.1927 12.5393 12.0286 12.5393 9.70832V7.62238H14.5432C17.1565 7.62238 17.3323 7.52863 17.5198 6.04034C17.6721 4.84504 18.3636 3.7552 19.3128 3.20441C20.4612 2.52472 21.6448 2.45441 22.8049 2.98175Z" fill="#130032"/>
<path d="M8.12023 20.302C7.45227 20.6302 7.33509 21.7317 7.92102 22.2825L8.22571 22.5637L21.1046 22.599C35.4367 22.6341 34.5226 22.6809 34.8742 21.8371C35.0968 21.3333 34.9327 20.7474 34.4875 20.3958C34.1945 20.1615 34.0538 20.1615 21.2804 20.1732C12.5968 20.1732 8.29602 20.22 8.12023 20.302Z" fill="#130032"/>
<path d="M8.12023 20.302C7.45227 20.6302 7.33509 21.7317 7.92102 22.2825L8.22571 22.5637L21.1046 22.599C35.4367 22.6341 34.5226 22.6809 34.8742 21.8371C35.0968 21.3333 34.9327 20.7474 34.4875 20.3958C34.1945 20.1615 34.0538 20.1615 21.2804 20.1732C12.5968 20.1732 8.29602 20.22 8.12023 20.302Z" fill="#130032"/>
<path d="M37.7345 27.4975C31.4649 29.6068 30.6095 29.935 30.3164 30.2513L29.9883 30.6146L30.0351 37.1302C30.0821 44.2669 30.0821 44.185 30.8321 46.4584C32.5079 51.4856 36.9609 56.1497 43.1484 59.3489C44.0274 59.806 44.7891 60.1225 45 60.1225C45.4688 60.1225 47.9063 58.8685 49.6524 57.7201C54.5157 54.5326 57.7617 50.6888 59.168 46.4584C59.918 44.185 59.918 44.2669 59.9649 37.1302L60.0117 30.6146L59.6837 30.2513C59.3907 29.9231 58.5587 29.6185 52.2305 27.4856C48.3047 26.1614 45.0351 25.0834 44.9649 25.0951C44.8829 25.0951 41.6367 26.1731 37.7345 27.4975ZM51.375 29.8412L57.5391 31.9271V36.7552C57.5391 39.4154 57.4805 42.1106 57.422 42.7669C57.1407 45.5209 55.9688 48.1459 53.8946 50.7005C52.0899 52.9271 48.7266 55.5755 45.8555 57.0521L45 57.4856L43.9805 56.9584C41.6601 55.7513 39.0234 53.7826 37.1954 51.8959C34.4297 49.0364 32.918 46.0481 32.5782 42.7669C32.5196 42.1106 32.4609 39.4154 32.4609 36.7552V31.9271L38.5313 29.8997C41.8595 28.7747 44.672 27.8138 44.7657 27.7669C44.8595 27.7084 45 27.685 45.0704 27.7084C45.1407 27.7435 47.9766 28.6927 51.375 29.8412Z" fill="#130032"/>
<path d="M37.7345 27.4975C31.4649 29.6068 30.6095 29.935 30.3164 30.2513L29.9883 30.6146L30.0351 37.1302C30.0821 44.2669 30.0821 44.185 30.8321 46.4584C32.5079 51.4856 36.9609 56.1497 43.1484 59.3489C44.0274 59.806 44.7891 60.1225 45 60.1225C45.4688 60.1225 47.9063 58.8685 49.6524 57.7201C54.5157 54.5326 57.7617 50.6888 59.168 46.4584C59.918 44.185 59.918 44.2669 59.9649 37.1302L60.0117 30.6146L59.6837 30.2513C59.3907 29.9231 58.5587 29.6185 52.2305 27.4856C48.3047 26.1614 45.0351 25.0834 44.9649 25.0951C44.8829 25.0951 41.6367 26.1731 37.7345 27.4975ZM51.375 29.8412L57.5391 31.9271V36.7552C57.5391 39.4154 57.4805 42.1106 57.422 42.7669C57.1407 45.5209 55.9688 48.1459 53.8946 50.7005C52.0899 52.9271 48.7266 55.5755 45.8555 57.0521L45 57.4856L43.9805 56.9584C41.6601 55.7513 39.0234 53.7826 37.1954 51.8959C34.4297 49.0364 32.918 46.0481 32.5782 42.7669C32.5196 42.1106 32.4609 39.4154 32.4609 36.7552V31.9271L38.5313 29.8997C41.8595 28.7747 44.672 27.8138 44.7657 27.7669C44.8595 27.7084 45 27.685 45.0704 27.7084C45.1407 27.7435 47.9766 28.6927 51.375 29.8412Z" fill="#130032"/>
<path d="M51.974 36.5209C51.7865 36.6146 49.8646 38.4427 47.7319 40.5872C45.3412 42.9662 43.7944 44.431 43.7357 44.3606C43.6771 44.2904 42.7748 43.1654 41.7202 41.8412C40.6771 40.5169 39.6928 39.3217 39.5287 39.1693C39.0131 38.7005 38.0639 38.8763 37.6889 39.5209C37.2787 40.2122 37.3958 40.4231 40.3139 44.056C41.7904 45.9193 43.0912 47.4779 43.1966 47.513C43.6186 47.6771 44.1577 47.5717 44.6029 47.2435C44.849 47.056 46.9936 44.9584 49.349 42.5912C53.9896 37.9154 53.9896 37.9154 53.6029 37.0951C53.4271 36.7318 52.8529 36.3334 52.4779 36.3334C52.3958 36.3334 52.1732 36.4154 51.974 36.5209Z" fill="#130032"/>
<path d="M51.974 36.5209C51.7865 36.6146 49.8646 38.4427 47.7319 40.5872C45.3412 42.9662 43.7944 44.431 43.7357 44.3606C43.6771 44.2904 42.7748 43.1654 41.7202 41.8412C40.6771 40.5169 39.6928 39.3217 39.5287 39.1693C39.0131 38.7005 38.0639 38.8763 37.6889 39.5209C37.2787 40.2122 37.3958 40.4231 40.3139 44.056C41.7904 45.9193 43.0912 47.4779 43.1966 47.513C43.6186 47.6771 44.1577 47.5717 44.6029 47.2435C44.849 47.056 46.9936 44.9584 49.349 42.5912C53.9896 37.9154 53.9896 37.9154 53.6029 37.0951C53.4271 36.7318 52.8529 36.3334 52.4779 36.3334C52.3958 36.3334 52.1732 36.4154 51.974 36.5209Z" fill="#130032"/>
<path d="M8.12023 27.8022C7.45227 28.1302 7.33509 29.2319 7.92102 29.7826L8.22571 30.0639L16.0889 30.099C23.2139 30.1342 23.9992 30.1107 24.3272 29.9467C25.0421 29.5717 25.1945 28.5756 24.6202 28.0014L24.2804 27.6615L16.3234 27.6732C11.0734 27.6732 8.29602 27.7201 8.12023 27.8022Z" fill="#130032"/>
<path d="M8.12023 27.8022C7.45227 28.1302 7.33509 29.2319 7.92102 29.7826L8.22571 30.0639L16.0889 30.099C23.2139 30.1342 23.9992 30.1107 24.3272 29.9467C25.0421 29.5717 25.1945 28.5756 24.6202 28.0014L24.2804 27.6615L16.3234 27.6732C11.0734 27.6732 8.29602 27.7201 8.12023 27.8022Z" fill="#130032"/>
<path d="M8.12023 35.3022C7.45227 35.6302 7.33509 36.7319 7.92102 37.2826L8.22571 37.5639L16.0889 37.599C23.2139 37.6342 23.9992 37.6107 24.3272 37.4467C25.0421 37.0717 25.1945 36.0756 24.6202 35.5014L24.2804 35.1615L16.3234 35.1732C11.0734 35.1732 8.29602 35.2201 8.12023 35.3022Z" fill="#130032"/>
<path d="M8.12023 35.3022C7.45227 35.6302 7.33509 36.7319 7.92102 37.2826L8.22571 37.5639L16.0889 37.599C23.2139 37.6342 23.9992 37.6107 24.3272 37.4467C25.0421 37.0717 25.1945 36.0756 24.6202 35.5014L24.2804 35.1615L16.3234 35.1732C11.0734 35.1732 8.29602 35.2201 8.12023 35.3022Z" fill="#130032"/>
</g>
</g>
<defs>
<clipPath id="clip0_0_174">
<rect width="60" height="60" fill="white" transform="translate(0 0.122314)"/>
</clipPath>
</defs>
</svg>
