<svg width="303" height="180" viewBox="0 0 303 180" fill="none" xmlns="http://www.w3.org/2000/svg">
<path fill-rule="evenodd" clip-rule="evenodd" d="M9.48397 5.1999C9.48397 7.51966 7.58369 9.3999 5.24279 9.3999C2.90028 9.3999 1 7.51966 1 5.1999C1 2.88014 2.90028 0.999896 5.24279 0.999896C7.58369 0.999896 9.48397 2.88014 9.48397 5.1999Z" stroke="#738833"/>
<path fill-rule="evenodd" clip-rule="evenodd" d="M41.9683 5.1999C41.9683 7.51966 40.0681 9.3999 37.7272 9.3999C35.3847 9.3999 33.4844 7.51966 33.4844 5.1999C33.4844 2.88014 35.3847 0.999896 37.7272 0.999896C40.0681 0.999896 41.9683 2.88014 41.9683 5.1999Z" stroke="#738833"/>
<path fill-rule="evenodd" clip-rule="evenodd" d="M74.4527 5.1999C74.4527 7.51966 72.5524 9.3999 70.2115 9.3999C67.869 9.3999 65.9688 7.51966 65.9688 5.1999C65.9688 2.88014 67.869 0.999896 70.2115 0.999896C72.5524 0.999896 74.4527 2.88014 74.4527 5.1999Z" stroke="#738833"/>
<path fill-rule="evenodd" clip-rule="evenodd" d="M106.937 5.1999C106.937 7.51966 105.038 9.3999 102.696 9.3999C100.353 9.3999 98.4531 7.51966 98.4531 5.1999C98.4531 2.88014 100.353 0.999896 102.696 0.999896C105.038 0.999896 106.937 2.88014 106.937 5.1999Z" stroke="#738833"/>
<path fill-rule="evenodd" clip-rule="evenodd" d="M139.421 5.1999C139.421 7.51966 137.522 9.3999 135.179 9.3999C132.837 9.3999 130.938 7.51966 130.938 5.1999C130.938 2.88014 132.837 0.999896 135.179 0.999896C137.522 0.999896 139.421 2.88014 139.421 5.1999Z" stroke="#738833"/>
<path fill-rule="evenodd" clip-rule="evenodd" d="M171.906 5.1999C171.906 7.51966 170.007 9.3999 167.664 9.3999C165.321 9.3999 163.422 7.51966 163.422 5.1999C163.422 2.88014 165.321 0.999896 167.664 0.999896C170.007 0.999896 171.906 2.88014 171.906 5.1999Z" stroke="#738833"/>
<path fill-rule="evenodd" clip-rule="evenodd" d="M204.39 5.1999C204.39 7.51966 202.491 9.3999 200.15 9.3999C197.805 9.3999 195.906 7.51966 195.906 5.1999C195.906 2.88014 197.805 0.999896 200.15 0.999896C202.491 0.999896 204.39 2.88014 204.39 5.1999Z" stroke="#738833"/>
<path fill-rule="evenodd" clip-rule="evenodd" d="M236.875 5.1999C236.875 7.51966 234.974 9.3999 232.633 9.3999C230.289 9.3999 228.391 7.51966 228.391 5.1999C228.391 2.88014 230.289 0.999896 232.633 0.999896C234.974 0.999896 236.875 2.88014 236.875 5.1999Z" stroke="#738833"/>
<path fill-rule="evenodd" clip-rule="evenodd" d="M269.359 5.1999C269.359 7.51966 267.459 9.3999 265.118 9.3999C262.775 9.3999 260.875 7.51966 260.875 5.1999C260.875 2.88014 262.775 0.999896 265.118 0.999896C267.459 0.999896 269.359 2.88014 269.359 5.1999Z" stroke="#738833"/>
<path fill-rule="evenodd" clip-rule="evenodd" d="M301.843 5.1999C301.843 7.51966 299.943 9.3999 297.602 9.3999C295.26 9.3999 293.359 7.51966 293.359 5.1999C293.359 2.88014 295.26 0.999896 297.602 0.999896C299.943 0.999896 301.843 2.88014 301.843 5.1999Z" stroke="#738833"/>
<path fill-rule="evenodd" clip-rule="evenodd" d="M9.48397 47.5998C9.48397 49.9196 7.58369 51.7998 5.24279 51.7998C2.90028 51.7998 1 49.9196 1 47.5998C1 45.28 2.90028 43.3998 5.24279 43.3998C7.58369 43.3998 9.48397 45.28 9.48397 47.5998Z" stroke="#738833"/>
<path fill-rule="evenodd" clip-rule="evenodd" d="M41.9683 47.5998C41.9683 49.9196 40.0681 51.7998 37.7272 51.7998C35.3847 51.7998 33.4844 49.9196 33.4844 47.5998C33.4844 45.28 35.3847 43.3998 37.7272 43.3998C40.0681 43.3998 41.9683 45.28 41.9683 47.5998Z" stroke="#738833"/>
<path fill-rule="evenodd" clip-rule="evenodd" d="M74.4527 47.5998C74.4527 49.9196 72.5524 51.7998 70.2115 51.7998C67.869 51.7998 65.9688 49.9196 65.9688 47.5998C65.9688 45.28 67.869 43.3998 70.2115 43.3998C72.5524 43.3998 74.4527 45.28 74.4527 47.5998Z" stroke="#738833"/>
<path fill-rule="evenodd" clip-rule="evenodd" d="M106.937 47.5998C106.937 49.9196 105.038 51.7998 102.696 51.7998C100.353 51.7998 98.4531 49.9196 98.4531 47.5998C98.4531 45.28 100.353 43.3998 102.696 43.3998C105.038 43.3998 106.937 45.28 106.937 47.5998Z" stroke="#738833"/>
<path fill-rule="evenodd" clip-rule="evenodd" d="M139.421 47.5998C139.421 49.9196 137.522 51.7998 135.179 51.7998C132.837 51.7998 130.938 49.9196 130.938 47.5998C130.938 45.28 132.837 43.3998 135.179 43.3998C137.522 43.3998 139.421 45.28 139.421 47.5998Z" stroke="#738833"/>
<path fill-rule="evenodd" clip-rule="evenodd" d="M171.906 47.5998C171.906 49.9196 170.007 51.7998 167.664 51.7998C165.321 51.7998 163.422 49.9196 163.422 47.5998C163.422 45.28 165.321 43.3998 167.664 43.3998C170.007 43.3998 171.906 45.28 171.906 47.5998Z" stroke="#738833"/>
<path fill-rule="evenodd" clip-rule="evenodd" d="M204.39 47.5998C204.39 49.9196 202.491 51.7998 200.15 51.7998C197.805 51.7998 195.906 49.9196 195.906 47.5998C195.906 45.28 197.805 43.3998 200.15 43.3998C202.491 43.3998 204.39 45.28 204.39 47.5998Z" stroke="#738833"/>
<path fill-rule="evenodd" clip-rule="evenodd" d="M236.875 47.5998C236.875 49.9196 234.974 51.7998 232.633 51.7998C230.289 51.7998 228.391 49.9196 228.391 47.5998C228.391 45.28 230.289 43.3998 232.633 43.3998C234.974 43.3998 236.875 45.28 236.875 47.5998Z" stroke="#738833"/>
<path fill-rule="evenodd" clip-rule="evenodd" d="M269.359 47.5998C269.359 49.9196 267.459 51.7998 265.118 51.7998C262.775 51.7998 260.875 49.9196 260.875 47.5998C260.875 45.28 262.775 43.3998 265.118 43.3998C267.459 43.3998 269.359 45.28 269.359 47.5998Z" stroke="#738833"/>
<path fill-rule="evenodd" clip-rule="evenodd" d="M301.843 47.5998C301.843 49.9196 299.943 51.7998 297.602 51.7998C295.26 51.7998 293.359 49.9196 293.359 47.5998C293.359 45.28 295.26 43.3998 297.602 43.3998C299.943 43.3998 301.843 45.28 301.843 47.5998Z" stroke="#738833"/>
<path fill-rule="evenodd" clip-rule="evenodd" d="M9.48397 90.0002C9.48397 92.32 7.58369 94.2002 5.24279 94.2002C2.90028 94.2002 1 92.32 1 90.0002C1 87.6804 2.90028 85.8002 5.24279 85.8002C7.58369 85.8002 9.48397 87.6804 9.48397 90.0002Z" stroke="#738833"/>
<path fill-rule="evenodd" clip-rule="evenodd" d="M41.9683 90.0002C41.9683 92.32 40.0681 94.2002 37.7272 94.2002C35.3847 94.2002 33.4844 92.32 33.4844 90.0002C33.4844 87.6804 35.3847 85.8002 37.7272 85.8002C40.0681 85.8002 41.9683 87.6804 41.9683 90.0002Z" stroke="#738833"/>
<path fill-rule="evenodd" clip-rule="evenodd" d="M74.4527 90.0002C74.4527 92.32 72.5524 94.2002 70.2115 94.2002C67.869 94.2002 65.9688 92.32 65.9688 90.0002C65.9688 87.6804 67.869 85.8002 70.2115 85.8002C72.5524 85.8002 74.4527 87.6804 74.4527 90.0002Z" stroke="#738833"/>
<path fill-rule="evenodd" clip-rule="evenodd" d="M106.937 90.0002C106.937 92.32 105.038 94.2002 102.696 94.2002C100.353 94.2002 98.4531 92.32 98.4531 90.0002C98.4531 87.6804 100.353 85.8002 102.696 85.8002C105.038 85.8002 106.937 87.6804 106.937 90.0002Z" stroke="#738833"/>
<path fill-rule="evenodd" clip-rule="evenodd" d="M139.421 90.0002C139.421 92.32 137.522 94.2002 135.179 94.2002C132.837 94.2002 130.938 92.32 130.938 90.0002C130.938 87.6804 132.837 85.8002 135.179 85.8002C137.522 85.8002 139.421 87.6804 139.421 90.0002Z" stroke="#738833"/>
<path fill-rule="evenodd" clip-rule="evenodd" d="M171.906 90.0002C171.906 92.32 170.007 94.2002 167.664 94.2002C165.321 94.2002 163.422 92.32 163.422 90.0002C163.422 87.6804 165.321 85.8002 167.664 85.8002C170.007 85.8002 171.906 87.6804 171.906 90.0002Z" stroke="#738833"/>
<path fill-rule="evenodd" clip-rule="evenodd" d="M204.39 90.0002C204.39 92.32 202.491 94.2002 200.15 94.2002C197.805 94.2002 195.906 92.32 195.906 90.0002C195.906 87.6804 197.805 85.8002 200.15 85.8002C202.491 85.8002 204.39 87.6804 204.39 90.0002Z" stroke="#738833"/>
<path fill-rule="evenodd" clip-rule="evenodd" d="M236.875 90.0002C236.875 92.32 234.974 94.2002 232.633 94.2002C230.289 94.2002 228.391 92.32 228.391 90.0002C228.391 87.6804 230.289 85.8002 232.633 85.8002C234.974 85.8002 236.875 87.6804 236.875 90.0002Z" stroke="#738833"/>
<path fill-rule="evenodd" clip-rule="evenodd" d="M269.359 90.0002C269.359 92.32 267.459 94.2002 265.118 94.2002C262.775 94.2002 260.875 92.32 260.875 90.0002C260.875 87.6804 262.775 85.8002 265.118 85.8002C267.459 85.8002 269.359 87.6804 269.359 90.0002Z" stroke="#738833"/>
<path fill-rule="evenodd" clip-rule="evenodd" d="M301.843 90.0002C301.843 92.32 299.943 94.2002 297.602 94.2002C295.26 94.2002 293.359 92.32 293.359 90.0002C293.359 87.6804 295.26 85.8002 297.602 85.8002C299.943 85.8002 301.843 87.6804 301.843 90.0002Z" stroke="#738833"/>
<path fill-rule="evenodd" clip-rule="evenodd" d="M9.48397 132.4C9.48397 134.72 7.58369 136.6 5.24278 136.6C2.90028 136.6 1 134.72 1 132.4C1 130.08 2.90028 128.2 5.24278 128.2C7.58369 128.2 9.48397 130.08 9.48397 132.4Z" stroke="#738833"/>
<path fill-rule="evenodd" clip-rule="evenodd" d="M41.9683 132.4C41.9683 134.72 40.0681 136.6 37.7272 136.6C35.3847 136.6 33.4844 134.72 33.4844 132.4C33.4844 130.08 35.3847 128.2 37.7272 128.2C40.0681 128.2 41.9683 130.08 41.9683 132.4Z" stroke="#738833"/>
<path fill-rule="evenodd" clip-rule="evenodd" d="M74.4527 132.4C74.4527 134.72 72.5524 136.6 70.2115 136.6C67.869 136.6 65.9688 134.72 65.9688 132.4C65.9688 130.08 67.869 128.2 70.2115 128.2C72.5524 128.2 74.4527 130.08 74.4527 132.4Z" stroke="#738833"/>
<path fill-rule="evenodd" clip-rule="evenodd" d="M106.937 132.4C106.937 134.72 105.038 136.6 102.696 136.6C100.353 136.6 98.4531 134.72 98.4531 132.4C98.4531 130.08 100.353 128.2 102.696 128.2C105.038 128.2 106.937 130.08 106.937 132.4Z" stroke="#738833"/>
<path fill-rule="evenodd" clip-rule="evenodd" d="M139.421 132.4C139.421 134.72 137.522 136.6 135.179 136.6C132.837 136.6 130.938 134.72 130.938 132.4C130.938 130.08 132.837 128.2 135.179 128.2C137.522 128.2 139.421 130.08 139.421 132.4Z" stroke="#738833"/>
<path fill-rule="evenodd" clip-rule="evenodd" d="M171.906 132.4C171.906 134.72 170.007 136.6 167.664 136.6C165.321 136.6 163.422 134.72 163.422 132.4C163.422 130.08 165.321 128.2 167.664 128.2C170.007 128.2 171.906 130.08 171.906 132.4Z" stroke="#738833"/>
<path fill-rule="evenodd" clip-rule="evenodd" d="M204.39 132.4C204.39 134.72 202.491 136.6 200.15 136.6C197.805 136.6 195.906 134.72 195.906 132.4C195.906 130.08 197.805 128.2 200.15 128.2C202.491 128.2 204.39 130.08 204.39 132.4Z" stroke="#738833"/>
<path fill-rule="evenodd" clip-rule="evenodd" d="M236.875 132.4C236.875 134.72 234.974 136.6 232.633 136.6C230.289 136.6 228.391 134.72 228.391 132.4C228.391 130.08 230.289 128.2 232.633 128.2C234.974 128.2 236.875 130.08 236.875 132.4Z" stroke="#738833"/>
<path fill-rule="evenodd" clip-rule="evenodd" d="M269.359 132.4C269.359 134.72 267.459 136.6 265.118 136.6C262.775 136.6 260.875 134.72 260.875 132.4C260.875 130.08 262.775 128.2 265.118 128.2C267.459 128.2 269.359 130.08 269.359 132.4Z" stroke="#738833"/>
<path fill-rule="evenodd" clip-rule="evenodd" d="M301.843 132.4C301.843 134.72 299.943 136.6 297.602 136.6C295.26 136.6 293.359 134.72 293.359 132.4C293.359 130.08 295.26 128.2 297.602 128.2C299.943 128.2 301.843 130.08 301.843 132.4Z" stroke="#738833"/>
<path fill-rule="evenodd" clip-rule="evenodd" d="M9.48397 174.8C9.48397 177.12 7.58369 179 5.24279 179C2.90028 179 1 177.12 1 174.8C1 172.48 2.90028 170.6 5.24279 170.6C7.58369 170.6 9.48397 172.48 9.48397 174.8Z" stroke="#738833"/>
<path fill-rule="evenodd" clip-rule="evenodd" d="M41.9683 174.8C41.9683 177.12 40.0681 179 37.7272 179C35.3847 179 33.4844 177.12 33.4844 174.8C33.4844 172.48 35.3847 170.6 37.7272 170.6C40.0681 170.6 41.9683 172.48 41.9683 174.8Z" stroke="#738833"/>
<path fill-rule="evenodd" clip-rule="evenodd" d="M74.4527 174.8C74.4527 177.12 72.5524 179 70.2115 179C67.869 179 65.9688 177.12 65.9688 174.8C65.9688 172.48 67.869 170.6 70.2115 170.6C72.5524 170.6 74.4527 172.48 74.4527 174.8Z" stroke="#738833"/>
<path fill-rule="evenodd" clip-rule="evenodd" d="M106.937 174.8C106.937 177.12 105.038 179 102.696 179C100.353 179 98.4531 177.12 98.4531 174.8C98.4531 172.48 100.353 170.6 102.696 170.6C105.038 170.6 106.937 172.48 106.937 174.8Z" stroke="#738833"/>
<path fill-rule="evenodd" clip-rule="evenodd" d="M139.421 174.8C139.421 177.12 137.522 179 135.179 179C132.837 179 130.938 177.12 130.938 174.8C130.938 172.48 132.837 170.6 135.179 170.6C137.522 170.6 139.421 172.48 139.421 174.8Z" stroke="#738833"/>
<path fill-rule="evenodd" clip-rule="evenodd" d="M171.906 174.8C171.906 177.12 170.007 179 167.664 179C165.321 179 163.422 177.12 163.422 174.8C163.422 172.48 165.321 170.6 167.664 170.6C170.007 170.6 171.906 172.48 171.906 174.8Z" stroke="#738833"/>
<path fill-rule="evenodd" clip-rule="evenodd" d="M204.39 174.8C204.39 177.12 202.491 179 200.15 179C197.805 179 195.906 177.12 195.906 174.8C195.906 172.48 197.805 170.6 200.15 170.6C202.491 170.6 204.39 172.48 204.39 174.8Z" stroke="#738833"/>
<path fill-rule="evenodd" clip-rule="evenodd" d="M236.875 174.8C236.875 177.12 234.974 179 232.633 179C230.289 179 228.391 177.12 228.391 174.8C228.391 172.48 230.289 170.6 232.633 170.6C234.974 170.6 236.875 172.48 236.875 174.8Z" stroke="#738833"/>
<path fill-rule="evenodd" clip-rule="evenodd" d="M269.359 174.8C269.359 177.12 267.459 179 265.118 179C262.775 179 260.875 177.12 260.875 174.8C260.875 172.48 262.775 170.6 265.118 170.6C267.459 170.6 269.359 172.48 269.359 174.8Z" stroke="#738833"/>
<path fill-rule="evenodd" clip-rule="evenodd" d="M301.843 174.8C301.843 177.12 299.943 179 297.602 179C295.26 179 293.359 177.12 293.359 174.8C293.359 172.48 295.26 170.6 297.602 170.6C299.943 170.6 301.843 172.48 301.843 174.8Z" stroke="#738833"/>
</svg>
