<svg width="120" height="96" viewBox="0 0 120 96" fill="none" xmlns="http://www.w3.org/2000/svg">
<rect width="115.888" height="87.4768" rx="7.47665" fill="#1C1B1B"/>
<rect x="0.24" y="0.24" width="115.408" height="86.9968" rx="7.23665" stroke="white" stroke-opacity="0.12" stroke-width="0.48"/>
<line opacity="0.1" x1="1.63407e-08" y1="14.7662" x2="115.888" y2="14.7662" stroke="white" stroke-opacity="0.96" stroke-width="0.373833"/>
<rect x="6.59937" y="20.0535" width="20.4546" height="58.9594" rx="4.24599" fill="#252424" stroke="#4B4B4B" stroke-width="0.48"/>
<rect x="34.0156" y="19.8115" width="85.9815" height="75.5142" rx="4.48599" fill="#252424"/>
<rect x="34.2556" y="20.0515" width="85.5015" height="75.0342" rx="4.24599" stroke="white" stroke-opacity="0.12" stroke-width="0.48"/>
<rect x="5.98438" y="5.98047" width="2.61683" height="2.61683" rx="1.30841" fill="#6939C1"/>
<rect x="9.64844" y="5.98047" width="2.61683" height="2.61683" rx="1.30841" fill="#B5B3A6"/>
<rect x="13.3125" y="5.98047" width="2.61683" height="2.61683" rx="1.30841" fill="#B5B3A6"/>
<path d="M82.6719 66.0849V71.9091L95.0512 57.3486L82.6719 42.7881V48.6123L90.0995 57.3486L82.6719 66.0849Z" fill="#6939C1"/>
<path d="M67.8169 66.0849V71.9091L55.4375 57.3486L67.8169 42.7881V48.6123L60.3892 57.3486L67.8169 66.0849Z" fill="#6939C1"/>
<path d="M67.8164 63.1738H72.7682L82.6716 51.5254H77.7199L67.8164 63.1738Z" fill="#6939C1"/>
<line opacity="0.1" x1="1.63407e-08" y1="14.7662" x2="115.888" y2="14.7662" stroke="white" stroke-opacity="0.96" stroke-width="0.373833"/>
<rect x="5.98438" y="5.98047" width="2.61683" height="2.61683" rx="1.30841" fill="#6939C1"/>
<rect x="9.64844" y="5.98047" width="2.61683" height="2.61683" rx="1.30841" fill="#B5B3A6"/>
<rect x="13.3125" y="5.98047" width="2.61683" height="2.61683" rx="1.30841" fill="#B5B3A6"/>
</svg>
