<svg width="293" height="133" viewBox="0 0 293 133" fill="none" xmlns="http://www.w3.org/2000/svg">
<mask id="path-1-inside-1_5360_695" fill="white">
<path fill-rule="evenodd" clip-rule="evenodd" d="M105.381 39.4355L106.691 33.312C106.974 32.4663 107.559 31.7544 108.333 31.312C109.108 30.8696 110.018 30.7275 110.891 30.9128C111.763 31.0981 112.537 31.5979 113.065 32.3169C113.592 33.0359 113.837 33.924 113.753 34.8119L110.552 49.5236C110.626 49.8157 110.661 50.1165 110.658 50.4189C110.654 50.8912 110.554 51.3578 110.366 51.7911C110.178 52.2244 109.905 52.6157 109.564 52.9419C109.222 53.2681 108.819 53.5225 108.377 53.6903C107.493 54.0388 106.507 54.0221 105.635 53.644C104.881 53.3167 104.265 52.7416 103.887 52.0198C103.789 51.8832 103.701 51.7392 103.622 51.5887C103.449 51.2569 103.331 50.9027 103.268 50.5394C100.722 44.5185 96.767 39.1894 91.7296 35.0042C86.0298 30.1833 79.1362 26.9873 71.7739 25.7522C64.4116 24.5172 56.8524 25.2887 49.8914 27.9857C42.9304 30.6827 36.8246 35.2055 32.2162 41.0785C27.6078 46.9515 24.667 53.9577 23.7029 61.3605C23.5839 62.304 23.095 63.1616 22.3437 63.7446C21.5923 64.3275 20.6402 64.5882 19.6967 64.4692C19.4383 64.4389 19.1839 64.381 18.9379 64.2964C18.2309 63.9814 17.643 63.4489 17.2598 62.7765C16.8766 62.1041 16.7181 61.3269 16.8074 60.5581C18.1517 49.8148 23.0433 39.8275 30.707 32.1794C38.3707 24.5312 48.3678 19.6599 59.1138 18.3374C69.8598 17.015 80.7397 19.3172 90.029 24.8791C96.1904 28.5682 101.418 33.5515 105.381 39.4355ZM45.5296 111.112C41.3006 109.28 37.3492 106.864 33.7907 103.936C30.1568 100.901 27.0009 97.3639 24.4105 93.4447L23.0722 99.7011C22.8566 100.628 22.2902 101.436 21.4921 101.954C20.6939 102.473 19.7259 102.662 18.7912 102.482L18.1143 102.241C17.3612 101.901 16.7442 101.318 16.3625 100.585C15.9809 99.8526 15.8568 99.0129 16.0102 98.2011L19.4699 82.2963C19.5552 81.9779 19.6831 81.6756 19.8483 81.3967C20.0267 81.0566 20.2596 80.7472 20.5382 80.4812C20.8797 80.155 21.2832 79.9005 21.7247 79.7328C22.6087 79.3843 23.5948 79.401 24.4666 79.7791C25.3383 80.1572 26.0243 80.8659 26.3738 81.7494C28.8913 88.2356 33.0209 93.9727 38.3724 98.4189C44.1028 103.156 50.9996 106.269 58.3431 107.433C65.6866 108.596 73.2078 107.767 80.1219 105.033C87.036 102.299 93.0896 97.7592 97.6513 91.8878C102.213 86.0164 105.115 79.0285 106.056 71.653C106.175 70.7096 106.664 69.852 107.415 69.269C108.166 68.686 109.118 68.4253 110.062 68.5444C111.005 68.6634 111.863 69.1523 112.446 69.9036C113.029 70.6549 113.29 71.6071 113.17 72.5506C112.203 80.0305 109.511 87.1832 105.306 93.4444C101.101 99.7055 95.4979 104.904 88.9397 108.629C82.3816 112.353 75.0474 114.503 67.5161 114.908C59.9849 115.313 52.4625 113.962 45.5428 110.962L45.5296 111.112ZM35.7441 85.2849C39.4577 91.0472 44.7965 95.579 51.0856 98.307C59.5205 101.952 69.0566 102.104 77.6031 98.7285C86.1496 95.3533 93.0089 88.7268 96.6772 80.3019C99.4053 74.0128 100.207 67.056 98.9815 60.3111C97.7557 53.5663 94.5575 47.3364 89.7911 42.4092C85.0247 37.4821 78.9043 34.079 72.2039 32.6303C65.5034 31.1816 58.5238 31.7524 52.1477 34.2705C45.7716 36.7885 40.2854 41.1408 36.3828 46.7768C32.4802 52.4129 30.3365 59.0796 30.2228 65.934C30.1091 72.7884 32.0306 79.5225 35.7441 85.2849ZM59.9639 39.4618C65.3132 38.4897 70.8307 39.1256 75.8186 41.2892C82.4986 44.2006 87.7523 49.641 90.4288 56.4185C93.1054 63.196 92.9865 70.7581 90.0983 77.4482C87.9346 82.4361 84.3405 86.6704 79.7704 89.6157C75.2002 92.5609 69.8594 94.0849 64.4232 93.9947C58.9869 93.9046 53.6996 92.2044 49.2296 89.1093C44.7597 86.0141 41.3079 81.663 39.3109 76.6061C37.3138 71.5491 36.8612 66.0136 38.0102 60.6994C39.1591 55.3852 41.8581 50.5311 45.7659 46.7508C49.6736 42.9705 54.6146 40.434 59.9639 39.4618Z"/>
</mask>
<path fill-rule="evenodd" clip-rule="evenodd" d="M105.381 39.4355L106.691 33.312C106.974 32.4663 107.559 31.7544 108.333 31.312C109.108 30.8696 110.018 30.7275 110.891 30.9128C111.763 31.0981 112.537 31.5979 113.065 32.3169C113.592 33.0359 113.837 33.924 113.753 34.8119L110.552 49.5236C110.626 49.8157 110.661 50.1165 110.658 50.4189C110.654 50.8912 110.554 51.3578 110.366 51.7911C110.178 52.2244 109.905 52.6157 109.564 52.9419C109.222 53.2681 108.819 53.5225 108.377 53.6903C107.493 54.0388 106.507 54.0221 105.635 53.644C104.881 53.3167 104.265 52.7416 103.887 52.0198C103.789 51.8832 103.701 51.7392 103.622 51.5887C103.449 51.2569 103.331 50.9027 103.268 50.5394C100.722 44.5185 96.767 39.1894 91.7296 35.0042C86.0298 30.1833 79.1362 26.9873 71.7739 25.7522C64.4116 24.5172 56.8524 25.2887 49.8914 27.9857C42.9304 30.6827 36.8246 35.2055 32.2162 41.0785C27.6078 46.9515 24.667 53.9577 23.7029 61.3605C23.5839 62.304 23.095 63.1616 22.3437 63.7446C21.5923 64.3275 20.6402 64.5882 19.6967 64.4692C19.4383 64.4389 19.1839 64.381 18.9379 64.2964C18.2309 63.9814 17.643 63.4489 17.2598 62.7765C16.8766 62.1041 16.7181 61.3269 16.8074 60.5581C18.1517 49.8148 23.0433 39.8275 30.707 32.1794C38.3707 24.5312 48.3678 19.6599 59.1138 18.3374C69.8598 17.015 80.7397 19.3172 90.029 24.8791C96.1904 28.5682 101.418 33.5515 105.381 39.4355ZM45.5296 111.112C41.3006 109.28 37.3492 106.864 33.7907 103.936C30.1568 100.901 27.0009 97.3639 24.4105 93.4447L23.0722 99.7011C22.8566 100.628 22.2902 101.436 21.4921 101.954C20.6939 102.473 19.7259 102.662 18.7912 102.482L18.1143 102.241C17.3612 101.901 16.7442 101.318 16.3625 100.585C15.9809 99.8526 15.8568 99.0129 16.0102 98.2011L19.4699 82.2963C19.5552 81.9779 19.6831 81.6756 19.8483 81.3967C20.0267 81.0566 20.2596 80.7472 20.5382 80.4812C20.8797 80.155 21.2832 79.9005 21.7247 79.7328C22.6087 79.3843 23.5948 79.401 24.4666 79.7791C25.3383 80.1572 26.0243 80.8659 26.3738 81.7494C28.8913 88.2356 33.0209 93.9727 38.3724 98.4189C44.1028 103.156 50.9996 106.269 58.3431 107.433C65.6866 108.596 73.2078 107.767 80.1219 105.033C87.036 102.299 93.0896 97.7592 97.6513 91.8878C102.213 86.0164 105.115 79.0285 106.056 71.653C106.175 70.7096 106.664 69.852 107.415 69.269C108.166 68.686 109.118 68.4253 110.062 68.5444C111.005 68.6634 111.863 69.1523 112.446 69.9036C113.029 70.6549 113.29 71.6071 113.17 72.5506C112.203 80.0305 109.511 87.1832 105.306 93.4444C101.101 99.7055 95.4979 104.904 88.9397 108.629C82.3816 112.353 75.0474 114.503 67.5161 114.908C59.9849 115.313 52.4625 113.962 45.5428 110.962L45.5296 111.112ZM35.7441 85.2849C39.4577 91.0472 44.7965 95.579 51.0856 98.307C59.5205 101.952 69.0566 102.104 77.6031 98.7285C86.1496 95.3533 93.0089 88.7268 96.6772 80.3019C99.4053 74.0128 100.207 67.056 98.9815 60.3111C97.7557 53.5663 94.5575 47.3364 89.7911 42.4092C85.0247 37.4821 78.9043 34.079 72.2039 32.6303C65.5034 31.1816 58.5238 31.7524 52.1477 34.2705C45.7716 36.7885 40.2854 41.1408 36.3828 46.7768C32.4802 52.4129 30.3365 59.0796 30.2228 65.934C30.1091 72.7884 32.0306 79.5225 35.7441 85.2849ZM59.9639 39.4618C65.3132 38.4897 70.8307 39.1256 75.8186 41.2892C82.4986 44.2006 87.7523 49.641 90.4288 56.4185C93.1054 63.196 92.9865 70.7581 90.0983 77.4482C87.9346 82.4361 84.3405 86.6704 79.7704 89.6157C75.2002 92.5609 69.8594 94.0849 64.4232 93.9947C58.9869 93.9046 53.6996 92.2044 49.2296 89.1093C44.7597 86.0141 41.3079 81.663 39.3109 76.6061C37.3138 71.5491 36.8612 66.0136 38.0102 60.6994C39.1591 55.3852 41.8581 50.5311 45.7659 46.7508C49.6736 42.9705 54.6146 40.434 59.9639 39.4618Z" fill="white" fill-opacity="0.1"/>
<path d="M106.691 33.312L104.895 32.7099L104.861 32.8112L104.838 32.9158L106.691 33.312ZM105.381 39.4355L103.81 40.4935L106.3 44.1917L107.233 39.8317L105.381 39.4355ZM108.333 31.312L107.394 29.6673L107.394 29.6673L108.333 31.312ZM110.891 30.9128L111.284 29.06L111.284 29.06L110.891 30.9128ZM113.065 32.3169L114.592 31.1961L114.592 31.1961L113.065 32.3169ZM113.753 34.8119L115.603 35.2145L115.627 35.1042L115.638 34.9917L113.753 34.8119ZM110.552 49.5236L108.702 49.121L108.607 49.554L108.715 49.9838L110.552 49.5236ZM110.658 50.4189L108.764 50.3998L108.764 50.3998L110.658 50.4189ZM109.564 52.9419L108.256 51.572L108.256 51.572L109.564 52.9419ZM108.377 53.6903L107.705 51.9198L107.694 51.9239L107.683 51.9282L108.377 53.6903ZM103.887 52.0198L105.564 51.1402L105.503 51.0239L105.427 50.9171L103.887 52.0198ZM103.622 51.5887L105.302 50.7137L105.302 50.7137L103.622 51.5887ZM103.268 50.5394L105.135 50.2187L105.098 50.0031L105.013 49.8015L103.268 50.5394ZM91.7296 35.0042L90.5065 36.4503L90.5128 36.4557L90.5192 36.461L91.7296 35.0042ZM71.7739 25.7522L72.0873 23.8842L71.7739 25.7522ZM49.8914 27.9857L50.5757 29.7519L49.8914 27.9857ZM32.2162 41.0785L33.7063 42.2477L32.2162 41.0785ZM23.7029 61.3605L21.8247 61.1159L21.8237 61.1234L23.7029 61.3605ZM22.3437 63.7446L21.1825 62.2481L21.1825 62.2481L22.3437 63.7446ZM19.6967 64.4692L19.9338 62.59L19.9255 62.5889L19.9171 62.5879L19.6967 64.4692ZM18.9379 64.2964L18.1671 66.0265L18.2432 66.0604L18.3219 66.0875L18.9379 64.2964ZM17.2598 62.7765L15.6142 63.7144L15.6142 63.7144L17.2598 62.7765ZM16.8074 60.5581L14.928 60.3229L14.9269 60.3312L14.926 60.3395L16.8074 60.5581ZM30.707 32.1794L29.369 30.8387L30.707 32.1794ZM59.1138 18.3374L58.8825 16.4575L59.1138 18.3374ZM90.029 24.8791L89.056 26.5042L90.029 24.8791ZM33.7907 103.936L32.5766 105.39L32.587 105.398L33.7907 103.936ZM45.5296 111.112L44.7767 112.85L47.1869 113.894L47.4165 111.278L45.5296 111.112ZM24.4105 93.4447L25.9906 92.4003L23.5023 88.6355L22.5583 93.0485L24.4105 93.4447ZM23.0722 99.7011L24.917 100.13L24.9208 100.114L24.9244 100.097L23.0722 99.7011ZM21.4921 101.954L20.4602 100.366L20.4602 100.366L21.4921 101.954ZM18.7912 102.482L18.1547 104.266L18.2911 104.315L18.4334 104.342L18.7912 102.482ZM18.1143 102.241L17.3358 103.967L17.4056 103.999L17.4778 104.025L18.1143 102.241ZM16.3625 100.585L18.0424 99.7103L18.0424 99.7103L16.3625 100.585ZM16.0102 98.2011L14.1594 97.7985L14.1539 97.8239L14.1491 97.8494L16.0102 98.2011ZM19.4699 82.2963L17.6403 81.8063L17.6287 81.8497L17.6191 81.8937L19.4699 82.2963ZM19.8483 81.3967L21.478 82.3619L21.503 82.3198L21.5257 82.2764L19.8483 81.3967ZM20.5382 80.4812L21.8462 81.8511L21.8462 81.8511L20.5382 80.4812ZM21.7247 79.7328L22.3975 81.5033L22.4085 81.4992L22.4193 81.4949L21.7247 79.7328ZM26.3738 81.7494L28.1396 81.0641L28.1351 81.0526L26.3738 81.7494ZM38.3724 98.4189L37.162 99.8758L37.1656 99.8787L38.3724 98.4189ZM58.3431 107.433L58.0467 109.303L58.0467 109.303L58.3431 107.433ZM80.1219 105.033L80.8184 106.794L80.1219 105.033ZM97.6513 91.8878L96.1555 90.7257L97.6513 91.8878ZM106.056 71.653L107.935 71.8926L107.935 71.8901L106.056 71.653ZM107.415 69.269L106.254 67.7726L106.254 67.7726L107.415 69.269ZM110.062 68.5444L110.299 66.6652L110.299 66.6652L110.062 68.5444ZM113.17 72.5506L115.049 72.7935L115.05 72.7876L113.17 72.5506ZM88.9397 108.629L89.8752 110.276L88.9397 108.629ZM67.5161 114.908L67.4145 113.017L67.5161 114.908ZM45.5428 110.962L46.2963 109.224L43.8857 108.179L43.656 110.796L45.5428 110.962ZM51.0856 98.307L50.3319 100.045L50.3343 100.046L51.0856 98.307ZM35.7441 85.2849L34.152 86.3109L35.7441 85.2849ZM77.6031 98.7285L78.2988 100.49L78.2988 100.49L77.6031 98.7285ZM96.6772 80.3019L98.4138 81.0581L98.4149 81.0557L96.6772 80.3019ZM98.9815 60.3111L100.845 59.9725L100.845 59.9725L98.9815 60.3111ZM89.7911 42.4092L91.1525 41.0923L89.7911 42.4092ZM72.2039 32.6303L72.6041 30.779L72.6041 30.779L72.2039 32.6303ZM52.1477 34.2705L52.8434 36.0321L52.1477 34.2705ZM36.3828 46.7768L34.8256 45.6985L36.3828 46.7768ZM30.2228 65.934L32.1167 65.9654L30.2228 65.934ZM75.8186 41.2892L76.5754 39.5529L76.5724 39.5516L75.8186 41.2892ZM59.9639 39.4618L60.3026 41.3254L59.9639 39.4618ZM90.4288 56.4185L92.1905 55.7228L90.4288 56.4185ZM90.0983 77.4482L91.8359 78.2019L91.8372 78.1989L90.0983 77.4482ZM79.7704 89.6157L80.7964 91.2078L79.7704 89.6157ZM64.4232 93.9947L64.3918 95.8886L64.3918 95.8886L64.4232 93.9947ZM49.2296 89.1093L50.3079 87.5521L50.3079 87.5521L49.2296 89.1093ZM38.0102 60.6994L39.8615 61.0997L38.0102 60.6994ZM45.7659 46.7508L44.4489 45.3895L45.7659 46.7508ZM104.838 32.9158L103.529 39.0393L107.233 39.8317L108.543 33.7082L104.838 32.9158ZM107.394 29.6673C106.216 30.3404 105.326 31.4233 104.895 32.7099L108.487 33.914C108.622 33.5092 108.902 33.1684 109.273 32.9566L107.394 29.6673ZM111.284 29.06C109.957 28.7781 108.572 28.9943 107.394 29.6673L109.273 32.9566C109.644 32.7448 110.079 32.6768 110.497 32.7655L111.284 29.06ZM114.592 31.1961C113.789 30.1022 112.611 29.3419 111.284 29.06L110.497 32.7655C110.915 32.8542 111.285 33.0935 111.538 33.4377L114.592 31.1961ZM115.638 34.9917C115.767 33.641 115.394 32.29 114.592 31.1961L111.538 33.4377C111.79 33.7819 111.908 34.207 111.867 34.6321L115.638 34.9917ZM112.403 49.9262L115.603 35.2145L111.902 34.4093L108.702 49.121L112.403 49.9262ZM112.552 50.4381C112.557 49.9737 112.502 49.5118 112.39 49.0634L108.715 49.9838C108.749 50.1195 108.766 50.2593 108.764 50.3998L112.552 50.4381ZM112.104 52.5448C112.392 51.8796 112.545 51.1632 112.552 50.438L108.764 50.3998C108.762 50.6193 108.716 50.836 108.629 51.0373L112.104 52.5448ZM110.872 54.3117C111.396 53.8109 111.815 53.2101 112.104 52.5448L108.629 51.0373C108.541 51.2387 108.415 51.4205 108.256 51.572L110.872 54.3117ZM109.05 55.4609C109.728 55.2033 110.348 54.8125 110.872 54.3117L108.256 51.572C108.097 51.7236 107.91 51.8418 107.705 51.9198L109.05 55.4609ZM104.882 55.3817C106.214 55.9595 107.721 55.985 109.072 55.4524L107.683 51.9282C107.266 52.0926 106.8 52.0847 106.389 51.9063L104.882 55.3817ZM102.209 52.8994C102.788 54.0026 103.728 54.8814 104.882 55.3817L106.389 51.9063C106.033 51.7519 105.743 51.4807 105.564 51.1402L102.209 52.8994ZM101.942 52.4637C102.062 52.6937 102.197 52.9137 102.347 53.1226L105.427 50.9171C105.381 50.8526 105.339 50.7847 105.302 50.7137L101.942 52.4637ZM101.402 50.8601C101.497 51.4154 101.678 51.9567 101.942 52.4637L105.302 50.7137C105.22 50.5571 105.165 50.3901 105.135 50.2187L101.402 50.8601ZM90.5192 36.461C95.3235 40.4525 99.0951 45.535 101.524 51.2772L105.013 49.8015C102.348 43.502 98.2106 37.9262 92.94 33.5473L90.5192 36.461ZM71.4605 27.6202C78.4872 28.799 85.0665 31.8492 90.5065 36.4503L92.9528 33.558C86.9931 28.5173 79.7852 25.1756 72.0873 23.8842L71.4605 27.6202ZM50.5757 29.7519C57.2194 27.1778 64.4339 26.4415 71.4605 27.6202L72.0873 23.8842C64.3893 22.5929 56.4855 23.3996 49.2071 26.2195L50.5757 29.7519ZM33.7063 42.2477C38.1047 36.6425 43.932 32.3259 50.5757 29.7519L49.2071 26.2195C41.9287 29.0395 35.5446 33.7685 30.7261 39.9092L33.7063 42.2477ZM25.5812 61.6051C26.5012 54.5398 29.308 47.853 33.7063 42.2477L30.7261 39.9092C25.9076 46.05 22.8327 53.3757 21.8247 61.1159L25.5812 61.6051ZM23.5048 65.241C24.653 64.35 25.4002 63.0394 25.5821 61.5976L21.8237 61.1234C21.7676 61.5685 21.5369 61.9731 21.1825 62.2481L23.5048 65.241ZM19.4597 66.3484C20.9016 66.5303 22.3566 66.1319 23.5048 65.241L21.1825 62.2481C20.828 62.5232 20.3789 62.6461 19.9338 62.59L19.4597 66.3484ZM18.3219 66.0875C18.6962 66.2162 19.0833 66.3043 19.4763 66.3504L19.9171 62.5879C19.7934 62.5735 19.6717 62.5457 19.5539 62.5052L18.3219 66.0875ZM15.6142 63.7144C16.1972 64.7373 17.0916 65.5474 18.1671 66.0265L19.7087 62.5662C19.3703 62.4154 19.0888 62.1605 18.9054 61.8386L15.6142 63.7144ZM14.926 60.3395C14.7901 61.5091 15.0312 62.6914 15.6142 63.7144L18.9054 61.8386C18.722 61.5168 18.6461 61.1447 18.6888 60.7767L14.926 60.3395ZM29.369 30.8387C21.4068 38.7848 16.3246 49.1611 14.928 60.3229L18.6868 60.7933C19.9787 50.4685 24.6798 40.8702 32.045 33.52L29.369 30.8387ZM58.8825 16.4575C47.7179 17.8315 37.3312 22.8926 29.369 30.8387L32.045 33.52C39.4101 26.1699 49.0178 21.4883 59.3452 20.2174L58.8825 16.4575ZM91.002 23.254C81.3508 17.4755 70.0471 15.0836 58.8825 16.4575L59.3452 20.2174C69.6725 18.9465 80.1286 21.159 89.056 26.5042L91.002 23.254ZM106.952 38.3774C102.835 32.2643 97.4035 27.0869 91.002 23.254L89.056 26.5042C94.9774 30.0496 100.001 34.8387 103.81 40.4935L106.952 38.3774ZM32.587 105.398C36.2822 108.439 40.3853 110.948 44.7767 112.85L46.2826 109.374C42.216 107.612 38.4163 105.29 34.9943 102.473L32.587 105.398ZM22.8303 94.4891C25.5219 98.5613 28.801 102.237 32.5767 105.39L35.0047 102.482C31.5126 99.566 28.4799 96.1666 25.9906 92.4003L22.8303 94.4891ZM24.9244 100.097L26.2627 93.8409L22.5583 93.0485L21.22 99.3049L24.9244 100.097ZM22.5239 103.543C23.7328 102.757 24.5905 101.534 24.917 100.13L21.2273 99.272C21.1226 99.7221 20.8477 100.114 20.4602 100.366L22.5239 103.543ZM18.4334 104.342C19.849 104.614 21.315 104.328 22.5239 103.543L20.4602 100.366C20.0727 100.618 19.6028 100.709 19.149 100.622L18.4334 104.342ZM17.4778 104.025L18.1547 104.266L19.4277 100.698L18.7508 100.457L17.4778 104.025ZM14.6827 101.46C15.2607 102.57 16.1951 103.453 17.3358 103.967L18.8928 100.514C18.5272 100.349 18.2277 100.066 18.0424 99.7103L14.6827 101.46ZM14.1491 97.8494C13.9167 99.0788 14.1047 100.351 14.6827 101.46L18.0424 99.7103C17.8571 99.3546 17.7969 98.9469 17.8714 98.5528L14.1491 97.8494ZM17.6191 81.8937L14.1594 97.7985L17.861 98.6037L21.3208 82.6989L17.6191 81.8937ZM18.2186 80.4315C17.9662 80.8578 17.7706 81.3198 17.6403 81.8063L21.2996 82.7862C21.3398 82.636 21.4001 82.4934 21.478 82.3619L18.2186 80.4315ZM19.2301 79.1114C18.8023 79.5198 18.4448 79.9948 18.1709 80.517L21.5257 82.2764C21.6086 82.1184 21.7168 81.9747 21.8462 81.8511L19.2301 79.1114ZM21.0519 77.9622C20.374 78.2198 19.7545 78.6105 19.2301 79.1114L21.8462 81.8511C22.0049 81.6995 22.1924 81.5813 22.3975 81.5033L21.0519 77.9622ZM25.2203 78.0414C23.8881 77.4636 22.381 77.4381 21.0301 77.9706L22.4193 81.4949C22.8364 81.3305 23.3016 81.3384 23.7128 81.5167L25.2203 78.0414ZM28.1351 81.0526C27.6009 79.7023 26.5525 78.6193 25.2203 78.0414L23.7128 81.5167C24.124 81.6951 24.4476 82.0294 24.6126 82.4463L28.1351 81.0526ZM39.5828 96.962C34.479 92.7216 30.5406 87.25 28.1396 81.0641L24.6081 82.4348C27.2421 89.2211 31.5628 95.2238 37.162 99.8758L39.5828 96.962ZM58.6394 105.562C51.6307 104.451 45.0484 101.481 39.5793 96.9591L37.1656 99.8787C43.1572 104.832 50.3684 108.087 58.0467 109.303L58.6394 105.562ZM79.4253 103.272C72.8264 105.881 65.6482 106.672 58.6394 105.562L58.0467 109.303C65.725 110.52 73.5891 109.653 80.8184 106.794L79.4253 103.272ZM96.1555 90.7257C91.8019 96.3294 86.0242 100.662 79.4253 103.272L80.8184 106.794C88.0477 103.935 94.3774 99.1889 99.147 93.0498L96.1555 90.7257ZM104.177 71.4135C103.279 78.4527 100.509 85.122 96.1555 90.7257L99.147 93.0498C103.917 86.9108 106.951 79.6043 107.935 71.8926L104.177 71.4135ZM106.254 67.7726C105.106 68.6635 104.358 69.9741 104.176 71.416L107.935 71.8901C107.991 71.445 108.222 71.0404 108.576 70.7654L106.254 67.7726ZM110.299 66.6652C108.857 66.4833 107.402 66.8816 106.254 67.7726L108.576 70.7654C108.931 70.4904 109.38 70.3674 109.825 70.4236L110.299 66.6652ZM113.942 68.7425C113.051 67.5943 111.741 66.8471 110.299 66.6652L109.825 70.4236C110.27 70.4797 110.674 70.7104 110.949 71.0648L113.942 68.7425ZM115.05 72.7876C115.232 71.3457 114.833 69.8907 113.942 68.7425L110.949 71.0648C111.224 71.4192 111.347 71.8684 111.291 72.3135L115.05 72.7876ZM106.878 94.5004C111.247 87.9956 114.044 80.5645 115.049 72.7935L111.292 72.3077C110.362 79.4965 107.775 86.3709 103.733 92.3883L106.878 94.5004ZM89.8752 110.276C96.6886 106.406 102.509 101.005 106.878 94.5004L103.733 92.3883C99.6919 98.4058 94.3072 103.402 88.0043 106.982L89.8752 110.276ZM67.6178 116.799C75.4422 116.379 83.0618 114.145 89.8752 110.276L88.0043 106.982C81.7013 110.561 74.6526 112.628 67.4145 113.017L67.6178 116.799ZM44.7894 112.699C51.9784 115.817 59.7934 117.22 67.6178 116.799L67.4145 113.017C60.1763 113.406 52.9467 112.107 46.2963 109.224L44.7894 112.699ZM47.4165 111.278L47.4297 111.127L43.656 110.796L43.6428 110.947L47.4165 111.278ZM51.8394 96.5694C45.894 93.9904 40.8468 89.7063 37.3362 84.2588L34.152 86.3109C38.0685 92.3882 43.6991 97.1675 50.3319 100.045L51.8394 96.5694ZM76.9074 96.9668C68.8273 100.158 59.8116 100.014 51.837 96.5683L50.3343 100.046C59.2295 103.89 69.2859 104.05 78.2988 100.49L76.9074 96.9668ZM94.9406 79.5458C91.4725 87.5109 84.9874 93.7758 76.9074 96.9668L78.2988 100.49C87.3117 96.9308 94.5454 89.9427 98.4138 81.0581L94.9406 79.5458ZM97.1179 60.6498C98.2766 67.026 97.5186 73.6027 94.9396 79.5482L98.4149 81.0557C101.292 74.4229 102.138 67.0859 100.845 59.9725L97.1179 60.6498ZM88.4297 43.7262C92.9357 48.3841 95.9591 54.2735 97.1179 60.6498L100.845 59.9725C99.5523 52.859 96.1793 46.2887 91.1525 41.0923L88.4297 43.7262ZM71.8036 34.4816C78.1379 35.8512 83.9238 39.0683 88.4298 43.7262L91.1525 41.0923C86.1256 35.8959 79.6708 32.3069 72.6041 30.779L71.8036 34.4816ZM52.8434 36.0321C58.8711 33.6517 65.4693 33.1121 71.8036 34.4816L72.6041 30.779C65.5375 29.2511 58.1765 29.8531 51.452 32.5088L52.8434 36.0321ZM37.94 47.8551C41.6293 42.527 46.8158 38.4126 52.8434 36.0321L51.452 32.5088C44.7275 35.1644 38.9414 39.7545 34.8256 45.6985L37.94 47.8551ZM32.1167 65.9654C32.2241 59.4856 34.2507 53.1832 37.94 47.8551L34.8256 45.6985C30.7097 51.6426 28.4489 58.6737 28.329 65.9026L32.1167 65.9654ZM37.3362 84.2588C33.8256 78.8114 32.0092 72.4452 32.1167 65.9654L28.329 65.9026C28.2091 73.1315 30.2355 80.2337 34.152 86.3109L37.3362 84.2588ZM76.5724 39.5516C71.2408 37.2389 65.3431 36.5591 59.6252 37.5982L60.3026 41.3254C65.2833 40.4202 70.4206 41.0123 75.0649 43.0269L76.5724 39.5516ZM92.1905 55.7228C89.3299 48.4791 83.7148 42.6645 76.5754 39.5529L75.0618 43.0256C81.2823 45.7367 86.1747 50.8029 88.6671 57.1142L92.1905 55.7228ZM91.8372 78.1989C94.9241 71.0487 95.0512 62.9665 92.1905 55.7228L88.6671 57.1142C91.1596 63.4255 91.0489 70.4675 88.3593 76.6974L91.8372 78.1989ZM80.7964 91.2078C85.6814 88.0596 89.5232 83.5335 91.8359 78.2019L88.3606 76.6944C86.3461 81.3387 82.9996 85.2812 78.7443 88.0236L80.7964 91.2078ZM64.3918 95.8886C70.2025 95.9849 75.9114 94.356 80.7964 91.2078L78.7443 88.0236C74.4891 90.7659 69.5162 92.1848 64.4546 92.1009L64.3918 95.8886ZM48.1513 90.6665C52.9293 93.9749 58.581 95.7922 64.3918 95.8886L64.4546 92.1009C59.3929 92.017 54.4698 90.434 50.3079 87.5521L48.1513 90.6665ZM37.5492 77.3018C39.6838 82.7071 43.3734 87.3581 48.1513 90.6665L50.3079 87.5521C46.1459 84.6702 42.932 80.6188 41.0726 75.9103L37.5492 77.3018ZM36.1588 60.2991C34.9307 65.9795 35.4145 71.8964 37.5492 77.3018L41.0726 75.9103C39.2131 71.2018 38.7917 66.0477 39.8615 61.0997L36.1588 60.2991ZM44.4489 45.3895C40.272 49.4302 37.387 54.6188 36.1588 60.2991L39.8615 61.0997C40.9313 56.1516 43.4443 51.6319 47.0828 48.1121L44.4489 45.3895ZM59.6252 37.5982C53.9073 38.6374 48.6259 41.3487 44.4489 45.3895L47.0828 48.1121C50.7213 44.5924 55.3218 42.2305 60.3026 41.3254L59.6252 37.5982Z" fill="#6939C1" mask="url(#path-1-inside-1_5360_695)"/>
<path fill-rule="evenodd" clip-rule="evenodd" d="M52.6818 62.9732L54.4272 54.4641C54.5645 53.7784 54.9316 53.1601 55.468 52.7114C56.0044 52.2628 56.6779 52.0106 57.377 51.9968H71.6873C72.3959 51.9981 73.0822 52.2446 73.6298 52.6943C74.1775 53.144 74.5527 53.7693 74.6919 54.4641L76.4024 62.9732H78.7949C79.4005 62.9732 79.8915 63.4642 79.8915 64.0698C79.8915 64.6754 79.4005 65.1664 78.7949 65.1664H50.2841C49.6785 65.1664 49.1875 64.6754 49.1875 64.0698C49.1875 63.4642 49.6785 62.9732 50.2841 62.9732H52.6818ZM74.1655 62.9625H54.9097L56.5217 54.8917C56.562 54.6943 56.669 54.5168 56.8248 54.389C56.9805 54.2612 57.1755 54.1909 57.377 54.1899H71.6873C71.8888 54.1909 72.0838 54.2612 72.2395 54.389C72.3953 54.5168 72.5023 54.6943 72.5426 54.8917L74.1655 62.9625ZM56.3121 80.5079C55.0108 80.5079 53.7387 80.1221 52.6567 79.3991C51.5748 78.6761 50.7315 77.6486 50.2335 76.4463C49.7355 75.2441 49.6052 73.9212 49.8591 72.6449C50.1129 71.3686 50.7396 70.1962 51.6597 69.2761C52.5799 68.3559 53.7522 67.7293 55.0285 67.4754C56.3048 67.2216 57.6277 67.3519 58.8299 67.8498C60.0321 68.3478 61.0597 69.1911 61.7827 70.2731C62.3026 71.0512 62.6482 71.9276 62.8013 72.8425H66.2708C66.2819 72.7765 66.2939 72.7107 66.307 72.6449C66.5609 71.3686 67.1875 70.1962 68.1076 69.2761C69.0278 68.3559 70.2001 67.7293 71.4764 67.4754C72.7527 67.2216 74.0756 67.3519 75.2778 67.8498C76.4801 68.3478 77.5076 69.1911 78.2306 70.2731C78.9536 71.3551 79.3394 72.6272 79.3394 73.9285C79.3394 75.6735 78.6462 77.347 77.4124 78.5809C76.1785 79.8148 74.505 80.5079 72.76 80.5079C71.4587 80.5079 70.1866 80.1221 69.1047 79.3991C68.0227 78.6761 67.1794 77.6486 66.6814 76.4463C66.4926 75.9904 66.3566 75.5172 66.2744 75.0357H62.7977C62.5699 76.3698 61.9342 77.6111 60.9644 78.5809C59.7306 79.8148 58.057 80.5079 56.3121 80.5079ZM56.3121 69.5422C55.4446 69.5422 54.5965 69.7994 53.8752 70.2814C53.1539 70.7634 52.5917 71.4484 52.2597 72.2499C51.9277 73.0514 51.8408 73.9333 52.0101 74.7842C52.1793 75.6351 52.5971 76.4166 53.2105 77.0301C53.8239 77.6435 54.6055 78.0613 55.4564 78.2305C56.3072 78.3997 57.1891 78.3129 57.9906 77.9809C58.7921 77.6489 59.4772 77.0867 59.9591 76.3654C60.4411 75.6441 60.6984 74.796 60.6984 73.9285C60.6984 72.7652 60.2362 71.6495 59.4136 70.8269C58.5911 70.0043 57.4754 69.5422 56.3121 69.5422ZM72.76 69.5422C71.8925 69.5422 71.0444 69.7994 70.3231 70.2814C69.6018 70.7634 69.0396 71.4484 68.7076 72.2499C68.3756 73.0514 68.2888 73.9333 68.458 74.7842C68.6272 75.6351 69.045 76.4166 69.6584 77.0301C70.2719 77.6435 71.0534 78.0613 71.9043 78.2305C72.7551 78.3997 73.6371 78.3129 74.4386 77.9809C75.24 77.6489 75.9251 77.0867 76.4071 76.3654C76.889 75.6441 77.1463 74.796 77.1463 73.9285C77.1463 72.7652 76.6842 71.6495 75.8616 70.8269C75.039 70.0043 73.9233 69.5422 72.76 69.5422Z" fill="#6939C1"/>
<path d="M108.91 61.9704L280.957 61.9705" stroke="#6939C1" stroke-width="1.7174" stroke-linecap="round"/>
<path d="M264.375 43.4901L264.375 81.2729" stroke="#6939C1" stroke-width="1.7174" stroke-linecap="round"/>
<path d="M280.406 42.9187L264.377 42.9187" stroke="#6939C1" stroke-width="1.7174" stroke-linecap="round"/>
<path d="M280.406 81.2738L264.377 81.2738" stroke="#6939C1" stroke-width="1.7174" stroke-linecap="round"/>
<rect x="281.265" y="37.4806" width="10.8769" height="10.8769" rx="1.66016" fill="white" fill-opacity="0.1" stroke="#6939C1" stroke-width="1.7174"/>
<rect x="281.265" y="56.4864" width="10.8769" height="10.8769" rx="1.66016" fill="white" fill-opacity="0.1" stroke="#6939C1" stroke-width="1.7174"/>
<rect x="281.265" y="75.8355" width="10.8769" height="10.8769" rx="1.66016" fill="white" fill-opacity="0.1" stroke="#6939C1" stroke-width="1.7174"/>
</svg>
