<svg width="260" height="180" viewBox="0 0 260 180" fill="none" xmlns="http://www.w3.org/2000/svg">
<g opacity="0.15">
<path d="M243.728 151.302H240.402V154.628H243.728V151.302Z" fill="white"/>
<path d="M224.413 114.659V116.826H203.782C203.768 117.061 203.754 117.296 203.738 117.53H224.413V119.697H229.451V114.659H224.413Z" fill="white"/>
<path d="M269.568 179.15L269.568 169.073H259.492V173.76H223.798L203.616 153.276L221.953 153.311V158.006H232.03V147.93H221.953L221.953 152.607L195.387 152.555C195.39 152.638 195.387 152.907 195.387 153.31L216.23 174.464H259.492V179.15H269.568ZM216.524 173.76L196.329 153.262L202.626 153.274L222.809 173.76L216.524 173.76Z" fill="white"/>
<path d="M283.964 111.482L277.65 105.167L262.409 105.178L236.447 131.276H231.963V127.033L256.249 102.62L256.243 86.9147H260.934V76.8381H250.857V81.5245H216.328L230.979 66.6549H243.71V67.6331H246.37L246.371 64.973H243.71L243.71 65.9517H230.685L215.34 81.5245H204.68C204.626 81.7592 204.572 81.9938 204.523 82.2287H250.858V86.9147H255.54L255.545 102.33L231.41 126.592H221.887V136.669H231.964L231.963 131.981L263.522 131.982V131.279L245.887 131.277L271.153 105.878L277.358 105.872L283.462 111.975V116.152L273.523 116.145V115.166H270.861L270.861 117.827H273.523V116.849L283.462 116.856V121.559H293.537L293.538 111.483H283.964V111.482ZM244.894 131.277H237.44L262.701 105.882L270.159 105.878L244.894 131.277ZM292.471 120.493H284.528V112.549H292.471V120.493Z" fill="white"/>
<path d="M221.893 97.6914V102.378H203.355C203.287 102.611 203.226 102.846 203.176 103.082H221.893V107.768H231.969V97.6914H221.893ZM230.903 106.702H222.959V98.7575H230.903V106.702Z" fill="white"/>
<path d="M271.918 0V9.58364L265.815 15.6859L231.013 15.6436L220.048 26.7717L207.586 26.7768V27.4806L226.916 27.4721L237.877 16.348L266.106 16.3913L272.42 10.0762H281.994V0.000199148H271.918V0ZM226.621 26.7693L221.037 26.7709L231.307 16.348L236.88 16.3565L226.621 26.7693ZM280.927 9.01018H272.984V1.06645H280.927V9.01018Z" fill="white"/>
<path d="M256.397 33.3986V35.5659H222.532L197.782 60.6857H197.777V61.3898H213.564L238.313 36.2701H256.397V38.4369H261.436V33.3984H256.397V33.3986ZM213.269 60.6857H198.771L222.827 36.2701H237.326L213.269 60.6857Z" fill="white"/>
</g>
<g opacity="0.5">
<path d="M227.266 145.598H224.242V148.621H227.266V145.598Z" fill="#6939C1"/>
<path d="M249.212 126.5H246.793V128.919H249.212V126.5Z" fill="#6939C1"/>
<path d="M209.697 112.284V114.254H190.942C190.93 114.468 190.917 114.681 190.902 114.894H209.697V116.864H214.278V112.284H209.697Z" fill="#6939C1"/>
<path d="M261.44 92.8053L275.04 92.7654L285.004 102.88H285.138L314.02 102.898V104.091H317.043V101.067L314.02 101.068L314.02 102.258L289.968 102.242L280 92.1257L261.704 92.1646L256.156 86.6166V77.9047H246.996V87.0647H255.699L261.44 92.8053ZM255.187 86.0948H247.966V78.8738H255.187V86.0948ZM275.938 92.7654H279.732L289.069 102.242L285.272 102.24L275.938 92.7654Z" fill="#6939C1"/>
<path d="M250.75 170.915L250.75 161.755H241.59V166.015H209.141L190.794 147.393L207.463 147.426V151.694H216.624V142.534H207.464L207.464 146.786L183.312 146.738C183.315 146.814 183.312 147.058 183.312 147.425L202.26 166.656H241.59V170.916H250.75V170.915ZM202.528 166.016L184.169 147.381L189.893 147.392L208.242 166.016H202.528Z" fill="#6939C1"/>
<path d="M263.84 109.395L258.1 103.655L244.245 103.664L220.643 127.39H216.567V123.533L238.644 101.339L238.64 87.0616H242.904V77.9007H233.743V82.1612H202.353L215.672 68.6434H227.246V69.5326H229.664L229.664 67.1144H227.245L227.245 68.0041H215.404L201.454 82.1612H191.763C191.715 82.3746 191.666 82.5877 191.621 82.8013H233.743V87.0612H237.999L238.004 101.075L216.063 123.132H207.406V132.292H216.567L216.566 128.03L245.256 128.032V127.392L229.224 127.39L252.194 104.3L257.835 104.295L263.383 109.843V113.64L254.347 113.634V112.744H251.928L251.928 115.163H254.347V114.274L263.383 114.28V118.556H272.543L272.543 109.395L263.84 109.395ZM228.321 127.391H221.545L244.51 104.305L251.29 104.301L228.321 127.391ZM271.574 117.587H264.353V110.365H271.574V117.587Z" fill="#6939C1"/>
<path d="M207.406 96.8591V101.12H190.553C190.491 101.332 190.437 101.545 190.391 101.76H207.406V106.02H216.566V96.8591H207.406ZM215.597 105.05H208.376V97.8281H215.597V105.05Z" fill="#6939C1"/>
<path d="M258.984 33.659H255.961V36.6822H258.984V33.659Z" fill="#6939C1"/>
<path d="M252.918 59.1525V49.9916H262.078V54.2515L277.746 54.2497V54.8899L262.078 54.8916V59.1525H252.918Z" fill="#6939C1"/>
<path d="M252.89 8.04957V16.7621L247.342 22.3096L215.703 22.271L205.735 32.3874L194.406 32.3919V33.0316L211.979 33.0239L221.943 22.9111L247.606 22.9505L253.347 17.2094H262.05V8.04938L252.89 8.04957ZM211.711 32.3852L206.634 32.3866L215.971 22.9111L221.038 22.9188L211.711 32.3852ZM261.08 16.2405H253.859V9.01893H261.08V16.2405Z" fill="#6939C1"/>
<path d="M238.783 38.4114V40.3817H207.997L185.497 63.2178H185.492V63.858H199.844L222.343 41.0218H238.783V42.9916H243.364V38.4114H238.783ZM199.576 63.2178H186.396L208.265 41.0218H221.445L199.576 63.2178Z" fill="#6939C1"/>
</g>
<g opacity="0.15">
<path d="M14.3147 151.302H17.6406V154.628H14.3147V151.302Z" fill="white"/>
<path d="M33.63 114.659V116.826H54.2612C54.2746 117.061 54.2891 117.296 54.3047 117.53H33.63V119.697H28.5917V114.659H33.63Z" fill="white"/>
<path d="M-11.525 179.15L-11.5247 169.073H-1.4486V173.76H34.2452L54.4268 153.276L36.09 153.311V158.006H26.013V147.93H36.0896L36.09 152.607L62.6562 152.555C62.6531 152.638 62.6562 152.907 62.6562 153.31L41.8134 174.464H-1.44884V179.15H-11.525ZM41.5192 173.76L61.7142 153.262L55.4171 153.274L35.2336 173.76L41.5192 173.76Z" fill="white"/>
<path d="M-25.9213 111.482L-19.6068 105.167L-4.3662 105.178L21.5957 131.276H26.0795V127.033L1.79445 102.62L1.8 86.9147H-2.8914V76.8381H7.18568V81.5245H41.7146L27.0637 66.6549H14.3328V67.6331H11.6726L11.6722 64.973H14.3328L14.3332 65.9517H27.3581L42.7027 81.5245H53.3629C53.4167 81.7592 53.4707 81.9938 53.5195 82.2287H7.18544V86.9147H2.50336L2.49844 102.33L26.6334 126.592H36.1559V136.669H26.0793L26.0797 131.981L-5.47892 131.982V131.279L12.1558 131.277L-13.1104 105.878L-19.3155 105.872L-25.4188 111.975V116.152L-15.4796 116.145V115.166H-12.8183L-12.8179 117.827H-15.4796V116.849L-25.4188 116.856V121.559H-35.4944L-35.4948 111.483H-25.9213V111.482ZM13.1493 131.277H20.603L-4.65804 105.882L-12.1163 105.878L13.1493 131.277ZM-34.428 120.493H-26.4848V112.549H-34.428V120.493Z" fill="white"/>
<path d="M36.1498 97.6914V102.378H54.6884C54.7564 102.611 54.8166 102.846 54.8672 103.082H36.1498V107.768H26.0741V97.6914H36.1498ZM27.1402 106.702H35.0839V98.7575H27.1402V106.702Z" fill="white"/>
<path d="M-13.8748 0V9.58364L-7.77198 15.6859L27.0305 15.6436L37.9952 26.7717L50.457 26.7768V27.4806L31.1274 27.4721L20.1662 16.348L-8.06305 16.3913L-14.3775 10.0762H-23.9509V0.000199148H-13.8748V0ZM31.422 26.7693L37.0064 26.7709L26.736 16.348L21.1625 16.3565L31.422 26.7693ZM-22.8844 9.01018H-14.9413V1.06645H-22.8844V9.01018Z" fill="white"/>
<path d="M1.64547 33.3986V35.5659H35.5108L60.2607 60.6857H60.2656V61.3898H44.479L19.7301 36.2701H1.64547V38.4369H-3.39333V33.3984H1.64547V33.3986ZM44.7739 60.6857H59.2717L35.2159 36.2701H20.7175L44.7739 60.6857Z" fill="white"/>
</g>
<g opacity="0.5">
<path d="M30.7772 145.598H33.8008V148.621H30.7772V145.598Z" fill="#6939C1"/>
<path d="M8.83097 126.5H11.25V128.919H8.83097V126.5Z" fill="#6939C1"/>
<path d="M48.3455 112.284V114.254H67.1011C67.1133 114.468 67.1264 114.681 67.1406 114.894H48.3455V116.864H43.7653V112.284H48.3455Z" fill="#6939C1"/>
<path d="M-3.39663 92.8053L-16.9967 92.7654L-26.961 102.88H-27.0951L-55.9773 102.898V104.091H-59.0005V101.067L-55.977 101.068L-55.9773 102.258L-31.9249 102.242L-21.957 92.1257L-3.66119 92.1646L1.88719 86.6166V77.9047H11.0469V87.0647H2.344L-3.39663 92.8053ZM2.85618 86.0948H10.0773V78.8738H2.85618V86.0948ZM-17.8951 92.7654H-21.6894L-31.0261 102.242L-27.2292 102.24L-17.8951 92.7654Z" fill="#6939C1"/>
<path d="M7.29295 170.915L7.29333 161.755H16.4534V166.015H48.9024L67.2493 147.393L50.5795 147.426V151.694H41.4185V142.534H50.579L50.5793 146.786L74.7305 146.738C74.7277 146.814 74.7305 147.058 74.7305 147.425L55.7825 166.656H16.4532V170.916H7.29295V170.915ZM55.5151 166.016L73.8742 147.381L68.1496 147.392L49.801 166.016H55.5151Z" fill="#6939C1"/>
<path d="M-5.79737 109.395L-0.0569382 103.655L13.798 103.664L37.3998 127.39H41.4758V123.533L19.3985 101.339L19.4034 87.0616H15.1386V77.9007H24.2998V82.1612H55.6897L42.3708 68.6434H30.7974V69.5326H28.3792L28.3788 67.1144H30.7976L30.798 68.0041H42.6388L56.5885 82.1612H66.2795C66.3283 82.3746 66.3774 82.5877 66.4219 82.8013H24.2998V87.0612H20.0435L20.039 101.075L41.9799 123.132H50.6367V132.292H41.4762L41.4766 128.03L12.787 128.032V127.392L28.8186 127.39L5.84918 104.3L0.208252 104.295L-5.34017 109.843V113.64L3.69549 113.634V112.744H6.11476L6.11514 115.163H3.69549V114.274L-5.34017 114.28V118.556H-14.4999L-14.5003 109.395H-5.79737V109.395ZM29.7215 127.391H36.4977L13.5331 104.305L6.75271 104.301L29.7215 127.391ZM-13.5307 117.587H-6.30975V110.365H-13.5307V117.587Z" fill="#6939C1"/>
<path d="M50.6366 96.8591V101.12H67.49C67.5519 101.332 67.6065 101.545 67.6523 101.76H50.6366V106.02H41.4769V96.8591H50.6366ZM42.4458 105.05H49.6674V97.8281H42.4458V105.05Z" fill="#6939C1"/>
<path d="M-0.941491 33.659H2.08203V36.6822H-0.941491V33.659Z" fill="#6939C1"/>
<path d="M5.125 59.1525V49.9916H-4.03546V54.2515L-19.7028 54.2497V54.8899L-4.03546 54.8916V59.1525H5.125Z" fill="#6939C1"/>
<path d="M5.15323 8.04957V16.7621L10.7012 22.3096L42.3399 22.271L52.3077 32.3874L63.6367 32.3919V33.0316L46.0644 33.0239L36.0997 22.9111L10.4367 22.9505L4.69604 17.2094H-4.00684V8.04938L5.15323 8.04957ZM46.3322 32.3852L51.409 32.3866L42.0723 22.9111L37.0054 22.9188L46.3322 32.3852ZM-3.03732 16.2405H4.18385V9.01893H-3.03732V16.2405Z" fill="#6939C1"/>
<path d="M19.2598 38.4114V40.3817H50.0463L72.5462 63.2178H72.5508V63.858H58.1992L35.7003 41.0218H19.2598V42.9916H14.6791V38.4114H19.2598ZM58.4674 63.2178H71.6473L49.7784 41.0218H36.5981L58.4674 63.2178Z" fill="#6939C1"/>
</g>
<path d="M166.271 143.599V30.2528H187.711V143.599H166.271Z" fill="white" fill-opacity="0.1" stroke="#6939C1" stroke-width="1.65951"/>
<path d="M88.8228 111.51H88.241L88.0427 112.057L76.6084 143.599H53.7037L97.2488 30.2528H117.406L163.783 143.599H139.703L127.559 112.042L127.354 111.51H126.784H88.8228ZM95.443 91.5446L95.0256 92.6642H96.2205H107.623H119.026H120.226L119.803 91.5417L119.026 91.8345C119.803 91.5417 119.803 91.5416 119.803 91.5414L119.802 91.5404L119.801 91.5365L119.795 91.5212L119.772 91.4606L119.683 91.2239L119.343 90.3232L118.125 87.0907C117.113 84.4054 115.755 80.8005 114.37 77.1225C111.599 69.7603 108.729 62.1204 108.311 60.9554L107.487 58.6614L106.74 60.9814C106.438 61.9195 103.621 69.5404 100.865 76.9672C99.4902 80.6716 98.1347 84.316 97.1229 87.0343C96.6169 88.3934 96.197 89.521 95.9035 90.3089L95.5632 91.2222L95.4737 91.4624L95.4507 91.5239L95.4449 91.5394L95.4435 91.5433L95.4431 91.5443C95.443 91.5445 95.443 91.5446 96.2205 91.8345L95.443 91.5446Z" fill="white" fill-opacity="0.1" stroke="#6939C1" stroke-width="1.65951"/>
</svg>
