<svg width="236" height="183" viewBox="0 0 236 183" fill="none" xmlns="http://www.w3.org/2000/svg">
<path d="M90.433 78.6052H49.8086V83.1037H90.433V78.6052Z" fill="white" fill-opacity="0.05"/>
<path d="M188.96 78.6052H148.336V83.1037H188.96V78.6052Z" fill="white" fill-opacity="0.05"/>
<path d="M51.0062 182.618C49.8677 182.618 48.7103 182.581 47.5673 182.506C35.0561 181.684 23.3036 176.23 14.475 167.148C5.6499 158.069 0.523118 146.167 0.0383783 133.633C-0.439602 121.267 3.5603 109.177 11.3013 99.5913C18.9262 90.1489 29.6577 83.7211 41.5187 81.4911C44.6048 80.9034 47.7977 80.6053 51.0062 80.6053H184.759C187.847 80.6053 190.938 80.8847 193.948 81.4358C205.79 83.6049 216.514 89.976 224.146 99.3753C231.893 108.915 235.902 120.961 235.437 133.293C234.443 159.601 213.057 180.998 186.75 182.005C186.084 182.031 185.422 182.044 184.761 182.044H184.758C172.264 182.043 160.263 177.463 150.969 169.148C148.379 166.829 145.08 165.553 141.679 165.553H94.8287C91.3718 165.553 88.0311 166.868 85.4223 169.255C76.0053 177.872 63.7826 182.618 51.0062 182.618ZM51.0062 83.6731C47.9905 83.6731 44.9897 83.9528 42.0887 84.5055C18.9509 88.8556 2.19267 109.925 3.10421 133.515C4.0386 157.686 23.657 177.861 47.7681 179.445C60.8995 180.305 73.712 175.813 83.3504 166.992C86.527 164.085 90.6035 162.485 94.8287 162.485H141.679C145.835 162.485 149.861 164.039 153.015 166.861C161.746 174.673 173.02 178.975 184.758 178.976H184.761C185.383 178.976 186.006 178.964 186.634 178.94C211.347 177.993 231.438 157.892 232.371 133.176C233.261 109.633 216.505 88.6872 193.395 84.4537C190.567 83.9361 187.661 83.6734 184.759 83.6734L51.0062 83.6731Z" fill="#6939C1"/>
<path d="M47.5546 155.197C34.549 155.197 23.9688 144.617 23.9688 131.611C23.9688 118.606 34.549 108.026 47.5546 108.026C60.5601 108.026 71.1404 118.606 71.1404 131.611C71.1404 144.617 60.5604 155.197 47.5546 155.197Z" fill="white" fill-opacity="0.05"/>
<path d="M183.229 171.236C160.989 171.236 142.895 153.142 142.895 130.901C142.895 108.661 160.988 90.5668 183.229 90.5668C205.47 90.5668 223.563 108.66 223.563 130.901C223.563 153.142 205.469 171.236 183.229 171.236Z" fill="white" fill-opacity="0.05"/>
<path d="M52.2092 119.014H42.8984V144.208H52.2092V119.014Z" fill="white" fill-opacity="0.1"/>
<path d="M34.957 126.956V136.267H60.1509V126.956H34.957Z" fill="white" fill-opacity="0.1"/>
<path d="M45.207 122.76L47.4592 120.508L49.7113 122.76" fill="#6939C1"/>
<path d="M45.3008 140.807L47.5526 143.059L49.8047 140.807" fill="#6939C1"/>
<path d="M38.4826 134.084L36.2305 131.833L38.4826 129.58" fill="#6939C1"/>
<path d="M56.5312 133.986L58.7834 131.734L56.5312 129.482" fill="#6939C1"/>
<path d="M168.061 144.19C166.58 144.19 165.12 143.789 163.839 143.032C161.929 141.902 160.574 140.097 160.022 137.948C159.47 135.799 159.789 133.564 160.919 131.654L172.766 111.623C174.254 109.107 176.995 107.544 179.922 107.544C181.403 107.544 182.862 107.944 184.143 108.702C186.053 109.832 187.408 111.637 187.96 113.786C188.512 115.935 188.193 118.17 187.064 120.08L175.216 140.111C173.728 142.627 170.986 144.19 168.061 144.19ZM179.922 109.078C177.535 109.078 175.299 110.352 174.086 112.404L162.238 132.436C161.318 133.993 161.059 135.815 161.508 137.567C161.958 139.319 163.063 140.791 164.619 141.711C165.664 142.329 166.854 142.656 168.061 142.656C170.446 142.656 172.683 141.382 173.896 139.331L185.744 119.299C186.664 117.742 186.924 115.92 186.474 114.168C186.024 112.416 184.919 110.944 183.363 110.023C182.318 109.405 181.128 109.078 179.922 109.078Z" fill="white" fill-opacity="0.1"/>
<path d="M179.771 121.727C178.766 121.727 177.774 121.455 176.905 120.941C175.607 120.174 174.687 118.948 174.312 117.489C173.938 116.03 174.154 114.512 174.921 113.215C175.931 111.506 177.793 110.445 179.78 110.445C180.786 110.445 181.777 110.717 182.647 111.231C183.944 111.998 184.864 113.224 185.239 114.683C185.614 116.142 185.397 117.66 184.63 118.957C183.621 120.665 181.758 121.727 179.771 121.727ZM179.78 111.979C178.333 111.979 176.977 112.752 176.241 113.996C175.683 114.94 175.526 116.045 175.798 117.107C176.071 118.169 176.741 119.062 177.685 119.62C178.319 119.995 179.04 120.193 179.771 120.193C181.218 120.193 182.575 119.42 183.31 118.176C183.869 117.232 184.026 116.127 183.753 115.065C183.48 114.003 182.81 113.11 181.866 112.552C181.233 112.177 180.511 111.979 179.78 111.979Z" fill="white" fill-opacity="0.1"/>
<path d="M184.649 116.205C184.713 113.515 182.584 111.282 179.894 111.217C177.203 111.153 174.97 113.282 174.906 115.972C174.841 118.663 176.97 120.896 179.661 120.961C182.351 121.025 184.585 118.896 184.649 116.205Z" fill="#6939C1"/>
<path d="M168.251 141.209C167.245 141.209 166.254 140.937 165.384 140.423C164.088 139.655 163.167 138.429 162.793 136.97C162.418 135.511 162.634 133.993 163.402 132.696C164.412 130.988 166.274 129.927 168.261 129.927C169.266 129.927 170.257 130.199 171.127 130.713C173.804 132.296 174.694 135.762 173.11 138.439C172.1 140.147 170.238 141.209 168.251 141.209ZM168.261 131.461C166.814 131.461 165.458 132.234 164.721 133.478C164.163 134.421 164.005 135.526 164.279 136.589C164.551 137.651 165.221 138.544 166.165 139.102C166.799 139.477 167.52 139.675 168.251 139.675C169.698 139.675 171.054 138.902 171.79 137.658C172.942 135.71 172.294 133.186 170.346 132.034C169.712 131.659 168.992 131.461 168.261 131.461Z" fill="white" fill-opacity="0.1"/>
<path d="M169.197 140.334C171.838 139.814 173.556 137.251 173.036 134.611C172.515 131.97 169.953 130.252 167.312 130.772C164.672 131.293 162.953 133.855 163.474 136.496C163.994 139.136 166.557 140.855 169.197 140.334Z" fill="#6939C1"/>
<path d="M186.306 154.982C184.825 154.982 183.366 154.582 182.085 153.825C180.175 152.695 178.819 150.889 178.268 148.74C177.717 146.591 178.035 144.356 179.165 142.446L191.012 122.415C192.499 119.899 195.242 118.336 198.168 118.336C199.649 118.336 201.108 118.737 202.388 119.494C206.331 121.825 207.641 126.929 205.31 130.871L193.462 150.904C191.975 153.42 189.232 154.982 186.306 154.982ZM198.167 119.871C195.781 119.871 193.544 121.145 192.331 123.197L180.484 143.228C179.563 144.785 179.304 146.607 179.754 148.359C180.203 150.111 181.309 151.583 182.865 152.504C183.91 153.122 185.1 153.448 186.306 153.448C188.692 153.448 190.929 152.174 192.142 150.122L203.99 130.09C205.89 126.876 204.821 122.715 201.608 120.815C200.563 120.197 199.373 119.871 198.167 119.871Z" fill="white" fill-opacity="0.1"/>
<path d="M198.017 132.515C197.011 132.515 196.02 132.243 195.151 131.729C193.853 130.962 192.934 129.736 192.558 128.276C192.184 126.817 192.4 125.3 193.167 124.003C194.177 122.295 196.039 121.233 198.026 121.233C199.031 121.233 200.023 121.505 200.893 122.019C203.57 123.603 204.46 127.068 202.876 129.745C201.866 131.454 200.003 132.515 198.017 132.515ZM198.026 122.767C196.579 122.767 195.222 123.54 194.487 124.784C193.929 125.728 193.772 126.833 194.044 127.895C194.317 128.957 194.987 129.85 195.931 130.408C196.565 130.783 197.286 130.981 198.017 130.981C199.464 130.981 200.82 130.208 201.557 128.964C202.709 127.015 202.061 124.492 200.112 123.339C199.479 122.965 198.757 122.767 198.026 122.767Z" fill="white" fill-opacity="0.1"/>
<path d="M202.877 127.385C203.162 124.708 201.224 122.307 198.548 122.022C195.872 121.736 193.471 123.674 193.185 126.351C192.899 129.027 194.838 131.428 197.514 131.714C200.19 131.999 202.591 130.061 202.877 127.385Z" fill="#6939C1"/>
<path d="M186.494 151.996C185.488 151.996 184.497 151.724 183.627 151.21C180.95 149.626 180.06 146.161 181.644 143.484C182.654 141.776 184.516 140.714 186.503 140.714C187.509 140.714 188.5 140.986 189.369 141.5C192.047 143.084 192.936 146.549 191.353 149.226C190.342 150.935 188.481 151.996 186.494 151.996ZM186.503 142.248C185.055 142.248 183.7 143.021 182.963 144.265C181.811 146.213 182.459 148.737 184.408 149.889C185.041 150.264 185.763 150.462 186.494 150.462C187.941 150.462 189.296 149.689 190.033 148.445C191.185 146.496 190.537 143.973 188.589 142.82C187.955 142.446 187.234 142.248 186.503 142.248Z" fill="white" fill-opacity="0.1"/>
<path d="M190.874 148.536C192.079 146.129 191.104 143.201 188.697 141.996C186.29 140.792 183.362 141.766 182.158 144.173C180.953 146.58 181.928 149.508 184.335 150.713C186.741 151.917 189.669 150.943 190.874 148.536Z" fill="#6939C1"/>
<path d="M96.0157 144.9C95.5101 144.9 95.0276 144.741 94.6211 144.44C94.116 144.067 93.7874 143.52 93.6944 142.9C93.6014 142.28 93.7559 141.661 94.1289 141.157L100.914 131.98C101.654 130.979 103.191 130.745 104.197 131.488C104.701 131.86 105.03 132.407 105.123 133.028C105.216 133.648 105.062 134.267 104.689 134.772L97.9041 143.949C97.4635 144.544 96.7573 144.9 96.0157 144.9ZM102.803 132.562C102.541 132.562 102.302 132.682 102.146 132.892L95.3617 142.069C95.2329 142.243 95.1788 142.458 95.211 142.673C95.2432 142.888 95.3572 143.077 95.5323 143.206C95.8821 143.466 96.4116 143.386 96.6707 143.036L103.455 133.859C103.584 133.685 103.637 133.47 103.605 133.255C103.573 133.04 103.459 132.85 103.285 132.721C103.144 132.617 102.977 132.562 102.803 132.562Z" fill="white" fill-opacity="0.05"/>
<path d="M95.0786 143.824C94.3766 143.305 94.2282 142.315 94.7474 141.613L101.532 132.436C102.051 131.734 103.041 131.586 103.743 132.105C104.445 132.624 104.593 133.613 104.074 134.315L97.2892 143.492C96.7704 144.194 95.7806 144.342 95.0786 143.824Z" fill="white" fill-opacity="0.1"/>
<path d="M116.456 144.716C115.95 144.716 115.469 144.557 115.061 144.256C114.557 143.883 114.228 143.336 114.136 142.716C114.043 142.096 114.197 141.477 114.57 140.973L121.355 131.796C122.096 130.793 123.634 130.562 124.638 131.304C125.678 132.074 125.9 133.546 125.13 134.587L118.345 143.764C117.904 144.36 117.198 144.716 116.456 144.716ZM123.243 132.378C122.982 132.378 122.744 132.498 122.588 132.708L115.803 141.885C115.675 142.06 115.621 142.274 115.653 142.489C115.685 142.704 115.8 142.894 115.974 143.023C116.326 143.284 116.853 143.202 117.112 142.852L123.897 133.675C124.025 133.501 124.079 133.286 124.047 133.071C124.015 132.856 123.9 132.667 123.726 132.538C123.585 132.433 123.418 132.378 123.243 132.378Z" fill="white" fill-opacity="0.05"/>
<path d="M115.516 143.639C114.814 143.12 114.666 142.13 115.185 141.428L121.97 132.251C122.488 131.549 123.478 131.401 124.18 131.92C124.882 132.439 125.03 133.428 124.511 134.13L117.727 143.307C117.208 144.009 116.218 144.157 115.516 143.639Z" fill="white" fill-opacity="0.1"/>
<path d="M101.171 148.054H93.918V148.821H101.171V148.054Z" fill="white" fill-opacity="0.1"/>
<path d="M122.132 148.054H114.879V148.821H122.132V148.054Z" fill="white" fill-opacity="0.1"/>
<path d="M140.6 99.1165H84.4258V101.418H140.6V99.1165Z" fill="white" fill-opacity="0.1"/>
<path d="M91.3821 95.7333H84.4258V96.5003H91.3821V95.7333Z" fill="white" fill-opacity="0.1"/>
<path d="M140.601 95.7333H120.25V96.5003H140.601V95.7333Z" fill="white" fill-opacity="0.1"/>
<path d="M92.5561 94.2461H91.7891V97.9869H92.5561V94.2461Z" fill="white" fill-opacity="0.1"/>
<path d="M94.353 94.2461H93.5859V97.9869H94.353V94.2461Z" fill="white" fill-opacity="0.1"/>
<path d="M96.1459 94.2461H95.3789V97.9869H96.1459V94.2461Z" fill="white" fill-opacity="0.1"/>
<path d="M97.9389 94.2461H97.1719V97.9869H97.9389V94.2461Z" fill="white" fill-opacity="0.1"/>
<path d="M99.7358 94.2461H98.9688V97.9869H99.7358V94.2461Z" fill="white" fill-opacity="0.1"/>
<path d="M101.533 94.2461H100.766V97.9869H101.533V94.2461Z" fill="white" fill-opacity="0.1"/>
<path d="M103.326 94.2461H102.559V97.9869H103.326V94.2461Z" fill="white" fill-opacity="0.1"/>
<path d="M105.119 94.2461H104.352V97.9869H105.119V94.2461Z" fill="white" fill-opacity="0.1"/>
<path d="M106.915 94.2461H106.148V97.9869H106.915V94.2461Z" fill="white" fill-opacity="0.1"/>
<path d="M108.712 94.2461H107.945V97.9869H108.712V94.2461Z" fill="white" fill-opacity="0.1"/>
<path d="M110.505 94.2461H109.738V97.9869H110.505V94.2461Z" fill="white" fill-opacity="0.1"/>
<path d="M112.298 94.2461H111.531V97.9869H112.298V94.2461Z" fill="white" fill-opacity="0.1"/>
<path d="M114.095 94.2461H113.328V97.9869H114.095V94.2461Z" fill="white" fill-opacity="0.1"/>
<path d="M115.888 94.2461H115.121V97.9869H115.888V94.2461Z" fill="white" fill-opacity="0.1"/>
<path d="M117.685 94.2461H116.918V97.9869H117.685V94.2461Z" fill="white" fill-opacity="0.1"/>
<path d="M119.478 94.2461H118.711V97.9869H119.478V94.2461Z" fill="white" fill-opacity="0.1"/>
<path d="M125.293 80.8542H123.684V67.4431C123.684 62.3035 119.502 58.122 114.362 58.122H61.4422C55.4151 58.122 50.5117 53.2186 50.5117 47.1916C50.5117 41.1645 55.4151 36.2611 61.4422 36.2611H114.362C119.502 36.2611 123.684 32.0797 123.684 26.94V0H125.293V26.9397C125.293 32.9668 120.39 37.8702 114.362 37.8702H61.4422C56.3025 37.8702 52.1211 42.0516 52.1211 47.1913C52.1211 52.3309 56.3025 56.5127 61.4422 56.5127H114.362C120.39 56.5127 125.293 61.4161 125.293 67.4431V80.8542Z" fill="#6939C1"/>
</svg>
