<svg width="212" height="167" viewBox="0 0 212 167" fill="none" xmlns="http://www.w3.org/2000/svg">
<path d="M194.503 143.615H176.882C174.704 143.615 172.938 141.849 172.938 139.67V135.156C172.938 132.977 174.704 131.211 176.882 131.211H194.503C196.682 131.211 198.448 132.977 198.448 135.156V139.67C198.448 141.849 196.682 143.615 194.503 143.615Z" fill="#6939C1"/>
<path d="M185.587 136.645H179.889C179.491 136.645 179.168 136.322 179.168 135.924C179.168 135.525 179.491 135.202 179.889 135.202H185.587C185.985 135.202 186.309 135.525 186.309 135.924C186.309 136.322 185.985 136.645 185.587 136.645Z" fill="white" fill-opacity="0.1"/>
<path d="M191.373 136.645H188.889C188.491 136.645 188.168 136.322 188.168 135.924C188.168 135.525 188.491 135.202 188.889 135.202H191.373C191.772 135.202 192.095 135.525 192.095 135.924C192.095 136.322 191.772 136.645 191.373 136.645Z" fill="white" fill-opacity="0.1"/>
<path d="M191.374 139.627H184.01C183.612 139.627 183.289 139.304 183.289 138.905C183.289 138.507 183.612 138.184 184.01 138.184H191.374C191.772 138.184 192.096 138.507 192.096 138.905C192.096 139.303 191.773 139.627 191.374 139.627Z" fill="white" fill-opacity="0.1"/>
<path d="M74.1674 14.2017H56.5465C54.368 14.2017 52.6016 12.4352 52.6016 10.2567V5.7418C52.6016 3.56323 54.368 1.79681 56.5465 1.79681H74.1674C76.346 1.79681 78.1124 3.56323 78.1124 5.7418V10.2567C78.1124 12.4352 76.3465 14.2017 74.1674 14.2017Z" fill="#6939C1"/>
<path d="M60.9232 7.01502H56.6276C56.2294 7.01502 55.9062 6.69233 55.9062 6.29364C55.9062 5.89496 56.2294 5.57227 56.6276 5.57227H60.9232C61.3214 5.57227 61.6446 5.89496 61.6446 6.29364C61.6446 6.69233 61.3214 7.01502 60.9232 7.01502Z" fill="white" fill-opacity="0.1"/>
<path d="M66.0028 7.01527H63.8112C63.413 7.01527 63.0898 6.69257 63.0898 6.29389C63.0898 5.89521 63.413 5.57251 63.8112 5.57251H66.0028C66.401 5.57251 66.7242 5.89521 66.7242 6.29389C66.7242 6.69257 66.401 7.01527 66.0028 7.01527Z" fill="white" fill-opacity="0.1"/>
<path d="M74.0704 7.01527H72.405C72.0068 7.01527 71.6836 6.69257 71.6836 6.29389C71.6836 5.89521 72.0068 5.57251 72.405 5.57251H74.0704C74.4686 5.57251 74.7918 5.89521 74.7918 6.29389C74.7918 6.69257 74.4686 7.01527 74.0704 7.01527Z" fill="white" fill-opacity="0.1"/>
<path d="M70.2181 10.432H63.819C63.4208 10.432 63.0977 10.1093 63.0977 9.71058C63.0977 9.31189 63.4208 8.9892 63.819 8.9892H70.2186C70.6168 8.9892 70.94 9.31189 70.94 9.71058C70.94 10.1093 70.6164 10.432 70.2181 10.432Z" fill="white" fill-opacity="0.1"/>
<path d="M21.5659 116.244H3.94498C1.76642 116.244 0 114.478 0 112.299V107.784C0 105.606 1.76642 103.839 3.94498 103.839H21.5659C23.7444 103.839 25.5108 105.606 25.5108 107.784V112.299C25.5104 114.478 23.7444 116.244 21.5659 116.244Z" fill="#6939C1"/>
<path d="M8.26138 108.535H6.02607C5.62787 108.535 5.30469 108.212 5.30469 107.814C5.30469 107.415 5.62787 107.092 6.02607 107.092H8.26138C8.65958 107.092 8.98276 107.415 8.98276 107.814C8.98276 108.212 8.66006 108.535 8.26138 108.535Z" fill="white" fill-opacity="0.1"/>
<path d="M13.1713 108.535H11.944C11.5458 108.535 11.2227 108.212 11.2227 107.814C11.2227 107.415 11.5458 107.092 11.944 107.092H13.1713C13.5695 107.092 13.8927 107.415 13.8927 107.814C13.8927 108.212 13.5695 108.535 13.1713 108.535Z" fill="white" fill-opacity="0.1"/>
<path d="M16.9385 111.81H11.5026C11.1044 111.81 10.7812 111.487 10.7812 111.089C10.7812 110.69 11.1044 110.367 11.5026 110.367H16.9385C17.3367 110.367 17.6598 110.69 17.6598 111.089C17.6598 111.487 17.3367 111.81 16.9385 111.81Z" fill="white" fill-opacity="0.1"/>
<path d="M21.8501 111.81H20.2722C19.874 111.81 19.5508 111.487 19.5508 111.089C19.5508 110.69 19.874 110.367 20.2722 110.367H21.8501C22.2483 110.367 22.5714 110.69 22.5714 111.089C22.5714 111.487 22.2483 111.81 21.8501 111.81Z" fill="white" fill-opacity="0.1"/>
<path d="M106.763 10.0493C85.403 39.5474 55.1483 48.4199 44.3247 50.7384C41.9403 51.2492 40.2725 53.3936 40.3461 55.8309C42.5155 127.357 97.7597 153.826 108.877 158.437C109.473 158.684 110.103 158.809 110.735 158.819V7.99384C109.233 8.0174 107.74 8.69983 106.763 10.0493Z" fill="white" fill-opacity="0.1"/>
<path d="M177.309 50.7391C166.485 48.4205 136.23 39.5481 114.871 10.0499C113.859 8.65285 112.294 7.96995 110.738 7.99447V158.82C111.424 158.831 112.11 158.705 112.757 158.438C123.874 153.827 179.118 127.357 181.288 55.8315C181.361 53.3942 179.693 51.2498 177.309 50.7391Z" fill="white" fill-opacity="0.1"/>
<path d="M110.821 166.815C110.787 166.815 110.752 166.815 110.718 166.814C109.918 166.801 109.144 166.642 108.415 166.34C96.2133 161.28 35.2227 132.043 32.8311 53.1944C32.7392 50.1695 34.8129 47.5153 37.7629 46.8833C50.5481 44.1445 82.7707 34.3424 105.789 2.5522C106.941 0.961317 108.737 0.0317002 110.718 0.000440449C112.752 -0.0250483 114.664 0.922363 115.844 2.5522C138.863 34.3424 171.086 44.1445 183.871 46.8833C186.82 47.5153 188.894 50.1695 188.803 53.1944C186.411 132.044 125.421 161.28 113.218 166.34C112.458 166.655 111.652 166.815 110.821 166.815ZM110.82 1.44224C110.793 1.44224 110.767 1.44272 110.74 1.4432C109.219 1.46676 107.84 2.17949 106.958 3.39862C83.6455 35.5933 51.0127 45.5204 38.0649 48.2944C35.7964 48.7801 34.2022 50.8226 34.2724 53.1507C36.6371 131.113 96.9092 160.007 108.967 165.007C109.527 165.239 110.123 165.362 110.74 165.372C111.421 165.386 112.057 165.26 112.665 165.007C124.724 160.007 184.996 131.113 187.361 53.1507C187.431 50.8226 185.836 48.7801 183.568 48.2944C170.62 45.5204 137.987 35.5938 114.675 3.39862C113.773 2.15207 112.371 1.44224 110.82 1.44224Z" fill="#6939C1"/>
<path d="M110.818 139.476L110.49 139.308C103.288 135.625 92.6205 128.945 82.6972 118.035C69.6128 103.65 61.7055 86.1418 59.1947 65.9957L59.1211 65.4061L59.6857 65.2209C73.1697 60.7945 92.897 51.7547 110.301 33.8217L110.818 33.2883L111.335 33.8217C128.738 51.7532 148.465 60.794 161.95 65.2204L162.515 65.4056L162.441 65.9952C159.93 86.1418 152.024 103.65 138.939 118.034C129.016 128.944 118.349 135.624 111.146 139.307L110.818 139.476ZM60.7014 66.4049C63.2541 86.0029 71.0118 103.044 83.7643 117.064C93.3924 127.649 103.73 134.192 110.818 137.855C117.906 134.192 128.244 127.649 137.872 117.064C150.625 103.045 158.382 86.0029 160.935 66.4049C147.449 61.9069 128.056 52.9021 110.818 35.3572C93.5794 52.9026 74.1868 61.9074 60.7014 66.4049Z" fill="#6939C1"/>
<path d="M94.1261 127.213H92.6833V107.076L82.2031 96.596L83.2232 95.5759L94.1261 106.478V127.213Z" fill="#6939C1"/>
<path d="M111.537 81.4083H110.094V138.667H111.537V81.4083Z" fill="#6939C1"/>
<path d="M103.403 134.003H101.96V102.539L89.5781 90.157V80.8075H91.0209V89.5597L103.403 101.941V134.003Z" fill="#6939C1"/>
<path d="M80.3211 97.6997C77.8352 97.6997 75.8125 95.677 75.8125 93.1911C75.8125 90.7052 77.8352 88.6825 80.3211 88.6825C82.807 88.6825 84.8297 90.7052 84.8297 93.1911C84.8297 95.677 82.807 97.6997 80.3211 97.6997ZM80.3211 90.1253C78.6302 90.1253 77.2553 91.5007 77.2553 93.1911C77.2553 94.8815 78.6302 96.257 80.3211 96.257C82.012 96.257 83.387 94.8815 83.387 93.1911C83.387 91.5007 82.0116 90.1253 80.3211 90.1253Z" fill="#6939C1"/>
<path d="M90.3016 81.383C87.8157 81.383 85.793 79.3602 85.793 76.8743C85.793 74.3885 87.8157 72.3657 90.3016 72.3657C92.7875 72.3657 94.8102 74.3885 94.8102 76.8743C94.8102 79.3602 92.7875 81.383 90.3016 81.383ZM90.3016 73.8085C88.6107 73.8085 87.2357 75.1839 87.2357 76.8743C87.2357 78.5648 88.6107 79.9402 90.3016 79.9402C91.9925 79.9402 93.3674 78.5648 93.3674 76.8743C93.3674 75.1839 91.992 73.8085 90.3016 73.8085Z" fill="#6939C1"/>
<path d="M128.986 127.213H127.543V106.478L138.445 95.5759L139.465 96.596L128.986 107.076V127.213Z" fill="#6939C1"/>
<path d="M119.716 134.003H118.273V101.941L130.655 89.5597V80.8075H132.098V90.157L119.716 102.539V134.003Z" fill="#6939C1"/>
<path d="M141.352 97.6997C138.866 97.6997 136.844 95.677 136.844 93.1911C136.844 90.7052 138.866 88.6825 141.352 88.6825C143.838 88.6825 145.861 90.7052 145.861 93.1911C145.861 95.677 143.838 97.6997 141.352 97.6997ZM141.352 90.1253C139.661 90.1253 138.287 91.5007 138.287 93.1911C138.287 94.8815 139.661 96.257 141.352 96.257C143.043 96.257 144.418 94.8815 144.418 93.1911C144.418 91.5007 143.043 90.1253 141.352 90.1253Z" fill="#6939C1"/>
<path d="M131.372 81.383C128.886 81.383 126.863 79.3602 126.863 76.8743C126.863 74.3885 128.886 72.3657 131.372 72.3657C133.858 72.3657 135.881 74.3885 135.881 76.8743C135.881 79.3602 133.858 81.383 131.372 81.383ZM131.372 73.8085C129.681 73.8085 128.306 75.1839 128.306 76.8743C128.306 78.5648 129.681 79.9402 131.372 79.9402C133.063 79.9402 134.438 78.5648 134.438 76.8743C134.438 75.1839 133.062 73.8085 131.372 73.8085Z" fill="#6939C1"/>
<path d="M110.817 82.13C108.331 82.13 106.309 80.1073 106.309 77.6214C106.309 75.1355 108.331 73.1128 110.817 73.1128C113.303 73.1128 115.326 75.1355 115.326 77.6214C115.326 80.1073 113.303 82.13 110.817 82.13ZM110.817 74.5556C109.126 74.5556 107.751 75.931 107.751 77.6214C107.751 79.3118 109.126 80.6873 110.817 80.6873C112.508 80.6873 113.883 79.3118 113.883 77.6214C113.883 75.931 112.508 74.5556 110.817 74.5556Z" fill="#6939C1"/>
<path d="M199.359 43.6405C192.387 43.6405 186.715 37.9685 186.715 30.9966C186.715 24.0247 192.387 18.3528 199.359 18.3528C206.331 18.3528 212.003 24.0247 212.003 30.9966C212.003 37.9685 206.331 43.6405 199.359 43.6405ZM199.359 19.7955C193.182 19.7955 188.158 24.8202 188.158 30.9966C188.158 37.1731 193.182 42.1977 199.359 42.1977C205.535 42.1977 210.56 37.1731 210.56 30.9966C210.56 24.8207 205.535 19.7955 199.359 19.7955Z" fill="#6939C1"/>
<path d="M208.064 33.0671C209.197 28.268 206.225 23.459 201.426 22.3258C196.627 21.1926 191.818 24.1644 190.685 28.9634C189.551 33.7625 192.523 38.5715 197.322 39.7047C202.121 40.8379 206.93 37.8662 208.064 33.0671Z" fill="white" fill-opacity="0.1"/>
<path d="M199.36 57.7149H172.745C172.347 57.7149 172.023 57.3922 172.023 56.9935C172.023 56.5949 172.347 56.2722 172.745 56.2722H198.638V42.9199C198.638 42.5212 198.962 42.1985 199.36 42.1985C199.758 42.1985 200.081 42.5212 200.081 42.9199V56.9935C200.081 57.3922 199.758 57.7149 199.36 57.7149Z" fill="#6939C1"/>
<path d="M198.454 34.4445L195.68 31.887L196.973 30.6952L198.454 32.0613L202.336 28.4828L203.629 29.6746L198.454 34.4445Z" fill="#6939C1"/>
<path d="M38.0934 107.645H23.0647C22.9319 107.645 22.8242 107.537 22.8242 107.405C22.8242 107.272 22.9319 107.164 23.0647 107.164H37.9939L52.0011 93.1575C52.0949 93.0637 52.2473 93.0637 52.3411 93.1575C52.4349 93.2513 52.4349 93.4037 52.3411 93.4975L38.2632 107.575C38.2184 107.62 38.1574 107.645 38.0934 107.645Z" fill="#6939C1"/>
<path d="M174.639 137.655H162.89C162.826 137.655 162.765 137.629 162.719 137.584L148.285 123.15C148.191 123.056 148.191 122.904 148.285 122.81C148.379 122.716 148.531 122.716 148.625 122.81L162.989 137.174H174.638C174.771 137.174 174.879 137.282 174.879 137.414C174.879 137.547 174.771 137.655 174.639 137.655Z" fill="#6939C1"/>
<path d="M83.3523 40.1649C83.2195 40.1649 83.1118 40.0572 83.1118 39.9244V20.2096L74.4336 11.5314C74.3398 11.4377 74.3398 11.2852 74.4336 11.1914C74.5274 11.0976 74.6798 11.0976 74.7736 11.1914L83.522 19.9398C83.5672 19.985 83.5922 20.0461 83.5922 20.1101V39.9244C83.5927 40.0572 83.485 40.1649 83.3523 40.1649Z" fill="#6939C1"/>
</svg>
