<svg width="190" height="212" viewBox="0 0 190 212" fill="none" xmlns="http://www.w3.org/2000/svg">
<path d="M2.0143 33.7738C2.0143 33.7738 2.00079 33.8414 1.98729 33.961C1.98729 34.0285 1.97571 34.122 1.96125 34.231C1.93424 34.5387 1.89373 34.9824 1.83971 35.5737C1.81271 35.8823 1.78666 36.217 1.75966 36.5942C1.65356 38.0178 1.53299 39.9508 1.4375 42.3409C2.71359 39.6026 4.13725 36.9154 5.65351 34.2976C5.88307 33.9079 6.1107 33.5202 6.35184 33.1295C4.91467 33.3572 3.46593 33.5723 2.0143 33.7738ZM188.956 42.6766C188.943 41.9638 188.903 41.306 188.877 40.6887C188.822 39.8022 188.783 38.9978 188.742 38.2715C188.675 37.1295 188.595 36.1775 188.541 35.4666C188.514 35.2245 188.501 35.0085 188.486 34.8213C188.474 34.6718 188.46 34.5542 188.448 34.4326C188.433 34.3236 188.433 34.231 188.421 34.1635C188.394 33.9079 188.38 33.7738 188.38 33.7738C186.702 33.5452 185.037 33.2896 183.372 33.0225C185.011 35.7463 186.512 38.5541 187.884 41.414C188.271 42.2194 188.65 43.0248 188.999 43.8437C188.983 43.4395 188.969 43.0643 188.956 42.6766Z" fill="#6939C1"/>
<path d="M22.7036 29.8844C21.6436 30.1245 20.5826 30.3821 19.4946 30.6232C18.4076 30.8643 17.3196 31.0929 16.2316 31.3341C14.7143 33.4821 13.3042 35.7112 11.9885 37.9537C10.4327 40.639 8.99458 43.4314 7.70499 46.2372C6.41636 49.0431 5.26084 51.9444 4.25386 54.8718C3.26134 57.7857 2.38843 60.7806 1.69107 63.7736C1.67757 63.8276 1.66406 63.8681 1.66406 63.9212C1.70554 64.634 1.74411 65.3593 1.79716 66.0837C1.82417 66.4328 1.83767 66.782 1.86468 67.1312C1.90423 67.762 1.95921 68.4053 2.01226 69.0651C2.01226 69.1712 2.02673 69.2937 2.03927 69.3988C2.13283 70.6498 2.2534 71.923 2.37589 73.2136C2.53504 74.8388 2.71059 76.4911 2.91218 78.18C2.95173 78.5571 3.0067 78.9188 3.04722 79.2805C3.12727 79.9528 3.20829 80.6242 3.30185 81.31C3.38191 81.9678 3.4774 82.6265 3.56903 83.2988C3.56903 83.0018 3.5835 82.6796 3.59797 82.3835C3.69153 79.431 3.9452 76.4496 4.33488 73.5097C4.73806 70.5688 5.27627 67.6404 5.94663 64.7806C6.61891 61.9361 7.44939 59.0743 8.40332 56.2974C9.35726 53.5041 10.4578 50.7368 11.6789 48.0641C12.9145 45.3798 14.2841 42.7205 15.7744 40.1693C17.2646 37.592 18.9168 35.0678 20.6627 32.6362C21.334 31.7112 22.0188 30.7968 22.7306 29.8844V29.8718C22.7191 29.8709 22.7191 29.8709 22.7036 29.8844ZM187.532 61.4905C185.989 55.6772 183.894 49.9845 181.288 44.5589C179.048 39.9137 176.416 35.416 173.448 31.173C171.245 30.7177 169.056 30.2191 166.91 29.6963C167.487 30.4216 168.051 31.1595 168.6 31.9118C171.957 36.477 174.898 41.3779 177.342 46.4533C179.825 51.6358 181.826 57.0729 183.29 62.6065C184.794 68.2867 185.746 74.153 186.123 80.0599C186.148 80.6782 186.284 82.6921 186.417 85.9282C186.552 85.0283 186.686 84.1428 186.808 83.2699C186.928 82.398 187.049 81.553 187.157 80.6926C187.277 79.8082 187.386 78.9198 187.479 78.0614C187.585 77.2155 187.679 76.3686 187.761 75.5372C187.856 74.7038 187.935 73.8714 188.016 73.0525C188.258 70.5958 188.447 68.2201 188.593 65.9361C188.269 64.4449 187.921 62.9566 187.532 61.4905Z" fill="white" fill-opacity="0.1" stroke="white" stroke-opacity="0.05" stroke-width="2.27778"/>
<path d="M17.341 67.5025C16.7352 70.0141 16.2655 72.5644 15.9298 75.1031C15.5951 77.6678 15.3665 80.273 15.2865 82.8628C15.191 85.4681 15.2334 88.1119 15.3945 90.7316C15.6086 94.3554 15.7697 98.6804 15.8623 103.219C15.9848 108.427 16.0243 113.866 15.9848 119.384C15.9578 122.942 15.9047 126.514 15.7967 130.086C14.239 126.218 12.8568 122.35 11.6067 118.51C11.6482 113.315 11.6067 108.213 11.4871 103.325C11.3926 98.826 11.2296 94.5569 11.0299 90.9862C10.8544 88.2459 10.8158 85.4546 10.9074 82.7124C11.002 79.974 11.2296 77.2222 11.5932 74.5224C11.9424 71.8516 12.4391 69.1403 13.0699 66.4945C13.3516 65.312 14.5197 64.5876 15.7012 64.8567C16.8838 65.1403 17.6081 66.3209 17.341 67.5025Z" fill="#6939C1" stroke="white" stroke-opacity="0.05" stroke-width="2.27778"/>
<path d="M35.4447 26.4974C38.9219 25.476 42.3074 24.415 45.5686 23.3145C43.8632 24.6571 42.2119 26.0808 40.6282 27.5575C38.7203 29.3564 36.8539 31.2632 35.1081 33.2492C33.3632 35.2372 31.7119 37.3187 30.1667 39.4387C28.6514 41.5462 27.2143 43.7618 25.9121 46.0179C24.609 48.2469 23.4149 50.5696 22.3395 52.9057C21.8292 54.0062 20.5406 54.4904 19.4381 53.9937C18.3376 53.4834 17.8543 52.1803 18.352 51.0798C19.4796 48.6096 20.7547 46.1654 22.1244 43.8168C23.5075 41.4401 25.0112 39.104 26.623 36.8875C28.2338 34.6449 29.9796 32.4439 31.819 30.3633C32.9861 29.0467 34.1956 27.7446 35.4447 26.4974Z" fill="#6939C1" stroke="white" stroke-opacity="0.05" stroke-width="2.27778"/>
<path d="M96.1555 1.84456C97.6747 2.71843 100.963 4.54431 105.677 6.93348C102.118 6.45121 98.5196 6.20815 94.9219 6.20815L89.8464 6.36922C88.1942 6.47629 86.5303 6.62386 84.8906 6.83992C89.4954 4.50187 92.7054 2.71746 94.21 1.85709L94.9219 1.83105C95.3376 1.83202 95.7408 1.83202 96.1555 1.84456Z" fill="#6939C1" stroke="white" stroke-opacity="0.05" stroke-width="2.27778"/>
<path d="M175.047 128.89C175.223 121.506 175.274 114.12 175.223 106.857C175.168 100.519 175.034 94.4225 174.819 88.7432C174.643 84.3141 174.484 81.5497 174.443 80.7964C174.107 75.6534 173.273 70.5385 171.971 65.5826C170.695 60.7493 168.949 56.0105 166.775 51.4965C164.641 47.0673 162.076 42.7963 159.147 38.8233C156.249 34.8745 152.972 31.1687 149.386 27.814C147.561 26.0942 145.641 24.4564 143.641 22.9257C146.997 24.0668 150.474 25.1799 154.059 26.2409C157.174 29.3303 160.075 32.6869 162.679 36.2306C165.768 40.4187 168.48 44.9163 170.721 49.6031C173.019 54.3689 174.857 59.3652 176.2 64.4657C177.584 69.6906 178.456 75.1017 178.805 80.5253C178.858 81.2767 179.021 84.0961 179.195 88.5822C179.41 94.3019 179.558 100.437 179.599 106.828C179.625 109.795 179.639 112.777 179.612 115.784C178.298 120.123 176.766 124.499 175.047 128.89Z" fill="#6939C1" stroke="white" stroke-opacity="0.05" stroke-width="2.27778"/>
<path d="M25.4585 118.757H25.4576C24.248 118.757 23.2671 117.774 23.269 116.565C23.2719 113.179 23.2488 110.039 23.2073 107.192C23.1465 102.962 23.0443 98.8614 22.9015 95.008C22.7993 92.2774 22.7115 90.6454 22.6961 90.3541C22.5427 87.9717 22.508 85.5652 22.59 83.1876C22.6691 80.8283 22.8687 78.4545 23.1822 76.13C23.4899 73.8161 23.9182 71.4877 24.4535 69.2084C24.9878 66.9437 25.6418 64.6741 26.398 62.4624C27.1513 60.2642 28.0252 58.0689 28.9984 55.9354C29.9755 53.7979 31.0674 51.6894 32.2412 49.6697C33.4295 47.6258 34.7316 45.6186 36.1109 43.705C37.5028 41.7711 39.0133 39.8767 40.5932 38.0826C42.1692 36.2895 43.8553 34.5524 45.5982 32.9214C47.3353 31.299 49.1631 29.7548 51.0305 28.3234C52.8959 26.8959 54.8501 25.5445 56.8438 24.309C58.8279 23.0782 60.8997 21.9314 63.0005 20.8983C65.0984 19.8663 67.2744 18.9297 69.4668 18.1089C71.6611 17.2881 73.9268 16.5637 76.1964 15.9608C78.4795 15.3561 80.8204 14.8555 83.1565 14.4735C85.5071 14.0916 87.9127 13.8215 90.2999 13.6681L94.9153 13.5234C99.5952 13.5234 104.283 13.9787 108.848 14.8748C113.303 15.7515 117.704 17.0604 121.922 18.7657C126.067 20.4411 130.083 22.5207 133.86 24.9417C137.602 27.3425 141.146 30.1039 144.392 33.1471C147.634 36.1921 150.617 39.5516 153.252 43.1349C155.908 46.7471 158.239 50.6207 160.177 54.6516C160.702 55.7425 160.242 57.0513 159.153 57.5751C158.059 58.1008 156.753 57.6397 156.23 56.5517C154.408 52.7639 152.22 49.1228 149.725 45.7295C147.247 42.3633 144.444 39.2034 141.393 36.3416C138.342 33.4827 135.013 30.8843 131.493 28.6301C127.947 26.3548 124.172 24.4016 120.279 22.8265C116.317 21.2244 112.188 19.9955 108.004 19.1708C103.715 18.3288 99.3107 17.9005 94.9143 17.9005L90.5787 18.0385C88.3313 18.1841 86.0685 18.4368 83.8578 18.7985C81.6654 19.1554 79.4652 19.6232 77.3201 20.1952C75.1865 20.7614 73.0597 21.4394 70.9975 22.2092C68.9421 22.9808 66.8992 23.8614 64.9305 24.8269C62.959 25.7963 61.0116 26.8746 59.1481 28.0311C57.2778 29.1895 55.4423 30.4589 53.6897 31.7996C51.9352 33.1451 50.2184 34.5968 48.5873 36.1198C46.9476 37.6515 45.3648 39.2864 43.8794 40.9753C42.3901 42.6642 40.9722 44.4438 39.6624 46.2629C38.3651 48.0618 37.142 49.9504 36.0251 51.8698C34.9246 53.7651 33.8973 55.7463 32.98 57.7555C32.0666 59.7588 31.2448 61.8191 30.5407 63.8803C29.8298 65.955 29.2164 68.0857 28.7158 70.2116C28.2113 72.3538 27.8091 74.5395 27.5188 76.7107C27.2256 78.8944 27.0385 81.1215 26.9642 83.3371C26.888 85.5709 26.9198 87.8328 27.0645 90.057C27.0838 90.4168 27.1725 92.0739 27.2757 94.8441C27.4195 98.7321 27.5227 102.866 27.5844 107.129C27.6268 109.997 27.649 113.16 27.6461 116.568C27.6471 117.777 26.6671 118.757 25.4585 118.757Z" fill="white" fill-opacity="0.1" stroke="white" stroke-opacity="0.05" stroke-width="2.27778"/>
<path d="M27.566 127.535C27.4695 134.248 27.2969 139.176 26.8802 147.059C26.7867 148.723 26.6921 150.386 26.586 152.028C25.1894 149.662 23.8583 147.26 22.5977 144.854C22.9468 138.155 23.1079 133.549 23.188 127.468C23.2005 126.27 24.1824 125.308 25.3775 125.308H25.416C26.6256 125.334 27.593 126.325 27.566 127.535Z" fill="white" fill-opacity="0.1" stroke="white" stroke-opacity="0.05" stroke-width="2.27778"/>
<path d="M167.964 106.951C168.032 115.382 167.95 124.003 167.71 132.584C167.588 137.08 167.413 141.563 167.199 146.024C165.695 148.872 164.069 151.691 162.352 154.484C162.795 147.231 163.13 139.859 163.333 132.462C163.574 123.936 163.655 115.368 163.574 106.978C163.559 105.473 163.547 104.023 163.519 102.627C163.506 101.418 164.473 100.426 165.681 100.412H165.722C166.916 100.412 167.884 101.365 167.91 102.56C167.924 103.97 167.95 105.434 167.964 106.951Z" fill="white" fill-opacity="0.1" stroke="white" stroke-opacity="0.05" stroke-width="2.27778"/>
<path d="M165.345 91.4055C164.174 91.4055 163.203 90.4805 163.157 89.2999L163.113 88.0769C162.949 83.421 162.675 75.6275 160.911 68.2025C160.632 67.0248 161.358 65.8451 162.536 65.5644C163.72 65.2886 164.893 66.013 165.172 67.1897C167.037 75.042 167.322 83.1056 167.49 87.9235L167.534 89.1321C167.581 90.3407 166.64 91.3582 165.43 91.4036C165.401 91.4055 165.372 91.4055 165.345 91.4055Z" fill="white" fill-opacity="0.1" stroke="white" stroke-opacity="0.05" stroke-width="2.27778"/>
<path d="M56.6684 41.5953C57.5008 42.4818 57.4487 43.863 56.5749 44.6828C55.2187 45.9445 53.9021 47.3006 52.6666 48.7088C51.4329 50.1055 50.2629 51.5822 49.1768 53.0879C48.1023 54.5781 47.0963 56.1339 46.1694 57.7331C45.256 59.3034 44.411 60.9412 43.6452 62.6069C42.8928 64.2582 42.208 65.9635 41.6322 67.6824C41.039 69.3992 40.5297 71.1595 40.113 72.9179C39.6963 74.6907 39.3616 76.5041 39.1205 78.3165C38.8784 80.1153 38.7308 81.9692 38.6623 83.8076C38.6093 85.6605 38.6363 87.5278 38.7443 89.3788C38.7713 89.8495 38.8649 91.5413 38.971 94.3086C39.08 97.0325 39.215 101.437 39.2941 106.996C39.3742 113.173 39.3742 119.43 39.2671 125.605C39.1465 133.352 38.8794 140.991 38.4752 148.325C38.1135 154.902 37.6293 161.32 37.0525 167.473C35.6964 165.726 34.3788 163.955 33.1172 162.168C33.5078 157.59 33.83 152.877 34.0981 148.084C34.5003 140.807 34.7694 133.233 34.89 125.54C34.9855 119.404 34.998 113.186 34.917 107.05C34.836 101.546 34.7019 97.1675 34.5958 94.4822C34.4878 91.7439 34.4058 90.0771 34.3788 89.7019C34.2467 87.6745 34.2197 85.647 34.2872 83.661C34.3528 81.6731 34.5274 79.6851 34.783 77.7252C35.0386 75.7778 35.4003 73.8333 35.8575 71.9235C36.3011 70.0185 36.85 68.1116 37.4817 66.2597C38.1126 64.4058 38.8514 62.5664 39.6558 60.7811C40.4766 58.9947 41.3881 57.2229 42.3835 55.532C43.3761 53.8122 44.4641 52.1339 45.6177 50.5222C46.7867 48.9124 48.0483 47.3276 49.3775 45.8104C50.7191 44.2932 52.1303 42.8435 53.58 41.4854C54.4529 40.6684 55.8495 40.707 56.6684 41.5953Z" fill="#6939C1" stroke="white" stroke-opacity="0.05" stroke-width="2.27778"/>
<path d="M156.03 132.063C155.748 142.385 155.238 152.658 154.514 162.582C154.419 163.817 154.326 165.064 154.231 166.287C152.661 168.341 151.023 170.381 149.304 172.384C149.613 169.038 149.894 165.657 150.136 162.261C150.862 152.403 151.371 142.199 151.653 131.94C151.879 123.643 151.949 115.292 151.879 107.115C151.814 101.086 151.68 95.2865 151.464 89.8629C151.304 85.4192 151.129 82.786 151.102 82.3038C150.873 78.6645 150.283 75.0523 149.356 71.5481C148.456 68.1365 147.223 64.7954 145.691 61.5998C144.188 58.4699 142.375 55.449 140.307 52.6441C138.252 49.8517 135.929 47.2339 133.406 44.8708C132.17 43.7028 130.867 42.5877 129.525 41.5402C128.572 40.8033 128.412 39.4192 129.149 38.4653C129.901 37.5123 131.271 37.3503 132.224 38.0901C133.661 39.2167 135.072 40.4243 136.414 41.6734C139.127 44.2246 141.623 47.0439 143.838 50.0514C146.068 53.0733 148.014 56.3228 149.641 59.7055C151.291 63.1421 152.62 66.7563 153.6 70.4331C154.593 74.2084 155.225 78.1003 155.479 82.0211C155.506 82.5053 155.667 85.1906 155.843 89.6883C156.057 95.1534 156.192 101.006 156.259 107.077C156.339 115.305 156.259 123.709 156.03 132.063Z" fill="#6939C1" stroke="white" stroke-opacity="0.05" stroke-width="2.27778"/>
<path d="M64.1835 38.3065C63.4524 38.3065 62.7358 37.9391 62.321 37.2687C61.6844 36.2434 61.9998 34.8921 63.028 34.2526C64.6986 33.2186 66.4367 32.2569 68.1922 31.3946C69.9476 30.5314 71.7726 29.7453 73.6119 29.0566C75.4513 28.3689 77.3496 27.7612 79.2565 27.2567C81.1672 26.7484 83.1301 26.3288 85.091 26.0105C87.0548 25.6903 89.0707 25.4617 91.0808 25.3325L94.9476 25.2109C98.8714 25.2109 102.802 25.591 106.63 26.3433C110.369 27.0793 114.057 28.1759 117.59 29.6064C118.995 30.1735 120.386 30.7985 121.73 31.4641C122.815 32.0013 123.259 33.316 122.724 34.3992C122.184 35.4843 120.875 35.928 119.788 35.3888C118.542 34.7734 117.251 34.1918 115.95 33.6642C112.672 32.3399 109.253 31.3223 105.785 30.6394C102.237 29.942 98.5898 29.5871 94.9486 29.5871L91.3547 29.7009C89.4922 29.8205 87.62 30.0327 85.7951 30.3307C83.976 30.6278 82.1539 31.0165 80.3811 31.4863C78.6121 31.9569 76.8518 32.5174 75.1465 33.1559C73.4412 33.7934 71.7504 34.5246 70.1222 35.3242C68.496 36.1238 66.8852 37.0141 65.3362 37.9757C64.9774 38.2004 64.579 38.3065 64.1835 38.3065Z" fill="#6939C1" stroke="white" stroke-opacity="0.05" stroke-width="2.27778"/>
<path d="M50.9991 106.827C51.0791 113.191 51.0666 119.648 50.9586 126.054C50.8245 134.029 50.5284 141.937 50.1001 149.552C49.5754 158.546 48.8501 167.259 47.9376 175.479C47.7891 176.781 47.6425 178.082 47.4804 179.372C46.1368 178.001 44.8221 176.604 43.5586 175.196C43.5711 175.128 43.5711 175.048 43.5856 174.981C44.499 166.857 45.2109 158.21 45.7201 149.307C46.1503 141.75 46.4445 133.894 46.5795 125.974C46.6876 119.622 46.7001 113.203 46.62 106.893C46.593 105.686 47.5595 104.693 48.7681 104.664H48.8086C50.0056 104.665 50.973 105.632 50.9991 106.827Z" fill="white" fill-opacity="0.1" stroke="white" stroke-opacity="0.05" stroke-width="2.27778"/>
<path d="M143.866 145.634C143.611 150.87 143.302 156.117 142.926 161.232C142.444 167.96 141.853 174.607 141.154 181.107C139.57 182.676 137.917 184.208 136.227 185.709C137.166 177.681 137.945 169.37 138.563 160.924C138.924 155.849 139.233 150.628 139.49 145.418C139.543 144.222 140.537 143.283 141.771 143.335C142.981 143.405 143.921 144.421 143.866 145.634Z" fill="white" fill-opacity="0.1" stroke="white" stroke-opacity="0.05" stroke-width="2.27778"/>
<path d="M142.197 133.659C142.177 133.659 142.159 133.659 142.138 133.659C140.93 133.627 139.976 132.621 140.007 131.409C140.218 123.368 140.284 115.23 140.204 107.224C140.145 101.361 140.009 95.705 139.799 90.4145C139.63 86.0962 139.47 83.5083 139.439 83.0318C139.255 80.1546 138.791 77.289 138.059 74.5188C137.344 71.8132 136.369 69.1627 135.154 66.6394C133.963 64.1596 132.526 61.7714 130.887 59.5414C129.267 57.3355 127.427 55.2636 125.422 53.3828C123.418 51.5038 121.232 49.8005 118.927 48.3218C116.601 46.8287 114.126 45.5487 111.571 44.5177C108.972 43.4644 106.264 42.658 103.52 42.1208C100.709 41.5671 97.8206 41.2874 94.9356 41.2874C93.7261 41.2874 92.7461 40.3055 92.7461 39.0979C92.7461 37.8883 93.7261 36.9074 94.9356 36.9074C98.1041 36.9074 101.277 37.2151 104.365 37.8228C107.381 38.4159 110.357 39.3014 113.213 40.456C116.02 41.5912 118.738 42.9966 121.291 44.6344C123.823 46.2567 126.218 48.1241 128.418 50.1872C130.617 52.2523 132.637 54.5257 134.415 56.9458C136.215 59.3928 137.79 62.0154 139.1 64.7412C140.435 67.5114 141.509 70.4253 142.293 73.4019C143.096 76.445 143.606 79.5904 143.809 82.7521C143.841 83.2373 144.003 85.8744 144.176 90.2418C144.386 95.5748 144.522 101.274 144.582 107.179C144.662 115.24 144.596 123.431 144.385 131.523C144.356 132.714 143.38 133.659 142.197 133.659Z" fill="white" fill-opacity="0.1" stroke="white" stroke-opacity="0.05" stroke-width="2.27778"/>
<path d="M48.4731 96.0259C47.3031 96.0259 46.3309 95.099 46.2855 93.9193C46.1688 90.8347 46.0685 89.0735 46.0618 88.9394C45.9605 87.3421 45.9344 85.7111 45.9885 84.1003C46.0444 82.4982 46.1775 80.8874 46.3878 79.3113C46.5942 77.7488 46.8865 76.1689 47.2501 74.6198C47.6147 73.0679 48.0564 71.5284 48.5648 70.045C49.0789 68.5451 49.6711 67.0559 50.3231 65.6225C50.9829 64.1796 51.7217 62.7501 52.5175 61.3766C53.3209 59.9935 54.2015 58.6334 55.1362 57.3371C56.0766 56.033 57.0961 54.7512 58.1697 53.532C59.2374 52.3176 60.3766 51.1438 61.5581 50.0394C62.73 48.9456 63.9666 47.8981 65.234 46.9287C66.4966 45.9603 67.8199 45.045 69.1693 44.2116C70.511 43.3763 71.9154 42.6008 73.3381 41.9006C74.7608 41.2022 76.2346 40.5676 77.7132 40.0139C79.2035 39.4545 80.7352 38.9684 82.2678 38.5613C83.4417 38.2478 84.6377 38.9462 84.9473 40.1142C85.2579 41.2833 84.5625 42.4832 83.3925 42.7937C81.9977 43.1651 80.6021 43.6088 79.2478 44.1161C77.9023 44.6177 76.5625 45.1954 75.2681 45.832C73.9747 46.4667 72.6986 47.1737 71.4765 47.9328C70.2506 48.6929 69.0468 49.5253 67.8971 50.4078C66.7435 51.2885 65.6169 52.2443 64.5492 53.2397C63.4708 54.2467 62.433 55.3193 61.4597 56.4256C60.4798 57.5377 59.549 58.7077 58.6905 59.897C57.8398 61.0776 57.0373 62.318 56.3072 63.5767C55.5809 64.8268 54.9105 66.127 54.3096 67.4397C53.7145 68.7438 53.1772 70.0971 52.7104 71.4619C52.2474 72.8122 51.8452 74.2118 51.5134 75.6219C51.1835 77.0311 50.9202 78.4702 50.7302 79.892C50.5392 81.3243 50.4147 82.7904 50.3665 84.2498C50.3164 85.7178 50.3376 87.2052 50.4321 88.6713C50.4389 88.8159 50.543 90.6119 50.6636 93.7554C50.708 94.962 49.7656 95.9796 48.557 96.0259C48.531 96.0249 48.5021 96.0259 48.4731 96.0259Z" fill="white" fill-opacity="0.1" stroke="white" stroke-opacity="0.05" stroke-width="2.27778"/>
<path d="M132.898 107.301C132.832 101.568 132.698 96.008 132.496 90.8005C132.333 86.7166 132.173 84.1663 132.133 83.5095C131.985 81.1058 131.597 78.7022 130.979 76.3911C130.389 74.1235 129.568 71.9079 128.548 69.7985C127.555 67.718 126.347 65.7185 124.976 63.8646C123.621 62.0108 122.089 60.2794 120.424 58.7236C118.746 57.1514 116.921 55.7268 114.987 54.4931C113.041 53.2431 110.973 52.1695 108.837 51.3111C106.675 50.4372 104.407 49.7524 102.109 49.3106C99.7598 48.839 97.3437 48.6123 94.9265 48.6123L92.5499 48.6789C91.3278 48.7589 90.0797 48.9084 88.8702 49.0955C87.6751 49.2981 86.4675 49.5527 85.285 49.8614C84.1179 50.17 82.9633 50.5462 81.8222 50.9764C80.6928 51.3931 79.5797 51.8763 78.4926 52.4116C77.4037 52.9354 76.3427 53.5266 75.3231 54.1719C74.2901 54.8008 73.2812 55.4991 72.3138 56.2389C71.3483 56.9759 70.4088 57.7677 69.5214 58.6001C68.6234 59.448 67.7496 60.3325 66.9451 61.2594C66.1253 62.1863 65.3594 63.1528 64.636 64.1598C63.9232 65.1398 63.2519 66.1728 62.6471 67.2328C62.0308 68.2813 61.4791 69.3683 60.9707 70.4708C60.473 71.5713 60.0149 72.6998 59.6406 73.8283C59.251 74.98 58.9018 76.15 58.6337 77.3171C58.352 78.4996 58.1379 79.7082 57.9768 80.8888C57.8157 82.0974 57.7212 83.333 57.6807 84.5415C57.6402 85.7646 57.6537 86.9963 57.7337 88.2473C57.7337 88.3804 57.8418 90.1938 57.9623 93.3488C58.1244 97.5513 58.244 102.049 58.3125 106.723C58.3916 113.234 58.3781 119.867 58.2575 126.422C58.1099 134.608 57.8003 142.719 57.3306 150.535C56.7933 159.759 56.0284 168.714 55.062 177.145C54.7388 180.008 54.3771 182.812 54 185.576C55.2636 186.706 56.5647 187.821 57.8938 188.921C57.9083 188.948 57.9344 188.962 57.9469 188.976V188.962C58.4861 185.27 58.9684 181.496 59.4111 177.643C60.3776 169.145 61.1569 160.108 61.7067 150.788C62.1784 142.922 62.486 134.759 62.6336 126.499C62.7542 119.892 62.7677 113.22 62.6886 106.669C62.6211 101.956 62.4986 97.4172 62.3394 93.1887C62.2189 89.9401 62.1108 88.0862 62.0964 87.9647C62.0308 86.8651 62.0173 85.7646 62.0559 84.691C62.0819 83.6146 62.1784 82.5411 62.3124 81.4685C62.459 80.42 62.6471 79.359 62.9027 78.3116C63.1439 77.2911 63.44 76.2571 63.7756 75.2511C64.1248 74.2421 64.5135 73.2496 64.9572 72.2822C65.3999 71.3167 65.8967 70.3493 66.4339 69.4233C66.9702 68.4964 67.5615 67.5839 68.1932 66.71C68.8241 65.8381 69.5089 64.9642 70.2332 64.1453C70.9441 63.3399 71.7235 62.549 72.5183 61.7957C73.2937 61.0713 74.1271 60.3585 74.9885 59.7152C75.8334 59.0573 76.7198 58.4535 77.6323 57.8883C78.5322 57.326 79.4717 56.8013 80.4246 56.3306C81.3776 55.8753 82.3585 55.4432 83.352 55.068C84.359 54.6928 85.3795 54.3697 86.4135 54.1006C87.4465 53.8189 88.5075 53.5903 89.582 53.4177C90.642 53.2411 91.7445 53.1206 92.8846 53.054L94.9256 52.9865C97.0601 52.9865 99.1811 53.1871 101.264 53.6028C103.291 53.9935 105.291 54.5973 107.197 55.3631C109.076 56.128 110.903 57.0675 112.622 58.169C114.327 59.2695 115.939 60.5206 117.417 61.9162C118.893 63.2984 120.25 64.8292 121.457 66.4544C122.666 68.0922 123.714 69.8641 124.599 71.69C125.5 73.5563 126.211 75.5047 126.749 77.5033C127.285 79.5433 127.621 81.6508 127.756 83.7882C127.809 84.4316 127.956 86.9423 128.118 90.9712C128.319 96.1411 128.455 101.646 128.521 107.353C128.602 115.141 128.548 123.062 128.345 130.893C128.104 140.582 127.648 150.238 126.99 159.583C126.211 170.567 125.15 181.268 123.82 191.418C123.621 192.935 123.418 194.439 123.204 195.93C123.835 195.503 124.466 195.057 125.084 194.6C125.526 194.292 125.97 193.971 126.413 193.634C126.991 193.229 127.555 192.811 128.104 192.384C128.118 192.251 128.145 192.117 128.159 191.984C129.501 181.751 130.575 170.957 131.354 159.892C132.025 150.48 132.482 140.758 132.725 131C132.925 123.118 132.98 115.143 132.898 107.301Z" fill="#6939C1" stroke="white" stroke-opacity="0.05" stroke-width="2.27778"/>
<path d="M118.769 123.975C118.716 123.975 118.666 123.975 118.613 123.972C117.407 123.886 116.496 122.839 116.581 121.633C117.321 111.101 116.755 98.5002 116.514 93.118L116.443 91.5343C116.394 90.3257 117.335 89.3071 118.545 89.2589C119.781 89.2068 120.772 90.1511 120.819 91.3597L120.888 92.9213C121.134 98.3787 121.706 111.158 120.95 121.941C120.868 123.093 119.906 123.975 118.769 123.975Z" fill="white" fill-opacity="0.1" stroke="white" stroke-opacity="0.05" stroke-width="2.27778"/>
<path d="M71.141 154.076C71.0938 154.076 71.0503 154.073 71.006 154.07C69.7974 153.997 68.8792 152.961 68.9534 151.751C69.4434 143.676 69.7742 135.299 69.9363 126.85C70.0655 120.082 70.0848 113.251 69.9942 106.541C69.9151 100.533 69.7598 95.74 69.645 92.774C69.5177 89.5138 69.4068 87.6523 69.3981 87.5114C69.347 86.6559 69.3325 85.8032 69.3605 84.9699C69.3894 84.1288 69.4598 83.2829 69.5688 82.4649C69.6749 81.6489 69.8273 80.8223 70.0183 80.0092C70.2064 79.2058 70.4379 78.4033 70.7041 77.6181C70.9722 76.832 71.2818 76.0536 71.6252 75.3023C71.9734 74.5393 72.3592 73.7908 72.773 73.078C73.1897 72.3594 73.6527 71.6495 74.1407 70.9695C74.6259 70.2924 75.1593 69.625 75.7216 68.9855C76.2888 68.3411 76.8849 67.7267 77.4935 67.1596C78.0992 66.5934 78.7464 66.0446 79.412 65.5353C80.0727 65.0279 80.7652 64.5505 81.4693 64.1155C82.1686 63.6795 82.9017 63.2734 83.6463 62.9098C84.389 62.5452 85.1577 62.2134 85.9303 61.9231C86.7097 61.6327 87.5093 61.3771 88.3147 61.164C89.1211 60.9489 89.9486 60.7724 90.7733 60.6373C91.6019 60.5033 92.4516 60.4078 93.2966 60.3528L94.9257 60.3007C96.5779 60.3007 98.236 60.4618 99.8526 60.781C101.431 61.0897 102.983 61.5537 104.476 62.1565C105.94 62.7468 107.358 63.4827 108.696 64.3393C110.019 65.19 111.271 66.1642 112.417 67.2387C113.571 68.3228 114.624 69.5092 115.55 70.7689C116.486 72.0402 117.309 73.4117 117.996 74.8383C118.694 76.2928 119.256 77.8158 119.664 79.3659C119.975 80.5368 119.277 81.7338 118.107 82.0415C116.933 82.3502 115.74 81.6538 115.431 80.4828C115.093 79.2009 114.627 77.9412 114.05 76.7385C113.481 75.555 112.797 74.4207 112.021 73.3655C111.252 72.318 110.379 71.3332 109.421 70.4332C108.468 69.543 107.429 68.7337 106.331 68.0277C105.222 67.3168 104.045 66.7091 102.833 66.2191C101.599 65.7195 100.313 65.3356 99.0086 65.08C97.6679 64.8177 96.2953 64.6846 94.9266 64.6846H94.7684L93.5927 64.726C92.8722 64.7723 92.1661 64.8524 91.4784 64.9633C90.7945 65.0752 90.1087 65.2208 89.4413 65.3983C88.7729 65.5768 88.1102 65.788 87.4688 66.0272C86.8293 66.2655 86.1917 66.5403 85.5783 66.8432C84.9658 67.1432 84.3601 67.4798 83.7804 67.8405C83.1959 68.2013 82.6239 68.5958 82.076 69.0125C81.5224 69.4359 80.989 69.8902 80.4845 70.3619C79.9791 70.8345 79.4824 71.3457 79.0117 71.8791C78.5448 72.4086 78.1031 72.9642 77.698 73.5285C77.289 74.0946 76.909 74.6821 76.5627 75.2781C76.2193 75.8684 75.9001 76.4867 75.6126 77.1156C75.33 77.7406 75.0734 78.384 74.8526 79.0312C74.6317 79.6793 74.4407 80.3468 74.2825 81.0123C74.1272 81.6788 74.0018 82.3646 73.9131 83.0398C73.8224 83.7227 73.7636 84.421 73.7395 85.1194C73.7183 85.8138 73.7279 86.5247 73.7713 87.2327C73.781 87.3697 73.8957 89.2717 74.026 92.6052C74.1427 95.5953 74.298 100.431 74.378 106.484C74.4687 113.24 74.4465 120.118 74.3173 126.934C74.1552 135.442 73.8234 143.882 73.3276 152.018C73.2514 153.179 72.2888 154.076 71.141 154.076Z" fill="white" fill-opacity="0.1" stroke="white" stroke-opacity="0.05" stroke-width="2.27778"/>
<path d="M72.288 166.323L72.2089 167.021C71.2135 175.157 69.7773 187.039 68.3816 196.733C67.012 195.821 65.6693 194.879 64.3672 193.913C65.6433 184.729 66.9464 174.013 67.8588 166.481L67.9389 165.797C68.0855 164.59 69.1745 163.742 70.3686 163.891C71.5771 164.024 72.4356 165.126 72.288 166.323Z" fill="white" fill-opacity="0.1" stroke="white" stroke-opacity="0.05" stroke-width="2.27778"/>
<path d="M121.089 130.472C120.86 139.978 120.43 149.433 119.8 158.562C119.061 169.29 118.028 179.762 116.752 189.71C116.255 193.564 115.718 197.378 115.127 201.113C113.543 202.064 111.931 202.979 110.266 203.878C111.046 199.084 111.77 194.156 112.416 189.147C113.677 179.293 114.696 168.899 115.435 158.256C116.054 149.192 116.482 139.818 116.712 130.379C116.739 129.171 117.8 128.231 118.953 128.231C120.162 128.27 121.116 129.265 121.089 130.472Z" fill="white" fill-opacity="0.1" stroke="white" stroke-opacity="0.05" stroke-width="2.27778"/>
<path d="M106.368 178.34C106.047 181.348 105.683 184.38 105.306 187.444C104.408 194.494 103.373 201.355 102.204 207.945C100.62 208.687 98.9952 209.411 97.3594 210.109C98.7271 202.697 99.9357 194.925 100.957 186.881C101.345 183.861 101.694 180.852 102.017 177.872C102.139 176.661 103.211 175.802 104.422 175.922C105.63 176.058 106.503 177.133 106.368 178.34Z" fill="#6939C1" stroke="white" stroke-opacity="0.05" stroke-width="2.27778"/>
<path d="M109.418 129.964C109.218 139.189 108.802 148.359 108.212 157.234C107.97 160.74 107.701 164.231 107.405 167.624C107.297 168.823 106.25 169.72 105.043 169.614C103.834 169.508 102.934 168.447 103.044 167.252C103.338 163.88 103.605 160.415 103.834 156.941C104.426 148.13 104.841 139.015 105.043 129.859C105.218 122.459 105.257 114.966 105.164 107.595C105.096 102.226 104.961 97.0154 104.761 92.1011C104.612 88.2747 104.465 85.8981 104.426 85.2808C104.385 84.6365 104.276 83.9922 104.104 83.3739C103.941 82.7691 103.727 82.1923 103.444 81.6281C103.177 81.0899 102.84 80.5671 102.464 80.0848C102.102 79.6006 101.686 79.1569 101.216 78.7556C100.759 78.3525 100.263 77.9898 99.7391 77.6811C99.2163 77.3725 98.6511 77.1169 98.0752 76.9172C97.483 76.7002 96.8802 76.5536 96.2619 76.4716C95.6311 76.3781 94.9733 76.352 94.328 76.3916C93.6837 76.433 93.0538 76.5391 92.4355 76.7147C91.8327 76.8758 91.2405 77.1034 90.6897 77.3725C90.138 77.6541 89.6152 77.9773 89.132 78.3525C88.6497 78.7286 88.206 79.1453 87.8029 79.6006C87.3997 80.0559 87.037 80.5526 86.7284 81.0898C86.4207 81.6146 86.1651 82.1788 85.9644 82.7421C85.7493 83.3324 85.6153 83.9507 85.5227 84.569C85.4417 85.1998 85.4137 85.8431 85.4551 86.4884C85.4687 86.635 85.5757 88.5834 85.7243 92.0075C85.8979 96.5052 86.0184 101.311 86.086 106.292C86.1815 113.221 86.1535 120.309 86.0184 127.347C85.8448 136.101 85.4812 144.803 84.9584 153.234C84.3401 163.169 83.4672 172.835 82.3802 181.953C81.4938 189.378 80.4463 196.549 79.2377 203.396C77.8671 202.629 76.5245 201.864 75.1953 201.071C76.2698 194.776 77.2228 188.209 78.0291 181.43C79.1171 172.393 79.9766 162.819 80.5939 152.952C81.1041 144.601 81.4658 135.951 81.6288 127.266C81.7754 120.27 81.788 113.234 81.7079 106.345C81.6414 101.405 81.5208 96.6392 81.3452 92.1811C81.2112 88.8264 81.0896 86.9031 81.0761 86.77C81.0231 85.8306 81.0491 84.8911 81.1842 83.9642C81.3057 83.0508 81.5333 82.1672 81.8294 81.3059C82.1236 80.459 82.5008 79.6401 82.956 78.8617C83.3997 78.0959 83.9235 77.3715 84.5138 76.7137C85.106 76.0424 85.7493 75.4251 86.4621 74.8878C87.1595 74.338 87.9263 73.8548 88.7307 73.4651C89.5487 73.0484 90.3965 72.7263 91.281 72.4852C92.1819 72.2421 93.1213 72.0829 94.0598 72.028C95.0012 71.9604 95.9407 72.0019 96.8676 72.136C97.7675 72.2556 98.6665 72.4707 99.5259 72.7813C100.371 73.0764 101.192 73.4507 101.958 73.9079C102.721 74.3506 103.447 74.8763 104.119 75.4656C104.791 76.0549 105.393 76.7147 105.944 77.413C106.481 78.1113 106.964 78.8772 107.369 79.6691C107.772 80.4899 108.094 81.3474 108.335 82.2338C108.577 83.1183 108.737 84.0452 108.792 85.0001C108.831 85.6309 108.98 88.0481 109.14 91.9139C109.343 96.8688 109.476 102.131 109.544 107.543C109.635 114.965 109.594 122.513 109.418 129.964Z" fill="#6939C1" stroke="white" stroke-opacity="0.05" stroke-width="2.27778"/>
<path d="M97.7872 124.61C97.6927 130.825 97.5027 137.082 97.221 143.205C96.9143 150.16 96.4822 157.089 95.9469 163.827C95.344 171.296 94.5917 178.653 93.7043 185.688C92.7388 193.41 91.5958 200.927 90.2946 208.016C90.2396 208.298 90.1451 208.554 90.012 208.768C88.6568 208.162 87.3412 207.545 86.0391 206.915C87.3132 199.986 88.4138 192.656 89.3677 185.135C90.2397 178.169 90.9804 170.879 91.5823 163.465C92.1215 156.792 92.5507 149.903 92.8593 143.001C93.1275 136.919 93.3146 130.704 93.4091 124.539C93.4226 123.333 94.4026 122.379 95.5977 122.379C95.6102 122.379 95.6102 122.379 95.6247 122.379C96.8323 122.394 97.8007 123.386 97.7872 124.61Z" fill="white" fill-opacity="0.1" stroke="white" stroke-opacity="0.05" stroke-width="2.27778"/>
<path d="M95.6297 110.989C94.4298 110.989 93.4508 110.024 93.4402 108.82C93.4016 104.679 93.3206 100.583 93.2029 96.6464C93.0997 93.2666 92.9868 90.6045 92.9 88.7853C92.8113 86.9903 92.7524 86.0219 92.7505 86.0133C92.6743 84.8066 93.5926 83.7668 94.7992 83.6916C95.9827 83.6019 97.0466 84.5307 97.1228 85.7374C97.1228 85.7374 97.1836 86.727 97.2742 88.5731C97.362 90.4106 97.4777 93.1007 97.58 96.5113C97.6996 100.479 97.7797 104.604 97.8202 108.777C97.8317 109.986 96.8604 110.978 95.6519 110.987C95.6432 110.989 95.6374 110.989 95.6297 110.989Z" fill="white" fill-opacity="0.1" stroke="white" stroke-opacity="0.05" stroke-width="2.27778"/>
</svg>
