<svg width="121" height="120" viewBox="0 0 121 120" fill="none" xmlns="http://www.w3.org/2000/svg">
<path d="M0.808594 34.2144C0.808594 33.6667 1.25261 33.2227 1.80033 33.2227H17.6681V39.1731H1.80033C1.25261 39.1731 0.808594 38.7291 0.808594 38.1813V34.2144Z" fill="#1B1B1B"/>
<path d="M1.0471 34.2144C1.0471 33.7984 1.38433 33.4612 1.80033 33.4612H17.4296V38.9346H1.80033C1.38434 38.9346 1.0471 38.5973 1.0471 38.1813V34.2144Z" stroke="white" stroke-opacity="0.12" stroke-width="0.47702"/>
<path d="M0.808594 50.0816C0.808594 49.5339 1.25261 49.0898 1.80033 49.0898H17.6681V55.0403H1.80033C1.25261 55.0403 0.808594 54.5962 0.808594 54.0485V50.0816Z" fill="#1B1B1B"/>
<path d="M1.0471 50.0816C1.0471 49.6656 1.38433 49.3284 1.80033 49.3284H17.4296V54.8018H1.80033C1.38434 54.8018 1.0471 54.4645 1.0471 54.0485V50.0816Z" stroke="white" stroke-opacity="0.12" stroke-width="0.47702"/>
<path d="M0.808594 65.9497C0.808594 65.402 1.25261 64.958 1.80033 64.958H17.6681V70.9084H1.80033C1.25261 70.9084 0.808594 70.4644 0.808594 69.9167V65.9497Z" fill="#1B1B1B"/>
<path d="M1.0471 65.9497C1.0471 65.5337 1.38433 65.1965 1.80033 65.1965H17.4296V70.6699H1.80033C1.38434 70.6699 1.0471 70.3327 1.0471 69.9167V65.9497Z" stroke="white" stroke-opacity="0.12" stroke-width="0.47702"/>
<path d="M0.808594 81.8179C0.808594 81.2702 1.25261 80.8262 1.80033 80.8262H17.6681V86.7766H1.80033C1.25261 86.7766 0.808594 86.3326 0.808594 85.7849V81.8179Z" fill="#1B1B1B"/>
<path d="M1.0471 81.8179C1.0471 81.4019 1.38433 81.0647 1.80033 81.0647H17.4296V86.5381H1.80033C1.38434 86.5381 1.0471 86.2009 1.0471 85.7849V81.8179Z" stroke="white" stroke-opacity="0.12" stroke-width="0.47702"/>
<path d="M103.949 33.2227H119.817C120.365 33.2227 120.809 33.6667 120.809 34.2144V38.1813C120.809 38.7291 120.365 39.1731 119.817 39.1731H103.949V33.2227Z" fill="#1B1B1B"/>
<path d="M104.188 33.4612H119.817C120.233 33.4612 120.57 33.7984 120.57 34.2144V38.1813C120.57 38.5973 120.233 38.9346 119.817 38.9346H104.188V33.4612Z" stroke="white" stroke-opacity="0.12" stroke-width="0.47702"/>
<path d="M103.949 49.0898H119.817C120.365 49.0898 120.809 49.5339 120.809 50.0816V54.0485C120.809 54.5963 120.365 55.0403 119.817 55.0403H103.949V49.0898Z" fill="#1B1B1B"/>
<path d="M104.188 49.3284H119.817C120.233 49.3284 120.57 49.6656 120.57 50.0816V54.0485C120.57 54.4645 120.233 54.8018 119.817 54.8018H104.188V49.3284Z" stroke="white" stroke-opacity="0.12" stroke-width="0.47702"/>
<path d="M103.949 64.958H119.817C120.365 64.958 120.809 65.402 120.809 65.9497V69.9167C120.809 70.4644 120.365 70.9084 119.817 70.9084H103.949V64.958Z" fill="#1B1B1B"/>
<path d="M104.188 65.1965H119.817C120.233 65.1965 120.57 65.5337 120.57 65.9497V69.9167C120.57 70.3327 120.233 70.6699 119.817 70.6699H104.188V65.1965Z" stroke="white" stroke-opacity="0.12" stroke-width="0.47702"/>
<path d="M103.949 80.8262H119.817C120.365 80.8262 120.809 81.2702 120.809 81.8179V85.7849C120.809 86.3326 120.365 86.7766 119.817 86.7766H103.949V80.8262Z" fill="#1B1B1B"/>
<path d="M104.188 81.0647H119.817C120.233 81.0647 120.57 81.4019 120.57 81.8179V85.7849C120.57 86.2009 120.233 86.5381 119.817 86.5381H104.188V81.0647Z" stroke="white" stroke-opacity="0.12" stroke-width="0.47702"/>
<path d="M86.5942 -4.33502e-08C87.1419 -1.94085e-08 87.5859 0.444016 87.5859 0.991737L87.5859 16.8595L81.6355 16.8595L81.6355 0.991737C81.6355 0.444016 82.0795 -2.40693e-07 82.6273 -2.16751e-07L86.5942 -4.33502e-08Z" fill="#1B1B1B"/>
<path d="M86.5942 0.23851C87.0102 0.23851 87.3474 0.575741 87.3474 0.991737L87.3474 16.621L81.874 16.621L81.874 0.991737C81.874 0.575741 82.2113 0.23851 82.6273 0.23851L86.5942 0.23851Z" stroke="white" stroke-opacity="0.12" stroke-width="0.47702"/>
<path d="M70.727 -4.33502e-08C71.2747 -1.94085e-08 71.7187 0.444016 71.7187 0.991737L71.7187 16.8595L65.7683 16.8595L65.7683 0.991737C65.7683 0.444016 66.2123 -2.40693e-07 66.7601 -2.16751e-07L70.727 -4.33502e-08Z" fill="#1B1B1B"/>
<path d="M70.727 0.23851C71.143 0.23851 71.4802 0.575741 71.4802 0.991737L71.4802 16.621L66.0068 16.621L66.0068 0.991737C66.0068 0.575741 66.3441 0.23851 66.7601 0.23851L70.727 0.23851Z" stroke="white" stroke-opacity="0.12" stroke-width="0.47702"/>
<path d="M54.8598 -4.33502e-08C55.4075 -1.94085e-08 55.8516 0.444016 55.8516 0.991737L55.8516 16.8595L49.9011 16.8595L49.9011 0.991737C49.9011 0.444016 50.3452 -2.40693e-07 50.8929 -2.16751e-07L54.8598 -4.33502e-08Z" fill="#1B1B1B"/>
<path d="M54.8598 0.23851C55.2758 0.23851 55.6131 0.575741 55.6131 0.991737L55.6131 16.621L50.1397 16.621L50.1397 0.991737C50.1397 0.575741 50.4769 0.23851 50.8929 0.23851L54.8598 0.23851Z" stroke="white" stroke-opacity="0.12" stroke-width="0.47702"/>
<path d="M38.9926 -4.33502e-08C39.5404 -1.94085e-08 39.9844 0.444016 39.9844 0.991737L39.9844 16.8595L34.034 16.8595L34.034 0.991737C34.034 0.444016 34.478 -2.40693e-07 35.0257 -2.16751e-07L38.9926 -4.33502e-08Z" fill="#1B1B1B"/>
<path d="M38.9926 0.23851C39.4086 0.23851 39.7459 0.575741 39.7459 0.991737L39.7459 16.621L34.2725 16.621L34.2725 0.991737C34.2725 0.575741 34.6097 0.23851 35.0257 0.23851L38.9926 0.23851Z" stroke="white" stroke-opacity="0.12" stroke-width="0.47702"/>
<path d="M87.5859 103.141L87.5859 119.008C87.5859 119.556 87.1419 120 86.5942 120L82.6273 120C82.0795 120 81.6355 119.556 81.6355 119.008L81.6355 103.141L87.5859 103.141Z" fill="#1B1B1B"/>
<path d="M87.3474 103.379L87.3474 119.008C87.3474 119.424 87.0102 119.762 86.5942 119.762L82.6273 119.762C82.2113 119.762 81.874 119.424 81.874 119.008L81.874 103.379L87.3474 103.379Z" stroke="white" stroke-opacity="0.12" stroke-width="0.47702"/>
<path d="M71.7188 103.141L71.7187 119.008C71.7187 119.556 71.2747 120 70.727 120L66.7601 120C66.2123 120 65.7683 119.556 65.7683 119.008L65.7683 103.141L71.7188 103.141Z" fill="#1B1B1B"/>
<path d="M71.4802 103.379L71.4802 119.008C71.4802 119.424 71.143 119.762 70.727 119.762L66.7601 119.762C66.3441 119.762 66.0068 119.424 66.0068 119.008L66.0068 103.379L71.4802 103.379Z" stroke="white" stroke-opacity="0.12" stroke-width="0.47702"/>
<path d="M55.8516 103.141L55.8516 119.008C55.8516 119.556 55.4075 120 54.8598 120L50.8929 120C50.3452 120 49.9011 119.556 49.9011 119.008L49.9011 103.141L55.8516 103.141Z" fill="#1B1B1B"/>
<path d="M55.6131 103.379L55.6131 119.008C55.6131 119.424 55.2758 119.762 54.8598 119.762L50.8929 119.762C50.4769 119.762 50.1397 119.424 50.1397 119.008L50.1397 103.379L55.6131 103.379Z" stroke="white" stroke-opacity="0.12" stroke-width="0.47702"/>
<path d="M39.9844 103.141L39.9844 119.008C39.9844 119.556 39.5404 120 38.9926 120L35.0257 120C34.478 120 34.034 119.556 34.034 119.008L34.034 103.141L39.9844 103.141Z" fill="#1B1B1B"/>
<path d="M39.7459 103.379L39.7459 119.008C39.7459 119.424 39.4086 119.762 38.9926 119.762L35.0257 119.762C34.6097 119.762 34.2725 119.424 34.2725 119.008L34.2725 103.379L39.7459 103.379Z" stroke="white" stroke-opacity="0.12" stroke-width="0.47702"/>
<rect x="16.6758" y="15.8682" width="88.2646" height="88.2646" rx="5.72425" fill="#1B1B1B"/>
<rect x="16.9143" y="16.1067" width="87.7876" height="87.7876" rx="5.48574" stroke="white" stroke-opacity="0.12" stroke-width="0.47702"/>
<rect x="29.5703" y="28.2646" width="62.9753" height="62.9753" rx="5.72425" fill="#252424"/>
<rect x="29.8088" y="28.5032" width="62.4983" height="62.4983" rx="5.48574" stroke="white" stroke-opacity="0.12" stroke-width="0.47702"/>
<path d="M50.1141 63.5635V55.9488H55.0963V57.5914H51.909V58.9294H54.5633V60.5285H51.909V61.9209H55.1616V63.5635H50.1141ZM58.9336 63.5635L55.9639 55.9488H57.8893L59.9018 61.4531L61.8925 55.9488H63.8288L60.87 63.5635H58.9336ZM64.7546 63.5635V55.9488H66.5495V55.9597L66.7235 55.9488L68.7251 58.9076L70.7158 55.9488L70.9007 55.9597V55.9488H72.6956V63.5635H70.9007V58.7445L68.736 61.91L66.5495 58.7445V63.5635H64.7546Z" fill="#6939C1"/>
</svg>
