<svg width="137" height="141" viewBox="0 0 137 141" fill="none" xmlns="http://www.w3.org/2000/svg">
<path d="M42.8948 5.30224C-14.6247 29.9479 -14.2738 111.918 43.8112 135.491C89.1053 153.566 136.486 119.425 136.993 71.5374C137.675 22.1486 89.9438 -14.0399 42.8948 5.30224Z" fill="#133B6F"/>
<path d="M103.34 53.8332C102.034 54.5423 100.788 55.3575 99.6155 56.2704C97.1587 57.8888 94.819 59.7021 92.3037 61.262C92.3037 60.911 92.3037 60.5795 92.3037 60.2481C92.3037 55.5295 92.3037 50.8305 92.3037 46.1314C92.5767 46.0339 92.7522 46.2289 92.9277 46.3654L103.008 53.3457C103.028 53.4627 103.34 53.5212 103.34 53.8332Z" fill="#BF5E26" stroke="#BF5E26" stroke-width="2" stroke-miterlimit="10"/>
<path d="M41.5891 62.5098C39.2884 61.1645 37.1826 59.5071 34.9598 58.0253C32.737 56.5434 30.7287 55.081 28.6034 53.6187C28.4618 53.5503 28.3106 53.5042 28.1549 53.4822C28.1478 53.4006 28.1643 53.3187 28.2023 53.2461C28.2403 53.1735 28.2983 53.1134 28.3694 53.0727L41.6086 43.9671C41.5826 50.1545 41.5761 56.3354 41.5891 62.5098Z" fill="#BF5E26"/>
<path d="M41.6855 62.6657C36.4688 61.2978 31.7403 58.4944 28.0368 54.574C28.5048 54.6715 27.3349 54.2621 27.2569 54.2426V53.5991C27.2426 53.3307 27.3046 53.0637 27.4357 52.8291C27.5669 52.5944 27.7617 52.4017 27.9978 52.2732C33.0673 50.1674 36.343 45.5659 40.6716 42.4072L43.3624 40.2624L43.6353 43.967C43.9618 50.2554 43.3507 56.5573 41.822 62.6657H41.6855ZM41.4905 62.3343C40.7106 55.3734 39.0728 50.4209 39.7162 43.967L42.6799 45.5269C41.4905 46.2288 40.3012 46.9503 39.0728 47.4767C35.3428 48.9334 31.9076 51.054 28.9337 53.7356C28.8362 53.8916 29.2262 53.5601 29.1872 53.2481L28.4853 52.3902C28.4853 52.2732 29.4212 52.6632 29.7527 52.8192C30.6915 53.2203 31.6091 53.6694 32.5019 54.1646C36.0038 56.2979 39.0568 59.0926 41.4905 62.3928V62.3343Z" fill="#BF5E26"/>
<path d="M41.6071 46.0143C41.6071 44.9224 41.6071 43.811 41.6071 42.7191C41.5789 42.1996 41.6605 41.68 41.8466 41.1941C42.0326 40.7082 42.3188 40.267 42.6867 39.8991C43.0546 39.5312 43.4959 39.2449 43.9817 39.0589C44.4676 38.8729 44.9872 38.7913 45.5067 38.8195H81.2273H81.8512H88.2856C89.1147 38.7869 89.9312 39.0293 90.6083 39.5089C91.2853 39.9885 91.7849 40.6783 92.0293 41.4712C92.0978 41.9889 92.0978 42.5134 92.0293 43.031C92.0293 44.045 92.0293 44.9809 92.0293 46.0923C92.0293 50.7913 92.0293 55.4904 92.0293 60.2089C92.0293 60.5404 92.0293 60.8718 92.0293 61.2228L91.2298 61.8467L72.4921 74.852C71.7797 74.4462 71.1241 73.9479 70.5423 73.3701C69.4097 72.4141 67.9687 71.9015 66.4867 71.9273C65.0174 71.9887 63.625 72.6013 62.5871 73.6431C62.0606 74.0916 61.6317 74.696 60.8907 74.8325L60.3838 74.4425L42.8355 62.2952C42.3055 62.0181 41.8246 61.6558 41.4121 61.2228L41.6071 46.0143ZM66.7987 48.471H78.79C78.985 48.471 79.1995 48.471 79.414 48.471C79.6786 48.4667 79.9337 48.3712 80.1361 48.2007C80.3386 48.0302 80.4761 47.7952 80.5254 47.5351C80.6619 46.9697 80.3304 46.6382 79.9404 46.3457C79.6018 46.1394 79.2022 46.0567 78.8095 46.1118H54.6903C53.7544 46.1118 53.267 46.5992 53.306 47.3596C53.345 48.1201 53.8519 48.4515 54.7293 48.4515L66.7987 48.471ZM66.7987 62.1197H54.7293C53.7154 62.1197 53.111 62.7242 53.3255 63.5626C53.54 64.401 54.1249 64.479 54.8463 64.479H78.8875C79.151 64.4876 79.4142 64.4547 79.6674 64.3815C79.8638 64.345 80.0463 64.2553 80.1952 64.1222C80.3441 63.9892 80.4537 63.8178 80.512 63.6268C80.5703 63.4358 80.5751 63.2325 80.5259 63.039C80.4767 62.8455 80.3753 62.6691 80.2329 62.5292C80.0598 62.3673 79.8525 62.2464 79.6264 62.1755C79.4002 62.1047 79.161 62.0856 78.9265 62.1197H66.7987ZM66.7987 56.4458H79.102C79.3231 56.4741 79.5477 56.4376 79.7485 56.3407C79.9493 56.2438 80.1176 56.0906 80.2329 55.8998C80.3528 55.7247 80.4169 55.5174 80.4169 55.3051C80.4169 55.0929 80.3528 54.8856 80.2329 54.7104C80.0891 54.5222 79.8976 54.3758 79.6781 54.2867C79.4587 54.1975 79.2193 54.1688 78.985 54.2035H54.1834C53.9173 54.2375 53.6755 54.3757 53.511 54.5877C53.3466 54.7996 53.2728 55.0681 53.306 55.3344C53.2888 55.5859 53.3679 55.8346 53.5272 56.0301C53.6865 56.2256 53.914 56.3532 54.1639 56.3873C54.404 56.4067 54.6452 56.4067 54.8853 56.3873L66.7987 56.4458Z" fill="#D3E0F3"/>
<path d="M86.0438 86.0635C84.9278 84.9144 83.7143 83.864 82.4171 82.9243C80.6818 81.4619 78.9074 80.0581 77.1526 78.6347L73.0385 75.3005C72.902 75.1835 72.746 75.1055 72.707 74.8911L91.7372 61.8858C92.0297 61.6908 92.2832 61.4763 92.5561 61.2619C95.1104 59.702 97.4892 57.8887 99.9849 56.2703C101.199 55.5972 102.471 55.0359 103.787 54.5935C103.787 56.1924 103.787 57.0113 103.787 58.6101V81.7739C103.787 82.0859 103.787 82.3978 103.787 82.7098L103.67 82.8658C101.304 81.7502 98.6962 81.2473 96.0853 81.4034C92.9061 81.5618 89.8687 82.7685 87.4476 84.8351L86.0438 86.0635Z" fill="#FF7D33"/>
<path d="M86.0251 86.2585C85.2842 85.732 84.8357 85.3811 84.0753 84.9716C80.3334 82.7089 76.7147 80.2486 73.2343 77.6013C72.7079 77.1724 72.1229 76.8019 71.577 76.2949C71.031 75.788 70.914 74.7741 70.8945 74.0917C76.0443 70.3451 81.4669 66.9885 87.117 64.0501C91.663 61.266 96.0384 58.2123 100.22 54.9055C101.877 53.9501 103.359 53.3456 104.86 52.4097L105.153 54.5935C105.887 63.9599 106.056 73.3621 105.66 82.7488V83.4118L105.289 83.8407L105.153 84.0552L104.275 85.3616C101.884 83.8379 99.1235 82.9947 96.2892 82.9225C93.455 82.8504 90.6547 83.5521 88.1894 84.9521C87.6629 85.3031 86.571 85.966 86.0251 86.278V86.2585ZM86.0251 85.8685C88.1049 83.1246 91.0541 81.1676 94.3906 80.3176C97.727 79.4676 101.253 79.7748 104.392 81.189L102.111 81.7739C102.423 81.1695 101.819 82.6903 101.858 82.6708C101.557 73.3083 101.745 63.9364 102.423 54.5935L104.373 55.8219C92.362 59.4681 84.2702 69.9971 73.6633 76.2949L74.3847 74.6766C74.3462 74.411 74.2232 74.1648 74.0337 73.9747C75.9835 75.7295 78.1673 77.6403 80.1171 79.4731C82.067 81.306 84.8552 83.6457 85.9666 85.849L86.0251 85.8685Z" fill="#FF7D33"/>
<path d="M81.8917 38.839H81.2677H52.0205L58.4939 34.3349C59.9627 33.295 61.4251 32.2811 62.881 31.2932C63.9909 30.44 65.3406 29.9565 66.7398 29.9111C68.139 29.8656 69.5173 30.2604 70.6802 31.0397C74.4044 33.477 78.0895 36.2262 81.8917 38.839Z" fill="#FF7D33"/>
<path d="M103.182 82.8658V82.7098C103.338 82.8268 103.338 82.8463 103.182 82.8658Z" fill="#FDB305"/>
<path d="M66.7986 48.4711H54.7292C53.8518 48.4711 53.3449 48.0811 53.3059 47.3792C53.2669 46.6772 53.7543 46.1703 54.6902 46.1313H78.8094C79.2021 46.0763 79.6017 46.1589 79.9403 46.3653C80.3303 46.6577 80.6618 46.9892 80.5253 47.5546C80.476 47.8147 80.3385 48.0498 80.136 48.2203C79.9336 48.3908 79.6785 48.4862 79.4139 48.4906C79.1994 48.4906 78.9849 48.4906 78.7899 48.4906L66.7986 48.4711Z" fill="#ABABC2"/>
<path d="M66.8775 62.0418H78.9274C79.1619 62.0077 79.4011 62.0267 79.6272 62.0976C79.8534 62.1685 80.0607 62.2894 80.2338 62.4513C80.3762 62.5912 80.4775 62.7675 80.5267 62.9611C80.5759 63.1546 80.5711 63.3579 80.5128 63.5489C80.4545 63.7399 80.345 63.9113 80.1961 64.0443C80.0472 64.1774 79.8646 64.267 79.6683 64.3036C79.4151 64.3768 79.1519 64.4096 78.8884 64.4011H54.8472C54.1258 64.4011 53.5213 64.2646 53.3263 63.4847C53.1314 62.7047 53.7163 62.0613 54.7302 62.0418H66.8775Z" fill="#ABABC2"/>
<path d="M66.9358 56.3679H54.8859C54.6459 56.3874 54.4046 56.3874 54.1645 56.3679C53.9147 56.3339 53.6871 56.2062 53.5278 56.0108C53.3685 55.8153 53.2895 55.5666 53.3066 55.315C53.2735 55.0488 53.3472 54.7803 53.5117 54.5683C53.6761 54.3564 53.9179 54.2182 54.184 54.1841H79.1026C79.3369 54.1495 79.5763 54.1782 79.7957 54.2674C80.0152 54.3565 80.2067 54.5028 80.3505 54.6911C80.4704 54.8662 80.5345 55.0735 80.5345 55.2858C80.5345 55.498 80.4704 55.7053 80.3505 55.8805C80.2352 56.0713 80.0669 56.2245 79.8661 56.3214C79.6653 56.4183 79.4407 56.4548 79.2196 56.4264L66.9358 56.3679Z" fill="#A9A9C0"/>
<path d="M61.0474 74.8716C61.7884 74.7351 62.2173 74.1307 62.7438 73.6822C63.7817 72.6404 65.1741 72.0278 66.6434 71.9664C68.1254 71.9406 69.5664 72.4532 70.699 73.4092C71.2808 73.987 71.9364 74.4853 72.6488 74.8911C72.6488 75.1056 72.8438 75.1836 72.9803 75.3006L77.0164 78.6347C78.7517 80.0581 80.5066 81.462 82.2029 82.9243C83.4881 83.8641 84.6885 84.9145 85.7906 86.0635C85.1861 86.9799 84.4647 87.7989 83.8408 88.7543C82.0274 92.0075 81.5385 95.8347 82.4759 99.4393H37.6302C36.0454 99.583 34.4647 99.1235 33.2041 98.1524C34.218 97.2945 35.1539 96.3975 36.2458 95.5591C38.8001 93.4338 41.3738 91.367 43.9281 89.2417C46.4823 87.1164 48.7441 85.2641 51.0839 83.2948C53.9111 80.9745 56.7773 78.6932 59.5656 76.334C60.092 75.905 60.794 75.6125 61.0474 74.8716Z" fill="#FF5C00"/>
<path d="M60.9113 74.7156C62.0617 74.2086 62.3737 73.0972 63.3876 72.4148C64.4167 71.621 65.6559 71.1463 66.9519 71.0493C68.248 70.9522 69.544 71.2372 70.6799 71.8689C71.9083 72.5708 72.6297 73.4872 73.2926 73.6627L74.0726 74.7156C74.0465 74.5155 73.9655 74.3265 73.8386 74.1696L74.287 74.4816C77.2897 76.7044 80.7019 79.4341 83.6266 81.7934C85.2584 82.9546 86.6935 84.3699 87.8772 85.9855L87.1558 86.9409C85.4464 88.6591 84.1941 90.7778 83.513 93.1038C82.8319 95.4298 82.7436 97.8893 83.2562 100.258C70.5824 99.3222 57.9086 101.097 45.1958 101.253C42.9535 101.253 37.845 101.584 35.6222 101.253C33.4377 100.836 31.4509 99.712 29.9678 98.0548C39.7884 89.6907 50.0668 81.8793 60.7553 74.6571L60.9113 74.7156ZM61.1648 75.0081C61.1648 75.6905 60.1704 76.3144 59.7414 76.7824C58.1816 78.3422 56.4657 80.0581 54.8669 81.5594C48.803 87.4089 41.1012 94.3112 34.6278 99.7512V96.5925C35.5247 97.3724 36.9286 97.4504 39.1904 97.4699C53.5995 97.4699 68.1061 99.4197 82.4958 98.6593L81.7158 99.6342C80.9505 97.1736 80.7966 94.5635 81.2674 92.0299C81.7886 89.5176 82.8755 87.157 84.4456 85.1276V87.0774C81.7158 84.5426 77.7187 81.5009 74.911 78.8492C74.3455 78.4007 72.9612 77.1528 72.4932 76.7044C72.0253 76.2559 71.3428 75.8075 71.3038 75.0081L72.0642 76.0805C71.1043 75.4049 70.2041 74.6482 69.3735 73.8187C68.606 73.2528 67.6965 72.9113 66.7463 72.8321C65.7961 72.7529 64.8426 72.9392 63.992 73.3702C63.0366 73.7212 62.1592 74.9496 61.1063 74.9496L61.1648 75.0081Z" fill="#FF5C00"/>
<path d="M111.138 97.0799C110.901 97.7604 110.75 98.4678 110.689 99.1857C109.975 102.319 108.242 105.127 105.761 107.171C103.28 109.214 100.192 110.376 96.9799 110.477C93.7676 110.577 90.6128 109.609 88.0093 107.725C85.4059 105.841 83.5009 103.146 82.5926 100.063C82.5926 99.8681 82.4561 99.6537 82.3976 99.4587C81.4904 95.8331 82.0214 91.997 83.8795 88.7542C84.4254 87.7988 85.1468 86.9799 85.8293 86.0635L87.1941 84.8741C89.5656 82.8137 92.5581 81.6057 95.6953 81.4424C98.2682 81.29 100.838 81.7932 103.163 82.9048C105.892 84.3599 108.12 86.6017 109.558 89.3392C110.395 90.9801 110.905 92.7681 111.06 94.6037C111.06 94.7596 111.06 94.9351 111.216 95.0131L111.138 97.0799ZM95.5393 91.4645V101.603C95.5393 101.974 95.3054 101.954 95.0714 101.954C94.4084 101.954 93.7455 101.954 93.1216 101.954C92.9499 101.948 92.7791 101.982 92.6232 102.055C92.4673 102.127 92.3305 102.235 92.2241 102.369C92.1178 102.504 92.0447 102.662 92.0109 102.831C91.9771 102.999 91.9835 103.173 92.0297 103.339C92.1121 103.635 92.301 103.89 92.56 104.056C92.8191 104.221 93.1301 104.285 93.4335 104.236H97.4892C98.4446 104.236 99.439 104.236 100.316 104.236C100.469 104.237 100.62 104.206 100.759 104.144C100.898 104.081 101.022 103.989 101.122 103.874C101.222 103.759 101.296 103.624 101.339 103.478C101.381 103.331 101.392 103.178 101.369 103.027C101.364 102.882 101.33 102.739 101.27 102.607C101.209 102.475 101.122 102.357 101.015 102.259C100.908 102.161 100.782 102.085 100.646 102.036C100.509 101.987 100.364 101.966 100.219 101.974H98.8735C97.7036 101.974 97.8401 102.149 97.8401 100.902V89.0662C97.8837 88.7913 97.8369 88.5096 97.7068 88.2636C97.5767 88.0175 97.3704 87.8202 97.1187 87.7013C96.8594 87.6066 96.5762 87.5991 96.3122 87.6801C96.0483 87.761 95.818 87.9259 95.6563 88.1498L91.9907 91.6399C91.3862 92.2249 91.3082 92.8683 91.7762 93.3753C92.2442 93.8822 92.8876 93.8822 93.5505 93.3753L95.5393 91.4645Z" fill="#8CB4D3"/>
<path d="M111.312 97.0994C109.987 115.077 86.4329 116.013 82.0653 99.0492C81.4548 97.0021 81.2905 94.8479 81.5836 92.7319C81.8767 90.616 82.6202 88.5875 83.7641 86.7833C84.9079 84.9792 86.4255 83.4415 88.2143 82.2739C90.0031 81.1063 92.0216 80.336 94.1335 80.0149C96.2454 79.6939 98.4016 79.8297 100.457 80.413C102.512 80.9964 104.418 82.0138 106.046 83.3965C107.674 84.7793 108.987 86.4952 109.895 88.4285C110.804 90.3619 111.287 92.4676 111.312 94.6036C111.312 94.8571 111.312 94.7986 111.312 94.7986L111.449 95.0326L111.293 97.1189L111.312 97.0994ZM111.117 97.0994L110.962 95.1496L111.098 95.3836C110.845 95.3836 110.767 94.9351 110.767 94.7596C110.386 92.4393 109.464 90.2414 108.075 88.3442C106.686 86.447 104.869 84.9041 102.772 83.8407C89.4941 77.7767 76.3523 93.2973 85.5944 104.996C94.1541 114.258 108.719 109.091 111.117 97.1969V97.0994Z" fill="#8CB4D3"/>
<path d="M95.5391 91.3865C95.9842 94.88 96.2446 98.3946 96.319 101.916C95.9875 103.358 93.8818 102.637 92.9068 102.871C92.7119 102.871 92.6924 103.066 92.7509 103.3C92.8094 103.534 93.8817 103.592 94.5642 103.729C96.3336 103.891 98.1106 103.956 99.8872 103.924C101.155 104.138 101.408 102.656 100.453 102.422C99.7447 102.386 99.0353 102.386 98.3273 102.422C98.1804 102.452 98.0287 102.448 97.8836 102.411C97.7384 102.374 97.6035 102.305 97.4889 102.208C97.3846 102.092 97.3049 101.957 97.2546 101.809C97.2043 101.662 97.1845 101.505 97.1964 101.35C96.9625 98.4058 96.8845 94.9547 96.8065 91.991C96.8065 91.172 96.8065 89.1832 96.8065 88.5593C96.6895 88.3448 96.319 88.8713 95.7536 89.3002C94.514 90.2941 93.3416 91.3688 92.2439 92.5174C92.2439 93.1218 92.8483 93.2583 93.3553 92.8879C93.8623 92.5174 95.0126 91.718 95.6171 91.289L95.5391 91.3865ZM95.5391 91.562C94.5447 92.4979 94.2717 93.7653 92.9068 94.1747C92.6794 94.2104 92.4471 94.1993 92.224 94.1423C92.001 94.0852 91.7919 93.9834 91.6094 93.8429C91.427 93.7024 91.2751 93.5263 91.1629 93.3252C91.0508 93.1242 90.9807 92.9024 90.957 92.6734C90.9779 92.293 91.0811 91.9216 91.2595 91.585C91.438 91.2483 91.6873 90.9544 91.9904 90.7236L95.0711 87.4674C95.3294 87.1602 95.6681 86.9309 96.0492 86.8051C96.4304 86.6793 96.839 86.662 97.2294 86.755C97.6198 86.8481 97.9766 87.0479 98.2601 87.332C98.5435 87.6162 98.7423 87.9736 98.8343 88.3643C99.0682 90.5286 98.8343 93.5313 98.8343 95.7346C98.8343 97.9379 98.7173 99.6342 98.5418 101.584C98.5418 101.701 98.5418 101.896 98.4248 101.584C98.3078 101.272 98.3078 101.584 98.4248 101.584C99.2082 101.611 99.9894 101.682 100.765 101.799C101.109 101.934 101.392 102.191 101.56 102.52C101.729 102.849 101.772 103.228 101.681 103.587C101.59 103.946 101.372 104.259 101.067 104.468C100.762 104.677 100.391 104.768 100.024 104.723C97.5084 104.723 95.2466 105.113 92.6924 105.035C92.2852 104.979 91.9062 104.796 91.6094 104.512C91.3125 104.227 91.1131 103.857 91.0396 103.452C90.9661 103.048 91.0222 102.631 91.2 102.26C91.3777 101.89 91.668 101.585 92.0294 101.389C93.0115 101.078 94.0494 100.985 95.0711 101.116H94.8956C94.7202 101.116 94.5837 101.448 94.6032 101.506C94.6227 101.565 94.6032 101.35 94.6032 101.272C94.6032 97.9574 95.1881 95.2081 95.4026 91.523L95.5391 91.562Z" fill="#8CB4D3"/>
<path d="M95.5386 91.4644L93.5888 93.2192C92.9258 93.8237 92.3019 93.8627 91.8145 93.2192C91.327 92.5758 91.4245 92.0689 92.0289 91.4839L95.5386 88.1497C95.7002 87.9259 95.9305 87.761 96.1945 87.68C96.4585 87.5991 96.7416 87.6065 97.001 87.7013C97.2526 87.8202 97.459 88.0174 97.5891 88.2635C97.7191 88.5096 97.7659 88.7912 97.7224 89.0661V100.882C97.7224 102.13 97.5859 101.935 98.7558 101.954H100.101C100.246 101.947 100.391 101.968 100.528 102.017C100.665 102.066 100.79 102.141 100.898 102.239C101.005 102.337 101.091 102.456 101.152 102.588C101.213 102.719 101.247 102.862 101.252 103.007C101.274 103.158 101.264 103.312 101.221 103.458C101.178 103.605 101.104 103.74 101.004 103.855C100.904 103.97 100.78 104.062 100.641 104.124C100.502 104.186 100.351 104.218 100.199 104.216C99.2627 104.216 98.2488 104.216 97.3714 104.216H93.2768C92.9734 104.266 92.6624 104.202 92.4033 104.036C92.1442 103.871 91.9554 103.615 91.8729 103.319C91.8268 103.154 91.8204 102.98 91.8542 102.811C91.888 102.643 91.961 102.485 92.0674 102.35C92.1738 102.215 92.3105 102.107 92.4665 102.035C92.6224 101.963 92.7932 101.929 92.9648 101.935C93.6083 101.935 94.2712 101.935 94.9147 101.935C95.1486 101.935 95.3826 101.935 95.3826 101.584L95.5386 91.4644Z" fill="#FF5C00"/>
<path d="M61.0862 74.8717C60.8327 75.6126 60.0723 75.9051 59.5264 76.334C56.5432 78.6933 53.5794 80.9746 50.6937 83.2949C48.1979 85.2447 45.7412 87.292 43.2649 89.2613C40.7887 91.2306 37.7859 93.4534 35.0952 95.5397C34.0033 96.3781 32.9699 97.275 31.917 98.1329C31.0943 97.6074 30.4063 96.8961 29.9085 96.0562C29.4107 95.2164 29.1169 94.2714 29.0508 93.2974C29.0508 92.7514 29.0508 92.186 29.0508 91.64C29.0508 79.7592 29.0508 67.8783 29.0508 55.9975C29.0508 55.2565 29.0508 55.315 29.0508 54.5741C29.1873 54.5741 31.6635 55.3735 31.7805 55.4515C33.6133 56.6604 33.1064 56.3484 34.9587 57.5378C36.811 58.7272 38.6829 60.1116 40.6717 61.223C41.1194 61.6578 41.6326 62.0196 42.1925 62.2954L60.5793 74.4427L61.0862 74.8717Z" fill="#FF7D33"/>
<path d="M61.2815 74.8131C61.0475 75.983 60.1506 76.2755 59.7216 76.7629C51.1949 85.2304 41.8779 92.8629 31.8978 99.5563C30.8936 98.9228 30.0503 98.0647 29.4344 97.0496C28.8186 96.0344 28.447 94.8901 28.3492 93.7068C28.3492 91.757 28.3492 89.9437 28.3492 88.0718C28.3492 80.6431 27.5302 73.2143 27.2573 65.7855C27.1013 61.2619 26.9648 56.6214 26.9843 52.0003C28.0177 52.3318 30.2015 52.9167 31.1959 53.2287C31.7032 53.364 32.1988 53.54 32.6777 53.7551C32.9897 53.8916 35.6999 55.705 36.0704 55.8999C38.2932 57.3623 40.1455 58.8247 42.2708 60.014H42.0953C48.3152 64.5766 55.3931 69.5681 61.223 74.8326L61.2815 74.8131ZM60.8915 74.9301C57.2844 73.2338 53.5992 71.167 50.1091 69.2172C47.5353 67.7548 44.7081 66.078 42.1538 64.5376C41.0687 64.0277 40.0584 63.3717 39.1511 62.5878L39.7166 63.0557C36.5384 61.2619 33.8671 59.4876 31.0594 57.5573L30.7084 57.3233L30.9034 57.4208C30.299 57.1868 28.9536 56.7968 28.4076 56.5824L31.0204 54.5936C31.0204 65.3955 29.714 77.2114 29.597 87.9549C29.6945 91.2696 29.0706 95.4616 32.5413 97.1775H31.1959C40.2374 88.6818 50.1974 81.22 60.8915 74.9301Z" fill="#FF7D33"/>
</svg>
