<svg width="140" height="140" viewBox="0 0 140 140" fill="none" xmlns="http://www.w3.org/2000/svg">
<g clip-path="url(#clip0_936_160)">
<path d="M70.0007 140.001C108.661 140.001 140.001 108.661 140.001 70.0007C140.001 31.3404 108.661 0 70.0007 0C31.3404 0 0 31.3404 0 70.0007C0 108.661 31.3404 140.001 70.0007 140.001Z" fill="#133B6F"/>
<path d="M51.2761 40.9281C51.4738 40.3826 51.9674 40.1709 52.3867 39.9465C53.7888 39.1795 55.191 38.3831 56.6871 37.8433C58.9342 37.0547 61.2637 36.5241 63.6307 36.2616C67.1361 35.8494 70.5855 36.1494 74.0292 36.7874C74.7487 36.9269 75.453 37.1353 76.1325 37.41C76.4872 37.5502 76.8027 37.3175 77.1252 37.4507C77.3608 37.5572 77.5907 37.6736 77.8263 37.7676C79.1513 38.2892 80.5283 38.6692 81.7664 39.4305C82.2726 39.7432 82.7802 40.0671 83.3761 40.1653C83.4043 40.3048 83.4626 40.4365 83.5469 40.5513C83.6311 40.6661 83.7394 40.7611 83.864 40.8299C85.527 41.9278 87.1199 43.1281 88.5319 44.5793C89.5504 45.6165 90.488 46.7303 91.3362 47.9109C91.8887 48.6891 92.458 49.4743 92.7216 50.4348C92.3234 50.5287 92.0527 50.2217 91.74 50.0702C90.3799 49.4182 88.9988 48.8784 87.469 48.9695C86.9951 48.9976 86.5155 48.9443 86.043 48.9891C84.3009 49.1377 82.6441 49.8087 81.2896 50.9143C80.7049 51.3911 80.5199 52.0809 80.5984 52.8858C80.7176 54.1057 80.7821 55.327 79.9997 56.3912C79.1619 57.5245 78.1985 58.5594 77.128 59.476C76.3319 60.1486 75.6116 60.906 74.9799 61.7349C74.2423 62.7276 74.2493 63.3768 75.1047 64.242C76.9537 66.1116 78.8181 67.9657 80.6979 69.8044C81.7271 70.8084 82.6736 71.9161 83.8304 72.7658C84.9073 73.5552 86.2337 73.4206 87.2265 72.5036C87.8094 71.9767 88.2473 71.309 88.4982 70.5644C88.9645 69.14 89.5295 67.7499 90.1892 66.4041C91.3587 64.0751 93.2207 62.3378 94.7617 60.3369C95.0842 59.9163 95.2749 59.3961 95.683 59.0525C95.8344 59.1928 95.8232 59.3961 95.8316 59.5812C95.8835 60.4856 95.9494 61.39 95.9718 62.2944C96.0251 65.1492 95.8218 67.9816 95.1389 70.7495C94.6021 72.9984 93.772 75.167 92.6697 77.1995C91.4188 79.4686 89.8088 81.5204 87.9023 83.2751C85.2746 85.7121 82.1898 87.3414 78.9284 88.5781C76.2222 89.6073 73.408 90.2383 70.563 90.6814C67.7489 91.116 64.9123 91.0698 62.0799 90.9618C61.2867 90.9404 60.4978 90.8375 59.7256 90.6547C57.8804 90.1906 56.0351 89.7195 54.2572 88.996C53.7411 88.787 53.1691 88.5991 52.5914 88.8557C52.4652 88.6482 52.2717 88.5907 52.0571 88.5122C50.7601 88.0355 49.1967 88.6524 48.0567 87.8111C47.6599 87.5153 47.6585 86.5127 47.3725 86.9193C47.0864 87.326 46.9084 87.9009 46.391 88.1224C46.5186 87.5728 46.5592 87.9822 46.8677 87.5615C47.1762 87.1409 47.5267 86.1201 47.0738 85.7766C43.5403 83.0718 40.7753 79.6112 38.4925 75.7048C37.7227 74.3853 37.253 72.9004 36.9137 71.3777C36.1481 67.9409 36.2715 64.507 36.845 61.0548C37.1759 59.0288 37.6644 57.0316 38.306 55.0816C39.034 52.9425 40.1496 50.9557 41.5969 49.2205C41.6124 49.2009 41.6684 49.2205 41.7049 49.2205C41.7574 49.292 41.8282 49.3481 41.9099 49.3829C41.9915 49.4177 42.081 49.4299 42.169 49.4182C43.8516 49.1784 45.4333 49.5066 46.9364 50.3184C47.8646 50.8162 48.8854 51.0377 49.78 50.4208C51.3673 49.3285 51.9197 48.274 51.593 46.2759C51.3112 44.491 51.2845 42.7158 51.2761 40.9281ZM63.5732 59.9359C63.5536 59.2152 62.7095 58.0472 61.9453 57.8467C60.1687 57.3798 58.409 56.7544 56.5371 56.9086C55.3649 57.0054 54.2375 57.3293 53.2995 58.0907C51.8819 59.232 51.1752 60.996 50.1628 62.4865C49.5879 63.3278 49.0102 64.134 48.2544 64.7818C47.0458 65.825 45.5328 66.3859 44.3396 67.4782C43.5193 68.2326 42.5504 68.8173 41.9657 69.8254C41.5745 70.5027 41.1581 71.2164 41.5619 72.0689C41.9337 72.8941 42.5311 73.5974 43.2851 74.0979C44.5471 74.9167 45.9493 75.3598 47.3094 75.9207C49.0004 76.6218 50.1979 77.902 51.0953 79.4864C51.6061 80.4234 52.2425 81.2862 52.9868 82.051C53.9417 82.9918 54.9723 83.8556 56.2202 84.4501C57.5452 85.0811 58.6516 85.1063 59.8729 84.2608C60.5473 83.7925 61.1783 83.2611 61.8724 82.8194C63.2493 81.9444 64.8169 81.6345 66.2794 81.0204C67.7769 80.3922 69.2758 79.8328 70.2728 78.282C71.5123 76.3554 70.7285 74.7583 69.1651 73.8847C67.8793 73.1668 66.4645 72.7237 65.0525 72.3017C63.0894 71.7156 61.3802 70.6948 60.1757 68.8551C59.2461 67.4347 59.2475 65.3132 60.2388 63.9475C60.8151 63.1553 61.6158 62.6295 62.2916 61.9578C62.8553 61.3928 63.5241 60.8768 63.5732 59.9359ZM70.5658 39.359C69.8367 39.2412 69.1637 39.5974 68.4626 39.6773C67.2791 39.8091 66.2051 40.2746 65.1212 40.7247C64.5701 40.9547 64.0177 41.1762 63.5381 41.5745C63.2381 41.824 63.2198 42.0834 63.3825 42.3975C63.5352 42.6634 63.7637 42.8777 64.0387 43.0131C64.6005 43.3244 65.1457 43.6647 65.6722 44.0325C66.4224 44.5737 67.1305 45.1794 67.8779 45.7277C68.2466 45.9997 68.6112 46.297 69.0655 46.4134C70.4046 46.7569 71.6105 46.6714 72.5163 45.3533C72.7311 45.0543 72.9305 44.7445 73.1136 44.4251C73.7544 43.2515 73.9142 42.0063 73.2328 40.8313C72.6551 39.8316 71.8025 39.1431 70.5658 39.3646V39.359Z" fill="#7FB5D6"/>
<path d="M44.2061 46.4757L44.2993 46.3853L44.2061 46.4757Z" fill="#FF5C00"/>
<path d="M44.7135 46.0194C46.5448 44.083 48.6396 42.4999 50.7765 40.9827C50.9168 40.8804 51.0962 40.8047 51.2757 40.9281C51.2841 42.7158 51.3108 44.491 51.601 46.2703C51.9277 48.2684 51.3753 49.3229 49.788 50.4152C48.8934 51.0321 47.8726 50.8106 46.9444 50.3128C45.4357 49.5009 43.8498 49.1728 42.177 49.4126C42.089 49.4243 41.9995 49.4121 41.9179 49.3773C41.8362 49.3425 41.7654 49.2864 41.7129 49.2149" fill="#FF5C00"/>
<path d="M45.5632 89.282C45.6572 89.5344 45.5632 89.6297 45.3249 89.6045C45.3189 89.5676 45.3204 89.5299 45.3292 89.4936C45.338 89.4573 45.354 89.4231 45.3762 89.3931C45.3984 89.363 45.4264 89.3377 45.4585 89.3187C45.4906 89.2996 45.5262 89.2871 45.5632 89.282Z" fill="#FC4613"/>
<path d="M45.9238 88.78C46.0065 89.024 45.9238 89.1278 45.684 89.0941C45.6744 89.0207 45.6943 88.9465 45.7392 88.8877C45.7841 88.8288 45.8504 88.7901 45.9238 88.78Z" fill="#FC4613"/>
<path d="M46.253 88.2696C46.3722 88.529 46.2713 88.6131 46.0301 88.5837C46.0201 88.5128 46.0376 88.4407 46.0791 88.3823C46.1206 88.3239 46.1828 88.2836 46.253 88.2696Z" fill="#FC4613"/>
<path d="M63.5729 59.9359C63.5238 60.8711 62.855 61.3871 62.2941 61.9452C61.6183 62.6168 60.8176 63.1427 60.2414 63.9349C59.25 65.3006 59.2486 67.4221 60.1783 68.8425C61.3827 70.6821 63.0948 71.7029 65.055 72.289C66.467 72.7097 67.8818 73.1542 69.1676 73.8721C70.731 74.7456 71.5148 76.3427 70.2753 78.2693C69.2784 79.8201 67.7794 80.3796 66.2819 81.0077C64.8195 81.6219 63.2518 81.9318 61.8749 82.8067C61.1808 83.2484 60.5498 83.7798 59.8754 84.2482C58.6541 85.0895 57.5478 85.0684 56.2227 84.4375C54.9748 83.8429 53.9442 82.9792 52.9893 82.0383C52.245 81.2736 51.6086 80.4107 51.0978 79.4738C50.1976 77.8893 48.9945 76.6077 47.3119 75.908C45.956 75.3472 44.5482 74.9083 43.2877 74.0852C42.5334 73.5844 41.936 72.8805 41.5644 72.0549C41.1606 71.2066 41.577 70.4928 41.9682 69.8114C42.5529 68.8032 43.5218 68.2185 44.3421 67.4642C45.5326 66.3859 47.0455 65.825 48.2542 64.7874C49.0099 64.1396 49.5876 63.339 50.1625 62.4921C51.1749 61.0015 51.8816 59.2376 53.2992 58.0962C54.2373 57.3405 55.3646 57.011 56.5368 56.9142C58.4087 56.76 60.1684 57.3853 61.945 57.8523C62.7092 58.0528 63.5533 59.2208 63.5729 59.9359Z" fill="#FF5C00"/>
<path d="M93.1423 50.9311C94.3552 53.0344 95.1053 55.3185 95.5779 57.7177C95.6101 57.8775 95.6816 58.0416 95.5877 58.207C95.5709 58.2308 95.5554 58.2561 95.54 58.2813L95.6199 58.3066C95.819 58.5351 95.7601 58.7945 95.697 59.0539C95.289 59.3975 95.0983 59.9191 94.7758 60.3383C93.2334 62.3448 91.3727 64.0765 90.2033 66.4055C89.5436 67.7513 88.9786 69.1414 88.5123 70.5658C88.2614 71.3104 87.8235 71.9781 87.2405 72.505C86.2478 73.422 84.9213 73.5566 83.8445 72.7672C82.6877 71.9175 81.7412 70.8041 80.712 69.8058C78.8331 67.9708 76.9687 66.1167 75.1188 64.2434C74.2634 63.3782 74.2564 62.729 74.994 61.7363C75.6257 60.9074 76.346 60.15 77.1421 59.4774C78.2126 58.5608 79.176 57.5259 80.0137 56.3926C80.7962 55.3255 80.7317 54.1043 80.6125 52.8872C80.5339 52.0823 80.719 51.3925 81.3037 50.9157C82.6582 49.8101 84.315 49.1391 86.0571 48.9905C86.5296 48.9457 87.0092 48.9989 87.4831 48.9709C89.0129 48.8798 90.394 49.4196 91.7541 50.0716C92.0696 50.223 92.3402 50.5301 92.7357 50.4362C92.7915 50.4545 92.8412 50.4879 92.8793 50.5327C92.9174 50.5775 92.9424 50.6319 92.9516 50.69C92.9067 50.868 92.9432 50.9718 93.1423 50.9311Z" fill="#FF5C00"/>
<path d="M70.5655 39.3646C71.8022 39.143 72.6548 39.8315 73.2381 40.8369C73.9195 42.0119 73.7597 43.257 73.1189 44.4306C72.9358 44.7501 72.7364 45.0599 72.5216 45.3589C71.6158 46.6769 70.4099 46.7611 69.0708 46.4189C68.6165 46.3025 68.2519 45.9983 67.8832 45.7333C67.1358 45.185 66.4277 44.5793 65.6775 44.038C65.151 43.6702 64.6058 43.33 64.044 43.0187C63.769 42.8832 63.5405 42.6689 63.3878 42.4031C63.2251 42.089 63.2476 41.8296 63.5434 41.58C64.023 41.1818 64.5754 40.9603 65.1265 40.7303C66.2104 40.2802 67.2844 39.8147 68.4679 39.6829C69.169 39.6044 69.8364 39.2468 70.5655 39.3646Z" fill="#FF5C00"/>
<path d="M93.1398 41.8927C92.9786 41.8815 92.8959 41.7623 92.8271 41.6305C93.0697 41.5324 93.1875 41.6025 93.1398 41.8927Z" fill="#FC4613"/>
<path d="M95.28 84.279C95.2724 84.2449 95.2725 84.2095 95.2806 84.1755C95.2887 84.1415 95.3044 84.1097 95.3266 84.0827C95.3487 84.0556 95.3768 84.034 95.4086 84.0195C95.4403 84.0049 95.475 83.9977 95.51 83.9986C95.5857 84.23 95.503 84.3169 95.28 84.279Z" fill="#FC4613"/>
<path d="M93.3847 42.1423C93.2711 42.1718 93.2318 42.1157 93.2445 42.0021C93.3847 41.9488 93.4408 41.9881 93.3847 42.1423Z" fill="#FC4613"/>
<path d="M93.7383 42.5265C93.6276 42.5461 93.5813 42.5013 93.6079 42.3863C93.7454 42.3302 93.793 42.3737 93.7383 42.5265Z" fill="#FC4613"/>
<path d="M93.1422 50.9311C92.9431 50.9718 92.9066 50.868 92.9543 50.6899C93.1071 50.6913 93.1773 50.7713 93.1422 50.9311Z" fill="#FC4613"/>
<path d="M95.6205 58.3073L95.54 58.2819C95.5556 58.2565 95.5711 58.231 95.5881 58.207C95.6055 58.2247 95.6211 58.2441 95.6347 58.2649C95.6403 58.2734 95.6262 58.2932 95.6205 58.3073Z" fill="#FC4613"/>
<path d="M85.7946 114.259C85.7946 114.259 61.3491 114.211 57.8002 114.164C54.2513 114.116 46.4426 114.559 45.7051 113.831C44.9675 113.103 46.1958 110.978 49.8667 109.51C53.5376 108.042 56.7107 107.06 58.3345 105.148C59.9582 103.235 61.0406 102.691 59.316 102.078C57.5913 101.465 55.8218 101.565 52.0653 100.376C48.3089 99.1869 46.4693 97.4903 46.0809 98.3386C45.6925 99.1869 44.9423 101.063 42.6988 99.9988C40.4553 98.9345 39.5243 98.4045 39.9898 97.5309C40.4553 96.6574 43.7294 92.1186 44.8273 90.3392C45.9252 88.5598 47.2334 85.9041 47.2334 85.9041C47.2334 85.9041 48.9161 87.5965 50.5131 88.0789C52.1102 88.5612 52.601 88.8487 52.601 88.8487L50.1668 92.5981C50.1668 92.5981 49.899 92.9318 52.2532 93.5936C54.6075 94.2555 68.9966 98.4676 76.0705 96.1119C83.1445 93.7563 90.2872 90.9758 94.4474 85.2802C98.6077 79.5845 103.806 71.1533 102.992 63.604C102.179 56.0547 100.32 49.7505 94.4699 43.4127C88.62 37.0748 86.6752 36.0849 85.2702 37.0804C83.8652 38.076 83.7432 40.7962 82.7323 40.0713C81.7213 39.3464 77.533 38.0732 77.1236 37.445C76.7141 36.8168 83.9648 25.2798 85.1005 25.3555C86.2363 25.4312 90.2143 27.5064 90.3657 28.1135C90.5171 28.7207 89.4248 30.4229 89.6141 30.5828C89.8034 30.7426 103.877 38.2022 107.785 54.3384C111.693 70.4746 106.23 80.1005 103.848 84.1416C101.465 88.1827 90.412 98.1956 84.6378 99.5136C78.8637 100.832 71.2499 101.562 72.6787 103.095C74.1075 104.627 73.534 104.717 79.1736 107.582C84.8131 110.446 85.5226 110.191 86.1185 111.71C86.7144 113.228 85.7946 114.259 85.7946 114.259Z" fill="#F8F8F8"/>
</g>
<defs>
<clipPath id="clip0_936_160">
<rect width="140" height="140" fill="white"/>
</clipPath>
</defs>
</svg>
