<svg width="129" height="132" viewBox="0 0 129 132" fill="none" xmlns="http://www.w3.org/2000/svg">
<path d="M40.2381 4.97385C-13.719 28.0931 -13.3897 104.986 41.0977 127.1C83.5866 144.055 128.033 112.028 128.508 67.1068C129.148 20.7769 84.3731 -13.1704 40.2381 4.97385Z" fill="#133B6F"/>
<path d="M65.3693 100.597H63.0464C63.0464 100.432 62.8269 100.45 62.6989 100.432C60.5885 100.021 58.6654 98.9438 57.2117 97.3594C56.0412 96.1339 54.834 94.945 53.6634 93.7013C53.5127 93.5473 53.3291 93.4295 53.1263 93.3567C52.9236 93.2838 52.707 93.2578 52.4928 93.2806C50.8101 93.2806 49.109 93.2806 47.408 93.1526C44.5731 93.0664 41.8865 91.8658 39.9313 89.8112C37.976 87.7567 36.9099 85.014 36.9641 82.1783C38.4822 82.3612 40.0004 82.6172 41.5368 82.6904C46.4861 83.0133 51.4516 82.3926 56.1692 80.8613C56.4618 80.7516 56.7911 80.6967 56.9008 80.3309C58.0492 81.2179 59.5023 81.6139 60.942 81.4323C62.3817 81.2506 63.6908 80.506 64.5828 79.3615C67.7654 75.8314 71.1125 72.4477 74.4048 69.0091C76.7582 66.5703 79.1238 64.1316 81.5016 61.6929C82.1312 61.0984 82.5979 60.3526 82.8573 59.5265C83.1167 58.7003 83.16 57.8215 82.9831 56.9739C82.7306 55.7599 82.0883 54.6616 81.154 53.8462C81.8298 51.2959 82.1982 48.674 82.2515 46.0362C82.3038 43.5869 82.1324 41.138 81.7393 38.72C84.1736 38.9248 86.4645 39.9564 88.2313 41.6434C89.9981 43.3303 91.1345 45.5711 91.4516 47.9933C91.6442 49.9318 91.7175 51.8804 91.6711 53.8279C91.6607 54.1141 91.7145 54.3989 91.8284 54.6616C91.9424 54.9242 92.1136 55.1581 92.3296 55.3461C93.6282 56.5715 94.9085 57.8336 96.1706 59.0042C97.1844 59.983 97.9657 61.1768 98.4569 62.4976C98.6764 63.0829 98.841 63.6865 99.0239 64.3267V67.491C98.9677 67.5554 98.9243 67.6299 98.8959 67.7105C98.4355 69.7596 97.3564 71.6177 95.8048 73.033C94.5793 74.2036 93.3904 75.3925 92.1466 76.5631C91.9988 76.6968 91.8815 76.8607 91.8026 77.0437C91.7237 77.2268 91.6851 77.4246 91.6894 77.6239C91.6894 79.453 91.6894 81.154 91.5614 82.9282C91.4124 85.4662 90.3766 87.8713 88.6349 89.7234C86.8931 91.5754 84.5561 92.7568 82.032 93.0611C80.02 93.2623 78.0081 93.1709 75.9961 93.2806C75.7956 93.2798 75.5973 93.3218 75.4143 93.4038C75.2314 93.4858 75.0681 93.6059 74.9353 93.7562C73.6549 95.0914 72.3563 96.4083 71.0394 97.7252C69.7958 98.991 68.2358 99.9004 66.5216 100.359C66.1268 100.372 65.737 100.452 65.3693 100.597Z" fill="#FF7D33"/>
<path d="M36.964 82.1782C36.8148 80.6894 36.7659 79.1923 36.8177 77.697C36.8254 77.4848 36.7869 77.2735 36.7048 77.0776C36.6227 76.8818 36.4989 76.7062 36.3421 76.563C35.0069 75.301 33.69 74.0389 32.3914 72.7403C30.9414 71.3964 29.9659 69.6188 29.6112 67.6738C29.2854 66.1032 29.3701 64.4752 29.8571 62.9469C30.3441 61.4186 31.2169 60.0417 32.3914 58.9492C33.6534 57.6872 34.9337 56.4251 36.2324 55.2911C36.4208 55.1164 36.5703 54.904 36.6712 54.6676C36.772 54.4312 36.8219 54.1763 36.8177 53.9193C36.8177 52.2183 36.8177 50.5173 36.9274 48.8163C37.0768 46.4781 37.9705 44.2492 39.4778 42.4555C40.9852 40.6619 43.027 39.3977 45.3045 38.8479C47.5896 38.5377 49.894 38.391 52.2 38.409C52.4883 38.4158 52.7747 38.3605 53.0398 38.2469C53.3049 38.1332 53.5425 37.964 53.7364 37.7505C54.9436 36.4702 56.1873 35.2081 57.3945 33.9644C58.2741 33.0431 59.3313 32.3097 60.5024 31.8087C61.6735 31.3076 62.934 31.0493 64.2077 31.0493C65.4815 31.0493 66.742 31.3076 67.913 31.8087C69.0841 32.3097 70.1414 33.0431 71.021 33.9644C72.3379 35.263 73.6365 36.5799 74.9168 37.9334C75.0709 38.1086 75.2632 38.2459 75.4789 38.3348C75.6946 38.4236 75.9279 38.4615 76.1606 38.4456C77.9896 38.4456 79.8187 38.5553 81.5197 38.6285C81.8672 41.0794 83.0744 43.5303 82.9647 45.9447C82.584 48.6221 81.9029 51.2481 80.9344 53.773C79.7955 52.9517 78.3852 52.5982 76.9935 52.7854C75.6019 52.9725 74.335 53.686 73.4536 54.779C69.2285 59.3699 64.8753 63.8145 60.6502 68.3323C60.2113 68.8078 59.9918 68.7712 59.5711 68.3323C57.8701 66.5032 56.169 64.6742 54.3949 63.028C53.7499 62.3833 52.9461 61.9203 52.0648 61.6861C51.1834 61.4518 50.2558 61.4546 49.3759 61.6941C48.496 61.9335 47.6949 62.4012 47.0538 63.0498C46.4127 63.6984 45.9544 64.5048 45.7252 65.3875C45.4669 66.2767 45.4619 67.2202 45.7107 68.1121C45.9595 69.0039 46.4523 69.8086 47.1335 70.4357L56.7909 80.3674C56.6812 80.7332 57.2665 81.538 55.1448 82.0685C50.7423 83.7236 46.0535 84.4822 41.3537 84.2999C39.8539 84.2267 38.4089 82.3062 36.964 82.1782Z" fill="#FF5C00"/>
<path d="M55.291 81.0991L43.6766 69.1736C42.8783 68.4096 42.3058 67.4404 42.0218 66.3725C41.7379 65.3046 41.7535 64.1791 42.067 63.1195C42.367 62.091 42.9268 61.1571 43.6925 60.4079C44.4583 59.6587 45.4041 59.1193 46.4388 58.8418C47.4736 58.5642 48.5624 58.5579 49.6003 58.8234C50.6382 59.0889 51.5902 59.6173 52.3646 60.3576C54.4863 62.4244 56.5348 64.5644 58.5833 66.7227C59.0955 67.2531 59.3515 67.2897 59.882 66.7227C65.0216 61.2355 70.271 55.9313 75.3374 50.4258C76.3878 49.0965 77.9136 48.2275 79.5928 48.0022C81.2719 47.777 82.9729 48.2132 84.3364 49.2187C85.5104 50.1994 86.3218 51.5453 86.641 53.0414C86.8419 54.064 86.7795 55.121 86.4595 56.1129C86.1395 57.1048 85.5726 57.999 84.8119 58.7114C81.9586 61.6562 79.1053 64.6376 76.2703 67.6006C72.3195 71.7343 68.2956 75.7948 64.4729 80.0382C63.9416 80.7134 63.2819 81.2769 62.5319 81.696C61.7819 82.1151 60.9563 82.3817 60.1028 82.4803C59.2493 82.5789 58.3847 82.5077 57.5589 82.2706C56.733 82.0335 55.9623 81.6354 55.291 81.0991Z" fill="#FDFEFE"/>
</svg>
