<svg width="129" height="133" viewBox="0 0 129 133" fill="none" xmlns="http://www.w3.org/2000/svg">
<path d="M40.4065 4.99168C-13.744 28.1938 -13.4136 105.363 41.2693 127.555C83.9105 144.572 128.516 112.43 128.993 67.3474C129.636 20.8514 84.6998 -13.2176 40.4065 4.99168Z" fill="#93B2CF"/>
<path d="M100.339 37.7941C102.304 43.3009 104.837 48.4773 107.315 53.7088C109.15 57.5085 109.15 57.3801 104.873 57.5636C99.5501 57.6554 94.2452 57.8022 88.9219 57.9674C86.8293 57.9674 86.7375 58.2244 87.5085 60.1702C88.2686 61.6491 88.8833 63.1982 89.3441 64.7959C87.7324 65.2148 86.0713 65.4124 84.4063 65.3833C76.9721 65.5485 69.5195 65.3833 62.0853 66.0074C61.798 66.0256 61.5098 66.0256 61.2225 66.0074C57.7165 66.0074 57.276 65.2548 58.8546 62.2077L62.1587 55.7831C59.3869 55.7831 57.0924 55.7831 54.8163 55.7831C53.7516 55.7831 52.6135 56.2787 51.916 55.159C51.2185 54.0392 52.0078 53.1031 52.485 52.1853C54.4124 48.5141 56.3765 44.8428 58.3773 41.1716C61.8161 35.0529 65.2731 28.9342 68.7485 22.8155C69.1524 22.0813 73.8883 13.8027 74.8795 13.6375C74.9896 15.3079 69.3727 23.8251 68.6384 25.2018C67.3168 27.9736 67.9776 30.7086 68.1428 33.664C68.5813 33.5771 68.995 33.3936 69.3538 33.1269C69.7126 32.8602 70.0075 32.517 70.217 32.122C70.7088 31.4072 71.2485 30.7264 71.8324 30.0845C73.0806 28.7812 73.411 28.7812 74.6041 30.0845C75.2283 30.8188 75.7055 31.6815 76.3296 32.4157C77.6145 33.9209 78.3304 34.0311 79.1932 32.4157C80.0559 30.8004 81.1756 30.1212 82.8644 30.8738C83.1392 29.9469 83.054 28.9505 82.6258 28.0837C81.7501 25.8306 80.707 23.6463 79.5052 21.5489C78.5006 20.37 77.9134 18.8923 77.8348 17.3454C78.8995 17.6758 78.9362 18.9057 79.6704 19.4747C82.9745 24.4492 84.7918 30.1579 87.3983 35.4078C87.8389 35.2609 87.9674 35.2609 88.0041 35.1875C89.1422 33.3519 90.2803 31.6264 91.3816 29.8092C93.4375 26.4317 93.9698 26.4684 96.2093 29.8092C97.8246 32.3974 98.7791 35.2426 100.339 37.7941ZM75.008 36.4357C74.6435 36.6344 74.2993 36.868 73.98 37.1333C71.0712 40.8371 68.8798 45.0518 67.5187 49.5604C67.4416 49.8362 67.3924 50.1191 67.3718 50.4047C67.2617 51.9834 68.051 52.5708 69.4828 51.965C70.5044 51.4254 71.4188 50.7038 72.1811 49.8357C74.6225 47.5228 74.6225 47.5228 75.6872 50.5699C75.6872 50.8269 76.0176 51.0105 76.2011 51.2491C77.3576 50.7719 77.431 49.542 78.0367 48.771C78.9913 47.6513 80.166 49.4869 81.1573 48.6058C81.2658 48.0155 81.1478 47.4059 80.8269 46.8987L75.008 36.4357ZM93.9698 29.0933C91.2078 32.7133 88.7926 36.5852 86.7559 40.6576C86.5661 40.9534 86.4652 41.2975 86.4652 41.6489C86.4652 42.0003 86.5661 42.3443 86.7559 42.6401C87.8705 42.3469 88.8615 41.7034 89.5827 40.8045C89.9315 40.4741 90.3537 39.9601 90.8126 40.3823C91.9323 41.4286 92.4279 40.6209 93.052 39.8133C93.6761 39.0056 93.8413 38.4366 94.8876 38.565C95.5668 39.5012 96.1909 40.4007 96.9068 41.3735C97.6227 42.3464 98.3753 41.9426 98.9811 41.1165C99.2155 40.8097 99.3687 40.4486 99.4265 40.0667C99.4842 39.6849 99.4447 39.2947 99.3115 38.9322C98.0528 35.3893 96.2507 32.0638 93.9698 29.0749V29.0933Z" fill="#133B6F"/>
<path d="M100.339 37.7941C98.7789 35.2426 97.8244 32.3974 96.1907 29.8826C93.9513 26.4683 93.4189 26.4316 91.363 29.8826C90.2617 31.7182 89.1236 33.5538 87.9855 35.2609C87.9855 35.2609 87.8203 35.2609 87.3798 35.4812C84.7732 30.2313 82.956 24.4675 79.6519 19.5481C81.3659 17.7792 83.4436 16.4036 85.7413 15.5162C88.039 14.6288 90.502 14.2508 92.96 14.4084C94.8295 14.4804 96.6507 15.0228 98.2549 15.9853C99.8592 16.9479 101.195 18.2995 102.138 19.9152C103.86 22.6739 104.618 25.9261 104.292 29.1619C103.967 32.3976 102.576 35.4338 100.339 37.7941Z" fill="#E37231"/>
<path d="M77.7611 17.3454C77.8397 18.8924 78.4269 20.3701 79.4315 21.549C80.6585 23.6441 81.7262 25.8285 82.6255 28.0838C83.0736 28.9358 83.185 29.9252 82.9376 30.8555C81.2121 30.1029 80.1291 30.7087 79.2663 32.3974C78.4036 34.0862 77.6877 33.9026 76.4028 32.3974C75.7787 31.6632 75.3014 30.8005 74.6773 30.0662C73.4842 28.6895 73.1538 28.6895 71.9055 30.0662C71.3217 30.7081 70.782 31.3888 70.2902 32.1037C70.0807 32.4986 69.7858 32.8419 69.427 33.1086C69.0682 33.3753 68.6545 33.5588 68.216 33.6457C68.0508 30.727 67.3899 27.9553 68.7116 25.1835C69.3724 23.8068 70.5472 22.632 70.4003 20.9432C70.4409 20.7798 70.5092 20.6246 70.6023 20.4843C70.6725 20.4796 70.7407 20.4589 70.8016 20.4236C70.8625 20.3883 70.9145 20.3396 70.9535 20.281C70.9925 20.2224 71.0176 20.1557 71.0267 20.0859C71.0358 20.0161 71.0288 19.9452 71.0061 19.8786C72.4012 19.383 72.6765 18.8873 72.6581 17.5841L73.4475 15.4364C74.2735 15.4364 73.7595 16.189 74.0165 15.62C74.1747 15.2268 74.464 14.9005 74.8354 14.6964C75.2068 14.4923 75.6373 14.423 76.054 14.5002C76.041 14.573 76.0433 14.6477 76.0607 14.7195C76.0781 14.7913 76.1103 14.8587 76.1552 14.9174C76.2001 14.9761 76.2567 15.0249 76.3214 15.0605C76.3862 15.0961 76.4577 15.1179 76.5313 15.1243L77.1737 16.2441C77.1548 16.3165 77.1507 16.392 77.1619 16.466C77.1731 16.54 77.1992 16.6109 77.2387 16.6745C77.2782 16.738 77.3303 16.7929 77.3917 16.8357C77.4531 16.8784 77.5226 16.9082 77.5959 16.9232C77.6792 17.0512 77.7354 17.1949 77.7611 17.3454Z" fill="#F6F6F6"/>
<path d="M75.999 14.5002C75.5824 14.4229 75.1518 14.4922 74.7804 14.6963C74.409 14.9004 74.1197 15.2267 73.9615 15.6199C73.7045 16.1889 73.4292 16.8497 72.6032 16.8314C72.6018 16.316 72.7146 15.8067 72.9336 15.3401C73.1527 14.8735 73.4723 14.4613 73.8697 14.133C74.659 13.307 75.5034 13.2152 75.999 14.5002Z" fill="#133B6F"/>
<path d="M74.6221 14.5001C74.1046 16.6555 72.7938 18.5366 70.9509 19.7683C71.6242 17.6866 72.9023 15.8526 74.6221 14.5001Z" fill="#133B6F"/>
<path d="M77.5594 16.9231C77.4844 16.9103 77.4129 16.8821 77.3494 16.8402C77.2859 16.7984 77.2318 16.7438 77.1904 16.68C77.149 16.6162 77.1213 16.5445 77.1089 16.4695C77.0966 16.3944 77.1 16.3176 77.1188 16.244C77.5594 16.299 77.6879 16.5193 77.5594 16.9231Z" fill="#133B6F"/>
<path d="M70.896 19.8051C70.9186 19.8717 70.9257 19.9427 70.9166 20.0125C70.9074 20.0822 70.8824 20.149 70.8434 20.2075C70.8043 20.2661 70.7523 20.3149 70.6914 20.3501C70.6305 20.3854 70.5623 20.4062 70.4921 20.4109C70.382 20.0437 70.4921 19.8235 70.896 19.8051Z" fill="#133B6F"/>
<path d="M75.0077 36.4357L80.8817 46.9537C81.2026 47.461 81.3206 48.0705 81.2121 48.6608C80.2209 49.5419 79.0461 47.7063 78.0916 48.826C77.4308 49.597 77.3573 50.8269 76.256 51.3041C76.0724 51.0655 75.8154 50.8819 75.742 50.6249C74.6773 47.5778 74.6773 47.5778 72.236 49.8907C71.4736 50.7588 70.5592 51.4804 69.5376 52.02C68.1058 52.6258 67.3165 52.02 67.4267 50.4597C67.4472 50.1741 67.4964 49.8912 67.5735 49.6154C68.9283 45.0874 71.1199 40.8536 74.0349 37.1332C74.3367 36.8708 74.6624 36.6373 75.0077 36.4357Z" fill="#FCFBFC"/>
<path d="M93.9695 29.0749C96.231 32.0674 98.0144 35.3927 99.256 38.9321C99.3892 39.2946 99.4288 39.6848 99.371 40.0667C99.3132 40.4485 99.16 40.8096 98.9256 41.1165C98.3198 41.9425 97.6223 42.3647 96.8514 41.3735C96.0804 40.3823 95.5114 39.5379 94.8322 38.565C93.8593 38.4365 93.5106 39.2258 92.9966 39.8132C92.4826 40.4006 91.8769 41.4285 90.7571 40.3823C90.2982 39.9601 89.876 40.474 89.5273 40.8044C88.806 41.7034 87.8151 42.3469 86.7004 42.6401C86.5107 42.3443 86.4098 42.0002 86.4098 41.6488C86.4098 41.2974 86.5107 40.9534 86.7004 40.6576C88.7536 36.5766 91.1874 32.6985 93.9695 29.0749Z" fill="#F6F6F6"/>
<path d="M40.9205 74.0473C37.7265 77.3514 37.0841 77.0394 35.4137 71.4591C33.8901 71.4591 34.2572 72.689 34.4224 73.2947C35.377 77.5901 34.9548 81.9405 35.0833 86.2725C35.1567 89.7051 34.8997 89.9437 32.0361 89.9437C29.1726 89.9437 28.8238 89.7235 28.8422 86.1257C28.8422 81.3714 28.8422 76.5988 28.8422 71.8997C28.6855 71.8435 28.5183 71.823 28.3526 71.8396C28.187 71.8562 28.0272 71.9095 27.8848 71.9957C27.7424 72.0818 27.6209 72.1986 27.5294 72.3376C27.4378 72.4766 27.3783 72.6343 27.3553 72.7991C25.5197 77.9388 21.5365 79.1136 16.6904 78.5079C16.2521 78.4817 15.8131 78.5447 15.3998 78.693C14.9865 78.8413 14.6075 79.0718 14.2858 79.3706C13.4965 79.8846 12.4502 80.3619 11.7894 79.7561C10.6696 78.6364 8.50362 78.3794 8.28334 76.8191C8.06307 75.2588 10.119 75.1304 11.202 74.4695C17.9054 70.4331 24.0728 65.567 29.5581 59.9866C28.9651 59.6758 28.2798 59.59 27.6286 59.7453C26.9774 59.9005 26.4043 60.2861 26.0153 60.8309C24.4367 62.5381 22.8397 63.5293 20.5085 62.3912C19.9211 62.1159 19.3704 62.3912 18.8014 62.6482C15.2954 63.9882 15.2954 63.9698 10.7064 61.7304C18.0488 57.7288 25.7033 54.5899 29.4663 46.5866C26.5189 48.1434 23.4106 49.3744 20.1965 50.2578C19.4806 50.423 18.8565 50.937 18.0671 50.68C17.7008 50.6041 17.3567 50.4455 17.0608 50.2165C16.765 49.9875 16.5253 49.694 16.36 49.3584C16.227 49.0028 16.2281 48.6109 16.3633 48.2561C16.4984 47.9013 16.7583 47.6079 17.0943 47.431C18.9299 46.1644 20.7655 44.9162 22.748 43.7598C23.9801 43.1067 25.0633 42.2051 25.9291 41.1118C26.7948 40.0186 27.4242 38.7576 27.7775 37.4086C25.8318 37.8307 24.2532 38.1612 22.6929 38.5466C22.2021 38.7289 21.6728 38.7824 21.1555 38.702C20.6381 38.6217 20.15 38.4102 19.7376 38.0877C18.7096 37.225 17.9019 36.4724 19.4989 35.316C21.0959 34.1595 22.6929 32.5993 24.2715 31.2226C27.7208 27.8452 30.6472 23.9723 32.954 19.7316C34.5876 23.5864 35.3953 27.2393 38.1854 29.8826C40.7581 32.7053 43.9324 34.9135 47.4736 36.3439C43.8942 38.3447 43.8942 38.3447 36.1112 36.6192C36.7904 40.1803 39.6172 41.6672 42.0769 43.4661C44.5367 45.265 47.7857 45.3017 49.9884 47.431C49.5112 48.8995 48.2997 48.6241 47.3451 48.4956C45.5095 48.2387 43.6739 46.8069 42.646 49.7989C42.3339 50.7718 40.9939 50.3496 40.3882 49.6521C38.8086 48.0628 36.6965 47.1146 34.4592 46.9904C35.3586 51.5244 38.4057 53.9658 41.8016 55.9482C44.9038 57.7838 48.2079 59.1973 51.3835 60.8677C52.8345 61.3518 54.1112 62.2519 55.0547 63.4559C54.5268 63.9585 53.8672 64.3013 53.1524 64.4442C52.4376 64.5872 51.697 64.5245 51.0164 64.2635C48.8207 63.2975 46.3642 63.0971 44.041 63.6945C43.6217 63.8536 43.1587 63.8536 42.7394 63.6947C42.3201 63.5357 41.9734 63.2288 41.7649 62.8318C40.5901 60.7575 38.1854 60.8309 36.4783 59.6745C36.1795 59.437 35.8025 59.3203 35.4218 59.3475C35.0411 59.3747 34.6844 59.5438 34.4224 59.8214C34.1615 60.1868 34.0436 60.6352 34.0909 61.0817C34.1383 61.5282 34.3477 61.9418 34.6794 62.2444C37.6252 65.6586 41.2846 68.3844 45.3994 70.2293C49.8232 72.2668 53.7147 75.2956 58.3588 77.1128C54.449 76.4336 50.7777 77.9021 46.9413 77.7002C45.7155 77.6301 44.5257 77.2604 43.476 76.6235C42.4264 75.9867 41.5489 75.1021 40.9205 74.0473Z" fill="#FCFBFC"/>
<path d="M84.81 92.33C82.8459 87.9979 80.8451 83.7026 78.8626 79.4807C78.5506 78.7832 78.2936 78.0673 77.9999 77.3698C77.6328 77.1128 77.5593 76.6722 77.3574 76.3051C76.829 75.2581 75.9489 74.4306 74.8714 73.9676C73.7939 73.5046 72.5878 73.4356 71.4646 73.7728C70.3414 74.11 69.3727 74.8318 68.7283 75.8117C68.084 76.7916 67.8052 77.967 67.9407 79.1319L68.0692 79.3155V79.0769C67.8327 78.8335 67.6566 78.538 67.5553 78.2141C64.9854 73.1111 62.4523 67.9898 59.8641 62.8868C59.4741 61.9718 58.816 61.1966 57.9764 60.6632C57.1369 60.1299 56.1555 59.8636 55.1615 59.8994C54.1676 59.9351 53.2078 60.2714 52.4088 60.8637C51.6099 61.456 51.0092 62.2766 50.686 63.2172C50.4477 63.9458 50.3718 64.7178 50.4638 65.4789C50.5558 66.24 50.8133 66.9718 51.2183 67.6227C54.8896 74.7815 58.3772 81.9588 61.9934 89.0993C62.2871 89.7234 62.2871 90.0538 61.718 90.4944C60.0961 91.6806 58.9539 93.4095 58.4991 95.3668C58.0444 97.324 58.3072 99.3795 59.2399 101.159C60.6901 104.078 62.1586 106.978 63.5903 109.897C63.7845 110.331 64.1399 110.674 64.5816 110.851C69.8865 112.87 75.1731 114.945 80.478 116.964C80.7856 117.056 81.0696 117.213 81.3104 117.426C81.5513 117.638 81.7432 117.9 81.873 118.194C83.3599 121.278 84.8834 124.343 86.3886 127.372C86.5355 127.665 86.664 127.941 87.0127 127.996C91.0645 126.456 94.9511 124.513 98.6138 122.195L94.1349 112.448L84.81 92.33Z" fill="#FACDD2"/>
<path d="M105.369 104.353C105.369 103.619 105.589 102.903 105.663 102.169C106.03 98.718 106.36 95.267 106.746 91.8161C106.799 91.4308 106.728 91.0388 106.544 90.6963C105.461 88.5487 104.414 86.401 103.313 84.2533C101.312 80.2884 99.4949 76.2317 97.3472 72.3402C96.8244 71.3904 95.996 70.6451 94.9964 70.2253C93.9968 69.8055 92.8846 69.7357 91.8404 70.0274C90.7985 70.3194 89.8785 70.9398 89.2171 71.7962C88.5558 72.6527 88.1883 73.6997 88.1692 74.7816C88.1692 75.0019 88.2977 75.2772 88.004 75.5158L87.2147 73.9739C86.8916 73.3679 86.4438 72.8371 85.9008 72.4165C85.3578 71.996 84.7319 71.6952 84.0643 71.5339C83.3967 71.3726 82.7026 71.3546 82.0275 71.4809C81.3524 71.6072 80.7117 71.8751 80.1476 72.2668C79.3372 72.799 78.7013 73.558 78.3194 74.4491C77.9375 75.3403 77.8264 76.3241 77.9999 77.278C78.2936 77.9755 78.5506 78.6914 78.8626 79.389C80.8451 83.7027 82.8459 87.998 84.81 92.2382L93.9881 112.43L98.467 122.177C102.393 119.676 106.047 116.772 109.37 113.513C108.122 111.017 106.892 108.52 105.699 106.042C105.431 105.522 105.317 104.936 105.369 104.353Z" fill="#F7AAAB"/>
<path d="M74.8425 13.5457L75.999 13.2887L76.8617 13.9128L78.0732 15.932L79.0644 18.7772H78.2201L77.137 16.244L75.3932 14.5186" fill="#133B6F"/>
<path d="M72.4747 18.5018L69.501 23.513C68.8769 24.5777 68.7117 22.8155 68.7117 22.8155L71.8873 17.9511L72.4747 18.5018Z" fill="#133B6F"/>
</svg>
