<svg width="130" height="133" viewBox="0 0 130 133" fill="none" xmlns="http://www.w3.org/2000/svg">
<path d="M40.3713 4.99634C-13.7687 28.2063 -13.4387 105.426 41.2613 127.616C83.9213 144.616 128.531 112.486 129.031 67.3763C129.671 20.8463 84.7213 -13.2237 40.3713 4.99634Z" fill="#133B6F"/>
<path d="M106.651 90.5363C105.181 86.3263 103.531 82.2363 102.101 78.0363C99.1813 69.6763 97.6213 60.8963 94.3413 52.6463L92.6013 48.1263C92.9013 53.7163 93.5113 60.5263 93.4913 66.1263C93.4913 69.8963 93.1113 75.2863 92.8313 79.1263C92.5413 83.7963 92.5013 88.4763 92.5313 93.1263C96.1113 93.1263 99.9613 93.0263 103.531 92.9963C104.376 93.0804 105.23 92.9639 106.021 92.6563C106.351 92.427 106.594 92.0922 106.708 91.7069C106.823 91.3215 106.803 90.9087 106.651 90.5363Z" fill="#8CB4D3"/>
<path d="M93.5913 62.0464C88.1513 61.8764 83.4713 61.7964 78.0313 61.7764C63.8513 61.6764 47.4513 61.8464 33.2713 62.1064C32.4013 62.1064 31.5413 62.1064 30.6813 62.1064V62.7464C30.9113 71.9564 31.1013 83.1164 30.9713 92.2464C30.9213 93.5264 31.5913 93.9464 32.7113 93.8864C37.9513 93.9864 44.1213 94.1864 49.3613 94.2864C63.4813 94.6864 77.6013 93.9364 91.7213 93.6564C94.6113 93.6564 93.7213 90.5564 93.7213 88.6564C93.7213 80.1664 93.3213 71.2364 93.6213 62.7364L93.5913 62.0464ZM37.7813 70.8264C37.7813 69.5164 37.7813 68.1064 37.7013 66.8264C37.6966 66.8066 37.6966 66.7861 37.7013 66.7664C38.1613 66.6964 38.8013 66.7064 39.2813 66.6464C41.2813 66.4764 43.2813 66.1464 45.2813 66.1564C45.9313 66.1564 46.4213 66.1564 46.2813 66.9164C46.1813 68.2064 45.9413 69.4964 45.8413 70.7864C45.7347 72.1495 45.7682 73.52 45.9413 74.8764C45.9413 75.0164 45.9413 75.0864 45.9413 75.0964C45.9413 75.1064 45.9413 75.1764 45.8013 75.2264C44.4637 75.5361 43.0942 75.6871 41.7213 75.6764C40.5233 75.6644 39.3287 75.5473 38.1513 75.3264C37.9313 75.3264 37.4513 75.2364 37.4313 75.0564C37.6599 73.6579 37.777 72.2434 37.7813 70.8264ZM37.0013 79.6264C37.0613 79.1864 37.4413 79.1464 37.8013 79.1764C38.1613 79.2064 38.8013 79.2764 39.2913 79.3464C41.2533 79.6759 43.2491 79.7565 45.2313 79.5864L45.7413 79.5264C45.8713 79.5264 45.9113 79.5264 45.9213 79.5264C45.9313 79.5264 45.9213 79.5264 45.9813 79.5264C46.0547 79.6452 46.1023 79.778 46.1213 79.9164C46.3667 81.1885 46.494 82.4807 46.5013 83.7764C46.483 85.0724 46.3491 86.3641 46.1013 87.6364C46.0984 87.7628 46.064 87.8865 46.0013 87.9964C45.9413 88.0564 45.9413 87.9964 45.8913 87.9964C45.2993 87.8907 44.7016 87.8206 44.1013 87.7864C41.993 87.6664 39.8796 87.6664 37.7713 87.7864C37.7013 87.7864 37.7013 87.7864 37.7013 87.7864C37.7013 87.7864 37.7013 87.7864 37.7013 87.7164C37.6861 87.6337 37.6861 87.549 37.7013 87.4664C37.5013 84.8364 36.9213 82.2364 37.0013 79.6264ZM51.5213 87.7464C51.4413 87.7464 51.4613 87.7464 51.5213 87.7464C51.4661 87.5788 51.4423 87.4025 51.4513 87.2264C51.3613 85.2264 51.0113 83.2264 50.9113 81.2864C50.9113 80.8864 50.9113 80.4964 50.9113 80.0964C50.9113 79.6964 50.9113 79.4064 51.1113 79.2164C51.4 79.1251 51.7088 79.1181 52.0013 79.1964C53.1913 79.3164 54.3813 79.5264 55.5713 79.6164C56.7554 79.7264 57.9472 79.7264 59.1313 79.6164L59.7713 79.5464C59.7713 79.5464 59.8713 79.5464 59.9213 79.7364C60.2124 81.0836 60.3599 82.458 60.3613 83.8364C60.3448 85.0307 60.2277 86.2216 60.0113 87.3964C59.9981 87.6306 59.9258 87.8576 59.8013 88.0564C59.7922 88.0616 59.7818 88.0644 59.7713 88.0644C59.7607 88.0644 59.7504 88.0616 59.7413 88.0564C59.7334 88.0528 59.7249 88.0509 59.7163 88.0509C59.7076 88.0509 59.6991 88.0528 59.6913 88.0564H59.5613C59.0013 87.9664 58.4313 87.9064 57.8713 87.8664C55.803 87.7463 53.7295 87.7463 51.6613 87.8664C51.6188 87.8349 51.5845 87.7938 51.5613 87.7464H51.5213ZM51.4713 74.7464C51.3513 72.5764 51.0213 70.4864 50.8913 68.3464C50.8913 67.9464 50.8913 67.5464 50.8913 67.1564C50.8913 66.7664 50.8913 66.4664 51.1013 66.2764C51.395 66.1521 51.7206 66.1241 52.0313 66.1964L53.2213 66.3364C55.3453 66.6993 57.5096 66.7632 59.6513 66.5264C59.7813 66.5264 59.8113 66.5264 59.8213 66.5264C59.8313 66.5264 59.9213 66.5864 59.9713 66.7364C60.2679 68.0827 60.4155 69.4577 60.4113 70.8364C60.3897 72.1327 60.2525 73.4244 60.0013 74.6964C59.9869 74.8283 59.9349 74.9533 59.8513 75.0564C59.8513 75.0564 59.8513 75.0564 59.8013 75.0564C59.7513 75.0564 59.7413 75.0564 59.6113 75.0564L59.0913 74.9764C56.6319 74.738 54.1575 74.6945 51.6913 74.8464L51.4713 74.7464ZM51.4713 74.7464C51.5413 74.8964 51.5113 74.8964 51.4913 74.8264L51.4713 74.7464ZM65.3713 87.7564C65.3577 87.6033 65.3577 87.4494 65.3713 87.2964C65.3113 86.1064 65.1813 84.9264 65.0413 83.7364C64.8913 82.5521 64.8112 81.36 64.8013 80.1664C64.8013 79.6964 64.8013 79.1664 65.3913 79.1664C66.7513 79.1664 68.1413 79.5164 69.5013 79.6064C70.9043 79.7181 72.3151 79.6846 73.7113 79.5064C73.7113 79.5064 73.9013 79.8164 73.9113 79.9364C74.1627 81.2077 74.29 82.5004 74.2913 83.7964C74.2793 84.9943 74.1622 86.1889 73.9413 87.3664C73.9413 87.5664 73.8413 88.0464 73.6613 88.0264C72.2578 87.8147 70.8406 87.7077 69.4213 87.7064C68.1813 87.7064 66.8313 87.7064 65.5913 87.7864L65.3713 87.7564ZM65.3713 74.8564C65.3913 74.9064 65.3713 74.8964 65.3513 74.8364L65.3713 74.8564ZM65.3713 74.8564C65.3713 74.7664 65.3713 74.4764 65.3713 74.3764C65.2813 72.3764 64.9313 70.3764 64.8313 68.4364C64.7913 67.8604 64.7913 67.2823 64.8313 66.7064C64.9013 66.2664 65.2913 66.2564 65.6613 66.2864C66.9513 66.3964 68.2313 66.6264 69.5213 66.7264C70.9177 66.8451 72.323 66.8082 73.7113 66.6164C73.8113 66.6164 73.9213 66.9364 73.9413 67.0764C74.1825 68.3492 74.3097 69.641 74.3213 70.9364C74.3176 72.3036 74.1565 73.6659 73.8413 74.9964C73.8413 75.1264 73.7213 75.1464 73.7013 75.1164C73.6813 75.0864 73.6213 75.1164 73.4913 75.1164C71.3432 74.7998 69.1718 74.6693 67.0013 74.7264C66.8113 74.7264 65.6913 74.7264 65.5413 74.7864L65.3713 74.8564ZM87.2513 87.6564C87.2563 87.7329 87.2563 87.8098 87.2513 87.8864C87.1113 87.8864 86.9213 87.8864 86.8213 87.8864C84.8213 87.9764 82.8213 88.3264 80.8813 88.4264C80.4813 88.4264 80.0913 88.4264 79.6913 88.4264C79.2913 88.4264 78.9913 88.4264 78.7913 88.2364C78.6538 87.9534 78.6219 87.6307 78.7013 87.3264C79.112 84.9734 79.2396 82.5797 79.0813 80.1964C79.0813 79.9164 79.0813 79.7664 79.0213 79.5564C79.0213 79.5564 79.0213 79.5564 79.0213 79.4864C79.2271 79.3711 79.4559 79.3028 79.6913 79.2864C80.8693 79.072 82.0639 78.9616 83.2613 78.9564C84.5573 78.9746 85.8491 79.1085 87.1213 79.3564C87.2586 79.3735 87.3893 79.4251 87.5013 79.5064C87.5013 79.5064 87.5013 79.5064 87.5013 79.5664C87.5013 79.6264 87.5013 79.6564 87.5013 79.7364C87.5013 79.8164 87.4413 80.1264 87.4313 80.2364C87.1679 82.677 87.101 85.135 87.2313 87.5864L87.2513 87.6564ZM87.3513 87.8464C87.3513 87.8464 87.3313 87.7664 87.3313 87.7764L87.3513 87.8464ZM87.7613 74.4664C87.7463 74.638 87.7058 74.8066 87.6413 74.9664C87.5813 75.0964 87.5113 75.1264 87.4813 75.0964C86.065 74.8794 84.6341 74.7724 83.2013 74.7764C81.9613 74.7764 80.6113 74.7764 79.3613 74.8464H79.2013C79.1919 74.7867 79.1919 74.726 79.2013 74.6664C79.1213 72.5764 78.7513 70.5064 78.6513 68.4264C78.6063 67.8506 78.6063 67.2721 78.6513 66.6964C78.7213 66.3664 78.8913 66.2764 79.2113 66.2564C80.5913 66.3264 81.9613 66.6064 83.3313 66.7064C84.6643 66.8096 86.0043 66.7795 87.3313 66.6164C87.3907 66.6277 87.4518 66.6277 87.5113 66.6164C87.6113 66.6164 87.7213 66.9264 87.7313 67.0564C88.2189 69.5057 88.2189 72.0271 87.7313 74.4764L87.7613 74.4664ZM79.2113 74.8964C79.2313 74.8964 79.2113 74.8964 79.1913 74.8264L79.2113 74.8964Z" fill="#E3EBFA"/>
<path d="M94.5012 49.2764C94.3994 48.9065 94.1902 48.5752 93.9 48.3242C93.6099 48.0732 93.2519 47.9139 92.8712 47.8664C92.6347 47.8539 92.3977 47.8539 92.1612 47.8664H91.5612L89.1412 47.7964L83.8112 47.6564L83.7012 47.5264L83.1312 46.9064H82.2712L70.8312 46.7764H69.9412L69.6912 47.0464L69.6312 46.9764H68.7912L57.3312 46.9964H56.5812C56.2476 47.2834 55.9608 47.6208 55.7312 47.9964L55.6012 47.8664C51.6012 47.9664 47.6012 48.1364 43.6012 48.1864H42.9312C42.9312 48.4464 42.9312 48.9064 42.9312 49.4264C42.8845 49.0601 42.7245 48.7176 42.4734 48.4468C42.2224 48.1761 41.8929 47.9906 41.5312 47.9164C40.8312 47.8364 40.5312 47.8564 39.9012 47.8164L36.9012 47.6864L33.9012 47.5464C32.2212 47.3164 31.1012 48.1164 31.0712 49.8164C30.9112 54.6664 30.6712 59.5364 30.6412 64.3964C51.4512 64.8964 73.2112 63.9464 93.7112 62.9064L94.5012 49.5264V49.4164V49.2764ZM83.6312 52.6564C83.7446 52.7801 83.8684 52.8939 84.0012 52.9964C84.7512 53.8464 85.3812 54.2464 85.6012 55.2164C85.6941 55.5539 85.7062 55.9085 85.6365 56.2516C85.5668 56.5946 85.4174 56.9164 85.2003 57.191C84.9831 57.4656 84.7044 57.6852 84.3867 57.8321C84.0689 57.9789 83.7211 58.0489 83.3712 58.0364C82.9711 58.015 82.5851 57.8811 82.2576 57.6502C81.9301 57.4193 81.6744 57.1007 81.5199 56.731C81.3653 56.3613 81.3182 55.9555 81.3839 55.5602C81.4495 55.1649 81.6254 54.7962 81.8912 54.4964C82.5061 53.917 83.087 53.3026 83.6312 52.6564ZM71.3012 55.0464C71.4499 55.3116 71.5272 55.6108 71.5258 55.9148C71.5244 56.2189 71.4443 56.5173 71.2932 56.7812C71.1422 57.045 70.9254 57.2653 70.6639 57.4204C70.4024 57.5755 70.1052 57.6603 69.8012 57.6664C69.4559 57.6613 69.119 57.5586 68.8296 57.3701C68.5402 57.1816 68.31 56.9151 68.1657 56.6013C68.0213 56.2876 67.9687 55.9393 68.014 55.5969C68.0592 55.2545 68.2004 54.9319 68.4212 54.6664C68.7812 54.2464 69.2512 53.7964 69.6912 53.2864C70.2577 53.845 70.7951 54.4325 71.3012 55.0464ZM58.3012 55.2764C58.449 55.7868 58.4194 56.3323 58.2172 56.8237C58.0151 57.3152 57.6524 57.7236 57.1882 57.9824C56.7241 58.2411 56.1859 58.3349 55.6616 58.2485C55.1373 58.162 54.6577 57.9004 54.3012 57.5064C53.9282 57.0182 53.7261 56.4208 53.7261 55.8064C53.7261 55.1919 53.9282 54.5946 54.3012 54.1064C54.7712 53.5164 55.4212 52.9364 55.9212 52.2264C56.1284 52.5898 56.3804 52.9257 56.6712 53.2264C57.3912 53.9964 58.0012 54.3464 58.3412 55.2764H58.3012ZM43.0012 50.1664C43.0012 51.0964 43.0012 52.0664 43.0012 52.5264C43.4617 52.5901 43.905 52.7444 44.3056 52.9803C44.7061 53.2163 45.0559 53.5293 45.3349 53.9012C45.6138 54.2731 45.8163 54.6965 45.9306 55.1471C46.045 55.5977 46.069 56.0665 46.0012 56.5264C45.8795 57.0405 45.6372 57.5183 45.2943 57.9203C44.9514 58.3223 44.5178 58.6369 44.0293 58.8381C43.5408 59.0394 43.0114 59.1215 42.4849 59.0778C41.9584 59.034 41.4498 58.8655 41.0012 58.5864C38.8712 57.3864 39.7312 54.5864 41.1512 53.0764C42.0809 52.345 42.7335 51.3185 43.0012 50.1664Z" fill="#FF5C00"/>
<path d="M54.6813 51.9964C54.7511 50.9409 54.7511 49.8819 54.6813 48.8264C54.6813 47.2364 54.6813 45.6364 54.6813 44.0364C54.6881 43.7482 54.7148 43.4608 54.7613 43.1764C54.8613 42.6064 55.1513 42.2264 55.7013 42.2864C55.9598 42.3213 56.1944 42.4559 56.355 42.6614C56.5157 42.8669 56.5897 43.1271 56.5613 43.3864C56.5613 44.5464 56.5613 45.7064 56.5613 46.8664C56.5613 47.5264 56.5613 48.1764 56.5613 48.8664C56.5012 49.9188 56.5012 50.9739 56.5613 52.0264C56.5613 53.2164 56.5613 54.4064 56.5613 55.5864C56.5613 56.3664 56.2413 56.7564 55.6513 56.7164C55.0613 56.6764 54.7913 56.1964 54.7913 55.6064C54.7913 54.7064 54.7913 53.8064 54.7913 52.9164C54.8197 52.6054 54.7822 52.2919 54.6813 51.9964Z" fill="#E4E8F6"/>
<path d="M40.9413 51.9963C40.9413 50.9963 40.9413 49.8863 40.9413 48.8263C40.9413 46.9863 40.9413 45.1363 40.9413 43.2963C40.9174 43.0967 40.9542 42.8945 41.047 42.7161C41.1398 42.5377 41.2841 42.3914 41.4613 42.2963C41.6135 42.2206 41.7852 42.1934 41.9533 42.2185C42.1214 42.2435 42.2778 42.3195 42.4013 42.4363C42.7113 42.6363 42.6913 42.9663 42.6913 43.2863C42.6913 45.1263 42.6913 46.9663 42.6913 48.8163C42.6913 49.8163 42.6913 50.9163 42.6913 51.9663C42.6913 53.0163 42.6913 54.3363 42.6913 55.5163C42.6913 56.1163 42.5513 56.5963 41.8613 56.6363C41.1713 56.6763 41.0013 56.3063 41.0013 55.5363C41.0013 54.7663 41.0013 53.7463 41.0013 52.8463L40.9413 51.9963Z" fill="#E3E9F8"/>
<path d="M70.2712 48.8063V51.9963C70.2712 53.2063 70.2712 54.4163 70.2712 55.6263C70.2712 56.3363 69.9212 56.7163 69.3512 56.6263C68.7812 56.5363 68.5212 56.1663 68.5212 55.6263C68.5212 54.6263 68.5212 53.6963 68.5212 52.7263V51.9963C68.5212 50.9463 68.5212 49.8963 68.5212 48.8363V43.3063C68.5212 42.6263 68.8612 42.1863 69.4012 42.2363C69.9412 42.2863 70.2612 42.6963 70.2712 43.2863C70.2612 45.1263 70.2712 46.9963 70.2712 48.8063Z" fill="#E3E9F8"/>
<path d="M84.0012 48.8264V51.9964C84.0012 53.2064 84.0012 54.4164 84.0012 55.6264C84.0012 56.2164 83.8112 56.6264 83.1712 56.6264C82.5312 56.6264 82.2712 56.2864 82.2512 55.6264V52.8664V48.8664C82.2512 47.0164 82.2512 45.1764 82.2512 43.3364C82.2264 43.1378 82.2618 42.9363 82.3527 42.758C82.4436 42.5798 82.5859 42.4329 82.7612 42.3364C82.9208 42.2515 83.1028 42.2184 83.282 42.2417C83.4612 42.265 83.6287 42.3435 83.7612 42.4664C84.0712 42.6764 84.0513 42.9964 84.0513 43.3164L84.0012 48.8264Z" fill="#E3EAF9"/>
<path d="M60.4913 70.8364V74.6964C60.4913 75.4664 60.2113 75.6964 59.4313 75.6964H51.7813C50.8913 75.6964 50.5813 75.3964 50.5813 74.5264C50.5813 72.0064 50.5813 69.4797 50.5813 66.9464C50.5813 66.0864 50.8913 65.7864 51.7813 65.7864C54.2813 65.7864 56.7813 65.7864 59.2813 65.7864C60.2313 65.7864 60.4913 66.0564 60.4913 66.9964V70.8364Z" fill="#A5CAEE"/>
<path d="M83.2412 78.7963H87.1012C87.9113 78.7963 88.1913 79.0763 88.1913 79.8963C88.1913 82.4463 88.1913 84.9863 88.1913 87.5363C88.1913 88.3763 87.8812 88.6963 87.0612 88.6963C84.5146 88.6963 81.9646 88.6963 79.4113 88.6963C78.5913 88.6963 78.2812 88.3763 78.2812 87.5363V79.9963C78.2812 79.1063 78.5712 78.8263 79.4512 78.8263L83.2412 78.7963Z" fill="#8CB4D3"/>
<path d="M41.7513 75.7464H38.0013C37.0813 75.7464 36.7812 75.4564 36.7812 74.5264C36.7812 72.0264 36.7812 69.5264 36.7812 67.0264C36.7812 66.1364 37.0913 65.8364 37.9713 65.8364C40.5213 65.8364 43.0613 65.8364 45.6113 65.8364C46.3913 65.8364 46.6813 66.1164 46.6813 66.8364C46.6813 69.4364 46.6813 72.0264 46.6813 74.6264C46.6813 75.4364 46.4113 75.6964 45.5813 75.7064L41.7513 75.7464Z" fill="#8CB4D3"/>
<path d="M74.3413 83.7663V87.4863C74.3413 88.4163 74.0513 88.7163 73.1413 88.7163C70.6413 88.7163 68.1413 88.7163 65.6413 88.7163C64.7213 88.7163 64.4313 88.4163 64.4313 87.4863C64.4313 84.9863 64.4313 82.4863 64.4313 79.9863C64.4313 79.1163 64.7413 78.8063 65.6113 78.8063H73.2613C74.0813 78.8063 74.3313 79.0763 74.3413 79.9063V83.7663Z" fill="#A5CAEE"/>
<path d="M74.3413 70.8563C74.3413 72.1163 74.3413 73.3763 74.3413 74.6363C74.3413 75.4363 74.0513 75.7363 73.2513 75.7463H65.5313C64.7513 75.7463 64.4413 75.4163 64.4313 74.6263V66.9963C64.4313 66.1663 64.7513 65.8463 65.5713 65.8463C68.1246 65.8463 70.6746 65.8463 73.2213 65.8463C74.0413 65.8463 74.3413 66.1563 74.3413 67.0063C74.3513 68.2863 74.3413 69.5663 74.3413 70.8563Z" fill="#8CB4D3"/>
<path d="M60.5013 83.7663C60.5013 85.0263 60.5013 86.2863 60.5013 87.5463C60.5013 88.4063 60.2213 88.7063 59.3913 88.7063C56.838 88.7063 54.2913 88.7063 51.7513 88.7063C50.9613 88.7063 50.6013 88.3363 50.6013 87.5463C50.6013 85.0263 50.6013 82.5463 50.6013 79.9763C50.6013 79.1063 50.9013 78.8063 51.7813 78.8063C54.328 78.8063 56.878 78.8063 59.4313 78.8063C60.2413 78.8063 60.5013 79.0763 60.5013 79.9063C60.5013 81.1963 60.5013 82.4763 60.5013 83.7663Z" fill="#8CB4D3"/>
<path d="M88.1913 70.8363C88.1913 72.1063 88.1913 73.3663 88.1913 74.6263C88.1913 75.4163 87.8713 75.7363 87.0813 75.7463C84.5113 75.7463 81.9313 75.7463 79.3613 75.7463C78.6113 75.7463 78.2812 75.4263 78.2812 74.6863C78.2812 72.1063 78.2812 69.5363 78.2812 66.9563C78.2812 66.1663 78.6012 65.8463 79.3812 65.8463C81.9412 65.8463 84.4946 65.8463 87.0413 65.8463C87.8713 65.8463 88.1813 66.1563 88.1913 66.9863C88.2013 68.2663 88.1913 69.5463 88.1913 70.8363Z" fill="#A4CAEE"/>
<path d="M46.6413 83.7463V87.6063C46.6413 88.3763 46.3613 88.7063 45.6413 88.7163C43.0613 88.7163 40.4913 88.7163 37.9113 88.7163C37.7518 88.7311 37.591 88.7098 37.4408 88.6541C37.2906 88.5984 37.1548 88.5097 37.0435 88.3946C36.9321 88.2794 36.8481 88.1407 36.7975 87.9887C36.7469 87.8367 36.7311 87.6753 36.7513 87.5163C36.7513 84.963 36.7513 82.413 36.7513 79.8663C36.7513 79.1263 37.0813 78.8163 37.8313 78.8063C40.4313 78.8063 43.0313 78.8063 45.6313 78.8063C46.3913 78.8063 46.6313 79.0963 46.6313 79.8863L46.6413 83.7463Z" fill="#A5CAEE"/>
<path d="M68.4612 52.7063C68.4612 53.7063 68.4612 54.6363 68.4612 55.6063C68.4612 56.1963 68.6512 56.6063 69.2912 56.6063C69.9312 56.6063 70.2012 56.2663 70.2112 55.6063C70.2112 54.3963 70.2112 53.1863 70.2112 51.9763C71.1779 52.1818 72.0285 52.7512 72.5869 53.5665C73.1453 54.3819 73.3689 55.3807 73.2112 56.3563C73.1382 57.2353 72.7552 58.0597 72.1306 58.6825C71.506 59.3053 70.6804 59.6858 69.8012 59.7563C69.1804 59.8638 68.5423 59.8078 67.9497 59.5939C67.357 59.38 66.8303 59.0155 66.4212 58.5363C66.5012 58.4763 66.5612 58.3863 66.5012 58.2963C66.1787 57.5755 66.0644 56.7788 66.1712 55.9963C66.1671 55.2787 66.385 54.5775 66.795 53.9885C67.2049 53.3995 67.7869 52.9517 68.4612 52.7063Z" fill="#D94236"/>
<path d="M82.1913 52.8463V55.6063C82.1913 56.3163 82.5413 56.6963 83.1113 56.6063C83.6813 56.5163 83.9413 56.1463 83.9413 55.6063C83.9413 54.3963 83.9413 53.1863 83.9413 51.9763C84.4933 52.0921 85.0135 52.3264 85.4659 52.6632C85.9183 53 86.2921 53.4312 86.5613 53.9268C86.8305 54.4224 86.9887 54.9706 87.025 55.5334C87.0612 56.0963 86.9747 56.6603 86.7713 57.1863C86.5418 57.8332 86.1461 58.4083 85.6239 58.8538C85.1017 59.2993 84.4714 59.5994 83.7964 59.7241C83.1214 59.8487 82.4255 59.7935 81.7786 59.5639C81.1317 59.3344 80.5567 58.9386 80.1113 58.4163C79.9342 57.5673 79.8371 56.7035 79.8213 55.8363C80.0013 54.7763 80.9313 52.9163 82.1913 52.8463Z" fill="#D94135"/>
<path d="M40.9413 52.8463C40.9413 53.7463 40.9413 54.6363 40.9413 55.5363C40.9413 56.4363 41.2713 56.6963 41.8613 56.6563C42.4513 56.6163 42.6913 56.1363 42.6913 55.5363C42.6913 54.3563 42.6913 53.1663 42.6913 51.9863C43.2087 52.0792 43.7011 52.2784 44.1376 52.5713C44.574 52.8643 44.9449 53.2446 45.2268 53.6882C45.5088 54.1318 45.6956 54.629 45.7756 55.1485C45.8555 55.668 45.8268 56.1985 45.6913 56.7063C45.5727 57.2768 45.3286 57.8137 44.9769 58.2782C44.6253 58.7427 44.1747 59.1232 43.6578 59.3922C43.141 59.6611 42.5708 59.8118 41.9886 59.8332C41.4063 59.8547 40.8266 59.7465 40.2913 59.5163C39.7228 59.2971 39.2344 58.9099 38.8913 58.4063C38.749 57.6091 38.6522 56.8045 38.6013 55.9963C38.6346 55.2983 38.8749 54.626 39.2917 54.065C39.7084 53.504 40.2827 53.0798 40.9413 52.8463Z" fill="#D94135"/>
<path d="M54.6813 52.8564C54.6813 53.7464 54.6813 54.6464 54.6813 55.5464C54.6813 56.1364 54.8313 56.6164 55.5413 56.6564C56.2513 56.6964 56.4413 56.3064 56.4513 55.5264C56.4513 54.3464 56.4513 53.1564 56.4513 51.9664C57.2684 52.1128 58.0088 52.5393 58.5454 53.1726C59.082 53.8059 59.3811 54.6064 59.3913 55.4364C59.3913 57.6764 58.5213 59.0964 56.7713 59.6264C56.0232 59.8752 55.2171 59.8908 54.4599 59.6711C53.7027 59.4515 53.0302 59.0069 52.5313 58.3964C52.7713 58.2264 52.5313 58.0364 52.5313 57.8764C52.2408 57.0609 52.1922 56.1788 52.3913 55.3364C52.5051 54.7511 52.7795 54.2091 53.184 53.7711C53.5885 53.333 54.107 53.0163 54.6813 52.8564Z" fill="#D94135"/>
<path d="M68.4613 52.7063C67.7869 52.9517 67.2049 53.3995 66.795 53.9885C66.385 54.5775 66.1672 55.2788 66.1713 55.9963C66.0762 56.79 66.2079 57.5944 66.5513 58.3163C66.6113 58.4063 66.5513 58.4963 66.4713 58.5563C66.0738 58.1168 65.7774 57.5956 65.6028 57.0293C65.4282 56.463 65.3797 55.8653 65.4607 55.2783C65.5417 54.6912 65.7503 54.129 66.0717 53.6311C66.3931 53.1333 66.8196 52.7118 67.3213 52.3963C67.6593 52.1647 68.0526 52.0267 68.4613 51.9963V52.7063Z" fill="#CE3C2D"/>
<path d="M82.1913 52.8463C80.9313 52.9163 79.9613 54.7763 79.8713 55.8463C79.8871 56.7135 79.9842 57.5773 80.1613 58.4263C79.6686 57.8895 79.3406 57.2222 79.2165 56.5041C79.0924 55.7861 79.1774 55.0475 79.4613 54.3763C79.6331 53.754 79.9847 53.1962 80.4722 52.7728C80.9596 52.3495 81.5611 52.0794 82.2013 51.9963L82.1913 52.8463Z" fill="#CE3C2D"/>
<path d="M40.9412 52.8463C40.2826 53.0798 39.7083 53.504 39.2916 54.065C38.8748 54.626 38.6345 55.2983 38.6012 55.9963C38.655 56.8081 38.7552 57.6161 38.9012 58.4163C38.4415 57.8708 38.136 57.2123 38.0164 56.509C37.8969 55.8056 37.9676 55.0831 38.2212 54.4163C38.3908 53.7925 38.7382 53.2314 39.2212 52.8017C39.7042 52.372 40.3019 52.0921 40.9412 51.9963V52.8463Z" fill="#CE3C2D"/>
<path d="M54.6813 52.8564C54.1199 53.0273 53.6161 53.3489 53.2247 53.7862C52.8333 54.2234 52.5693 54.7596 52.4613 55.3364C52.2621 56.1788 52.3107 57.0609 52.6013 57.8764C52.6613 58.0364 52.8513 58.2264 52.6013 58.3964C50.9213 56.5164 51.6013 52.5964 54.6713 51.9664C54.7347 52.2593 54.7381 52.5621 54.6813 52.8564Z" fill="#CE3C2D"/>
<path d="M56.8613 70.5963C57.8613 69.4063 58.8613 68.2063 59.8613 66.9763L60.5613 66.1063H57.9013H57.6313L56.3313 67.9963C56.0613 68.3863 55.7913 68.7963 55.5213 69.2063C54.8113 68.2063 54.0813 67.3063 53.3313 66.3963H53.2013L51.2013 66.4863C52.3313 67.8363 53.4213 69.2263 54.4413 70.6563C53.1513 72.1663 51.8213 73.6563 50.5913 75.1963H53.2913C54.0013 74.1063 54.7713 72.9963 55.4813 71.8963L56.5513 73.1763C57.0313 73.7263 57.5513 74.2763 57.9613 74.7763C58.5613 74.8363 59.2413 74.8863 59.8813 74.9363L59.6813 74.6263C58.7713 73.2563 57.8313 71.9263 56.8613 70.5963Z" fill="#D94135"/>
<path d="M71.0013 83.7263C72.0013 82.5363 73.0013 81.3263 74.0013 80.1063L74.7013 79.2263H72.0513H71.7813L70.4613 81.0663C70.1813 81.4563 69.9113 81.8663 69.6513 82.2763C68.9313 81.2763 68.2113 80.3863 67.4613 79.4663H67.3313L65.3313 79.5563C66.458 80.8896 67.5346 82.283 68.5613 83.7363C67.2813 85.2363 65.9513 86.7363 64.7213 88.2663H67.4213C68.1513 87.1963 68.8913 86.1163 69.6013 84.9863L70.6713 86.2663C71.1513 86.8263 71.6713 87.3663 72.0813 87.8663L74.0013 88.0263L73.8013 87.7163C72.9313 86.3863 72.0013 85.0463 71.0013 83.7263Z" fill="#D94135"/>
</svg>
