<svg width="140" height="140" viewBox="0 0 140 140" fill="none" xmlns="http://www.w3.org/2000/svg">
<g clip-path="url(#clip0_852_2)">
<path d="M70.02 0.00170898C108.923 0.00170898 140.148 31.3996 140 70.6479C139.86 109.282 107.865 140.926 68.2554 139.981C30.1247 139.07 -0.72324 107.481 0.0129071 68.6207C0.709718 31.5794 30.7442 0.212442 70.02 0.00170898ZM58.2894 90.3038C58.0857 92.0922 57.8482 93.8764 57.6895 95.669C57.5209 97.5572 57.0081 99.4215 57.5645 101.356C58.0576 103.076 58.2402 103.257 59.8516 102.63L63.625 101.168C64.9273 104.632 67.1611 107.32 70.0874 109.597C79.7528 117.129 99.3787 115.391 105.821 102.316C106.746 102.726 107.66 103.158 108.596 103.542C111.406 104.702 111.209 104.679 111.453 101.657C111.92 95.9177 111.815 90.204 111.364 84.4805C111.236 82.8564 111.118 81.2254 111.383 79.5999C111.909 76.5407 111.918 73.4149 111.409 70.3529C111.175 68.9958 111.268 67.6921 111.453 66.3546C112.229 60.6283 111.032 54.902 111.416 49.1742C111.468 48.3903 110.876 48.2568 110.379 48.0616C108.552 47.3437 106.726 46.6103 104.86 45.9795C102.687 45.2448 100.566 44.3709 98.2436 44.0773C96.2037 43.8202 94.6458 42.1723 92.7801 41.6244C90.3188 40.9036 87.7872 40.4246 85.3273 39.1939C85.3273 40.131 85.3203 40.9008 85.3273 41.6721C85.354 44.3625 86.121 47.0641 85.3975 49.7376C84.7654 52.0767 84.9621 54.4159 85.0969 56.762C84.9719 56.8337 84.7766 56.9952 84.733 56.9615C83.4321 55.95 83.0388 56.9348 82.5766 57.8916C81.9556 59.177 83.2917 58.9902 83.7342 59.458C84.2442 59.9947 84.9705 59.8317 85.6252 59.8795C85.7263 62.9857 84.7513 66.061 85.3442 69.1812L81.6171 69.3217C82.2914 60.6887 80.9146 52.0177 82.2774 43.3777C82.8758 39.5943 81.9037 39.0422 78.2665 40.3501C72.2958 42.4982 66.2493 44.4369 60.3447 46.7761C57.8159 47.7764 57.8159 47.6822 57.8468 50.4288C57.8623 51.5527 57.8665 52.6963 57.6544 53.7893C57.2807 55.7207 57.2498 57.7028 57.5631 59.6449C57.9325 62.0107 58.4158 64.3442 57.66 66.7775C57.3074 67.9112 57.4563 69.2417 57.8272 70.4527C58.2978 71.9896 58.2121 73.5434 58.125 75.1267C57.9157 78.9312 57.0671 82.7131 57.6164 86.5471C56.4799 86.2563 55.5709 86.2802 55.2282 87.7356C54.8854 89.1911 56.2397 88.8314 56.7819 89.3189C57.2273 89.7207 57.9283 89.7559 58.2894 90.3024V90.3038ZM54.2153 59.1644C54.5623 58.8975 54.9036 58.6249 55.2577 58.3678C56.8156 57.2439 56.7173 56.519 54.8489 55.4428C54.8573 53.9804 54.9149 52.5151 54.8559 51.0554C54.8025 49.694 54.3066 48.4507 53.0029 47.8578C49.6846 46.3476 46.4267 44.5788 42.9553 43.5673C38.5242 42.2598 34.1634 40.725 29.8901 38.9691C28.7662 38.5125 28.2127 38.7064 28.5091 39.9624C28.946 41.821 28.7086 43.6362 28.4712 45.485C27.7168 51.3448 29.0401 57.2425 28.2099 63.1079C28.1565 63.4844 28.2843 63.889 28.3504 64.2782C28.6942 66.3315 28.8498 68.4118 28.8154 70.4934C28.6131 77.973 27.6985 85.419 28.0343 92.9197C28.0862 94.0689 28.3757 94.628 29.4686 94.9638C36.7739 97.2116 43.7097 100.5 51.1035 102.462C52.2667 102.769 53.2726 103.611 54.5637 103.468C54.5637 103.539 54.5637 103.608 54.5637 103.684L54.7042 103.667L54.5314 103.494C53.9694 100.6 54.2715 97.7216 54.4035 94.7966C54.7561 87.0332 54.7182 79.2501 54.825 71.4754C54.8713 67.3591 54.4948 63.2625 54.2195 59.163L54.2153 59.1644Z" fill="#1E3B6B"/>
<path d="M54.5688 103.467C53.2777 103.608 52.2718 102.765 51.1086 102.461C43.7092 100.495 36.7692 97.2099 29.4737 94.9635C28.3808 94.6278 28.0914 94.0686 28.0394 92.9194C27.698 85.4187 28.6126 77.9728 28.8219 70.4918C28.8564 68.4102 28.7007 66.3298 28.3569 64.2765C28.2965 63.8874 28.1686 63.4828 28.2164 63.1063C29.0467 57.2408 27.7233 51.3431 28.4777 45.4833C28.7151 43.6345 28.9526 41.8194 28.5157 39.9607C28.2192 38.7047 28.7727 38.5109 29.8966 38.9674C34.1699 40.7234 38.5307 42.2581 42.9618 43.5657C46.4332 44.5772 49.6911 46.3459 53.0094 47.8562C54.3131 48.449 54.809 49.6924 54.8624 51.0537C54.9214 52.5134 54.8624 53.9787 54.8554 55.4412C53.6837 56.3024 52.5514 57.2254 51.3264 58.0051C50.3654 58.6162 50.3823 59.1009 50.9977 60.0155C51.6776 61.0284 52.1904 60.7039 52.8675 60.156C53.3016 59.8048 53.7694 59.4929 54.2218 59.1641C54.5028 63.2636 54.8737 67.3603 54.8189 71.4766C54.7163 79.2512 54.7542 87.0343 54.3974 94.7977C54.2654 97.7227 53.9563 100.601 54.5252 103.495L54.5688 103.467ZM47.4616 65.1138C47.418 64.1599 46.6187 63.8944 46.0708 63.4968C45.4049 63.0093 45.263 63.848 45.0059 64.1796C43.9663 65.5199 44.0225 67.2437 43.5435 68.7792C43.3074 69.535 44.3484 69.4816 44.8444 69.7401C45.3922 70.0352 45.7982 69.9439 46.0553 69.3412C46.6468 67.9587 46.6229 66.3726 47.4616 65.1195V65.1138ZM42.9379 75.8458C42.6443 75.1883 41.9799 74.9832 41.4474 74.6292C40.9417 74.292 40.6424 74.5308 40.3516 74.9635C39.5719 76.1268 38.7641 77.2718 37.9732 78.428C37.7104 78.8129 37.4702 79.2189 37.9633 79.6025C38.4789 80.0029 39.1097 80.836 39.6618 80.3681C41.0793 79.1726 41.8351 77.4108 42.9379 75.8514V75.8458ZM48.6824 82.4741C47.8803 82.8955 47.4448 83.7146 47.522 84.3735C47.6499 85.4637 48.8594 85.7601 49.6897 85.7784C50.638 85.8093 51.0777 84.5589 50.9428 83.9422C50.7377 83.0135 49.4734 82.9911 48.6824 82.4797V82.4741ZM31.4911 85.3091C31.8564 85.718 31.5234 86.9205 32.431 86.6943C33.3385 86.4682 34.735 86.2293 34.7813 84.9453C34.801 84.3622 34.1196 83.206 33.3526 83.435C32.6319 83.6528 31.3675 83.8832 31.4911 85.3091Z" fill="#FCFCFC"/>
<path d="M105.824 102.317C99.3816 115.392 79.7557 117.13 70.0902 109.598C67.1611 107.318 64.9274 104.63 63.6279 101.169C63.4579 100.466 63.3076 99.7527 63.1137 99.0531C60.5554 89.7977 62.6725 81.8277 69.6884 75.2163C73.0601 72.0384 77.1496 70.2795 81.6297 69.327L85.3568 69.1865C89.0544 69.327 92.6621 69.9845 95.9031 71.8066C102.124 75.309 105.563 80.9778 107.316 87.658C108.619 92.6411 107.784 97.5765 105.824 102.317ZM89.4071 94.8314C89.4071 92.6917 89.3734 90.5521 89.4197 88.4138C89.4478 87.1396 88.9505 86.5425 87.6397 86.5622C85.1616 86.5973 82.682 86.5833 80.2038 86.5622C79.2288 86.5622 78.5419 86.8572 78.4702 87.9432C78.4042 88.9435 78.4182 89.9339 79.7107 90.1475C81.4569 90.4284 81.9585 91.5524 81.9304 93.1666C81.8826 95.7558 81.9023 98.3464 81.9304 100.936C81.9501 102.421 81.4738 103.464 79.8484 103.663C78.2567 103.854 78.5039 105.044 78.5376 106.094C78.5798 107.359 79.521 107.248 80.3752 107.249C83.8677 107.249 87.3602 107.249 90.8527 107.249C91.8066 107.249 92.7057 107.224 92.8195 105.965C92.9276 104.806 92.804 103.825 91.3584 103.591C89.8524 103.348 89.3747 102.312 89.3916 100.902C89.4267 98.8831 89.4071 96.8558 89.4071 94.8314ZM81.5792 79.9676C81.5061 82.3742 83.1765 84.1374 85.5887 84.202C87.7564 84.2596 89.7021 82.4107 89.7653 80.2346C89.8313 77.9488 88.1343 76.1225 85.871 76.0424C83.4111 75.9553 81.6536 77.5639 81.5792 79.9676Z" fill="#E9600D"/>
<path d="M105.824 102.317C107.784 97.5766 108.62 92.6413 107.31 87.6539C105.557 80.9737 102.112 75.3049 95.8974 71.8025C92.6662 69.9762 89.0486 69.3285 85.3511 69.1824C84.754 66.0608 85.729 62.9869 85.632 59.8821C85.7346 58.7961 86.3008 57.6342 85.1038 56.7688C84.9633 54.417 84.7723 52.0779 85.4045 49.7444C86.128 47.0751 85.3609 44.3693 85.3342 41.6789C85.3272 40.9076 85.3342 40.1335 85.3342 39.2007C87.7941 40.4314 90.3257 40.9104 92.787 41.6311C94.6527 42.1791 96.2106 43.827 98.2505 44.0841C100.573 44.3777 102.694 45.2515 104.867 45.9863C106.729 46.6171 108.555 47.3504 110.386 48.0683C110.883 48.2636 111.474 48.3971 111.422 49.181C111.039 54.9087 112.236 60.6351 111.46 66.3614C111.279 67.6989 111.179 69.0026 111.415 70.3597C111.925 73.4217 111.916 76.5475 111.39 79.6067C111.125 81.2322 111.25 82.8632 111.371 84.4873C111.821 90.2108 111.932 95.9245 111.46 101.663C111.216 104.685 111.417 104.709 108.603 103.549C107.663 103.158 106.749 102.727 105.824 102.317ZM103.28 62.2521C102.728 61.8672 102.174 61.4949 101.636 61.1015C101.098 60.7081 100.805 61.1647 100.532 61.4752C99.7551 62.3589 99.0147 63.2735 98.2589 64.1768C97.5902 64.9762 97.8375 65.5733 98.6354 66.1113C99.2704 66.5328 99.727 66.7239 100.289 65.9175C101.078 64.7753 102.039 63.7483 103.28 62.2521Z" fill="#FCFCFC"/>
<path d="M81.624 69.3242C77.1453 70.2767 73.0544 72.0356 69.6827 75.2134C62.6668 81.8249 60.5511 89.7948 63.108 99.0502C63.3018 99.7526 63.4521 100.455 63.6221 101.166L59.8515 102.628C58.2401 103.255 58.0575 103.074 57.5644 101.354C57.0024 99.4197 57.5208 97.561 57.6894 95.6672C57.8481 93.8746 58.0856 92.0904 58.2893 90.302C59.3584 90.6799 60.2659 90.8527 60.7604 89.4C61.2718 87.9024 59.9175 88.1173 59.3289 87.6636C58.8905 87.3306 58.3455 87.1424 57.8425 86.8881C57.8425 86.7125 57.851 86.527 57.5882 86.5397L57.6248 86.5537C57.0741 82.7156 57.9226 78.9378 58.1319 75.1334C58.219 73.5557 58.3047 71.9963 57.8341 70.4593C57.4632 69.2483 57.3143 67.9179 57.6669 66.7841C58.4227 64.3508 57.9394 62.0173 57.57 59.6515C57.2567 57.7094 57.2877 55.7273 57.6613 53.7959C57.8734 52.7029 57.8692 51.5481 57.8538 50.4354C57.8158 47.6846 57.8271 47.7788 60.3516 46.7827C66.252 44.4436 72.3028 42.5048 78.2734 40.3567C81.9106 39.0488 82.8828 39.6009 82.2843 43.3843C80.9202 52.0201 82.2984 60.6925 81.624 69.3242ZM65.5215 50.0154C64.0998 50.5239 62.4884 51.0437 61.0372 51.9176C60.2308 52.4023 60.8279 53.0176 61.0779 53.5304C61.3589 54.112 61.7087 54.556 62.5249 54.1429C63.7248 53.5222 64.9653 52.9833 66.238 52.5301C67.0233 52.2576 66.9404 51.8754 66.769 51.2657C66.5976 50.656 66.585 49.9929 65.5215 50.0154ZM73.2567 50.6911C72.4882 50.9721 72.3913 51.7012 72.0485 52.2365C71.693 52.7984 72.0288 53.0485 72.4601 53.2789C73.7961 53.9954 75.142 54.695 76.464 55.4368C77.0428 55.7614 77.2872 55.4368 77.4923 55.0083C77.7424 54.4913 78.5586 53.8437 77.9573 53.418C76.5005 52.3798 74.868 51.5959 73.2567 50.6855V50.6911Z" fill="#FCFCFC"/>
<path d="M54.2192 59.1627C53.7669 59.4914 53.299 59.8033 52.8649 60.1545C52.1878 60.7038 51.675 61.0283 50.9951 60.014C50.3797 59.0994 50.3629 58.6091 51.3238 58.0036C52.5488 57.2239 53.6812 56.3009 54.8528 55.4397C56.7213 56.5158 56.8196 57.2351 55.2616 58.3647C54.9076 58.6232 54.5662 58.8957 54.2192 59.1627Z" fill="#98BAD9"/>
<path d="M57.842 86.8882C58.3407 87.1425 58.89 87.3307 59.3283 87.6637C59.9211 88.1175 61.2712 87.9025 60.7599 89.4001C60.2654 90.8528 59.355 90.68 58.2887 90.3021C57.9277 89.7556 57.2266 89.7204 56.7883 89.3186C56.2461 88.8312 54.8918 89.1936 55.2345 87.7353C55.5773 86.2771 56.4863 86.256 57.6228 86.5468L57.5863 86.5328L57.842 86.8882Z" fill="#97B9D8"/>
<path d="M85.0991 56.7688C86.296 57.6342 85.7299 58.7961 85.6273 59.8821C84.9727 59.8385 84.2463 60.0015 83.7364 59.4606C83.2938 58.9928 81.9578 59.1796 82.5788 57.8941C83.041 56.9374 83.4343 55.9526 84.7352 56.9641C84.7788 57.002 84.9741 56.8405 85.0991 56.7688Z" fill="#90B4D3"/>
<path d="M54.5312 103.494L54.7069 103.667L54.5664 103.684C54.5664 103.612 54.5664 103.543 54.5664 103.467L54.5312 103.494Z" fill="#FCFCFC"/>
<path d="M47.4618 65.1195C46.6189 66.3727 46.647 67.9588 46.0569 69.3468C45.7998 69.9495 45.3939 70.0409 44.846 69.7458C44.35 69.4803 43.309 69.5407 43.5451 68.7849C44.0241 67.2493 43.9665 65.5255 45.0075 64.1853C45.2646 63.8537 45.4065 63.015 46.0724 63.5025C46.6119 63.9001 47.4182 64.1656 47.4618 65.1195Z" fill="#9BBDDB"/>
<path d="M42.9383 75.8513C41.8354 77.415 41.0796 79.1725 39.6621 80.3737C39.11 80.8415 38.4792 80.0084 37.9637 79.608C37.4705 79.2245 37.7108 78.8185 37.9735 78.4335C38.7644 77.2773 39.5722 76.1323 40.3519 74.9691C40.6427 74.5364 40.942 74.2975 41.4477 74.6347C41.9802 74.9887 42.6446 75.1938 42.9383 75.8513Z" fill="#9BBDDB"/>
<path d="M48.6829 82.4797C49.4738 82.9911 50.7368 83.0136 50.9433 83.9549C51.0838 84.5716 50.6384 85.822 49.6902 85.7911C48.8599 85.7658 47.6503 85.4693 47.5225 84.3862C47.4452 83.7203 47.8807 82.9054 48.6829 82.4797Z" fill="#9DBDDC"/>
<path d="M31.491 85.309C31.366 83.883 32.6304 83.6526 33.3525 83.4349C34.1195 83.2059 34.8009 84.3621 34.7812 84.9451C34.7349 86.2292 33.3567 86.4638 32.4309 86.6942C31.5051 86.9246 31.8577 85.7178 31.491 85.309Z" fill="#9CBEDB"/>
<path d="M89.4071 94.8313C89.4071 96.8586 89.4268 98.8859 89.4071 100.912C89.3889 102.317 89.8665 103.358 91.3739 103.601C92.8195 103.835 92.9431 104.816 92.835 105.975C92.7184 107.239 91.8193 107.262 90.8682 107.259C87.3757 107.248 83.8832 107.259 80.3907 107.259C79.5408 107.259 78.5953 107.364 78.5532 106.104C78.5194 105.053 78.2722 103.856 79.8639 103.672C81.4893 103.476 81.9712 102.43 81.9459 100.945C81.9122 98.3562 81.8925 95.7656 81.9459 93.1764C81.9768 91.5565 81.4725 90.4453 79.7262 90.1573C78.4338 89.9437 78.4197 88.9533 78.4857 87.953C78.5574 86.867 79.2444 86.565 80.2193 86.572C82.6975 86.5889 85.1771 86.6029 87.6553 86.572C88.966 86.5523 89.4633 87.1494 89.4352 88.4236C89.372 90.5492 89.4071 92.6889 89.4071 94.8313Z" fill="#FDFCFC"/>
<path d="M81.5786 79.9677C81.653 77.5639 83.4049 75.9553 85.8704 76.0424C88.1337 76.1225 89.8307 77.9489 89.7647 80.2346C89.7015 82.4108 87.7557 84.2596 85.588 84.202C83.1759 84.1374 81.5041 82.3743 81.5786 79.9677Z" fill="#FCFBFA"/>
<path d="M103.28 62.252C102.043 63.7482 101.082 64.7808 100.289 65.9173C99.7267 66.7238 99.2702 66.5383 98.6352 66.1112C97.8358 65.5731 97.59 64.9761 98.2587 64.1767C99.0145 63.2733 99.7548 62.3588 100.532 61.4751C100.804 61.1646 101.08 60.694 101.636 61.1014C102.192 61.5088 102.718 61.867 103.28 62.252Z" fill="#9BBBDB"/>
<path d="M65.5217 50.0154C66.5852 49.9986 66.595 50.6715 66.7692 51.2686C66.9434 51.8657 67.0235 52.252 66.2382 52.533C64.9656 52.9862 63.725 53.5251 62.5251 54.1458C61.7089 54.5589 61.3633 54.1149 61.0781 53.5333C60.8281 53.0205 60.2352 52.4094 61.0374 51.9205C62.4886 51.0382 64.1 50.5184 65.5217 50.0154Z" fill="#9BBDDB"/>
<path d="M73.256 50.6855C74.8674 51.5959 76.4998 52.3798 77.9567 53.411C78.558 53.8325 77.7417 54.4844 77.4917 55.0014C77.2866 55.4228 77.0421 55.7544 76.4633 55.4299C75.1414 54.6881 73.7941 53.9884 72.4595 53.2719C72.0282 53.0415 71.6924 52.7859 72.0478 52.2295C72.3906 51.7013 72.4876 50.9595 73.256 50.6855Z" fill="#9BBDDB"/>
<path d="M57.8422 86.8883L57.5879 86.5427C57.8506 86.5272 57.8408 86.7126 57.8422 86.8883Z" fill="#1E3B6B"/>
</g>
<defs>
<clipPath id="clip0_852_2">
<rect width="140" height="140" fill="white"/>
</clipPath>
</defs>
</svg>
