<svg width="140" height="140" viewBox="0 0 140 140" fill="none" xmlns="http://www.w3.org/2000/svg">
<g clip-path="url(#clip0_852_36)">
<path d="M70.0007 140.001C108.661 140.001 140.001 108.661 140.001 70.0007C140.001 31.3404 108.661 0 70.0007 0C31.3404 0 0 31.3404 0 70.0007C0 108.661 31.3404 140.001 70.0007 140.001Z" fill="#133B6F"/>
<path d="M51.2761 40.9279C51.4738 40.3825 51.9674 40.1708 52.3867 39.9464C53.7888 39.1794 55.191 38.383 56.6871 37.8431C58.9342 37.0546 61.2637 36.524 63.6307 36.2615C67.1361 35.8493 70.5855 36.1493 74.0292 36.7873C74.7487 36.9267 75.453 37.1352 76.1325 37.4099C76.4872 37.5501 76.8027 37.3173 77.1252 37.4505C77.3608 37.5571 77.5907 37.6735 77.8263 37.7674C79.1513 38.289 80.5283 38.669 81.7664 39.4304C82.2726 39.7431 82.7802 40.067 83.3761 40.1651C83.4043 40.3047 83.4626 40.4364 83.5469 40.5512C83.6311 40.666 83.7394 40.761 83.864 40.8298C85.527 41.9277 87.1199 43.1279 88.5319 44.5792C89.5504 45.6164 90.488 46.7302 91.3362 47.9108C91.8887 48.689 92.458 49.4742 92.7216 50.4347C92.3234 50.5286 92.0527 50.2215 91.74 50.0701C90.3799 49.4181 88.9988 48.8783 87.469 48.9694C86.9951 48.9974 86.5155 48.9442 86.043 48.989C84.3009 49.1376 82.6441 49.8086 81.2896 50.9142C80.7049 51.3909 80.5199 52.0808 80.5984 52.8857C80.7176 54.1056 80.7821 55.3268 79.9997 56.3911C79.1619 57.5244 78.1985 58.5592 77.128 59.4759C76.3319 60.1485 75.6116 60.9059 74.9799 61.7348C74.2423 62.7275 74.2493 63.3767 75.1047 64.2419C76.9537 66.1114 78.8181 67.9656 80.6979 69.8043C81.7271 70.8082 82.6736 71.916 83.8304 72.7657C84.9073 73.5551 86.2337 73.4205 87.2265 72.5035C87.8094 71.9766 88.2473 71.3089 88.4982 70.5643C88.9645 69.1399 89.5295 67.7498 90.1892 66.404C91.3587 64.075 93.2207 62.3377 94.7617 60.3368C95.0842 59.9162 95.2749 59.396 95.683 59.0524C95.8344 59.1926 95.8232 59.396 95.8316 59.581C95.8835 60.4854 95.9494 61.3898 95.9718 62.2942C96.0251 65.1491 95.8218 67.9815 95.1389 70.7494C94.6021 72.9983 93.772 75.1669 92.6697 77.1994C91.4188 79.4685 89.8088 81.5203 87.9023 83.275C85.2746 85.7119 82.1898 87.3413 78.9284 88.578C76.2222 89.6072 73.408 90.2382 70.563 90.6813C67.7489 91.1159 64.9123 91.0697 62.0799 90.9617C61.2867 90.9403 60.4978 90.8374 59.7256 90.6546C57.8804 90.1905 56.0351 89.7194 54.2572 88.9958C53.7411 88.7869 53.1691 88.599 52.5914 88.8556C52.4652 88.6481 52.2717 88.5906 52.0571 88.5121C50.7601 88.0353 49.1967 88.6523 48.0567 87.811C47.6599 87.5151 47.6585 86.5126 47.3725 86.9192C47.0864 87.3258 46.9084 87.9007 46.391 88.1223C46.5186 87.5726 46.5592 87.9821 46.8677 87.5614C47.1762 87.1408 47.5267 86.12 47.0738 85.7764C43.5403 83.0717 40.7753 79.6111 38.4925 75.7046C37.7227 74.3852 37.253 72.9003 36.9137 71.3775C36.1481 67.9408 36.2715 64.5069 36.845 61.0547C37.1759 59.0287 37.6644 57.0315 38.306 55.0815C39.034 52.9424 40.1496 50.9556 41.5969 49.2204C41.6124 49.2008 41.6684 49.2204 41.7049 49.2204C41.7574 49.2919 41.8282 49.348 41.9099 49.3828C41.9915 49.4176 42.081 49.4298 42.169 49.4181C43.8516 49.1783 45.4333 49.5064 46.9364 50.3183C47.8646 50.8161 48.8854 51.0376 49.78 50.4206C51.3673 49.3284 51.9197 48.2739 51.593 46.2758C51.3112 44.4909 51.2845 42.7157 51.2761 40.9279ZM63.5732 59.9358C63.5536 59.2151 62.7095 58.0471 61.9453 57.8466C60.1687 57.3796 58.409 56.7543 56.5371 56.9085C55.3649 57.0053 54.2375 57.3292 53.2995 58.0905C51.8819 59.2319 51.1752 60.9958 50.1628 62.4863C49.5879 63.3277 49.0102 64.1339 48.2544 64.7817C47.0458 65.8249 45.5328 66.3858 44.3396 67.4781C43.5193 68.2325 42.5504 68.8172 41.9657 69.8253C41.5745 70.5026 41.1581 71.2163 41.5619 72.0688C41.9337 72.8939 42.5311 73.5973 43.2851 74.0977C44.5471 74.9166 45.9493 75.3597 47.3094 75.9206C49.0004 76.6217 50.1979 77.9018 51.0953 79.4863C51.6061 80.4233 52.2425 81.2861 52.9868 82.0509C53.9417 82.9917 54.9723 83.8555 56.2202 84.45C57.5452 85.081 58.6516 85.1062 59.8729 84.2607C60.5473 83.7924 61.1783 83.2609 61.8724 82.8193C63.2493 81.9443 64.8169 81.6344 66.2794 81.0203C67.7769 80.3921 69.2758 79.8326 70.2728 78.2818C71.5123 76.3552 70.7285 74.7582 69.1651 73.8846C67.8793 73.1667 66.4645 72.7236 65.0525 72.3016C63.0894 71.7155 61.3802 70.6947 60.1757 68.855C59.2461 67.4346 59.2475 65.3131 60.2388 63.9474C60.8151 63.1552 61.6158 62.6294 62.2916 61.9577C62.8553 61.3927 63.5241 60.8766 63.5732 59.9358ZM70.5658 39.3589C69.8367 39.2411 69.1637 39.5973 68.4626 39.6772C67.2791 39.809 66.2051 40.2745 65.1212 40.7246C64.5701 40.9546 64.0177 41.1761 63.5381 41.5743C63.2381 41.8239 63.2198 42.0833 63.3825 42.3974C63.5352 42.6633 63.7637 42.8776 64.0387 43.013C64.6005 43.3243 65.1457 43.6645 65.6722 44.0323C66.4224 44.5736 67.1305 45.1793 67.8779 45.7276C68.2466 45.9996 68.6112 46.2969 69.0655 46.4132C70.4046 46.7568 71.6105 46.6712 72.5163 45.3532C72.7311 45.0542 72.9305 44.7444 73.1136 44.425C73.7544 43.2513 73.9142 42.0062 73.2328 40.8312C72.6551 39.8314 71.8025 39.143 70.5658 39.3645V39.3589Z" fill="#7FB5D6"/>
<path d="M44.2061 46.4756L44.2993 46.3853L44.2061 46.4756Z" fill="#FF5C00"/>
<path d="M44.7135 46.0192C46.5448 44.0828 48.6396 42.4998 50.7765 40.9826C50.9168 40.8803 51.0962 40.8046 51.2757 40.9279C51.2841 42.7157 51.3108 44.4909 51.601 46.2702C51.9277 48.2683 51.3753 49.3228 49.788 50.415C48.8934 51.032 47.8726 50.8105 46.9444 50.3127C45.4357 49.5008 43.8498 49.1727 42.177 49.4125C42.089 49.4242 41.9995 49.412 41.9179 49.3772C41.8362 49.3424 41.7654 49.2863 41.7129 49.2148" fill="#FF5C00"/>
<path d="M45.5632 89.282C45.6572 89.5344 45.5632 89.6297 45.3249 89.6045C45.3189 89.5676 45.3204 89.5299 45.3292 89.4936C45.338 89.4573 45.354 89.4231 45.3762 89.3931C45.3984 89.363 45.4264 89.3377 45.4585 89.3187C45.4906 89.2996 45.5262 89.2871 45.5632 89.282Z" fill="#FC4613"/>
<path d="M45.9238 88.78C46.0065 89.024 45.9238 89.1278 45.684 89.0941C45.6744 89.0207 45.6943 88.9465 45.7392 88.8877C45.7841 88.8288 45.8504 88.7901 45.9238 88.78Z" fill="#FC4613"/>
<path d="M46.253 88.2695C46.3722 88.5289 46.2713 88.6131 46.0301 88.5836C46.0201 88.5127 46.0376 88.4406 46.0791 88.3822C46.1206 88.3238 46.1828 88.2835 46.253 88.2695Z" fill="#FC4613"/>
<path d="M63.5729 59.9359C63.5238 60.8712 62.855 61.3872 62.2941 61.9453C61.6183 62.6169 60.8176 63.1427 60.2414 63.9349C59.25 65.3007 59.2486 67.4222 60.1783 68.8426C61.3827 70.6822 63.0948 71.703 65.055 72.2891C66.467 72.7097 67.8818 73.1542 69.1676 73.8722C70.731 74.7457 71.5148 76.3428 70.2753 78.2694C69.2784 79.8202 67.7794 80.3796 66.2819 81.0078C64.8195 81.622 63.2518 81.9318 61.8749 82.8068C61.1808 83.2485 60.5498 83.7799 59.8754 84.2482C58.6541 85.0895 57.5478 85.0685 56.2227 84.4375C54.9748 83.843 53.9442 82.9793 52.9893 82.0384C52.245 81.2736 51.6086 80.4108 51.0978 79.4738C50.1976 77.8894 48.9945 76.6078 47.3119 75.9081C45.956 75.3472 44.5482 74.9083 43.2877 74.0853C42.5334 73.5844 41.936 72.8806 41.5644 72.0549C41.1606 71.2066 41.577 70.4929 41.9682 69.8115C42.5529 68.8033 43.5218 68.2186 44.3421 67.4642C45.5326 66.3859 47.0455 65.8251 48.2542 64.7875C49.0099 64.1397 49.5876 63.339 50.1625 62.4921C51.1749 61.0016 51.8816 59.2377 53.2992 58.0963C54.2373 57.3405 55.3646 57.011 56.5368 56.9143C58.4087 56.76 60.1684 57.3854 61.945 57.8523C62.7092 58.0528 63.5533 59.2208 63.5729 59.9359Z" fill="#FF5C00"/>
<path d="M93.1423 50.9313C94.3552 53.0345 95.1053 55.3187 95.5779 57.7178C95.6101 57.8776 95.6816 58.0417 95.5877 58.2071C95.5709 58.231 95.5554 58.2562 95.54 58.2814L95.6199 58.3067C95.819 58.5352 95.7601 58.7946 95.697 59.054C95.289 59.3976 95.0983 59.9192 94.7758 60.3384C93.2334 62.3449 91.3727 64.0766 90.2033 66.4056C89.5436 67.7514 88.9786 69.1415 88.5123 70.5659C88.2614 71.3105 87.8235 71.9782 87.2405 72.5051C86.2478 73.4221 84.9213 73.5567 83.8445 72.7673C82.6877 71.9176 81.7412 70.8043 80.712 69.8059C78.8331 67.9709 76.9687 66.1168 75.1188 64.2435C74.2634 63.3783 74.2564 62.7291 74.994 61.7364C75.6257 60.9075 76.346 60.1501 77.1421 59.4775C78.2126 58.5609 79.176 57.526 80.0137 56.3927C80.7962 55.3257 80.7317 54.1044 80.6125 52.8873C80.5339 52.0824 80.719 51.3926 81.3037 50.9158C82.6582 49.8102 84.315 49.1392 86.0571 48.9906C86.5296 48.9458 87.0092 48.9991 87.4831 48.971C89.0129 48.8799 90.394 49.4197 91.7541 50.0717C92.0696 50.2232 92.3402 50.5302 92.7357 50.4363C92.7915 50.4546 92.8412 50.488 92.8793 50.5328C92.9174 50.5776 92.9424 50.632 92.9516 50.6901C92.9067 50.8682 92.9432 50.9719 93.1423 50.9313Z" fill="#FF5C00"/>
<path d="M70.5655 39.3646C71.8022 39.143 72.6548 39.8315 73.2381 40.8369C73.9195 42.0119 73.7597 43.257 73.1189 44.4306C72.9358 44.7501 72.7364 45.0599 72.5216 45.3589C71.6158 46.6769 70.4099 46.7611 69.0708 46.4189C68.6165 46.3025 68.2519 45.9983 67.8832 45.7333C67.1358 45.185 66.4277 44.5793 65.6775 44.038C65.151 43.6702 64.6058 43.33 64.044 43.0187C63.769 42.8832 63.5405 42.6689 63.3878 42.4031C63.2251 42.089 63.2476 41.8296 63.5434 41.58C64.023 41.1818 64.5754 40.9603 65.1265 40.7303C66.2104 40.2802 67.2844 39.8147 68.4679 39.6829C69.169 39.6044 69.8364 39.2468 70.5655 39.3646Z" fill="#FF5C00"/>
<path d="M93.1398 41.8928C92.9786 41.8816 92.8959 41.7624 92.8271 41.6306C93.0697 41.5324 93.1875 41.6026 93.1398 41.8928Z" fill="#FC4613"/>
<path d="M95.28 84.279C95.2724 84.2449 95.2725 84.2095 95.2806 84.1755C95.2887 84.1415 95.3044 84.1097 95.3266 84.0827C95.3487 84.0556 95.3768 84.034 95.4086 84.0195C95.4403 84.0049 95.475 83.9977 95.51 83.9986C95.5857 84.23 95.503 84.3169 95.28 84.279Z" fill="#FC4613"/>
<path d="M93.3847 42.1422C93.2711 42.1717 93.2318 42.1156 93.2445 42.002C93.3847 41.9487 93.4408 41.988 93.3847 42.1422Z" fill="#FC4613"/>
<path d="M93.7383 42.5265C93.6276 42.5461 93.5813 42.5013 93.6079 42.3863C93.7454 42.3302 93.793 42.3737 93.7383 42.5265Z" fill="#FC4613"/>
<path d="M93.1422 50.9311C92.9431 50.9718 92.9066 50.868 92.9543 50.6899C93.1071 50.6913 93.1773 50.7713 93.1422 50.9311Z" fill="#FC4613"/>
<path d="M95.6205 58.3073L95.54 58.2819C95.5556 58.2565 95.5711 58.231 95.5881 58.207C95.6055 58.2247 95.6211 58.2441 95.6347 58.2649C95.6403 58.2734 95.6262 58.2932 95.6205 58.3073Z" fill="#FC4613"/>
<path d="M85.7946 114.259C85.7946 114.259 61.3491 114.211 57.8002 114.164C54.2513 114.116 46.4426 114.559 45.7051 113.831C44.9675 113.104 46.1958 110.978 49.8667 109.51C53.5376 108.042 56.7107 107.06 58.3345 105.148C59.9582 103.235 61.0406 102.691 59.316 102.078C57.5913 101.466 55.8218 101.565 52.0653 100.376C48.3089 99.187 46.4693 97.4904 46.0809 98.3387C45.6925 99.187 44.9423 101.063 42.6988 99.9989C40.4553 98.9346 39.5243 98.4046 39.9898 97.5311C40.4553 96.6575 43.7294 92.1187 44.8273 90.3393C45.9252 88.56 47.2334 85.9042 47.2334 85.9042C47.2334 85.9042 48.9161 87.5967 50.5131 88.079C52.1102 88.5614 52.601 88.8488 52.601 88.8488L50.1668 92.5982C50.1668 92.5982 49.899 92.9319 52.2532 93.5938C54.6075 94.2556 68.9966 98.4677 76.0705 96.1121C83.1445 93.7564 90.2872 90.9759 94.4474 85.2803C98.6077 79.5847 103.806 71.1534 102.992 63.6041C102.179 56.0548 100.32 49.7506 94.4699 43.4128C88.62 37.075 86.6752 36.085 85.2702 37.0806C83.8652 38.0761 83.7432 40.7963 82.7323 40.0714C81.7213 39.3465 77.533 38.0733 77.1236 37.4451C76.7141 36.817 83.9648 25.2799 85.1005 25.3556C86.2363 25.4313 90.2143 27.5065 90.3657 28.1137C90.5171 28.7208 89.4248 30.423 89.6141 30.5829C89.8034 30.7427 103.877 38.2023 107.785 54.3385C111.693 70.4747 106.23 80.1007 103.848 84.1417C101.465 88.1828 90.412 98.1957 84.6378 99.5137C78.8637 100.832 71.2499 101.562 72.6787 103.095C74.1075 104.627 73.534 104.717 79.1736 107.582C84.8131 110.446 85.5226 110.191 86.1185 111.71C86.7144 113.228 85.7946 114.259 85.7946 114.259Z" fill="#F8F8F8"/>
</g>
<defs>
<clipPath id="clip0_852_36">
<rect width="140" height="140" fill="white"/>
</clipPath>
</defs>
</svg>
