<svg width="140" height="140" viewBox="0 0 140 140" fill="none" xmlns="http://www.w3.org/2000/svg">
<g clip-path="url(#clip0_852_22)">
<path d="M70.0005 139.827C108.564 139.827 139.826 108.564 139.826 70.0008C139.826 31.4371 108.564 0.175049 70.0005 0.175049C31.4369 0.175049 0.174805 31.4371 0.174805 70.0008C0.174805 108.564 31.4369 139.827 70.0005 139.827Z" fill="#133B6F"/>
<path d="M70.0007 140C31.4025 140 0 108.597 0 70.0007C0 31.4039 31.4025 0 70.0007 0C108.599 0 140.001 31.4026 140.001 70.0007C140.001 108.599 108.599 140 70.0007 140ZM70.0007 0.348513C31.5943 0.348513 0.348513 31.5943 0.348513 70.0007C0.348513 108.407 31.5943 139.651 70.0007 139.651C108.407 139.651 139.653 108.406 139.653 70.0007C139.653 31.5957 108.407 0.348513 70.0007 0.348513Z" fill="#133B6F"/>
<path d="M74.9497 106.968C63.0387 106.968 51.1272 106.974 39.2152 106.987C37.9192 106.987 37.0164 106.477 36.122 105.587C35.6027 105.069 35.2276 104.512 35.1968 103.874C35.1534 102.984 35.1968 102.016 35.5048 101.199C35.8799 100.201 36.5993 99.3445 37.1088 98.3997C37.7988 97.112 38.402 95.7782 39.0935 94.4919C39.5704 93.5735 40.114 92.6912 40.7199 91.8521C41.0726 91.3805 41.6072 90.8472 42.1293 90.7548C42.9145 90.6149 43.7193 89.8101 44.5745 90.5981C44.6305 90.6484 44.755 90.6233 44.8474 90.6317C46.2541 90.745 47.6691 90.7968 49.0646 90.99C50.1955 91.1467 51.2956 91.5162 52.4237 91.7038C52.8436 91.7724 53.3027 91.6226 53.7296 91.5092C54.2601 91.3693 54.7891 91.2489 55.188 90.7632C55.6079 90.2467 56.1678 89.8352 56.6395 89.3636C57.6024 88.4048 58.5668 87.4461 59.5074 86.4635C60.3737 85.5621 61.1617 84.5768 62.0799 83.7342C62.5306 83.3143 63.1856 82.9322 63.7679 82.9014C67.3496 82.7096 70.9369 82.6215 74.5228 82.5067C75.3626 82.4801 76.2136 82.3905 77.031 82.5179C78.418 82.732 79.472 82.0126 80.5609 81.3982C81.5056 80.8691 82.3804 80.2225 83.2972 79.629C84.6241 78.7626 85.9118 77.8249 87.2918 77.0564C88.3653 76.4588 89.3717 75.5602 90.6944 75.6176C91.6391 75.6596 92.5685 75.7982 93.4111 76.414C94.7659 77.4036 95.5749 78.7668 96.3643 80.1931C96.7842 80.9601 97.3903 81.6235 97.8718 82.3611C98.2343 82.921 98.5128 83.5312 98.8627 84.0981C99.2126 84.6649 99.6171 85.2262 99.9992 85.7875C100.551 86.5965 101.088 87.4153 101.665 88.2061C102.086 88.8077 102.548 89.3797 103.048 89.9178C103.95 90.8542 104.902 91.7374 105.839 92.6486C106.669 93.4478 107.518 94.2288 108.337 95.028C109.478 96.1477 110.604 97.2814 111.735 98.4095C112.444 99.1093 113.122 99.8581 113.867 100.522C114.738 101.296 115.171 103.079 114.801 104.194C114.344 105.563 113.261 106.25 112.129 106.87C111.759 107.073 111.216 106.97 110.751 106.97C98.8207 106.969 86.8868 106.968 74.9497 106.968Z" fill="white"/>
<path d="M80.6348 79.0746C80.6348 79.0746 82.6741 81.5002 83.4187 81.566C84.1633 81.6318 84.1633 81.6304 86.148 80.7906C87.8962 80.0516 87.528 77.4216 87.528 77.4216L80.6348 79.0746Z" fill="#FF5C00"/>
<path d="M42.5117 88.3362C42.5117 88.3362 44.7512 90.5756 45.5014 90.5756C46.2516 90.5756 46.2488 90.5756 48.1537 89.5693C49.8333 88.6819 49.237 86.0925 49.237 86.0925L42.5117 88.3362Z" fill="#FF5C00"/>
<path d="M50.7441 85.8C50.7441 85.8 52.7848 88.227 53.5294 88.2913C54.2741 88.3557 54.2727 88.3557 56.2574 87.5159C58.0069 86.7769 57.6388 84.147 57.6388 84.147L50.7441 85.8Z" fill="#FF5C00"/>
<path d="M60.459 83.5578C60.459 83.5578 62.4983 85.9848 63.2429 86.0491C63.9875 86.1135 63.9875 86.1135 65.9722 85.2737C67.7204 84.5347 67.3523 81.9048 67.3523 81.9048L60.459 83.5578Z" fill="#FF5C00"/>
<path d="M70.9199 82.0629C70.9199 82.0629 72.9606 84.4899 73.7052 84.5543C74.4498 84.6187 74.4498 84.6187 76.4345 83.7803C78.1827 83.0399 77.8146 80.4099 77.8146 80.4099L70.9199 82.0629Z" fill="#FF5C00"/>
<path d="M93.151 66.4218C92.7899 62.6834 90.6317 58.8035 86.5909 57.5159C85.0648 57.0567 83.4829 56.809 81.8895 56.7796C79.5661 56.6859 77.1698 56.7978 74.852 56.9308C69.5336 57.2416 64.2996 55.4934 60.2355 52.0488C56.9677 49.4351 54.3103 46.1391 52.4492 42.3912C52.0293 41.5402 51.5311 40.7201 51.0258 39.9111C50.7994 39.4906 50.4444 39.1535 50.0128 38.949C49.5812 38.7446 49.0956 38.6834 48.6268 38.7745C46.4443 39.1739 44.2636 39.5938 42.0848 40.0342C41.5515 40.1378 41.0339 40.3105 40.5452 40.5479C38.0721 41.8 35.4131 42.6446 32.6708 43.0491C31.0164 43.308 29.3928 43.7769 27.772 44.1814C26.8776 44.4081 26.5123 44.835 26.6341 45.7574C26.8415 47.964 27.1686 50.1576 27.6138 52.3288C28.6692 56.83 29.8743 61.3033 31.0542 65.778C32.0339 69.4619 33.0781 73.122 34.0592 76.803C34.1771 77.417 34.2366 78.0408 34.237 78.666C34.2037 79.1596 34.231 79.6555 34.3182 80.1426C34.864 81.7195 35.4617 83.2797 36.1111 84.823C37.1958 87.4712 40.9077 89.022 43.7224 88.1514C51.8558 85.66 60.1907 84.1792 68.5242 82.6928C73.2704 81.902 78.0418 81.2217 82.3807 79.6611C85.3584 78.7347 88.2188 77.4666 90.9046 75.8821C91.5831 75.5591 92.1508 75.0425 92.5361 74.3974C92.9214 73.7522 93.1072 73.0075 93.0699 72.257C93.1948 70.3145 93.2218 68.367 93.151 66.4218ZM90.0718 74.8869C85.3965 77.5151 80.3041 79.3199 75.0172 80.2224C71.1933 80.967 67.3191 81.4597 63.4981 82.2421C56.7531 83.6025 49.9774 84.7768 43.3711 86.8861C41.4396 87.4978 39.704 86.8455 38.2092 85.5718C37.7809 85.1855 37.3792 84.7838 37.4114 84.3793C38.951 84.0994 40.3786 83.9049 41.7881 83.5941C45.2732 82.8047 48.7528 81.9468 52.2491 81.1629C55.9945 80.2798 59.705 79.4078 63.5289 78.6884C67.3527 77.9689 71.2269 77.4749 75.062 76.8058C79.3648 76.0669 83.5166 74.6246 87.3509 72.5369C88.8121 71.7433 90.2034 70.8391 91.778 69.8902C91.792 70.618 91.785 71.2828 91.8144 71.942C91.8608 72.5518 91.7189 73.1611 91.4081 73.6877C91.0972 74.2143 90.6323 74.6329 90.076 74.8869H90.0718Z" fill="#7FB5D6"/>
<path d="M50.7426 51.8219C52.4054 50.5144 54.2737 49.4919 56.2712 48.7959C56.4691 48.7366 56.6364 48.6032 56.7383 48.4235C56.8403 48.2439 56.869 48.0318 56.8185 47.8315C56.7121 47.4438 56.2586 47.1443 55.8541 47.2843C53.6042 48.0729 51.502 49.2319 49.6341 50.7134C49.3024 50.9765 49.3541 51.5532 49.6341 51.8219C49.963 52.1509 50.4095 52.0865 50.7426 51.8219Z" fill="#133B6F"/>
<path d="M54.3243 54.9459C55.9592 52.8469 58.197 51.2981 60.7375 50.5076C61.6977 50.2081 61.2876 48.6881 60.3176 48.996C57.3929 49.9153 54.8246 51.7175 52.9653 54.1551C52.7063 54.4911 52.9135 55.0327 53.2452 55.2273C53.6483 55.4638 54.0584 55.2833 54.3173 54.9473L54.3243 54.9459Z" fill="#133B6F"/>
<path d="M59.3943 57.3899L59.4951 57.2499C59.5329 57.1995 59.5861 57.1323 59.5175 57.2205C59.5875 57.1309 59.6574 57.0413 59.7288 56.9546C59.8716 56.7782 60.0181 56.6051 60.1683 56.4353C60.4594 56.1031 60.7641 55.7835 61.0823 55.4765C61.4005 55.1695 61.7271 54.8752 62.062 54.5934L62.3266 54.3792L62.4329 54.2952C62.3 54.4002 62.4763 54.2616 62.4903 54.2518C62.6713 54.1165 62.8547 53.984 63.0404 53.8543C63.3763 53.6206 63.5639 53.1545 63.3203 52.7822C63.1048 52.4477 62.6079 52.2503 62.2482 52.5023C60.6297 53.6282 59.2061 55.011 58.0338 56.5963C57.7875 56.9266 57.9681 57.4864 58.3138 57.6684C58.7239 57.8853 59.1242 57.7398 59.3873 57.3885L59.3943 57.3899Z" fill="#133B6F"/>
<path d="M64.7026 60.612C64.7542 60.138 64.8479 59.6696 64.9826 59.2123C65.1154 58.7356 65.2974 58.2741 65.5256 57.8351C65.9842 56.9303 66.613 56.1224 67.3774 55.4557C67.6951 55.1757 67.6643 54.6341 67.3774 54.3471C67.2289 54.2036 67.0304 54.1233 66.8238 54.1233C66.6172 54.1233 66.4187 54.2036 66.2702 54.3471C64.4709 55.966 63.3521 58.2066 63.1392 60.6176C63.1 61.0375 63.5283 61.4014 63.923 61.4014C64.3807 61.4014 64.6676 61.0403 64.7068 60.6176L64.7026 60.612Z" fill="#133B6F"/>
</g>
<defs>
<clipPath id="clip0_852_22">
<rect width="140" height="140" fill="white"/>
</clipPath>
</defs>
</svg>
