<svg width="40" height="31" viewBox="0 0 40 31" fill="none" xmlns="http://www.w3.org/2000/svg">
<path d="M7.5 0.40918C5.51088 0.40918 3.60322 1.19936 2.1967 2.60588C0.790177 4.0124 0 5.92006 0 7.90918V22.9092C0 24.8983 0.790177 26.806 2.1967 28.2125C3.60322 29.619 5.51088 30.4092 7.5 30.4092H32.5C34.4891 30.4092 36.3968 29.619 37.8033 28.2125C39.2098 26.806 40 24.8983 40 22.9092V7.90918C40 5.92006 39.2098 4.0124 37.8033 2.60588C36.3968 1.19936 34.4891 0.40918 32.5 0.40918H7.5ZM5 7.90918C5 7.24614 5.26339 6.61025 5.73223 6.14141C6.20107 5.67257 6.83696 5.40918 7.5 5.40918H32.5C33.163 5.40918 33.7989 5.67257 34.2678 6.14141C34.7366 6.61025 35 7.24614 35 7.90918V8.75918L20 15.1892L5 8.75918V7.90918ZM5 14.1992L19.015 20.2042C19.3262 20.3376 19.6614 20.4064 20 20.4064C20.3386 20.4064 20.6738 20.3376 20.985 20.2042L35 14.1992V22.9092C35 23.5722 34.7366 24.2081 34.2678 24.6769C33.7989 25.1458 33.163 25.4092 32.5 25.4092H7.5C6.83696 25.4092 6.20107 25.1458 5.73223 24.6769C5.26339 24.2081 5 23.5722 5 22.9092V14.1992Z" fill="white"/>
</svg>
