<svg width="40" height="40" viewBox="0 0 40 40" fill="none" xmlns="http://www.w3.org/2000/svg">
<path fill-rule="evenodd" clip-rule="evenodd" d="M4.56393 37.4088C4.34202 37.4082 4.12241 37.3638 3.91763 37.2783C3.71286 37.1928 3.52693 37.0678 3.37046 36.9105C3.21399 36.7531 3.09005 36.5665 3.00571 36.3612C2.92137 36.156 2.87828 35.9361 2.87891 35.7142V3.9822C2.87891 3.0459 3.63322 2.2876 4.56393 2.2876H36.3159C37.2458 2.2876 38.0001 3.0459 38.0001 3.9822V35.7142C38.0007 35.9361 37.9577 36.156 37.8733 36.3612C37.789 36.5665 37.665 36.7531 37.5086 36.9105C37.3521 37.0678 37.1662 37.1928 36.9614 37.2783C36.7566 37.3638 36.537 37.4082 36.3151 37.4088H4.56393Z" stroke="white" stroke-width="4" stroke-linecap="round" stroke-linejoin="round"/>
<path fill-rule="evenodd" clip-rule="evenodd" d="M32.1425 14.9686H28.2561C27.7387 14.9688 27.2427 15.1744 26.8769 15.5403C26.5111 15.9061 26.3055 16.4021 26.3052 16.9195V20.8227H32.1425L31.2877 26.6752H26.3052V37.4087H19.886V26.6752H14.5859V20.8235H19.8174L19.886 15.2688L19.8669 13.278C19.8605 12.6056 19.9873 11.9385 20.2402 11.3153C20.4931 10.6922 20.8669 10.1253 21.3402 9.6475C21.8134 9.16967 22.3766 8.79035 22.9973 8.53146C23.6179 8.27257 24.2838 8.13923 24.9563 8.13916H32.1425V14.9686Z" fill="white"/>
</svg>
