<svg width="39" height="40" viewBox="0 0 39 40" fill="none" xmlns="http://www.w3.org/2000/svg">
<path d="M11.2573 0.59082H27.5609C33.7718 0.59082 38.8182 5.63718 38.8182 11.8481V28.1517C38.8182 31.1373 37.6322 34.0007 35.521 36.1118C33.4099 38.223 30.5465 39.409 27.5609 39.409H11.2573C5.04636 39.409 0 34.3626 0 28.1517V11.8481C0 8.86248 1.18603 5.99915 3.29718 3.888C5.40833 1.77685 8.27166 0.59082 11.2573 0.59082ZM10.8691 4.47264C9.01595 4.47264 7.23871 5.2088 5.92834 6.51916C4.61797 7.82953 3.88182 9.60677 3.88182 11.4599V28.5399C3.88182 32.4023 7.00668 35.5272 10.8691 35.5272H27.9491C29.8022 35.5272 31.5795 34.791 32.8898 33.4807C34.2002 32.1703 34.9364 30.393 34.9364 28.5399V11.4599C34.9364 7.5975 31.8115 4.47264 27.9491 4.47264H10.8691ZM29.5989 7.384C30.2423 7.384 30.8594 7.63961 31.3144 8.0946C31.7694 8.54959 32.025 9.16669 32.025 9.81014C32.025 10.4536 31.7694 11.0707 31.3144 11.5257C30.8594 11.9807 30.2423 12.2363 29.5989 12.2363C28.9554 12.2363 28.3383 11.9807 27.8833 11.5257C27.4283 11.0707 27.1727 10.4536 27.1727 9.81014C27.1727 9.16669 27.4283 8.54959 27.8833 8.0946C28.3383 7.63961 28.9554 7.384 29.5989 7.384ZM19.4091 10.2954C21.9829 10.2954 24.4513 11.3178 26.2712 13.1378C28.0912 14.9577 29.1136 17.4261 29.1136 19.9999C29.1136 22.5737 28.0912 25.0421 26.2712 26.8621C24.4513 28.682 21.9829 29.7045 19.4091 29.7045C16.8353 29.7045 14.3669 28.682 12.5469 26.8621C10.727 25.0421 9.70455 22.5737 9.70455 19.9999C9.70455 17.4261 10.727 14.9577 12.5469 13.1378C14.3669 11.3178 16.8353 10.2954 19.4091 10.2954ZM19.4091 14.1772C17.8648 14.1772 16.3838 14.7906 15.2918 15.8826C14.1998 16.9746 13.5864 18.4556 13.5864 19.9999C13.5864 21.5442 14.1998 23.0252 15.2918 24.1172C16.3838 25.2092 17.8648 25.8226 19.4091 25.8226C20.9534 25.8226 22.4344 25.2092 23.5264 24.1172C24.6184 23.0252 25.2318 21.5442 25.2318 19.9999C25.2318 18.4556 24.6184 16.9746 23.5264 15.8826C22.4344 14.7906 20.9534 14.1772 19.4091 14.1772Z" fill="white"/>
</svg>
