<svg width="209" height="42" viewBox="0 0 209 42" fill="none" xmlns="http://www.w3.org/2000/svg">
<path d="M11.2573 0.59082H27.5609C33.7718 0.59082 38.8182 5.63718 38.8182 11.8481V28.1517C38.8182 31.1373 37.6322 34.0007 35.521 36.1118C33.4099 38.223 30.5465 39.409 27.5609 39.409H11.2573C5.04636 39.409 0 34.3626 0 28.1517V11.8481C0 8.86248 1.18603 5.99915 3.29718 3.888C5.40833 1.77685 8.27166 0.59082 11.2573 0.59082ZM10.8691 4.47264C9.01595 4.47264 7.23871 5.2088 5.92834 6.51916C4.61798 7.82953 3.88182 9.60677 3.88182 11.4599V28.5399C3.88182 32.4023 7.00668 35.5272 10.8691 35.5272H27.9491C29.8022 35.5272 31.5795 34.791 32.8898 33.4807C34.2002 32.1703 34.9364 30.393 34.9364 28.5399V11.4599C34.9364 7.5975 31.8115 4.47264 27.9491 4.47264H10.8691ZM29.5989 7.384C30.2423 7.384 30.8594 7.63961 31.3144 8.0946C31.7694 8.54959 32.025 9.16669 32.025 9.81014C32.025 10.4536 31.7694 11.0707 31.3144 11.5257C30.8594 11.9807 30.2423 12.2363 29.5989 12.2363C28.9554 12.2363 28.3383 11.9807 27.8833 11.5257C27.4283 11.0707 27.1727 10.4536 27.1727 9.81014C27.1727 9.16669 27.4283 8.54959 27.8833 8.0946C28.3383 7.63961 28.9554 7.384 29.5989 7.384ZM19.4091 10.2954C21.9829 10.2954 24.4513 11.3178 26.2712 13.1378C28.0912 14.9577 29.1136 17.4261 29.1136 19.9999C29.1136 22.5737 28.0912 25.0421 26.2712 26.8621C24.4513 28.682 21.9829 29.7045 19.4091 29.7045C16.8353 29.7045 14.3669 28.682 12.5469 26.8621C10.727 25.0421 9.70455 22.5737 9.70455 19.9999C9.70455 17.4261 10.727 14.9577 12.5469 13.1378C14.3669 11.3178 16.8353 10.2954 19.4091 10.2954ZM19.4091 14.1772C17.8648 14.1772 16.3838 14.7906 15.2918 15.8826C14.1998 16.9746 13.5864 18.4556 13.5864 19.9999C13.5864 21.5442 14.1998 23.0252 15.2918 24.1172C16.3838 25.2092 17.8648 25.8226 19.4091 25.8226C20.9534 25.8226 22.4344 25.2092 23.5264 24.1172C24.6184 23.0252 25.2318 21.5442 25.2318 19.9999C25.2318 18.4556 24.6184 16.9746 23.5264 15.8826C22.4344 14.7906 20.9534 14.1772 19.4091 14.1772Z" fill="white"/>
<path fill-rule="evenodd" clip-rule="evenodd" d="M88.5639 39.4088C88.342 39.4082 88.1224 39.3638 87.9176 39.2783C87.7129 39.1928 87.5269 39.0678 87.3705 38.9105C87.214 38.7531 87.09 38.5665 87.0057 38.3612C86.9214 38.156 86.8783 37.9361 86.8789 37.7142V5.9822C86.8789 5.0459 87.6332 4.2876 88.5639 4.2876H120.316C121.246 4.2876 122 5.0459 122 5.9822V37.7142C122.001 37.9361 121.958 38.156 121.873 38.3612C121.789 38.5665 121.665 38.7531 121.509 38.9105C121.352 39.0678 121.166 39.1928 120.961 39.2783C120.757 39.3638 120.537 39.4082 120.315 39.4088H88.5639Z" stroke="white" stroke-width="4" stroke-linecap="round" stroke-linejoin="round"/>
<path fill-rule="evenodd" clip-rule="evenodd" d="M116.143 16.9686H112.256C111.739 16.9688 111.243 17.1744 110.877 17.5403C110.511 17.9061 110.305 18.4021 110.305 18.9195V22.8227H116.143L115.288 28.6752H110.305V39.4087H103.886V28.6752H98.5859V22.8235H103.817L103.886 17.2688L103.867 15.278C103.86 14.6056 103.987 13.9385 104.24 13.3153C104.493 12.6922 104.867 12.1253 105.34 11.6475C105.813 11.1697 106.377 10.7904 106.997 10.5315C107.618 10.2726 108.284 10.1392 108.956 10.1392H116.143V16.9686Z" fill="white"/>
<path d="M170 37.1162V5.88518C170.03 5.81897 170.056 5.75059 170.076 5.68061C170.334 4.47155 170.946 3.4724 171.985 2.81673C172.56 2.45493 173.246 2.26639 173.881 2H205.116C205.169 2.03124 205.225 2.05683 205.283 2.07633C207.532 2.55263 209.001 4.36622 209.001 6.66374C209.001 16.5866 209.001 26.5115 209.001 36.4384C209.003 37.0387 208.886 37.6335 208.657 38.1884C208.428 38.7434 208.092 39.2477 207.667 39.6722C207.243 40.0967 206.739 40.4331 206.184 40.662C205.629 40.8909 205.034 41.0078 204.434 41.006C194.471 41.006 184.507 41.006 174.544 41.006C173.022 41.006 171.815 40.3465 170.887 39.1519C170.422 38.5413 170.202 37.8337 170 37.1162ZM189.471 37.9559H204.132C205.363 37.9559 205.958 37.3658 205.958 36.1446V6.85915C205.958 5.63329 205.367 5.04403 204.137 5.04403H174.853C173.646 5.04403 173.047 5.63711 173.047 6.83548C173.047 16.6098 173.047 26.3838 173.047 36.1575C173.047 37.3574 173.646 37.9543 174.849 37.9543L189.471 37.9559Z" fill="white"/>
<path d="M185.55 34.194V17.0358H190.701V19.2135C190.768 19.1807 190.805 19.1746 190.82 19.1524C191.836 17.5976 193.343 16.8778 195.13 16.7236C196.466 16.6076 197.793 16.7236 199.038 17.2961C200.557 17.9884 201.396 19.2402 201.743 20.8073C201.975 21.8193 202.104 22.8522 202.128 23.8902C202.176 27.2411 202.148 30.5927 202.149 33.9436V34.194H196.893V33.7841C196.893 31.169 196.911 28.554 196.883 25.9397C196.884 25.0786 196.807 24.2192 196.654 23.3719C196.33 21.7148 195.157 21.1095 193.591 21.3034C191.993 21.5019 191.133 22.3812 190.875 24.0162C190.778 24.617 190.727 25.2243 190.722 25.8328C190.706 28.473 190.715 31.1133 190.715 33.7535V34.194H185.55Z" fill="white"/>
<path d="M182.163 34.2035H176.876V17.0354H182.163V34.2035Z" fill="white"/>
<path d="M179.605 14.6423C178.986 14.6443 178.381 14.4625 177.866 14.1201C177.351 13.7776 176.949 13.2899 176.711 12.7188C176.474 12.1476 176.411 11.5188 176.531 10.912C176.651 10.3052 176.949 9.74775 177.387 9.31033C177.824 8.87292 178.381 8.57524 178.988 8.45504C179.595 8.33484 180.224 8.39753 180.795 8.63516C181.366 8.87279 181.854 9.27467 182.196 9.78982C182.539 10.305 182.721 10.9102 182.719 11.5288C182.72 11.938 182.64 12.3434 182.484 12.7216C182.328 13.0999 182.098 13.4435 181.809 13.7329C181.52 14.0222 181.176 14.2515 180.798 14.4076C180.42 14.5636 180.014 14.6434 179.605 14.6423Z" fill="white"/>
</svg>
