<svg width="140" height="140" viewBox="0 0 140 140" fill="none" xmlns="http://www.w3.org/2000/svg">
<g clip-path="url(#clip0_852_80)">
<path d="M70 140C108.66 140 140 108.66 140 70C140 31.3401 108.66 0 70 0C31.3401 0 0 31.3401 0 70C0 108.66 31.3401 140 70 140Z" fill="#1E3B6C"/>
<path d="M86.7415 104.737C86.9179 105.815 87.6654 106.705 87.5996 107.89C87.503 109.668 86.2697 111.058 84.4833 111.082C83.8687 111.082 83.6825 111.187 83.8533 111.845C84.3573 113.789 83.1701 115.345 81.1583 115.418C80.7145 115.434 80.2888 115.373 80.3546 116.043C80.601 118.579 78.13 119.441 76.1868 118.775C75.5442 118.555 75.2965 118.495 75.2489 119.335C75.1229 121.526 72.7289 122.796 70.4959 121.9C69.9625 121.685 69.3982 121.48 68.9852 121.039C69.7146 120.315 70.6653 119.804 71.1539 118.846C71.6327 117.914 72.1563 116.918 71.5039 115.929C70.8039 114.863 69.6642 114.515 68.4322 114.758C67.5628 114.93 67.6272 114.459 67.6328 113.893C67.6552 111.584 66.6739 110.518 64.3639 110.364C63.9159 110.334 63.7605 110.207 63.7311 109.741C63.5911 107.522 63.0044 106.932 60.854 106.831C60.4214 106.812 60.2394 106.722 60.1918 106.242C59.9832 104.12 58.1982 102.939 56.1234 103.387C54.8886 103.653 54.0459 104.523 53.0127 105.097C50.9645 102.749 48.9008 100.415 46.8722 98.0505C44.1478 94.8707 41.4384 91.6786 38.7439 88.4745C36.1903 85.4505 33.617 82.4419 31.4302 79.1295C28.2942 74.3807 25.91 69.2805 24.5702 63.7449C23.4782 59.2215 23.1702 54.6449 24.4484 50.0823C25.2072 47.3649 26.6086 45.0241 28.4944 42.9563C31.468 39.6943 34.863 37.0231 39.084 35.5587C42.4857 34.3564 46.1241 33.9783 49.7002 34.4555C55.4024 35.1961 60.4956 37.3241 65.1884 40.5399C66.4644 41.4336 67.6803 42.4101 68.8284 43.4631C69.0958 43.7039 69.3479 43.9573 69.7259 44.0119C69.778 44.2656 69.9111 44.4956 70.1052 44.6671C71.3582 45.7871 72.6252 46.9071 73.8278 48.0901C77.0478 51.2611 80.2202 54.4685 83.4178 57.6563C83.7132 57.9503 83.954 58.3199 84.3978 58.4389C84.4272 58.8253 84.6905 59.0675 84.9355 59.3265C85.5095 59.9369 86.0764 60.5529 86.6462 61.1675L91.3027 66.1963C91.2328 66.375 91.1504 66.5485 91.0562 66.7157C88.5362 70.5671 85.8608 74.3107 82.9852 77.9059C81.9002 79.2625 80.9147 80.7059 79.5665 81.8413C77.3671 79.1631 75.0738 76.5689 72.5552 74.1875C71.8804 73.5491 71.3037 72.7777 70.4105 72.3955C70.1305 71.6647 69.4739 71.2517 68.9377 70.7547C65.1717 67.2547 61.2629 63.9073 57.8511 60.0391C57.5389 59.6849 57.2645 59.2509 56.7493 59.1249C56.7129 59.0012 56.6581 58.8837 56.5868 58.7763C54.6884 56.7337 51.7848 55.6543 48.8112 56.7295C47.1718 57.3231 46.2549 58.8029 46.6455 60.1833C47.1817 62.0761 47.7122 63.9829 48.5662 65.7581C48.9722 66.5981 49.1262 67.6313 50.0194 68.1983C50.1594 69.4583 51.0219 70.3767 51.6771 71.3497C54.061 74.9195 56.8709 78.1855 60.0449 81.0755C61.0165 81.9561 61.8102 83.0915 63.094 83.6095C63.2242 84.0435 63.591 84.2647 63.9144 84.5321C65.8287 86.1141 67.7397 87.7008 69.6474 89.2921C69.601 89.5176 69.4678 89.7157 69.2765 89.8437C68.2069 90.6837 67.1135 91.4999 66.0761 92.3791C64.4353 93.7679 62.8938 95.2477 62.1294 97.3421C61.6534 98.6413 62.2807 99.8243 63.6093 100.219C64.5389 100.499 65.4069 100.348 66.2693 99.9965C68.7893 98.9605 70.8612 97.2091 73.0424 95.6481C74.539 94.5757 75.9517 94.4427 77.3055 95.5081C80.2259 97.8083 82.7501 100.524 85.3527 103.161C85.8413 103.662 86.0065 104.451 86.7415 104.737Z" fill="#EB600A"/>
<path d="M84.3981 58.4417C83.9599 58.3227 83.7191 57.9531 83.4181 57.6591C80.2205 54.4713 77.0411 51.2639 73.8281 48.0929C72.6283 46.9099 71.3585 45.7969 70.1055 44.6699C69.9114 44.4983 69.7782 44.2684 69.7261 44.0147C72.2461 41.5969 75.0027 39.5123 78.1163 37.9149C80.7044 36.5723 83.4461 35.5493 86.2811 34.8685C89.4185 34.1251 92.5811 33.6281 95.8095 33.8087C99.7421 34.0285 103.539 34.8825 106.819 37.1967C109.821 39.3135 112.041 42.1317 113.62 45.4483C115.666 49.7449 116.482 54.2977 116.262 59.0185C116.039 63.8093 114.607 68.2823 112.388 72.5187C109.93 77.2101 106.661 81.3107 103.185 85.2587C99.4761 89.4755 95.5309 93.4837 91.9847 97.8461C90.1647 100.086 88.4777 102.432 86.7305 104.731C85.9955 104.451 85.8303 103.656 85.3305 103.155C82.7279 100.519 80.2037 97.8027 77.2833 95.5025C75.9295 94.4371 74.5169 94.5701 73.0203 95.6425C70.8391 97.2035 68.7685 98.9549 66.2471 99.9909C65.3889 100.342 64.5209 100.489 63.5871 100.213C62.2585 99.8187 61.6271 98.6357 62.1073 97.3365C62.8717 95.2365 64.4131 93.7623 66.0539 92.3735C67.0913 91.4943 68.1847 90.6809 69.2543 89.8381C69.35 89.7738 69.432 89.6912 69.4956 89.5951C69.5593 89.499 69.6034 89.3913 69.6253 89.2781C69.8795 89.242 70.1204 89.1418 70.3253 88.9869C72.2447 87.6639 74.0969 86.2485 76.1003 85.0403C77.4471 84.2297 78.7295 83.2595 79.5401 81.8315C80.8883 80.7017 81.8739 79.2527 82.9589 77.8961C85.8345 74.3009 88.5071 70.5573 91.0299 66.7059C91.124 66.5387 91.2064 66.3651 91.2763 66.1865C93.0179 64.8313 93.6787 60.6999 92.4887 58.6881C91.8755 57.6521 91.1573 56.8261 89.8623 56.5881C87.6937 56.2003 86.0263 57.2279 84.3981 58.4417Z" fill="white"/>
<path d="M53.0126 105.099C54.0458 104.525 54.8885 103.656 56.1233 103.39C58.1981 102.942 59.9831 104.122 60.1917 106.245C60.2393 106.725 60.4213 106.814 60.8539 106.834C63.0043 106.935 63.591 107.524 63.731 109.743C63.7604 110.209 63.9158 110.337 64.3638 110.366C66.6738 110.52 67.6551 111.587 67.6327 113.896C67.6327 114.456 67.5627 114.933 68.4321 114.761C69.6641 114.517 70.8024 114.866 71.5038 115.931C72.1562 116.921 71.6326 117.916 71.1538 118.849C70.6624 119.806 69.7145 120.317 68.9851 121.041C67.7139 121.272 66.4315 121.629 65.2233 120.841C64.5303 120.389 64.2013 119.69 64.3973 118.912C64.5513 118.303 64.4155 118.203 63.8499 118.152C62.0803 117.992 60.9813 116.864 60.8371 115.08C60.7979 114.597 60.6762 114.44 60.1904 114.6C58.1464 115.27 56.2816 113.294 56.3516 111.503C56.3754 110.9 56.1457 110.712 55.5605 110.72C54.8605 110.73 54.1605 110.72 53.4507 110.505C51.8995 110.027 51.1491 108.487 52.0227 106.744C52.3083 106.173 52.6808 105.645 53.0126 105.099Z" fill="white"/>
<path d="M56.7494 59.1221C57.2646 59.2481 57.539 59.6821 57.8512 60.0363C61.263 63.9045 65.1718 67.2533 68.9378 70.7519C69.474 71.2489 70.1264 71.6619 70.4106 72.3927C70.0298 72.9527 69.642 73.5127 69.271 74.0839C67.2102 77.2572 65.1512 80.4305 63.0942 83.6039C61.8104 83.0859 61.0166 81.9505 60.045 81.0699C56.8711 78.1798 54.0611 74.9138 51.6772 71.3441C51.022 70.3711 50.1637 69.4541 50.0195 68.1927L56.7494 59.1221Z" fill="white"/>
</g>
<defs>
<clipPath id="clip0_852_80">
<rect width="140" height="140" fill="white"/>
</clipPath>
</defs>
</svg>
