<svg width="140" height="140" viewBox="0 0 140 140" fill="none" xmlns="http://www.w3.org/2000/svg">
<g clip-path="url(#clip0_852_62)">
<path d="M70 140C108.66 140 140 108.66 140 70C140 31.3401 108.66 0 70 0C31.3401 0 0 31.3401 0 70C0 108.66 31.3401 140 70 140Z" fill="#133B6F"/>
<path d="M109.194 95.6297C108.125 93.431 107.089 91.2197 106.038 89.0097C104.214 85.1637 101.342 78.8271 99.6875 74.9067C98.2367 71.4676 96.6526 68.0888 95.2564 64.6259C94.6096 63.0235 93.6007 61.5628 92.7391 60.0488C91.9135 58.5677 91.0052 57.1343 90.0185 55.7552C88.6743 53.9143 87.5517 53.9634 86.1696 55.8338C85.2815 57.0363 84.6262 58.41 83.8264 59.6798C82.485 61.7999 81.0749 63.8808 80.0646 66.1904C79.8162 66.7516 79.537 66.8485 79.1259 66.3714C78.8649 66.0711 78.5226 65.7961 78.3836 65.4439C77.574 63.3967 76.7111 61.3748 75.9141 59.3178C74.546 55.7959 72.8384 52.4424 71.2009 49.051C70.5737 47.7489 69.9928 46.7709 69.2604 45.5179C68.7833 44.7013 68.7103 44.4178 67.78 43.43C67.6411 43.2764 67.5175 43.1096 67.411 42.9319C66.3054 41.0629 65.2095 39.1883 64.0982 37.3193C63.8569 36.9152 63.5636 36.5406 63.2914 36.1547C61.8265 34.0753 60.1189 34.1244 58.8014 36.3231C57.032 39.2613 55.4689 42.3201 53.6799 45.2415C52.0649 47.8794 50.5565 50.5818 49.0719 53.2955C47.217 56.6855 45.2835 60.0306 43.3878 63.3981C40.7939 68.0285 38.2069 72.6635 35.627 77.3033C33.918 80.3902 32.2342 83.4911 30.5757 86.6061C29.5711 88.4793 28.5847 90.3637 27.6516 92.2748C26.6357 94.3543 27.8494 96.2359 30.0467 95.9889C33.5546 95.5947 37.0708 95.5834 40.5885 95.5526C42.6652 95.5343 42.6652 95.5413 41.8093 97.3303C41.7939 97.3626 41.791 97.4019 41.7742 97.4328C40.8243 99.2134 39.8688 100.991 38.923 102.775C38.0601 104.399 37.1901 106.02 36.3581 107.66C35.9708 108.426 35.7491 108.652 36.2584 109.344L36.7762 109.604C37.8804 110.157 39.1056 110.426 40.3402 110.385C47.3629 110.144 54.888 109.707 61.8083 109.559C68.0536 109.418 74.3033 109.409 80.5501 109.323C81.9729 109.303 82.2872 108.746 81.6726 107.479C81.2966 106.703 80.9443 105.918 80.5809 105.136C79.8302 103.52 79.1147 101.886 78.3163 100.295C77.9164 99.4996 78.3162 98.8191 79.2072 98.7966C82.3657 98.7195 85.5214 98.7545 88.6827 98.6367C93.9796 98.4388 99.2835 98.436 104.585 98.356L109.271 98.2817L109.278 98.2648C109.603 97.493 109.612 96.6243 109.303 95.8458C109.258 95.7757 109.225 95.6999 109.194 95.6297ZM96.4898 73.359C96.0489 74.0257 95.5308 74.638 94.9464 75.1831C93.9964 76.0924 93.4716 76.0573 92.6901 74.9235C91.7851 73.6116 90.866 72.3011 90.0943 70.9106C89.4039 69.6618 88.9717 70.7239 88.301 71.3147C87.5454 72.0065 86.8768 72.7877 86.31 73.6411C85.6575 74.591 85.1594 74.7313 84.6121 73.888C84.5125 73.7365 84.4129 73.585 84.3077 73.4362C83.8152 72.7346 83.3255 72.5396 82.7937 73.4138C81.8115 75.0386 80.0533 75.7458 78.6165 76.8234C77.8574 77.3847 77.4744 76.9637 77.5067 75.5479C77.3579 74.7061 77.9599 74.0283 78.3486 73.3254C80.6118 69.245 82.9382 65.1998 85.2492 61.1461C85.983 59.8594 86.7309 58.5811 87.4788 57.3015C88.0078 56.3951 88.3656 56.3782 88.8819 57.2411C91.2182 61.1545 93.6779 65.0005 95.4767 69.2085C95.9047 70.2076 96.2695 71.2333 96.675 72.2421C96.8364 72.6547 96.7227 72.9998 96.4898 73.359Z" fill="#7FB5D6"/>
<path d="M50.5498 54.3228C50.5498 54.3228 50.6199 64.055 51.6849 64.1448C52.7499 64.2346 56.9495 56.1328 58.7006 56.6057C60.4518 57.0786 63.2047 63.1317 64.8562 63.6818C66.5077 64.2318 68.0246 60.303 68.7079 59.2787C69.808 57.6286 70.9094 60.3802 72.5595 59.8287C74.2096 59.2773 69.8079 50.474 69.8079 50.474L62.3011 36.4776C62.3011 36.4776 61.26 35.6455 60.5823 36.1773C59.9046 36.7091 50.9258 52.6685 50.7378 53.4949L50.5498 54.32" fill="#F8F8F8"/>
<path d="M70.4711 85.3433C69.5858 82.2859 67.8556 79.5638 66.2897 76.8206L61.15 67.8125C60.9957 67.5445 60.5285 67.4308 60.3152 67.7058C55.8448 73.4278 52.3663 79.8893 50.329 86.8714C49.814 87.7638 50.0652 89.2342 50.4469 90.0986C51.0264 91.4161 52.3874 90.7132 53.3626 90.1968C54.182 89.7604 54.8219 89.0182 55.4996 88.3966L58.5332 85.6071C58.9836 85.1862 59.42 84.733 59.9153 84.3752C60.1959 84.1703 60.6744 83.9542 61.0308 84.1549C61.237 84.2699 61.3114 84.7723 61.3717 84.9968C61.7366 86.3326 62.0537 87.6838 62.3946 89.0252C62.5153 89.5008 63.1144 89.5065 63.3656 89.1515C64.374 87.7219 65.2326 86.1924 65.9278 84.587L69.8173 85.9902C70.2045 86.1361 70.5778 85.711 70.4711 85.3433Z" fill="white"/>
<path d="M82.7881 73.4083C83.3185 72.5341 83.8096 72.7277 84.3021 73.4307C84.4074 73.5794 84.507 73.731 84.6066 73.8825C85.1538 74.7244 85.652 74.5841 86.3044 73.6356C86.8713 72.7822 87.5399 72.001 88.2955 71.3092C88.9606 70.7184 89.3984 69.6563 90.0887 70.9051C90.7159 72.0374 91.4428 73.1164 92.1794 74.187C93.6578 73.3718 95.0333 72.3826 96.2766 71.2404C96.0156 70.5599 95.7574 69.878 95.4698 69.2087C93.671 64.9992 91.2113 61.1546 88.875 57.2412C88.3601 56.3783 88.0023 56.3994 87.4719 57.3016C86.724 58.5813 85.9761 59.8595 85.2423 61.1462C82.9313 65.1999 80.6049 69.2451 78.3416 73.3255C77.9529 74.027 77.351 74.7118 77.4997 75.548C77.4907 75.8045 77.5029 76.0612 77.5362 76.3156C78.0198 76.4091 78.5057 76.4868 78.994 76.5485C80.3495 75.6098 81.8887 74.8914 82.7881 73.4083Z" fill="#FF5C00"/>
<path d="M67.7805 43.4301C68.7108 44.4123 68.7838 44.7013 69.2609 45.518C69.9933 46.7724 70.5742 47.7489 71.2014 49.0511C72.8388 52.4453 74.5465 55.796 75.9146 59.3179C76.7116 61.3679 77.5745 63.3968 78.3841 65.444C78.5244 65.7962 78.8654 66.0712 79.1264 66.3715C79.5375 66.8485 79.8167 66.7587 80.0651 66.1905C81.0753 63.8809 82.4855 61.8 83.8269 59.6799C84.6295 58.417 85.2819 57.0363 86.1701 55.8338C87.5522 53.9635 88.6748 53.9144 90.019 55.7553C91.0057 57.1343 91.914 58.5678 92.7396 60.0489C93.6011 61.5629 94.6101 63.0236 95.2569 64.6259C95.9823 66.4262 96.7597 68.2026 97.5412 69.9789C100.35 66.9637 102.272 63.2312 103.095 59.193C104.515 52.0776 102.142 44.0082 96.8817 39.549C91.7897 35.2273 84.7319 34.638 78.6142 36.542C74.4555 37.8395 70.7127 40.2111 67.7637 43.4174L67.7805 43.4301Z" fill="#FF5C00"/>
<path d="M77.5017 75.5425C77.3529 74.7006 77.9549 74.0229 78.3435 73.3199C80.6068 69.2396 82.9332 65.1943 85.2442 61.1407C85.978 59.854 86.7259 58.5757 87.4738 57.296C88.0028 56.3896 88.3606 56.3728 88.8769 57.2357C91.2131 61.1491 93.6729 64.9951 95.4717 69.2031C95.8926 70.2022 96.263 71.2279 96.6685 72.2367C96.8369 72.6577 96.7233 73 96.4904 73.3592C96.0495 74.0259 95.5314 74.6381 94.9469 75.1833C93.997 76.0926 93.4722 76.0575 92.6907 74.9237C91.7857 73.6118 90.8666 72.3013 90.0949 70.9107C89.5659 69.9538 89.1842 70.3495 88.7366 70.8602C87.8456 71.8621 86.949 72.8625 86.1127 73.9093C85.5514 74.6108 85.1024 74.6445 84.6127 73.8882C84.5131 73.7367 84.4135 73.5851 84.3083 73.4364C83.8158 72.7348 83.3261 72.5398 82.7943 73.414C81.8121 75.0388 80.0539 75.746 78.6171 76.8236C77.8524 77.3863 77.4694 76.9555 77.5017 75.5425Z" fill="#F8F8F8"/>
</g>
<defs>
<clipPath id="clip0_852_62">
<rect width="140" height="140" fill="white"/>
</clipPath>
</defs>
</svg>
