<svg width="140" height="140" viewBox="0 0 140 140" fill="none" xmlns="http://www.w3.org/2000/svg">
<g clip-path="url(#clip0_852_75)">
<path d="M69.9993 139.999C108.659 139.999 139.999 108.659 139.999 69.9993C139.999 31.3398 108.659 0 69.9993 0C31.3398 0 0 31.3398 0 69.9993C0 108.659 31.3398 139.999 69.9993 139.999Z" fill="#89B3D2"/>
<path d="M112.531 43.2802C112.753 42.2186 112.939 41.3915 113.093 40.5574C113.835 36.6467 114.388 36.3448 118.329 37.068C120.656 37.4893 121.406 38.753 121.027 40.9534C120.167 45.9482 119.342 50.9471 118.489 55.9433C118.079 58.3599 116.623 59.6868 114.231 60.191C109.094 61.2708 104.112 60.4367 99.2056 58.9974C96.9083 58.3234 95.4002 53.0464 96.8704 51.2279C97.8126 50.0625 99.0582 50.6663 100.197 50.8278C104.595 51.4596 105.461 50.4753 103.716 46.3484C98.8995 34.9617 89.9688 28.4392 78.0949 26.2767C63.2469 23.5723 49.6837 26.5464 38.7085 37.5679C32.3573 43.9472 29.6964 52.1421 28.2879 60.8158C28.0254 62.4335 27.7403 64.0104 25.9949 64.8136C22.7091 66.3259 20.0088 64.5931 19.8922 60.8018C19.5777 50.6438 23.15 41.8212 29.1024 33.7625C42.2471 15.9699 60.0313 11.857 80.6463 16.3505C88.8398 18.1352 96.6205 20.9689 102.747 27.1361C106.425 30.8404 108.437 35.4686 110.415 40.1516C110.853 41.1837 110.828 42.5317 112.531 43.2802Z" fill="#FA6802"/>
<path d="M69.532 125.587C62.2302 125.35 53.1338 123.518 44.5639 119.26C37.2102 115.609 31.5568 110.47 28.9605 102.443C28.6214 101.422 28.1875 100.435 27.6644 99.4946C27.2207 98.683 27.1097 97.3012 25.9794 97.3363C24.5274 97.3813 24.7619 98.8992 24.5303 99.8639C23.5557 103.905 23.2061 104.113 19.7981 103.234C18.0934 102.796 17.4418 101.885 17.6482 100.237C18.3194 94.8902 19.1929 89.5809 20.4328 84.3278C20.8779 82.4434 22.0785 81.6683 23.7453 81.2568C28.3791 80.1152 32.9722 80.5463 37.5064 81.7413C40.4707 82.522 41.9634 85.5326 40.9243 88.32C40.3429 89.88 38.9921 89.4546 37.8884 89.4433C31.6818 89.3914 31.5695 89.5051 34.097 95.2132C39.2083 106.753 48.5603 112.726 60.5269 115.321C77.9769 119.104 96.2188 111.656 104.869 97.1201C107.411 92.8559 109.159 88.1657 110.028 83.2775C110.543 80.3834 112.434 79.9074 114.705 80.0184C117.276 80.1433 117.624 81.9955 117.654 84.1664C117.683 86.5689 117.556 88.9645 116.772 91.1958C110.134 110.115 95.4296 125.639 69.532 125.587Z" fill="#1E3B6C"/>
<path d="M77.2103 86.6616C77.0348 87.1531 76.8087 87.6333 76.6978 88.1388C76.5658 88.7482 76.629 89.6118 75.7289 89.4251C74.8288 89.2383 73.5819 89.4855 73.3643 88.0209C73.2384 87.0697 73.0351 86.1305 72.7562 85.2125C72.6046 84.7435 72.1622 84.37 71.8505 83.9487L71.4433 84.0554C71.7171 90.064 71.9924 96.074 72.276 102.29C70.4505 102.29 68.8259 102.306 67.2012 102.29C66.2492 102.278 65.9528 101.684 66.1143 100.84C67.0818 95.7847 66.5132 90.6762 66.5651 85.5916C66.5651 85.1212 66.4247 84.648 66.3503 84.1762L65.8855 84.0358C65.3631 85.0861 64.7537 86.1027 64.3408 87.1938C63.7988 88.6205 63.1389 90.0247 61.6953 90.5723C60.0735 91.1859 58.2143 91.061 56.7118 92.2054C56.431 92.416 55.375 92.1478 55.1756 91.808C54.5437 90.7225 53.843 91.1059 53.3881 91.7041C52.6972 92.6154 51.814 92.8274 50.7974 93.024C49.8144 93.2178 49.5252 92.8443 49.6445 91.9905C49.8187 90.7366 49.1685 90.6453 48.222 90.9009C48.0999 90.9346 47.9749 91.0188 47.8612 91.0034C47.3416 90.9374 46.8263 90.8447 46.3096 90.7605C46.5806 90.1904 46.8178 89.6006 47.1394 89.0614C47.2489 88.8774 47.5607 88.7805 47.7966 88.7089C51.4307 87.5856 54.2559 85.1535 57.1682 82.8647C59.6826 80.8847 62.176 78.8767 64.6483 76.8406C65.3908 76.2225 66.0611 75.5225 66.6465 74.754C67.1506 74.0954 66.787 73.4804 66.0301 73.6447C65.1876 73.8272 64.3605 74.3061 63.6247 74.8003C63.2034 75.0812 62.9802 75.6723 62.6417 76.0964C61.7234 77.2198 60.7882 77.5231 59.5343 76.8154C58.1455 76.0318 57.0559 76.2537 56.0673 77.3981C55.2248 78.381 54.43 78.3516 53.3235 77.6509C52.5456 77.1594 51.4475 77.1903 50.5151 76.9305C49.9984 76.7901 49.5139 76.5275 49.014 76.3211C49.3749 75.9097 49.667 75.2413 50.1037 75.1275C55.1153 73.8272 58.9277 70.4937 63.0068 67.6179C64.7705 66.3751 67.4231 62.4518 67.6197 60.6516C65.731 61.8466 63.9687 62.9573 62.2135 64.0723C61.5212 64.5104 60.8514 64.853 59.9836 64.4219C59.7463 64.304 59.2815 64.5258 58.974 64.6887C58.3801 65.0018 57.8506 65.4737 57.2356 65.7025C56.8916 65.8289 56.3706 65.6871 56.0083 65.5088C55.3919 65.2027 54.8359 64.773 53.954 64.2C54.1646 63.8799 54.43 63.0626 54.9931 62.6877C57.2272 61.1951 59.5905 59.8962 61.826 58.4049C62.686 57.8134 63.4228 57.0604 63.9954 56.1877C64.7509 55.0489 65.2775 53.757 65.6973 52.3753C65.1061 52.7853 64.529 53.2178 63.9168 53.5941C63.6359 53.764 63.2722 53.9396 62.9717 53.9031C61.7431 53.7542 60.6225 53.9031 59.5848 54.6473C59.384 54.7877 58.8574 54.7315 58.6426 54.5616C57.8464 53.9311 57.1177 53.215 56.1684 52.3542C61.8962 48.3228 66.735 43.3238 69.8804 36.8196L70.341 36.9235C70.6036 37.5498 71.0094 38.1536 71.1063 38.8037C71.9657 44.6115 76.2878 47.7442 80.5018 50.9079C81.4665 51.6325 82.8159 51.8431 84.2608 52.3936C83.6135 52.7053 83.1178 53.0619 82.5758 53.1799C81.2783 53.4607 79.9598 53.6433 78.6441 53.8314C78.1091 53.9087 77.5628 53.9003 76.9337 53.9368C76.8902 52.7067 76.2217 52.5649 75.3118 52.9538C74.5381 53.2838 74.1885 52.9356 73.836 52.27C73.5945 51.8052 73.1339 51.4541 72.7688 51.0511L72.3911 51.2351C72.4136 51.5707 72.3322 51.9625 72.4754 52.2321C73.0876 53.3793 73.5609 54.7049 74.4638 55.5684C76.4928 57.5076 78.6483 59.3303 81.4145 60.2599C83.2288 60.8693 84.9685 61.7034 86.7224 62.4308C85.7619 63.967 82.8229 63.9754 80.1788 62.1654C79.9808 62.7425 79.7968 63.2536 79.6325 63.7718C79.457 64.325 79.3026 64.8853 79.1228 65.4947C77.9602 65.3248 77.0165 65.0735 76.4549 63.9979C75.9901 63.1244 75.2445 62.6695 74.1717 62.7341C73.7392 62.7565 73.2645 62.4715 72.8531 62.2468C72.3673 61.9814 71.9278 61.6304 71.4686 61.3172L71.0473 61.5868C71.4208 62.6147 71.6455 63.731 72.1959 64.6522C73.7504 67.2542 75.7331 69.3633 78.6244 70.6622C82.2598 72.2981 85.7577 74.2415 89.285 76.1077C90.0026 76.4882 90.5881 77.1173 91.4657 77.8152C89.5364 78.1409 87.944 79.1576 86.3741 77.5975C86.1144 77.3391 85.5091 77.3827 85.0612 77.3714C84.5192 77.356 83.9477 77.5512 83.4351 77.4416C82.1896 77.1791 80.989 76.7817 80.1016 78.1887C80.0342 78.2954 79.2113 78.1171 78.9445 77.8587C78.6412 77.5638 78.6314 76.9895 78.3828 76.6132C78.0627 76.1343 77.6513 75.3831 77.2412 75.3578C75.7289 75.2637 74.6168 74.5279 73.5032 73.6377C73.2224 73.4116 72.6986 73.4186 72.2886 73.4256C70.7173 73.4579 70.4253 73.9873 71.0937 75.3775C71.7271 76.7131 72.7101 77.8523 73.9385 78.6745C75.6657 79.8625 77.2117 81.3285 78.9937 82.4195C80.7756 83.5106 82.8032 84.1832 84.6231 85.2181C87.7601 87.0014 90.692 89.1962 94.423 89.6666C94.5999 89.6891 94.7572 89.8674 95.0408 90.0471C94.8007 90.1763 94.673 90.3055 94.5438 90.3069C92.1567 90.3294 89.7583 90.328 87.3655 90.3518C86.5848 90.3589 85.651 90.269 86.2773 91.6044C85.1286 91.7687 84.4293 91.3952 83.935 90.526C83.73 90.1651 83.4098 89.8688 83.143 89.543C82.8748 89.9292 82.6067 90.3139 82.3399 90.7015C82.2711 90.804 82.2093 90.9135 82.1601 90.995C79.6761 90.5737 78.3112 88.9533 77.7173 86.5015L77.2103 86.6616Z" fill="#FEFEFE"/>
</g>
<defs>
<clipPath id="clip0_852_75">
<rect width="140" height="140" fill="white"/>
</clipPath>
</defs>
</svg>
