<svg width="127" height="93" viewBox="0 0 127 93" fill="none" xmlns="http://www.w3.org/2000/svg">
<g id="Layer 1 (5) 1">
<path id="Vector" d="M38.1612 2.83314H30.4131V0.0369263H49.2722V2.83314H41.4871V25.1166H38.1612V2.83314Z" fill="white"/>
<path id="Vector_2" d="M51.7363 0.0369263H55.0622V9.69434H55.1361C55.6658 8.74585 56.5034 7.92053 57.5259 7.3539C58.499 6.78726 59.6692 6.4054 60.9257 6.4054C63.377 6.4054 67.3065 7.92053 67.3065 14.2274V25.1166H63.9806V14.6093C63.9806 11.6652 62.8842 9.16466 59.7554 9.16466C57.5998 9.16466 55.8999 10.6798 55.284 12.4906C55.0992 12.9463 55.0622 13.4391 55.0622 14.0796V25.1166H51.7363V0.0369263Z" fill="white"/>
<path id="Vector_3" fill-rule="evenodd" clip-rule="evenodd" d="M74.5736 16.5802C74.6475 21.0764 77.5176 22.9241 80.8435 22.9241C83.2209 22.9241 84.6621 22.5176 85.9063 21.9879L86.4729 24.3653C85.3027 24.895 83.3071 25.4986 80.3877 25.4986C74.7584 25.4986 71.3955 21.7908 71.3955 16.2723C71.3955 10.7538 74.6475 6.40546 79.9812 6.40546C85.9432 6.40546 87.5323 11.6653 87.5323 15.0282C87.5323 15.7057 87.4584 16.2353 87.4214 16.5802H74.5736ZM84.3295 14.1905C84.3665 12.0841 83.455 8.79518 79.7226 8.79518C76.3474 8.79518 74.8815 11.887 74.6105 14.1905H84.3295Z" fill="white"/>
<path id="Vector_4" fill-rule="evenodd" clip-rule="evenodd" d="M32.1748 27.7528H45.3675C52.0193 27.7528 53.7192 31.9163 53.7192 34.7125C53.7192 38.6051 51.5266 39.7014 50.3933 40.268C53.7192 41.5245 54.5938 44.1606 54.5938 46.8459C54.5938 49.0016 53.6823 51.0464 52.241 52.4507C50.7013 53.9535 49.2231 54.902 43.6676 54.902H32.1748V27.7528ZM37.6194 38.371H44.2712C46.5008 38.371 48.2746 37.5088 48.2746 35.3531C48.2746 33.1235 46.6856 32.446 44.1234 32.446H37.6194V38.371ZM37.6194 50.1964H44.5668C47.3261 50.1964 48.9152 48.9893 48.9152 46.23C48.9152 43.8526 46.8827 42.9411 44.8378 42.9411H37.6194V50.1964Z" fill="white"/>
<path id="Vector_5" fill-rule="evenodd" clip-rule="evenodd" d="M74.8206 49.0015C73.4163 53.8426 69.4129 55.4316 65.9639 55.4316C60.2975 55.4316 55.9492 52.7093 55.9492 44.4315C55.9492 42.0048 56.7869 34.2567 65.5943 34.2567C69.5608 34.2567 75.0423 36.1537 75.0423 45.3431V46.2792H61.246C61.3938 47.7944 61.7018 51.1942 65.9639 51.1942C67.442 51.1942 68.9572 50.4428 69.376 49.0015H74.8206ZM69.5977 42.8425C69.3021 39.5905 67.2203 38.605 65.5204 38.605C63.0198 38.605 61.7018 40.1941 61.3938 42.8425H69.5977Z" fill="white"/>
<path id="Vector_6" fill-rule="evenodd" clip-rule="evenodd" d="M93.3345 50.9724C93.3345 53.3498 93.8642 53.8795 94.517 54.1136V54.9019H88.8014C88.5058 53.9534 88.4196 53.6578 88.3087 52.5245C87.1015 53.7686 85.4016 55.4316 81.8047 55.4316C78.7868 55.4316 75.6826 53.7317 75.6826 49.5682C75.6826 45.6387 78.1832 43.6308 81.546 43.1504L86.3132 42.4237C87.1385 42.3128 88.1609 41.9679 88.1609 40.8346C88.1609 38.605 86.0422 38.4942 84.6872 38.4942C82.0388 38.4942 81.583 40.1202 81.4352 41.2904H76.3232C76.9267 35.1313 81.2011 34.2567 85.3277 34.2567C88.1609 34.2567 93.3345 35.1313 93.3345 40.0832V50.9724ZM88.1609 45.109C87.6312 45.5278 86.7566 45.8727 84.564 46.2053C82.6054 46.5502 80.9794 47.043 80.9794 49.2356C80.9794 51.0833 82.4206 51.6499 83.4307 51.6499C85.7835 51.6499 88.1609 50.1348 88.1609 47.6835V45.109Z" fill="white"/>
<path id="Vector_7" d="M101.993 54.902H96.709V27.7528H101.993V54.902Z" fill="white"/>
<path id="Vector_8" d="M43.1996 69.4866H54.5323V84.1206H50.7506L50.184 80.7208C48.7551 82.3837 46.6733 84.835 41.7214 84.835C35.1805 84.835 29.2432 80.1541 29.2432 70.6199C29.2432 63.2167 33.3697 56.22 42.5098 56.2569C50.8369 56.2569 54.1258 61.6646 54.4214 65.4093H48.7551C48.7551 64.3499 46.8211 60.9501 42.8178 60.9501C38.7774 60.9501 35.0327 63.7464 35.0327 70.6938C35.0327 78.1093 39.073 80.031 42.9286 80.031C44.1727 80.031 48.3363 79.5505 49.5065 74.069H43.1996V69.4866Z" fill="white"/>
<path id="Vector_9" d="M56.3926 64.0051H61.4553V67.4911H61.5292C62.6256 65.4463 63.8327 63.4754 67.0478 63.4754C67.3927 63.4754 67.7253 63.5123 68.0702 63.5493V68.92C67.6144 68.8461 67.0478 68.8461 66.555 68.8461C62.4408 68.8461 61.6771 71.4206 61.6771 73.6502V84.1206H56.3926V64.0051Z" fill="white"/>
<path id="Vector_10" fill-rule="evenodd" clip-rule="evenodd" d="M76.4589 84.6503C71.0512 84.6503 66.1855 81.3244 66.1855 74.069C66.1855 66.8013 71.0512 63.4754 76.4589 63.4754C81.8665 63.4754 86.7445 66.8013 86.7445 74.069C86.7445 81.3244 81.8665 84.6503 76.4589 84.6503ZM76.4589 67.9345C72.3816 67.9345 71.6302 71.4945 71.6302 74.069C71.6302 76.6311 72.3816 80.1911 76.4589 80.1911C80.5485 80.1911 81.2999 76.6311 81.2999 74.069C81.2999 71.4945 80.5485 67.9345 76.4589 67.9345Z" fill="white"/>
<path id="Vector_11" d="M105.579 84.1206H100.504V81.2874H100.43C99.2228 83.4431 97.1041 84.6502 94.3079 84.6502C90.3414 84.6502 87.459 82.3837 87.459 77.2347V64.005H92.7558V76.4833C92.7558 79.5875 94.5666 80.1911 96.1925 80.1911C97.9417 80.1911 100.282 79.2056 100.282 75.6087V64.005H105.579V84.1206Z" fill="white"/>
<path id="Vector_12" fill-rule="evenodd" clip-rule="evenodd" d="M112.452 66.9245H112.526C113.512 65.3354 114.99 63.4754 118.538 63.4754C122.96 63.4754 126.889 66.8752 126.889 73.8349C126.889 79.3535 124.401 84.6503 118.427 84.6503C114.719 84.6503 113.401 82.6424 112.76 81.5461H112.674V91.9426H107.39V64.0051H112.452V66.9245ZM117.109 80.3143C120.508 80.3143 121.445 76.6065 121.445 74.2291C121.445 71.051 120.311 68.0577 116.949 68.0577C113.327 68.0577 112.452 71.3097 112.452 74.5247C112.452 77.5181 113.733 80.3143 117.109 80.3143Z" fill="white"/>
<path id="Vector_13" d="M27.8764 84.1082H22.1484V0.0369263H27.8764V84.1082Z" fill="white"/>
<path id="Vector_14" d="M10.9879 22.7762C17.0018 22.7762 21.8771 17.9065 21.8771 11.8993C21.8771 5.89216 17.0018 1.0224 10.9879 1.0224C4.97391 1.0224 0.0986328 5.89216 0.0986328 11.8993C0.0986328 17.9065 4.97391 22.7762 10.9879 22.7762Z" fill="#FF9639"/>
<path id="Vector_15" d="M10.9879 22.7762C17.0018 22.7762 21.8771 17.9065 21.8771 11.8993C21.8771 5.89216 17.0018 1.0224 10.9879 1.0224C4.97391 1.0224 0.0986328 5.89216 0.0986328 11.8993C0.0986328 17.9065 4.97391 22.7762 10.9879 22.7762Z" fill="#FF9639"/>
</g>
</svg>
